<svg width="171" height="175" viewBox="0 0 171 175" fill="none" xmlns="http://www.w3.org/2000/svg">
<g id="Group" opacity="0.05">
<path id="Vector" d="M28.5439 114.754C28.5439 114.754 30.3308 116.964 30.5992 119.592C30.5992 119.592 33.8729 117.003 37.9844 118.738L37.9856 118.736C33.8733 117.001 33.3562 112.812 33.3562 112.812C31.3412 114.477 28.5443 114.752 28.5443 114.752L28.5439 114.754Z" fill="#6849FF"/>
<path id="Vector_2" d="M146.909 158.463L146.908 158.462C146.902 158.456 145.758 157.389 144.696 154.953C143.848 153.009 144.103 150.582 144.103 150.582C143.454 151.127 141.943 153.197 141.235 154.187L141.211 154.17C141.211 154.17 141.131 154.301 141 154.518C140.911 154.644 140.855 154.723 140.855 154.723L140.87 154.733C140.243 155.779 138.944 157.992 138.699 158.812C138.699 158.812 140.802 157.643 142.889 157.697C145.503 157.764 146.897 158.456 146.907 158.462L146.909 158.463Z" fill="#6849FF"/>
<path id="Vector_3" d="M134.281 167.058C122.277 167.097 106.475 164.109 96.1832 159.373C108.301 158.631 125.597 163.583 134.353 166.723C134.665 165.25 135.059 163.79 135.546 162.355L115.688 155.174C100.108 148.508 93.2346 158.744 93.2346 158.744C93.2346 158.744 96.1154 171.223 112.599 170.622L133.6 172.02C133.721 170.356 133.948 168.697 134.281 167.058Z" fill="#6849FF"/>
<path id="Vector_4" d="M61.9675 63.7975C61.9675 63.7975 62.7884 66.5352 62.0489 69.0685C62.0489 69.0685 66.0469 67.9526 69.194 71.1584L69.1952 71.1568C66.0485 67.9509 67.1436 63.8791 67.1436 63.8791C64.6571 64.6324 61.9695 63.7962 61.9695 63.7962L61.9675 63.7975Z" fill="#6849FF"/>
<path id="Vector_5" d="M154.901 150.319C154.896 150.309 154.242 148.878 154.176 146.215C154.123 144.089 155.271 141.947 155.271 141.947C154.466 142.197 152.292 143.52 151.266 144.159L151.251 144.134C151.251 144.134 151.128 144.224 150.924 144.374C150.795 144.455 150.714 144.507 150.714 144.507L150.725 144.521C149.751 145.243 147.72 146.782 147.185 147.444C147.185 147.444 149.568 147.184 151.476 148.047C153.864 149.127 154.892 150.309 154.901 150.319Z" fill="#6849FF"/>
<path id="Vector_6" d="M105.209 129.657C105.209 129.657 103.182 142.308 118.637 148.179L137.514 157.658C138.251 156.167 139.083 154.724 140.007 153.338C128.902 148.695 115.425 139.775 107.696 131.387C119.171 135.426 133.29 146.743 140.199 153.057C141.042 151.817 141.954 150.623 142.943 149.487L127.294 135.111C115.404 122.88 105.209 129.657 105.209 129.657Z" fill="#6849FF"/>
<path id="Vector_7" d="M111.99 29.7485C111.99 29.7485 111.72 32.5976 110.085 34.6498C110.085 34.6498 114.198 35.177 115.901 39.3656L115.903 39.3644C114.2 35.1762 116.741 31.841 116.741 31.841C114.161 31.5675 111.992 29.7473 111.992 29.7473L111.99 29.7485Z" fill="#6849FF"/>
<path id="Vector_8" d="M164.297 138.775C164.297 138.775 164.148 138.81 163.904 138.869C163.754 138.894 163.661 138.91 163.661 138.91L163.665 138.927C162.495 139.215 160.041 139.844 159.298 140.247C159.298 140.247 161.597 140.936 163.035 142.477C164.833 144.403 165.339 145.893 165.345 145.911L165.347 145.914L165.347 145.913L165.347 145.911C165.345 145.896 165.28 144.321 166.218 141.838C166.968 139.853 168.833 138.321 168.833 138.321C167.995 138.238 165.491 138.613 164.301 138.804L164.297 138.775Z" fill="#6849FF"/>
<path id="Vector_9" d="M154.291 89.2991C145.418 86.36 136.426 88.2581 135.935 88.3658L135.836 88.3875L135.752 88.4432C135.33 88.7204 127.667 93.8596 123.432 102.324C114.125 103.064 106.523 108.328 106.111 108.618L106.027 108.677L105.97 108.762C105.685 109.182 100.518 116.926 99.7911 126.406C91.4823 130.721 86.4369 138.526 86.1652 138.956L86.111 139.042L86.0896 139.143C85.9835 139.642 84.1206 148.802 87.0059 157.841C80.9447 165.067 79.2248 174.256 79.1348 174.759L79.1159 174.86L80.2426 174.86C80.442 173.86 82.1952 165.726 87.4424 159.111C88.318 161.468 89.5339 163.79 91.2192 165.916C93.4665 168.753 96.3316 170.954 99.7821 172.526C95.4351 171.543 91.3335 170.414 89.67 169.944C89.5927 169.611 89.4681 169.259 89.2815 168.909C88.6604 167.743 88.022 167.73 87.4198 168.062C86.818 168.395 86.4801 168.947 87.1016 170.114C87.7232 171.281 88.7146 171.957 89.3164 171.625C89.494 171.527 89.6108 171.346 89.681 171.119C91.9353 171.754 97.2541 173.204 102.332 174.233L87.7462 174.233C87.68 174.233 87.6179 174.249 87.5587 174.271C87.1608 173.707 86.1504 173.304 84.9567 173.304C83.416 173.304 83.0432 173.972 83.0432 174.796C83.0432 174.818 83.0444 174.839 83.0453 174.86L115.626 174.86C115.625 174.784 115.611 174.711 115.583 174.645C115.583 174.645 115.582 174.644 115.582 174.643C115.545 174.553 115.48 174.481 115.405 174.422C115.386 174.407 115.369 174.396 115.349 174.384C115.266 174.334 115.175 174.296 115.071 174.296C104.598 174.296 96.8636 171.24 92.0841 165.214C90.3429 163.017 89.1253 160.578 88.2818 158.1C89.9922 156.14 92.034 154.361 94.4671 153.011C101.146 149.305 109.44 149.497 119.116 153.58C119.399 153.699 119.723 153.563 119.839 153.275C119.868 153.205 119.881 153.131 119.881 153.059C119.881 153.058 119.881 153.058 119.881 153.057C119.881 152.959 119.848 152.868 119.8 152.784C119.789 152.763 119.777 152.746 119.763 152.727C119.706 152.648 119.635 152.579 119.539 152.538C109.863 148.455 103.866 142.617 101.715 135.186C100.931 132.48 100.74 129.759 100.891 127.143C103.206 126 105.747 125.139 108.5 124.84C116.063 124.021 123.653 127.431 131.06 134.975C131.096 135.012 131.14 135.034 131.182 135.058C131.203 135.07 131.221 135.09 131.242 135.099C131.442 135.182 131.68 135.141 131.843 134.976C131.895 134.922 131.935 134.859 131.962 134.793C131.963 134.792 131.962 134.791 131.963 134.791C132 134.7 132.003 134.603 131.991 134.506C131.988 134.483 131.984 134.463 131.978 134.439C131.955 134.344 131.915 134.252 131.843 134.178C124.436 126.633 121.089 118.902 121.893 111.198C122.186 108.393 123.031 105.804 124.154 103.446C126.722 103.292 129.393 103.488 132.049 104.285C139.344 106.476 145.075 112.585 149.083 122.443C149.2 122.73 149.523 122.867 149.806 122.748C149.811 122.746 149.814 122.742 149.819 122.739C149.882 122.711 149.939 122.673 149.986 122.626C149.987 122.625 149.987 122.625 149.987 122.624C150.055 122.554 150.095 122.466 150.12 122.372C150.126 122.349 150.13 122.329 150.133 122.306C150.148 122.208 150.146 122.108 150.106 122.01C146.098 112.153 145.91 103.705 149.548 96.9009C150.873 94.4219 152.62 92.3425 154.544 90.6001C156.976 91.4594 159.371 92.7001 161.527 94.4739C167.443 99.3417 170.443 107.221 170.443 117.89C170.443 118.201 170.691 118.454 170.996 118.454L170.996 85.265C170.216 85.2847 169.593 85.6842 169.593 87.2121C169.593 88.4286 169.989 89.4578 170.543 89.8636C170.522 89.9235 170.506 89.9863 170.506 90.0537L170.506 105.232C169.496 99.9773 168.031 94.3951 167.391 92.0414C167.643 91.9732 167.841 91.8488 167.945 91.6533C168.272 91.0402 167.608 90.0298 166.463 89.3967C165.317 88.7636 164.775 89.1078 164.448 89.7212C164.122 90.3347 164.134 90.9845 165.28 91.6177C165.6 91.7944 165.922 91.9179 166.229 91.9983C166.699 93.7235 167.854 98.0737 168.837 102.63C167.287 98.9749 165.083 95.9491 162.216 93.592C160.129 91.8752 157.85 90.6366 155.536 89.7447C162.031 84.3999 170.016 82.614 170.998 82.4109L170.998 81.2631L170.899 81.2816C170.404 81.3729 161.384 83.1249 154.291 89.2991ZM100.652 135.497C101.662 138.991 103.479 142.14 106.073 144.935C102.426 142.332 99.064 139.694 97.7075 138.614C97.7609 138.276 97.7782 137.903 97.7371 137.507C97.6014 136.187 97.0165 135.926 96.3349 135.999C95.6542 136.071 95.1342 136.45 95.2703 137.77C95.4059 139.09 96.0682 140.101 96.7497 140.029C96.9503 140.008 97.1262 139.886 97.2763 139.703C99.1133 141.164 103.485 144.578 107.804 147.516L94.3187 141.826C94.2574 141.8 94.1941 141.792 94.1312 141.789C93.9754 141.112 93.1936 140.346 92.0907 139.88C90.6676 139.28 90.072 139.752 89.762 140.514C89.4525 141.276 89.5454 142.039 90.9685 142.64C92.0718 143.105 93.157 143.126 93.737 142.76C93.783 142.803 93.834 142.843 93.8953 142.869L107.662 148.677C102.509 147.617 96.8853 146.859 94.5061 146.56C94.5402 146.298 94.5036 146.063 94.3659 145.89C93.9351 145.348 92.7648 145.587 91.752 146.422C90.7395 147.258 90.844 147.9 91.2756 148.441C91.7068 148.984 92.3012 149.221 93.3136 148.385C93.5968 148.151 93.8316 147.896 94.0219 147.637C95.7668 147.855 100.154 148.433 104.662 149.252C100.754 149.312 97.1665 150.228 93.9319 152.024C91.576 153.331 89.5812 155.002 87.8863 156.838C85.5231 148.681 86.959 140.483 87.1505 139.481C87.7104 138.635 92.3895 131.813 99.7184 127.748C99.6432 130.264 99.8947 132.879 100.652 135.497ZM120.794 111.071C120.415 114.695 120.912 118.316 122.261 121.912C119.87 118.086 117.753 114.333 116.903 112.803C117.08 112.511 117.235 112.173 117.346 111.791C117.717 110.519 117.274 110.05 116.618 109.851C115.962 109.653 115.34 109.8 114.968 111.073C114.598 112.346 114.83 113.538 115.486 113.736C115.68 113.795 115.888 113.751 116.095 113.642C117.249 115.715 120.002 120.571 122.879 124.955L112.566 114.449C112.519 114.402 112.464 114.368 112.407 114.342C112.517 113.656 112.082 112.643 111.238 111.783C110.149 110.673 109.421 110.877 108.849 111.461C108.276 112.044 108.076 112.785 109.165 113.895C110.009 114.755 111.003 115.198 111.677 115.085C111.704 115.143 111.736 115.199 111.783 115.247L122.319 125.98C117.957 122.992 113.046 120.1 110.96 118.896C111.09 118.668 111.145 118.436 111.082 118.223C110.888 117.554 109.717 117.318 108.468 117.695C107.219 118.073 107.074 118.707 107.268 119.375C107.464 120.044 107.924 120.495 109.173 120.118C109.522 120.012 109.835 119.868 110.108 119.703C111.638 120.585 115.475 122.829 119.333 125.343C115.699 123.875 112.04 123.322 108.377 123.721C105.71 124.01 103.245 124.783 100.991 125.819C101.87 117.361 106.27 110.34 106.824 109.489C107.66 108.925 114.551 104.443 122.855 103.547C121.838 105.843 121.079 108.353 120.794 111.071ZM153.306 90.1977C151.503 91.9238 149.864 93.9563 148.579 96.3557C146.867 99.5561 145.966 103.095 145.861 106.943C145.089 102.477 144.544 98.1843 144.334 96.439C144.606 96.2388 144.877 95.9863 145.123 95.6773C145.943 94.646 145.711 94.0405 145.179 93.6012C144.647 93.162 144.017 93.0556 143.196 94.087C142.376 95.1183 142.141 96.3105 142.674 96.7497C142.83 96.8791 143.039 96.9205 143.272 96.8996C143.558 99.2642 144.279 104.825 145.289 109.997L139.707 96.2703C139.682 96.2079 139.643 96.1559 139.601 96.109C139.96 95.5186 139.939 94.4131 139.483 93.2893C138.893 91.8392 138.144 91.7445 137.396 92.0603C136.648 92.376 136.184 92.9823 136.774 94.4324C137.231 95.5559 137.983 96.3527 138.648 96.5114C138.651 96.5751 138.659 96.6396 138.684 96.702L144.388 110.729C141.473 106.255 138.022 101.669 136.553 99.752C136.76 99.5917 136.897 99.399 136.92 99.1775C136.992 98.4833 135.999 97.8091 134.702 97.6709C133.406 97.5327 133.035 98.0616 132.964 98.7555C132.892 99.4493 133.149 100.045 134.444 100.183C134.806 100.222 135.15 100.211 135.464 100.165C136.543 101.572 139.238 105.137 141.857 108.961C139.054 106.193 135.885 104.261 132.355 103.202C129.785 102.431 127.218 102.174 124.748 102.251C128.739 94.785 135.436 90.0185 136.267 89.4486C137.251 89.2531 145.299 87.79 153.306 90.1977Z" fill="#6849FF"/>
<path id="Vector_10" d="M151.884 76.9745C140.663 71.0309 129.271 72.239 129.271 72.239L129.27 72.2394C129.27 72.2394 120.375 79.592 116.566 91.8769C103.967 90.7601 93.894 96.3176 93.894 96.3176C93.894 96.3176 88.4384 106.578 89.5347 119.413C77.4749 123.292 70.2575 132.353 70.2575 132.353C70.2575 132.353 69.0716 143.959 74.9062 155.39C65.2215 163.675 61.9569 174.86 61.9569 174.86L64.6481 174.86C64.6477 174.839 64.6465 174.818 64.6465 174.796C64.6465 173.971 65.0193 173.303 66.56 173.303C67.7537 173.303 68.7645 173.706 69.1624 174.271C69.2212 174.249 69.2829 174.232 69.349 174.232L72.8011 174.232C72.0736 173.821 71.5318 173.349 71.138 172.909C70.7475 172.473 70.4712 172.037 70.2698 171.65C69.7379 171.483 69.1336 170.921 68.7041 170.114C68.0825 168.947 68.4209 168.395 69.0227 168.062C69.6249 167.73 70.2632 167.742 70.8844 168.909C71.3386 169.763 71.4656 170.638 71.2675 171.18C71.8738 172.319 73.384 174.024 77.0035 174.213C77.5234 171.876 79.6754 163.641 85.3221 157.309C82.4653 149.205 83.5513 140.972 83.9266 138.752C80.5489 137.535 78.5129 138.515 77.5173 139.323C77.4708 139.893 77.0339 140.622 76.3174 141.213C75.3053 142.049 74.7105 141.812 74.2793 141.27C73.8477 140.728 73.7429 140.086 74.7558 139.251C75.4739 138.658 76.2668 138.373 76.823 138.447C77.1448 138.183 77.5399 137.91 78.0307 137.675C78.5873 137.41 79.3091 137.175 80.1949 137.088L76.899 135.697C76.8378 135.671 76.7868 135.632 76.7408 135.589C76.1612 135.955 75.076 135.934 73.9723 135.469C72.5492 134.868 72.4563 134.105 72.7662 133.343C73.0757 132.581 73.6714 132.109 75.0949 132.71C76.1978 133.175 76.98 133.941 77.1354 134.618C77.1983 134.621 77.2616 134.63 77.3228 134.656L80.5127 136.002C79.9952 135.337 79.6717 134.69 79.4731 134.131C79.2762 133.575 79.185 133.064 79.1443 132.628C78.7155 132.267 78.3686 131.512 78.2745 130.599C78.1388 129.279 78.6584 128.901 79.3395 128.828C80.0207 128.755 80.6056 129.016 80.7413 130.336C80.8403 131.302 80.629 132.16 80.2422 132.583C80.3746 133.872 81.1293 136.036 84.4022 137.621C85.7612 135.665 90.8423 128.896 98.4379 125.247C98.8428 116.646 102.939 109.463 104.12 107.558C101.456 105.118 99.207 105.229 97.9837 105.588C97.7272 106.096 97.0494 106.599 96.1656 106.866C94.9159 107.244 94.456 106.793 94.2611 106.124C94.0667 105.455 94.2106 104.822 95.4606 104.444C96.3464 104.176 97.1858 104.222 97.6725 104.507C98.068 104.389 98.5362 104.291 99.078 104.265C99.6913 104.236 100.447 104.301 101.298 104.565L98.775 101.996C98.7281 101.947 98.6961 101.891 98.6698 101.834C97.9965 101.946 97.0017 101.503 96.1574 100.644C95.0676 99.5339 95.2682 98.7923 95.8408 98.2094C96.4134 97.6265 97.141 97.4222 98.2308 98.5323C99.0747 99.3919 99.5088 100.405 99.399 101.091C99.4557 101.118 99.5108 101.151 99.5581 101.198L101.999 103.685C101.771 102.87 101.715 102.146 101.742 101.551C101.768 100.961 101.876 100.454 102.003 100.036C101.742 99.5343 101.705 98.7014 101.961 97.8221C102.332 96.5491 102.954 96.4022 103.61 96.6002C104.266 96.7987 104.709 97.2677 104.338 98.5402C104.067 99.4707 103.549 100.181 103.034 100.421C102.671 101.664 102.556 103.957 104.984 106.698C106.974 105.419 114.211 101.147 122.6 100.737C126.205 92.9488 132.688 87.9093 134.495 86.61C132.95 83.3171 130.831 82.5428 129.566 82.3975C129.137 82.7668 128.322 82.9674 127.406 82.8694C126.11 82.7313 125.854 82.135 125.925 81.4411C125.996 80.7477 126.368 80.2184 127.664 80.357C128.584 80.455 129.341 80.8248 129.684 81.2778C130.094 81.3226 130.563 81.4143 131.073 81.6019C131.651 81.8146 132.324 82.1685 133.011 82.7451L131.646 79.3868C131.621 79.3244 131.612 79.2604 131.61 79.1967C130.945 79.038 130.193 78.2411 129.736 77.1177C129.146 75.668 129.61 75.0613 130.358 74.7455C131.106 74.4298 131.855 74.5249 132.444 75.9745C132.901 77.098 132.921 78.2039 132.562 78.7943C132.605 78.8412 132.643 78.8931 132.668 78.9551L133.99 82.2045C134.085 81.3624 134.305 80.6715 134.554 80.1326C134.8 79.5979 135.089 79.1703 135.363 78.8332C135.312 78.2688 135.59 77.4845 136.157 76.7722C136.977 75.7409 137.608 75.8472 138.14 76.2865C138.672 76.7257 138.904 77.3312 138.084 78.3626C137.484 79.1167 136.738 79.571 136.172 79.592C135.371 80.599 134.402 82.673 135.615 86.1511C137.935 85.7462 146.227 84.6198 154.13 87.5111C160.386 81.7221 168.268 79.5932 170.425 79.097C170.236 75.4523 168.569 73.9114 167.455 73.2841C166.92 73.4579 166.092 73.3256 165.281 72.878C164.136 72.2448 164.123 71.5945 164.449 70.9815C164.776 70.3685 165.318 70.0243 166.464 70.657C167.277 71.1059 167.838 71.7432 167.985 72.2951C168.346 72.4965 168.745 72.7641 169.146 73.1359C169.6 73.5576 170.089 74.1472 170.507 74.9478L170.507 71.3132C170.507 71.2457 170.523 71.1829 170.545 71.1226C169.991 70.7173 169.595 69.6876 169.595 68.4716C169.595 66.9428 170.217 66.5442 170.998 66.524L170.998 63.7826C170.998 63.7838 160.018 67.1094 151.884 76.9745Z" fill="#6849FF"/>
<path id="Vector_11" d="M145.553 121.1C139.164 105.165 127.199 107.451 127.199 107.451C127.199 107.451 120.573 118.35 132.646 129.798L146.525 145.915C147.766 144.825 149.078 143.816 150.451 142.895C141.935 134.276 132.836 120.782 128.846 110.019C137.93 118.223 146.723 134.183 150.734 142.711C151.978 141.894 153.27 141.146 154.61 140.481L145.553 121.1Z" fill="#6849FF"/>
<path id="Vector_12" d="M167.395 21.5774C167.395 21.5774 170.996 23.6677 170.996 28.2014L170.997 28.2014L170.997 17.7912L170.996 17.7912C170.996 17.7912 169.676 20.3187 167.395 21.5774Z" fill="#6849FF"/>
<path id="Vector_13" d="M167.628 0.679421C165.916 0.71711 164.553 2.08178 164.427 3.78603C164.4 3.78687 164.371 3.78771 164.343 3.78938C164.062 2.12029 162.6 0.895501 160.904 1.00396C159.214 1.11199 157.918 2.50135 157.832 4.18342C157.8 4.18594 157.769 4.18928 157.737 4.19178C157.405 2.53317 155.907 1.35485 154.215 1.5169C152.509 1.67938 151.246 3.14118 151.241 4.85089C151.212 4.85423 151.184 4.85717 151.155 4.86051C150.763 3.18264 149.184 2.05372 147.478 2.31167C145.787 2.5671 144.605 4.09004 144.685 5.79261C144.668 5.79513 144.652 5.79806 144.636 5.80058C144.188 4.16374 142.605 3.09555 140.924 3.38615C139.222 3.67968 138.064 5.25454 138.205 6.97555C138.196 6.97764 138.186 6.97891 138.177 6.98057C137.674 5.31903 136.003 4.29983 134.311 4.69093C132.635 5.07869 131.566 6.70336 131.788 8.40596C131.772 8.40972 131.757 8.41349 131.741 8.41726C131.162 6.81141 129.483 5.87764 127.825 6.32066C126.176 6.76074 125.164 8.39926 125.418 10.0796C125.393 10.0872 125.368 10.0947 125.342 10.1023C124.711 8.50395 122.986 7.62585 121.338 8.13713C119.693 8.64715 118.743 10.3476 119.085 12.0293C119.082 12.0305 119.078 12.0314 119.075 12.0326C118.365 10.4959 116.631 9.71158 115.021 10.2815C113.416 10.8501 112.533 12.5561 112.907 14.2059C112.877 14.2176 112.846 14.2297 112.814 14.2411C112.057 12.7043 110.272 11.9728 108.672 12.6155C107.081 13.2545 106.267 15.0124 106.725 16.6538C106.696 16.666 106.667 16.6781 106.638 16.6902C105.817 15.2 104.017 14.5493 102.449 15.2515C100.882 15.9537 100.136 17.7459 100.66 19.3693C100.634 19.381 100.609 19.3928 100.583 19.4045C99.6962 17.9724 97.8855 17.4105 96.3588 18.1722C94.8382 18.9305 94.1633 20.7197 94.7166 22.3068C94.6874 22.3214 94.6598 22.3369 94.6315 22.3516C93.7008 20.9484 91.8745 20.4442 90.3716 21.2532C88.8573 22.0689 88.2399 23.9114 88.8778 25.4925C88.8519 25.5072 88.8269 25.521 88.8014 25.5352C87.8091 24.1379 85.9264 23.7104 84.447 24.6136C82.9815 25.5088 82.4611 27.3764 83.1735 28.9186C83.1599 28.9274 83.146 28.9362 83.132 28.9454C82.1035 27.6075 80.2393 27.2378 78.7957 28.1615C77.3339 29.0966 76.8555 31.0031 77.6315 32.5377C77.6241 32.5432 77.6159 32.5482 77.6077 32.5537C76.518 31.2145 74.5926 30.9239 73.1764 31.9448C71.7731 32.9565 71.3965 34.8747 72.2409 36.3608C72.2277 36.3704 72.215 36.3801 72.2018 36.3897C71.0636 35.1318 69.1616 34.9237 67.7964 35.9789C66.4375 37.0287 66.1185 38.9373 66.985 40.3903C66.964 40.4071 66.9435 40.4242 66.9225 40.4406C65.7391 39.2103 63.8161 39.0709 62.4855 40.186C61.1574 41.2986 60.9185 43.2398 61.866 44.6602C61.8632 44.6627 61.8607 44.6652 61.8578 44.6673C60.6258 43.5241 58.7284 43.4756 57.4561 44.6292C56.1856 45.7807 56.0113 47.7006 56.9773 49.0791C56.9526 49.1021 56.9287 49.1256 56.9041 49.1482C55.6269 48.0239 53.704 48.0431 52.4667 49.2608C51.2363 50.4714 51.1447 52.4126 52.1847 53.7505C52.1625 53.7731 52.1399 53.7953 52.1177 53.8179C50.7998 52.7615 48.8912 52.862 47.7074 54.1215C46.5231 55.3815 46.5075 57.3278 47.6013 58.6238C47.5824 58.6443 47.5631 58.6652 47.5442 58.6862C46.1864 57.7088 44.3029 57.8956 43.1783 59.1945C42.0585 60.488 42.107 62.4041 43.214 63.6545C43.1931 63.6792 43.1729 63.7043 43.1524 63.729C41.7659 62.7956 39.8889 63.0414 38.8041 64.3747C37.7115 65.7184 37.8332 67.6618 39.0171 68.874C38.999 68.8971 38.9805 68.9201 38.962 68.9431C37.5208 68.0391 35.62 68.3778 34.5928 69.789C33.575 71.1875 33.7961 73.1158 35.0347 74.2627C35.0252 74.2766 35.015 74.29 35.0055 74.3033C33.5524 73.4684 31.6915 73.8536 30.7046 75.2702C29.7053 76.7035 29.979 78.6511 31.2739 79.7662C31.2681 79.7746 31.2624 79.7821 31.2574 79.7905C29.7476 78.9781 27.8596 79.4601 26.9343 80.9558C26.0184 82.4373 26.3904 84.3564 27.7293 85.4003C27.7206 85.4145 27.712 85.4283 27.7034 85.4422C26.1792 84.7232 24.3442 85.273 23.4789 86.78C22.6181 88.2795 23.0403 90.1672 24.3869 91.1717C24.3738 91.1952 24.3618 91.2195 24.3483 91.2429C22.7924 90.5675 20.9636 91.1885 20.153 92.7378C19.3444 94.2825 19.8521 96.1702 21.2616 97.1123C21.2604 97.1161 21.2583 97.119 21.2562 97.1224C19.6893 96.5458 17.9176 97.2409 17.1756 98.8032C16.4349 100.363 16.9948 102.204 18.4047 103.101C18.3907 103.132 18.3772 103.163 18.3628 103.193C16.7613 102.652 14.9916 103.42 14.3064 105.027C13.6245 106.625 14.2694 108.454 15.732 109.285C15.7201 109.315 15.7081 109.344 15.6962 109.374C14.0812 108.911 12.3563 109.748 11.7356 111.374C11.1149 112.999 11.831 114.804 13.3285 115.574C13.3186 115.601 13.3092 115.627 13.2997 115.654C11.6781 115.28 10.0075 116.187 9.45669 117.826C8.90791 119.457 9.6725 121.209 11.1651 121.932C11.1548 121.963 11.1462 121.994 11.1359 122.025C9.50436 121.703 7.86299 122.662 7.3619 124.317C6.85711 125.984 7.69938 127.732 9.24745 128.391C9.24005 128.419 9.23143 128.448 9.22361 128.476C7.55264 128.203 5.92401 129.257 5.50512 130.961C5.08996 132.65 6.01773 134.345 7.59333 134.922C7.58964 134.938 7.58552 134.954 7.58183 134.971C5.92566 134.766 4.35128 135.847 3.97146 137.54C3.58629 139.254 4.57202 140.947 6.18669 141.472C6.18463 141.482 6.18216 141.491 6.18051 141.501C4.48077 141.338 2.91749 142.52 2.62481 144.263C2.33461 145.989 3.40008 147.616 5.02871 148.059C5.02624 148.075 5.02337 148.091 5.0209 148.108C3.34295 148.038 1.85367 149.261 1.62059 150.991C1.38916 152.712 2.48752 154.291 4.10875 154.694C4.10547 154.721 4.103 154.748 4.10011 154.775C2.4086 154.758 0.953017 156.044 0.785307 157.791C0.618819 159.534 1.79735 161.079 3.45352 161.401C3.45352 161.404 3.4527 161.408 3.4527 161.412C1.78708 161.491 0.412475 162.823 0.313399 164.556C0.215163 166.285 1.42451 167.768 3.06424 168.047C3.06302 168.081 3.06178 168.115 3.06055 168.149C1.37683 168.273 0.0310054 169.672 0.000594793 171.425C-0.0290071 173.167 1.25392 174.606 2.91789 174.803C2.91789 174.821 2.91708 174.839 2.91708 174.857L3.56081 174.857C3.56081 173.434 3.57767 172.013 3.61179 170.594C3.84732 160.752 4.89964 151.05 6.73175 141.568C7.12555 139.572 7.56456 137.582 8.0303 135.597C10.0922 126.8 12.8422 118.104 16.3058 109.586C18.1877 104.958 20.2623 100.45 22.4997 96.0555C23.0929 94.8914 23.698 93.7352 24.3158 92.5883C25.7492 89.9239 27.2475 87.3051 28.8095 84.7353C29.7649 83.1642 30.7362 81.6057 31.7384 80.0715C32.3126 79.1996 32.8992 78.3354 33.4903 77.4732C33.7616 77.0779 34.0333 76.683 34.3079 76.2898C35.6612 74.3515 37.0563 72.4379 38.4934 70.5515C38.8165 70.1269 39.1445 69.7065 39.4717 69.2848C40.8081 67.5638 42.1786 65.8646 43.5844 64.19C45.5505 61.8489 47.5779 59.5492 49.6792 57.3022C50.6395 56.2751 51.6133 55.258 52.6019 54.2513C53.5901 53.2443 54.5886 52.2519 55.5969 51.2737C57.14 49.7763 58.7144 48.3229 60.3036 46.8925C62.6614 44.7703 65.0653 42.7185 67.5194 40.7458C68.9873 39.565 70.4721 38.4105 71.9733 37.2841C73.8013 35.9132 75.6519 34.5833 77.5259 33.294C77.6673 33.1964 77.8067 33.0955 77.9481 32.9984C85.8458 27.6469 94.241 22.9441 103.076 18.9564C104.349 18.3819 105.632 17.8221 106.923 17.2773C108.214 16.7325 109.51 16.2045 110.808 15.6941C119.823 12.1495 129.024 9.4281 138.323 7.52326C147.63 5.6578 157.153 4.58541 166.814 4.34589C168.205 4.31406 169.6 4.29647 170.998 4.29647L170.998 3.64115C170.984 3.64115 170.97 3.64156 170.957 3.64156C170.758 1.94485 169.339 0.641319 167.628 0.679421Z" fill="#6849FF"/>
<path id="Vector_14" d="M150.613 28.4341C152.028 26.9979 151.77 26.0356 151.029 25.2777C150.288 24.5198 149.345 24.2526 147.928 25.6889C146.795 26.8392 146.231 28.2001 146.427 29.0894C146.019 29.517 145.592 30.0412 145.198 30.7024C144.6 31.7061 144.038 33.1185 143.842 34.9731L141.977 28.5225C141.964 28.4772 141.937 28.4412 141.915 28.4027C142.732 27.6762 142.964 25.8246 142.395 23.8552C141.728 21.5467 140.601 21.2779 139.41 21.6347C138.219 21.9919 137.415 22.8398 138.082 25.1483C138.651 27.1176 139.83 28.5459 140.904 28.7055C140.905 28.7507 140.902 28.7955 140.915 28.8407L142.852 35.5426C141.076 33.2169 139.037 32.2413 137.501 31.8485C137.239 30.9666 136.017 30.094 134.406 29.7431C132.451 29.3168 131.8 30.0618 131.581 31.1082C131.361 32.1546 131.656 33.1051 133.61 33.5314C135.208 33.8798 136.664 33.5992 137.267 32.9159C139.358 33.4401 142.59 35.2332 144.36 41.1378C143.333 42.1565 140.086 45.6647 138.228 50.9085C135.694 48.8216 133.113 47.1843 130.735 45.9231C123.975 42.3391 117.185 40.928 116.633 41.1608L116.422 41.25L116.285 41.4359C116.108 41.6779 111.912 47.4619 109.503 56.2813C108.919 58.4202 108.424 60.8527 108.144 63.4953C103.345 61.1902 98.6854 60.9398 97.1459 60.9812C93.3029 56.0657 93.7403 52.2933 94.5238 50.2457C95.4293 50.1678 96.5141 49.0946 97.1562 47.5264C97.9245 45.6475 97.3252 44.8591 96.3555 44.4474C95.3862 44.0358 94.414 44.1573 93.6457 46.0361C93.03 47.5407 93.0209 49.018 93.536 49.7633C93.3198 50.3173 93.122 50.9684 93.0061 51.7326C92.831 52.8929 92.8425 54.4171 93.3568 56.2077L89.212 50.9747C89.1828 50.9383 89.1442 50.9152 89.1088 50.8884C89.5918 49.899 89.1097 48.098 87.844 46.5005C86.3605 44.6275 85.2185 44.8184 84.2521 45.6128C83.2861 46.4067 82.8623 47.5038 84.3454 49.3764C85.6111 50.9739 87.2369 51.8344 88.2888 51.563C88.3069 51.6041 88.3208 51.6468 88.35 51.6836L92.6567 57.1201C90.1431 55.6633 87.8929 55.5578 86.3263 55.7931C85.7521 55.0808 84.2953 54.7513 82.6753 55.0549C80.71 55.4229 80.3881 56.3655 80.5784 57.4174C80.7684 58.4697 81.3977 59.2334 83.3638 58.865C84.9715 58.5635 86.2104 57.7373 86.5101 56.8709C88.6398 56.5401 92.2991 56.9363 96.1528 61.7019C95.5872 63.0435 93.9051 67.5504 94.1588 73.1192C91.0334 72.1791 88.0335 71.6728 85.362 71.4346C77.7701 70.7583 70.9674 72.1012 70.5452 72.5321L70.3837 72.6962L70.3274 72.9215C70.2542 73.2142 68.5507 80.1941 69.638 89.2811C69.9015 91.485 70.3586 93.9249 71.0928 96.4759C65.7929 96.2171 61.3945 97.8024 59.9875 98.4406C54.591 95.3972 53.5769 91.7416 53.5313 89.5441C54.3394 89.1191 54.9384 87.7046 54.9421 86.0054C54.9458 83.9699 54.0961 83.4754 53.0454 83.4728C51.9956 83.4708 51.143 83.9611 51.1389 85.997C51.1356 87.6271 51.6823 88.9951 52.4383 89.4834C52.4465 90.0797 52.5082 90.758 52.6886 91.5096C52.9624 92.6499 53.5453 94.0535 54.6938 95.5069L48.8982 92.2885C48.8571 92.2659 48.8135 92.26 48.7708 92.2483C48.8444 91.1458 47.723 89.6701 45.9537 88.6878C43.8791 87.5358 42.8959 88.1572 42.3015 89.2673C41.7075 90.3774 41.7272 91.5565 43.8018 92.7081C45.5706 93.6908 47.3962 93.8516 48.2656 93.1913C48.2981 93.2219 48.3272 93.2558 48.3675 93.2784L54.3888 96.6224C51.5196 96.2569 49.4001 97.0361 48.0411 97.8648C47.2437 97.4306 45.7737 97.6936 44.3905 98.606C42.7138 99.7123 42.7705 100.708 43.3414 101.606C43.9116 102.504 44.7806 102.964 46.4581 101.857C47.8303 100.953 48.6643 99.7056 48.6158 98.7885C50.4594 97.6525 53.9884 96.5923 59.3392 99.4924C59.3203 100.953 59.4597 105.772 61.7863 110.818C58.545 111.168 55.5833 111.869 53.0261 112.691C45.7581 115.025 39.9773 118.918 39.7488 119.48L39.6616 119.695L39.6937 119.925C39.7364 120.224 40.7842 127.336 45.2032 135.308C46.2744 137.241 47.6132 139.318 49.2497 141.387C44.2561 143.214 40.7879 146.394 39.7274 147.532C33.598 146.824 31.2886 143.842 30.4209 141.829C31.0075 141.122 31.0297 139.581 30.395 138.01C29.6341 136.128 28.6624 136.002 27.6918 136.41C26.7209 136.817 26.1175 137.602 26.8788 139.485C27.4875 140.992 28.5066 142.043 29.3883 142.199C29.6197 142.747 29.9317 143.35 30.3806 143.973C31.0622 144.92 32.128 145.99 33.7345 146.885L27.171 146.171C27.125 146.166 27.0822 146.177 27.0387 146.184C26.693 145.136 25.1017 144.21 23.0978 143.992C20.749 143.736 20.0732 144.693 19.9416 145.951C19.8097 147.209 20.2717 148.289 22.6206 148.545C24.6237 148.763 26.3707 148.201 26.9265 147.251C26.968 147.267 27.0074 147.287 27.0535 147.292L33.8722 148.034C31.084 148.815 29.4196 150.361 28.4749 151.656C27.5755 151.566 26.316 152.382 25.3813 153.764C24.2467 155.44 24.6734 156.338 25.5383 156.945C26.4032 157.552 27.3786 157.639 28.5123 155.962C29.4397 154.591 29.7427 153.114 29.3534 152.285C30.6297 150.518 33.4924 148.162 39.5247 148.756C40.0558 150.113 41.9952 154.511 46.0401 158.265C43.1778 159.852 40.7053 161.655 38.6508 163.41C32.8133 168.401 28.9353 174.252 28.9353 174.86L30.7498 174.86L30.7498 174.86C31.3885 173.868 33.157 171.289 35.9904 168.31C35.8346 169.21 36.0184 170.075 36.3735 170.875C34.2536 171.129 31.814 172.027 31.4223 174.795L31.4173 174.833L31.421 174.86L31.9575 174.86C31.9562 174.851 31.9538 174.843 31.9521 174.834C32.3254 172.355 34.6614 171.588 36.6243 171.386C37.5816 173.116 39.2431 174.429 39.8338 174.86L41.0929 174.86L41.0929 174.86C42.3483 172.924 50.0882 162.012 63.3532 164.188C60.4314 168.74 58.945 172.719 58.4542 174.217C54.6404 174.1 53.0598 172.347 52.4391 171.18C52.6372 170.638 52.5098 169.763 52.0556 168.909C51.4341 167.743 50.7961 167.73 50.1939 168.062C49.5917 168.395 49.2546 168.947 49.8757 170.114C50.3045 170.921 50.9091 171.482 51.4415 171.65C51.6421 172.036 51.9191 172.473 52.3096 172.91C52.7034 173.35 53.251 173.82 53.9798 174.232L50.5203 174.232C50.4541 174.232 50.3924 174.249 50.3328 174.271C49.9349 173.707 48.9241 173.303 47.7304 173.303C46.1905 173.303 45.8169 173.971 45.8169 174.796C45.8169 174.818 45.8181 174.839 45.8185 174.86L59.5143 174.86C59.518 174.839 59.5271 174.819 59.5271 174.796C59.5271 174.761 59.5139 174.731 59.5073 174.698C60.1231 172.829 63.7273 162.816 72.559 155.33C72.6523 155.251 72.7054 155.146 72.7362 155.035C72.737 155.034 72.7374 155.034 72.7378 155.033C72.7391 155.03 72.7387 155.025 72.7399 155.021C72.751 154.978 72.7621 154.935 72.7633 154.89C72.781 154.769 72.7761 154.645 72.716 154.529C67.3225 144.079 67.8075 133.333 67.9378 131.497C67.9757 131.452 68.0131 131.405 68.0365 131.347C68.0496 131.315 68.0484 131.282 68.0554 131.249C69.326 129.762 76.4181 121.917 87.3894 118.443C87.5049 118.407 87.592 118.331 87.6627 118.242C87.664 118.241 87.6656 118.24 87.6664 118.238C87.6697 118.236 87.6701 118.231 87.6734 118.228C87.7001 118.192 87.7256 118.157 87.7437 118.116C87.8054 118.011 87.8473 117.895 87.8358 117.764C86.7785 106.007 91.2636 96.2686 92.0734 94.6221C92.1256 94.5957 92.1774 94.5664 92.221 94.522C92.2452 94.4978 92.2563 94.4668 92.2744 94.4395C94.0071 93.561 103.506 89.0772 114.948 90.1446C115.068 90.1559 115.178 90.1199 115.276 90.065C115.277 90.0642 115.279 90.0642 115.281 90.0638C115.285 90.0621 115.287 90.0579 115.292 90.0562C115.33 90.0332 115.366 90.0114 115.398 89.9808C115.495 89.9084 115.577 89.8159 115.615 89.6902C119.055 78.417 126.857 71.1679 128.224 69.9623C128.283 69.9581 128.342 69.9518 128.398 69.9275C128.43 69.9142 128.452 69.8899 128.48 69.8719C130.41 69.7358 140.87 69.2965 151.04 74.743C151.147 74.8004 151.263 74.8096 151.375 74.7966C151.376 74.7966 151.376 74.7979 151.378 74.7979C151.382 74.7979 151.386 74.7954 151.39 74.7949C151.434 74.7891 151.476 74.7828 151.517 74.7669C151.633 74.7376 151.744 74.6844 151.827 74.5835C159.24 65.5095 169.171 61.8535 170.887 61.2727C170.922 61.2848 170.96 61.289 170.998 61.2953L170.998 47.3447C170.217 47.3644 169.595 47.763 169.595 49.2918C169.595 50.5078 169.991 51.5375 170.545 51.9428C170.523 52.0027 170.507 52.0659 170.507 52.1333L170.507 55.7839C170.088 54.9799 169.601 54.3786 169.146 53.9561C168.745 53.5838 168.346 53.3163 167.985 53.1149C167.838 52.5626 167.276 51.9256 166.464 51.4768C165.318 50.8436 164.777 51.1878 164.449 51.8013C164.123 52.4143 164.136 53.0646 165.281 53.6977C166.092 54.1454 166.919 54.2777 167.454 54.1039C168.593 54.7454 170.301 56.3538 170.427 60.1764C169.201 60.5985 165.176 62.1206 160.523 65.2193C158.381 51.7104 169.099 43.811 170.998 42.53L170.998 41.2483C170.989 41.2604 170.978 41.2755 170.97 41.2868C170.58 40.7261 169.296 39.0156 167.593 38.014C167.797 35.9965 168.56 33.6001 170.998 33.224L170.998 32.6776L170.988 32.6793C168.248 33.0582 167.351 35.5673 167.092 37.7506C166.311 37.38 165.464 37.1765 164.583 37.3176C167.5 34.4409 170.025 32.6441 170.998 31.9942L170.998 30.1455L170.77 30.1455L170.574 30.2644C170.319 30.4185 164.269 34.1268 158.73 41.3358C157.387 43.084 156.016 45.1384 154.764 47.4707C151.197 43.4705 146.986 41.4229 145.548 40.861C143.844 34.8215 145.665 31.5068 147.158 29.9202C148.025 30.2016 149.43 29.633 150.613 28.4341ZM134.311 50.1192C134.814 50.4643 135.316 50.8214 135.816 51.1979C137.276 53.6312 135.122 56.9316 134.27 58.0706C132.453 56.335 130.521 55.0524 128.781 54.1295C128.722 54.0989 128.665 54.0708 128.606 54.0407C129.39 52.725 131.584 49.5824 134.311 50.1192ZM135.446 57.2675C136.288 55.8739 137.214 53.7777 136.696 51.8892C138.055 52.9704 139.389 54.1738 140.669 55.513C138.746 55.1734 136.72 56.3283 135.446 57.2675ZM140.637 63.4371C141.898 62.3283 143.37 60.5952 143.328 58.6091C144.646 60.3314 145.854 62.2446 146.919 64.3458C145.185 62.7182 142.272 63.0628 140.637 63.4371ZM138.772 64.185C137.653 61.9255 136.252 60.0592 134.742 58.53C135.605 57.7457 138.851 55.0683 141.441 56.3496C141.864 56.8194 142.279 57.3056 142.685 57.8076C143.545 60.9829 139.474 63.7386 138.772 64.185ZM133.426 49.5267C131.323 49.6791 129.624 51.5907 128.67 52.9683C129.162 51.4286 129.748 48.6834 128.564 46.7668C130.138 47.5406 131.776 48.451 133.426 49.5267ZM126.41 45.7711C126.72 45.9051 127.034 46.0462 127.352 46.1915C129.869 48.1742 128.28 52.6191 127.858 53.6655C125.033 52.3038 122.419 51.63 121.331 51.481C121.629 50.2067 122.978 45.4934 126.41 45.7711ZM120.793 51.4655C120.221 51.0991 118.392 50.0196 116.442 49.7587C115.872 47.8082 115.675 45.2845 117.811 43.991C120.202 43.3935 121.791 45.2987 122.726 47.0683C121.498 48.6637 120.944 50.7871 120.793 51.4655ZM117.328 42.8688C118.472 43.0911 121.487 43.7687 125.273 45.295C124.398 45.4922 123.683 45.9968 123.094 46.637C122.052 44.7397 120.304 42.7872 117.644 43.4776L117.608 43.4869L117.576 43.5061C115.186 44.9244 115.301 47.5922 115.882 49.7105C115.021 49.672 114.162 49.8144 113.401 50.288C115.015 46.4921 116.674 43.8482 117.328 42.8688ZM112.49 52.5843C112.64 52.1786 112.791 51.7824 112.945 51.3964C115.207 48.8609 119.375 51.2058 120.435 51.8729C119.968 52.5672 118.525 54.8576 117.388 58.138C116.512 57.7737 112.202 55.8053 112.49 52.5843ZM112.049 53.8267C112.581 55.9899 114.867 57.4768 116.266 58.2021C114.655 57.919 112.167 57.7884 110.57 59.1422C110.98 57.2457 111.491 55.4682 112.049 53.8267ZM110.362 60.1672C111.981 57.8889 115.738 58.5794 117.126 58.9349C116.49 60.9574 116.002 63.3052 115.918 65.8537C114.608 65.6824 110.763 64.9425 110.015 62.2157C110.115 61.5193 110.232 60.838 110.362 60.1672ZM109.877 63.3002C110.843 64.9563 112.918 65.7494 114.458 66.1229C112.925 66.3729 110.735 67.006 109.598 68.5826C109.575 66.7644 109.678 64.9999 109.877 63.3002ZM115.071 74.2246C113.685 75.1182 111.454 76.9154 111.27 79.2423C110.595 77.0624 110.136 74.9109 109.876 72.811C111.231 74.1886 113.434 74.3477 115.071 74.2246ZM109.777 71.8131C109.707 71.0875 109.656 70.3681 109.627 69.6562C110.682 66.9353 114.895 66.5555 115.902 66.5052C115.891 68.6927 116.191 71.0154 116.96 73.398C116.339 73.5496 111.467 74.6203 109.777 71.8131ZM97.1509 62.1169C97.1756 62.1047 97.199 62.0888 97.2228 62.0733C98.5584 62.0754 103.268 62.271 108.037 64.6632C107.596 70.2659 108.205 76.7463 111.052 83.4678C106.115 78.2839 100.545 75.2271 95.2575 73.4747C94.9147 67.97 96.6255 63.3747 97.1509 62.1169ZM101.09 83.7538C101.839 82.238 102.547 80.0631 101.762 78.2445C103.627 79.3215 105.462 80.6187 107.235 82.145C105.022 81.3168 102.459 82.7706 101.09 83.7538ZM73.5982 80.548C72.3383 78.9681 71.2087 76.7136 72.6951 74.6869C74.6801 73.2029 76.8641 74.3427 78.392 75.6136C77.8576 77.5666 78.1433 79.744 78.2576 80.4295C77.5933 80.3139 75.4985 80.0296 73.5982 80.548ZM86.6396 79.7767C86.5746 79.7704 86.5105 79.7679 86.4451 79.762C86.6741 78.2416 87.5213 74.4826 90.2426 73.9156C90.8361 74.0383 91.4338 74.1727 92.0373 74.3255C94.3002 76.0043 93.55 79.8931 93.1907 81.2782C90.8608 80.3834 88.5942 79.9513 86.6396 79.7767ZM93.1105 74.6212C94.7725 75.091 96.457 75.6823 98.142 76.4209C96.2387 76.8564 94.8 78.7135 93.9754 80.0777C94.2307 78.4618 94.2973 76.1646 93.1105 74.6212ZM99.17 76.8924C99.7369 77.1621 100.303 77.4497 100.866 77.7546C102.854 80.3532 100.129 84.4858 99.6485 85.1717C97.7658 83.5202 95.7697 82.3427 93.7999 81.5186C94.3026 80.4579 96.2955 76.7186 99.17 76.8924ZM89.2017 73.7138C87.3162 74.6743 86.4649 77.1026 86.1003 78.7474C85.9769 77.1332 85.4878 74.3678 83.6738 73.0593C85.4175 73.1602 87.2734 73.3633 89.2017 73.7138ZM82.337 73.0002C85.4076 73.8507 85.6095 78.5761 85.6123 79.708C82.492 79.5505 79.8225 79.9475 78.762 80.2335C78.5581 78.9404 78.0331 74.0601 81.3097 72.9785C81.646 72.9818 81.9892 72.9894 82.337 73.0002ZM71.8281 73.8381C72.968 73.5974 76.0091 73.0476 80.0798 72.9822C79.3457 73.5057 78.8742 74.251 78.5704 75.0717C76.8953 73.7251 74.5465 72.6024 72.3485 74.2774L72.3189 74.3L72.2963 74.3301C70.6213 76.5721 71.7291 78.9919 73.0617 80.723C72.2519 81.0232 71.5116 81.4893 70.9867 82.2238C71.0525 78.0875 71.5914 74.9976 71.8281 73.8381ZM70.9818 83.4251C72.1196 80.2008 76.8505 80.7423 78.0812 80.9453C77.9106 81.7682 77.4375 84.4477 77.62 87.9211C76.6733 87.9261 71.9515 87.7879 71.0077 84.6997C70.9937 84.2663 70.9851 83.8413 70.9818 83.4251ZM71.0677 86.0188C72.3716 87.8101 75.0422 88.2933 76.6072 88.4177C75.0122 88.7845 72.6647 89.6341 71.6982 91.5063C71.3641 89.5948 71.1688 87.7536 71.0677 86.0188ZM72.3395 94.5627C72.1701 93.8805 72.0234 93.2051 71.8902 92.5355C72.5298 89.7991 76.2602 88.9725 77.6768 88.759C77.849 90.8761 78.2806 93.2348 79.1599 95.6221C77.8852 95.9751 74.0549 96.7903 72.3395 94.5627ZM72.6211 95.6187C74.135 96.7715 76.3498 96.6957 77.9123 96.4407C76.5907 97.2689 74.8051 98.7081 74.3463 100.608C73.6422 98.9372 73.0741 97.2664 72.6211 95.6187ZM81.5218 103.687C80.5772 105.053 79.1911 107.583 79.8961 109.805C78.4537 108.054 77.2205 106.245 76.1912 104.406C77.9608 105.15 80.0556 104.439 81.5218 103.687ZM75.7258 103.523C75.3875 102.88 75.0702 102.235 74.7767 101.588C74.7286 98.6633 78.4787 96.6702 79.3905 96.2309C80.2023 98.2559 81.3513 100.285 82.9569 102.187C82.4397 102.569 78.3414 105.457 75.7258 103.523ZM62.9348 110.717C60.5506 105.766 60.4047 100.855 60.4174 99.4866C60.4363 99.4656 60.452 99.4418 60.468 99.4179C61.7032 98.8987 66.1271 97.2442 71.4319 97.5951C73.1287 102.943 76.1258 108.693 81.281 113.793C74.773 110.928 68.478 110.275 62.9348 110.717ZM70.7364 112.588C72.8644 112.857 75.0468 113.34 77.2587 114.059C74.9025 114.157 73.0815 116.499 72.1858 117.941C72.3083 116.249 72.1451 113.963 70.7364 112.588ZM71.3854 119.813C69.0267 119.021 66.7396 118.711 64.6103 118.717C64.6765 117.542 65.113 113.311 67.8334 112.351C68.4587 112.379 69.0896 112.424 69.7256 112.486C72.5376 114.112 71.5725 118.992 71.3854 119.813ZM61.3834 112.614C63.0943 112.4 64.8729 112.29 66.7071 112.315C65.1122 113.46 64.4812 115.736 64.2321 117.318C63.8597 115.726 63.0597 113.577 61.3834 112.614ZM60.2806 112.759C63.0022 113.428 63.7701 117.313 63.9571 118.733C61.4681 118.814 59.2122 119.299 57.341 119.9C57.2773 119.92 57.2198 119.944 57.1569 119.965C56.7972 118.473 56.165 114.666 58.4673 113.08C59.0622 112.962 59.6652 112.853 60.2806 112.759ZM57.4306 113.299C56.0491 114.922 56.1744 117.497 56.4556 119.159C55.735 117.716 54.2445 115.352 52.0765 114.85C53.7261 114.263 55.5171 113.727 57.4306 113.299ZM49.863 115.697C50.1745 115.568 50.4952 115.442 50.8199 115.316C53.9851 114.904 55.9488 119.215 56.3693 120.244C53.401 121.325 51.0892 122.729 50.2383 123.397C49.5678 122.29 47.2383 117.976 49.863 115.697ZM49.8428 123.77C49.1847 123.922 47.1426 124.476 45.5826 125.696C43.8249 124.728 41.9348 123.085 42.546 120.633C43.8224 118.488 46.269 118.69 48.1579 119.269C48.3975 121.281 49.4794 123.181 49.8428 123.77ZM41.4259 120.187C42.3886 119.521 44.9919 117.827 48.728 116.18C48.2458 116.95 48.0905 117.822 48.118 118.698C46.0643 118.107 43.4734 117.986 42.0713 120.39L42.0523 120.423L42.0429 120.459C41.3375 123.183 43.2707 124.987 45.1522 126.067C44.5167 126.66 44.0078 127.379 43.7981 128.262C42.306 124.415 41.6429 121.351 41.4259 120.187ZM44.7485 130.541C44.573 130.146 44.4053 129.757 44.2462 129.374C44.0855 125.952 48.6598 124.607 49.8732 124.315C50.0253 125.142 50.5951 127.802 52.0679 130.94C51.1952 131.313 46.7804 133.027 44.7485 130.541ZM45.2998 131.737C47.1767 132.884 49.826 132.289 51.3185 131.794C49.9822 132.755 48.1324 134.455 47.9433 136.562C46.9169 134.925 46.0442 133.3 45.2998 131.737ZM49.6837 139.134C49.271 138.57 48.8818 138.004 48.5073 137.437C48.0707 134.659 51.2071 132.442 52.435 131.692C53.3895 133.581 54.6741 135.592 56.3833 137.455C55.3383 138.277 52.1057 140.524 49.6837 139.134ZM56.1777 146.093C55.6244 145.63 55.0896 145.158 54.575 144.676C53.4318 141.992 56.1473 138.689 56.8247 137.928C58.3358 139.482 60.1597 140.909 62.3576 142.04C62.0235 142.594 59.322 146.86 56.1777 146.093ZM61.5951 143.985C61.2355 145.615 60.9058 148.493 62.3905 150.271C60.4006 149.215 58.582 148.025 56.9403 146.727C58.8554 146.725 60.5227 145.251 61.5951 143.985ZM50.3406 140.001C52.1727 140.476 54.1902 139.542 55.5381 138.697C54.6284 139.978 53.5194 142.003 53.8092 143.937C52.5312 142.668 51.3786 141.346 50.3406 140.001ZM51.1496 157.731C50.1059 159.41 50.378 161.759 50.7422 163.318C49.8009 161.992 48.2541 160.319 46.3426 160.082C47.8434 159.218 49.4453 158.422 51.1496 157.731ZM42.9489 162.257C42.2817 164.294 43.3653 166.625 44.2499 168.05C43.041 166.998 40.776 165.395 38.585 165.777C39.8885 164.591 41.3412 163.398 42.9489 162.257ZM40.0977 174.391C39.0619 173.628 35.2895 170.551 36.8582 167.422C37.0978 167.182 37.3461 166.94 37.5989 166.697C40.3686 165.082 43.8018 168.3 44.5775 169.086C42.241 171.243 40.633 173.44 40.0977 174.391ZM45.3458 168.39C45.2944 168.434 45.2504 168.478 45.2003 168.522C44.3074 167.283 42.2937 164.013 43.8249 161.651C44.3301 161.31 44.8459 160.974 45.3791 160.647C48.1443 160.204 50.3135 163.495 51.0201 164.733C48.7515 165.778 46.8486 167.105 45.3458 168.39ZM51.6174 164.464C51.2363 163.351 50.05 159.272 52.204 157.324C52.7914 157.106 53.3915 156.902 54.0012 156.712C57.2107 157.118 58.1521 162.003 58.2881 162.834C55.8115 163.022 53.5823 163.628 51.6174 164.464ZM54.9754 156.413C57.0418 155.831 59.2397 155.427 61.5532 155.229C59.4132 156.238 58.6108 159.111 58.3243 160.793C57.8014 159.182 56.7927 157.134 54.9754 156.413ZM64.0007 163.199C63.9579 163.178 63.9296 163.137 63.881 163.128C62.0942 162.807 60.4109 162.723 58.8205 162.803C58.8016 162.683 58.7576 162.434 58.684 162.106C58.686 162.095 58.6971 162.089 58.6971 162.077C58.7008 162.009 59.0827 155.275 63.3282 155.396C65.6404 156.188 66.0013 158.613 65.8616 160.654C65.194 161.51 64.5692 162.36 64.0007 163.199ZM70.53 155.573C68.9963 156.991 67.63 158.466 66.4231 159.948C66.4231 159.937 66.4247 159.925 66.4247 159.913C66.4247 158.028 65.8961 156.029 63.9826 155.105C66.0733 155.069 68.256 155.215 70.53 155.573ZM47.064 157.725C43.0011 154.081 41.0214 149.599 40.5191 148.331C40.5285 148.305 40.5335 148.277 40.5392 148.249C41.4785 147.295 44.9545 144.049 49.9941 142.302C53.5708 146.577 58.4969 150.716 65.1685 153.415C58.0797 153.305 52.019 155.156 47.064 157.725ZM70.932 153.514C68.7402 152.969 66.7051 152.271 64.8187 151.444C66.8547 151.277 68.0554 149.663 68.7485 147.957C68.7628 147.921 68.7719 147.885 68.7855 147.85C69.3433 149.7 70.0487 151.603 70.932 153.514ZM67.7849 143.945C67.9917 144.929 68.2416 145.942 68.5314 146.978C67.9029 148.936 66.6553 151.093 64.1906 150.921C60.223 149.379 62.3996 143.008 62.4222 142.944C62.4259 142.933 62.4185 142.923 62.421 142.912C62.6618 142.565 62.8041 142.33 62.8374 142.273C64.2769 142.968 65.8632 143.543 67.6271 143.941C67.6809 143.954 67.7327 143.949 67.7849 143.945ZM67.2625 130.394C63.7824 128.799 62.9812 126.562 62.846 125.242C63.232 124.82 63.4441 123.961 63.3442 122.996C63.2085 121.675 62.6236 121.415 61.9425 121.487C61.2618 121.56 60.7426 121.938 60.8782 123.259C60.9715 124.171 61.3193 124.926 61.7485 125.287C61.7879 125.724 61.8796 126.234 62.0769 126.79C62.275 127.35 62.6043 127.999 63.1231 128.663L59.927 127.315C59.8658 127.289 59.8021 127.28 59.7396 127.277C59.5838 126.601 58.8015 125.834 57.6987 125.369C56.2756 124.768 55.6799 125.241 55.37 126.003C55.0605 126.764 55.1538 127.527 56.5769 128.128C57.6793 128.593 58.7646 128.615 59.3446 128.248C59.391 128.291 59.4416 128.331 59.5028 128.357L62.8139 129.754C61.924 129.841 61.1927 130.069 60.6357 130.335C60.1371 130.574 59.7371 130.851 59.4144 131.118C58.8579 131.048 58.0756 131.32 57.3599 131.911C56.3483 132.746 56.4519 133.388 56.8835 133.93C57.3143 134.472 57.9091 134.709 58.922 133.873C59.6381 133.282 60.075 132.553 60.1219 131.984C61.1389 131.157 63.2517 130.165 66.7667 131.51C66.6808 132.825 66.5205 137.19 67.5486 142.75C54.4846 139.592 51.4156 126.494 50.9811 124.219C52.8678 122.921 64.1191 115.857 75.5565 123.038C71.1466 126.104 68.2782 129.201 67.2625 130.394ZM76.5262 122.376C76.4941 122.341 76.4839 122.291 76.4419 122.264C74.9119 121.272 73.3877 120.537 71.889 119.992C71.9165 119.872 71.9691 119.626 72.0246 119.294C72.0308 119.285 72.0435 119.283 72.0481 119.273C72.0764 119.211 74.9596 113.138 78.836 114.906C80.6751 116.539 80.0971 118.92 79.201 120.752C78.2629 121.281 77.3668 121.823 76.5262 122.376ZM85.4233 117.876C83.4736 118.588 81.6575 119.418 79.9853 120.317C79.9898 120.307 79.9956 120.297 80.0005 120.286C80.7083 118.544 80.9706 116.491 79.55 114.892C81.4951 115.673 83.4571 116.659 85.4233 117.876ZM86.5681 116.131C84.7479 114.773 83.1295 113.334 81.6974 111.834C83.6409 112.474 85.3567 111.451 86.6383 110.145C86.6651 110.117 86.6864 110.089 86.7127 110.061C86.5327 111.988 86.4698 114.02 86.5681 116.131ZM87.2554 106.063C87.077 107.054 86.9269 108.087 86.8057 109.157C85.4894 110.721 83.5262 112.227 81.3143 111.108C78.228 108.136 82.6321 103.099 82.6769 103.049C82.6843 103.04 82.681 103.028 82.6876 103.019C83.0411 102.792 83.2606 102.63 83.3128 102.59C84.3816 103.794 85.6308 104.944 87.1111 105.999C87.1563 106.031 87.206 106.047 87.2554 106.063ZM102.29 89.7765C97.0633 90.8908 93.2499 92.6344 91.8642 93.3395C89.2478 90.5097 89.3481 88.1317 89.7189 86.8587C90.2343 86.6188 90.7523 85.9082 91.0236 84.9778C91.3935 83.7048 90.9516 83.2363 90.2948 83.0378C89.6387 82.8393 89.0163 82.9863 88.6456 84.2592C88.3895 85.1386 88.4269 85.9714 88.6871 86.4727C88.5601 86.8914 88.4528 87.3989 88.4265 87.9889C88.3993 88.5839 88.4598 89.3113 88.6887 90.1278L86.2421 87.6355C86.1952 87.5882 86.1405 87.5551 86.083 87.5283C86.1936 86.8424 85.7591 85.8291 84.9148 84.9694C83.8259 83.8598 83.0979 84.0641 82.5257 84.647C81.9535 85.2299 81.7529 85.9714 82.8418 87.0811C83.6865 87.9408 84.6809 88.3838 85.3542 88.2711C85.3813 88.3289 85.4134 88.385 85.4602 88.4328L87.994 91.0139C87.139 90.7471 86.3777 90.673 85.7632 90.7019C85.2206 90.7279 84.7528 90.8259 84.3574 90.9439C83.8711 90.6588 83.0313 90.6131 82.1446 90.8807C80.8954 91.258 80.7511 91.8915 80.9459 92.5607C81.1408 93.2294 81.6012 93.6808 82.8504 93.3031C83.7338 93.0359 84.4112 92.533 84.6689 92.0251C85.9194 91.6579 88.2436 91.5653 90.9858 94.1774C90.4127 95.3591 88.623 99.3342 87.4839 104.877C76.5907 96.8674 78.6871 83.5599 79.141 81.2879C81.3722 80.8239 94.4206 78.6833 102.29 89.7765ZM103.434 89.5441C103.418 89.4989 103.427 89.449 103.398 89.4076C102.358 87.8939 101.226 86.6217 100.046 85.533C100.116 85.4334 100.257 85.2261 100.434 84.9409C100.443 84.9346 100.455 84.938 100.463 84.93C100.512 84.8844 105.458 80.3976 108.374 83.5415C109.46 85.7671 108.032 87.7419 106.516 89.0852C105.45 89.2087 104.418 89.3603 103.434 89.5441ZM107.403 88.9905C107.411 88.9817 107.421 88.975 107.429 88.9662C108.738 87.6338 109.752 85.8391 109.04 83.8078C110.543 85.2881 111.985 86.9634 113.345 88.8544C111.276 88.7527 109.286 88.8113 107.403 88.9905ZM115.058 87.6883C113.887 85.724 112.932 83.7639 112.172 81.8201C113.728 83.1688 115.697 82.8921 117.372 82.1856C117.407 82.171 117.437 82.1517 117.472 82.1366C116.581 83.8468 115.76 85.6997 115.058 87.6883ZM119.475 78.6549C118.938 79.4999 118.411 80.3964 117.897 81.3377C116.094 82.2694 113.714 82.8958 112.091 80.9989C110.356 77.0507 116.318 74.1141 116.378 74.0848C116.388 74.0802 116.389 74.0676 116.399 74.0613C116.811 73.9889 117.074 73.9252 117.138 73.9093C117.673 75.4373 118.395 76.987 119.366 78.5393C119.396 78.5862 119.436 78.6201 119.475 78.6549ZM120.131 77.6478C113.077 66.0019 120.013 54.5247 121.286 52.6027C123.521 53.0437 136.366 56.1595 139.473 69.4661C134.231 68.4603 130.058 68.5847 128.513 68.6961C127.159 65.0618 128.145 62.9037 128.966 61.8723C129.532 61.8518 130.278 61.397 130.878 60.6433C131.698 59.612 131.465 59.0061 130.933 58.5668C130.401 58.1276 129.771 58.0212 128.951 59.0521C128.388 59.7602 128.126 60.5294 128.173 61.093C127.894 61.4331 127.598 61.8677 127.347 62.4129C127.099 62.9518 126.881 63.6473 126.787 64.4915L125.462 61.2354C125.437 61.173 125.399 61.1215 125.356 61.0742C125.716 60.4834 125.695 59.3783 125.238 58.2549C124.649 56.8052 123.899 56.7097 123.151 57.0254C122.404 57.3408 121.94 57.9475 122.53 59.3976C122.987 60.5211 123.739 61.3179 124.403 61.4766C124.406 61.5403 124.415 61.6047 124.44 61.6676L125.811 65.0396C125.122 64.4601 124.446 64.095 123.867 63.8818C123.357 63.6942 122.888 63.6025 122.478 63.5577C122.135 63.1042 121.377 62.7349 120.458 62.6369C119.162 62.4987 118.79 63.0276 118.719 63.7215C118.648 64.4157 118.904 65.0116 120.2 65.1494C121.117 65.2469 121.932 65.0468 122.36 64.6774C123.653 64.8261 125.836 65.6464 127.388 69.129C126.414 69.9966 123.267 72.9713 120.131 77.6478ZM140.652 69.7052C140.654 69.657 140.657 69.6089 140.646 69.5603C140.253 67.756 139.686 66.1392 139.004 64.6737C139.106 64.6096 139.314 64.4727 139.585 64.2784C139.595 64.2759 139.606 64.2834 139.615 64.2796C139.679 64.2566 145.933 62.0394 147.447 66.0806C147.613 68.56 145.552 69.8279 143.647 70.4774C142.625 70.1788 141.622 69.9179 140.652 69.7052ZM144.503 70.7357C144.514 70.7311 144.525 70.7282 144.536 70.7236C146.245 70.0021 147.856 68.7396 147.962 66.5856C148.795 68.5394 149.498 70.6494 150.043 72.9265C148.17 72.0258 146.31 71.3044 144.503 70.7357ZM152.064 72.5174C151.719 70.2458 151.574 68.0629 151.602 65.9709C152.533 67.8238 154.456 68.3355 156.269 68.3355C156.307 68.3355 156.342 68.3301 156.38 68.3292C154.915 69.562 153.46 70.9539 152.064 72.5174ZM159.161 60.5977C159.081 62.2178 159.167 63.9308 159.481 65.7435C159.49 65.7988 159.515 65.8457 159.538 65.893C158.724 66.4646 157.901 67.0873 157.073 67.7568C155.057 67.9147 152.623 67.5655 151.836 65.1803C151.715 60.8565 158.327 60.467 158.394 60.4637C158.405 60.4628 158.411 60.4515 158.422 60.4499C158.829 60.5441 159.096 60.5876 159.161 60.5977ZM151.737 63.2374C151.932 60.9603 152.316 58.7933 152.865 56.752C153.6 58.5526 155.575 59.558 157.133 60.0826C155.517 60.3682 152.782 61.1592 151.737 63.2374ZM159.189 60.0563C158.558 59.9537 153.656 59.0442 153.148 55.7914C153.356 55.0938 153.579 54.4092 153.82 53.7405C155.817 51.6384 159.852 52.9294 160.802 53.2757C159.97 55.2923 159.374 57.5547 159.189 60.0563ZM154.197 52.7372C154.859 51.0488 155.617 49.458 156.44 47.9661C156.71 49.8722 158.329 51.4135 159.611 52.3586C158.102 51.9931 155.84 51.7238 154.197 52.7372ZM163.745 38.1639C166.787 36.7029 169.758 40.4941 170.486 41.5242C169.795 41.9836 167.601 43.5375 165.318 46.1249C164.645 45.447 161.403 41.9476 162.878 39.0843C163.17 38.7673 163.459 38.4603 163.745 38.1639ZM162.005 40.0599C161.684 42.2654 163.237 44.5308 164.257 45.7459C162.874 44.8565 160.624 43.7657 158.641 44.3938C159.733 42.8018 160.872 41.3588 162.005 40.0599ZM156.975 47.0168C157.328 46.413 157.693 45.8293 158.063 45.2602C160.415 43.7863 163.627 45.8887 164.777 46.7584C163.43 48.3794 162.097 50.3579 161.061 52.6794C159.916 52.0107 156.642 49.8278 156.975 47.0168ZM154.227 48.5071C151.715 53.5118 149.843 59.7359 149.948 67.0554C147.338 60.3485 143.344 55.3555 139.123 51.6769C140.877 46.4519 144.175 42.8634 145.127 41.9111C145.154 41.9099 145.182 41.904 145.21 41.899C146.443 42.4216 150.72 44.4382 154.227 48.5071Z" fill="#6849FF"/>
<path id="Vector_15" d="M155.855 95.5087C155.855 95.5087 145.64 102.995 152.493 118.278L159.261 138.578C160.817 138.055 162.408 137.634 164.023 137.319C159.393 126.036 156.055 110.022 156.413 98.5231C161.723 109.644 163.851 127.817 164.354 137.259C165.809 136.989 167.284 136.801 168.772 136.71L167.686 115.273C167.769 98.06 155.855 95.5087 155.855 95.5087Z" fill="#6849FF"/>
<path id="Vector_16" d="M165.805 148.236C162.807 141.019 157.764 141.206 157.509 141.22L157.324 141.231L157.185 141.356C156.995 141.53 153.306 145.023 156.177 152.266C150.705 146.793 146.128 148.926 145.898 149.039L145.732 149.121L145.651 149.291C145.54 149.525 143.445 154.191 148.817 159.763C141.706 156.84 138.279 160.595 138.108 160.789L137.986 160.93L137.975 161.118C137.96 161.378 137.777 166.518 144.861 169.57C137.183 169.637 135.411 174.435 135.327 174.681L135.265 174.86L136.403 174.86C136.868 173.822 139.659 168.941 150.124 171.25L158.951 173.01C159.718 173.163 160.126 173.657 160.312 174.181C152.85 174.036 144.635 174.215 140.793 174.86L161.507 174.86C161.507 174.131 161.24 173.351 160.681 172.77C161.416 172.45 161.956 171.833 162.23 171.16L162.23 171.16C162.504 170.487 162.549 169.662 162.251 168.906C163.051 168.898 163.781 168.539 164.287 168.024L164.288 168.024C164.793 167.509 165.146 166.764 165.154 165.95C165.896 166.254 166.705 166.207 167.366 165.928L167.366 165.928C168.027 165.649 168.632 165.099 168.946 164.35C169.517 164.92 170.283 165.192 170.998 165.192L170.998 144.092L170.998 144.091C170.365 148.005 170.189 156.372 170.332 163.974C169.816 163.785 169.332 163.37 169.182 162.587L167.453 153.586C165.186 142.929 169.984 140.09 170.998 139.619L170.998 138.46L170.823 138.523C170.582 138.608 165.868 140.415 165.805 148.236ZM160.562 168.454C161.216 168.896 161.417 169.514 161.391 170.072C154.549 167.027 146.887 163.988 143.092 163.085C146.402 165.18 153.929 168.55 160.881 171.325C160.512 171.739 159.941 172.031 159.172 171.872L150.346 170.055C139.814 168.11 139.075 162.508 139.035 161.373C139.855 160.596 144.267 157.174 153.068 163.387L160.562 168.454ZM163.921 166.692C158.743 161.211 152.806 155.416 149.64 153.104C151.91 156.329 157.598 162.377 162.979 167.651C162.482 167.889 161.845 167.937 161.194 167.49L153.723 162.371C144.724 156.468 146.146 151.004 146.535 149.941C147.585 149.543 152.946 148.1 158.743 157.272L163.763 164.874C164.201 165.537 164.155 166.186 163.921 166.692ZM166.284 153.834L168.066 162.814C168.221 163.597 167.934 164.178 167.528 164.554C164.804 157.473 161.495 149.805 159.439 146.433C160.325 150.298 163.308 158.104 166.298 165.074C165.749 165.1 165.144 164.896 164.71 164.23L159.73 156.587C153.633 147.626 156.999 143.132 157.759 142.302C158.878 142.343 164.373 143.1 166.284 153.834Z" fill="#6849FF"/>
<path id="Vector_17" d="M166.624 6.58172C166.157 6.59428 165.69 6.6077 165.223 6.62445C164.777 6.64036 164.329 6.64622 163.884 6.66548C163.369 6.68767 162.856 6.72452 162.342 6.75174C162.027 6.7689 161.713 6.78609 161.398 6.80493C160.321 6.86815 159.244 6.94267 158.169 7.02727C157.965 7.04318 157.761 7.06035 157.557 7.07753C156.399 7.17342 155.242 7.28102 154.087 7.40204C153.957 7.41586 153.827 7.4301 153.698 7.44392C152.485 7.57414 151.274 7.71692 150.066 7.87437C150.035 7.87856 150.003 7.8815 149.972 7.88568C149.924 7.89197 149.875 7.90033 149.826 7.90662C148.585 8.07034 147.344 8.24747 146.106 8.44051C146.045 8.45013 145.983 8.4606 145.921 8.47066C145.277 8.57158 144.633 8.6704 143.991 8.77884C143.559 8.85213 143.13 8.92876 142.7 9.00496C142.577 9.02716 142.453 9.05144 142.33 9.07405C142.078 9.11928 141.826 9.1691 141.574 9.21474C140.634 9.38893 139.695 9.56523 138.759 9.75618C137.822 9.94504 136.888 10.1477 135.956 10.3529C135.704 10.4086 135.453 10.4609 135.202 10.5183C134.019 10.7846 132.84 11.066 131.663 11.3591C131.6 11.375 131.536 11.3901 131.473 11.4056C131.017 11.5195 130.56 11.6242 130.106 11.7422C129.35 11.9386 128.598 12.153 127.844 12.3603C127.763 12.3825 127.682 12.4043 127.6 12.4269C127.112 12.5617 126.623 12.6873 126.137 12.8268C125.451 13.0236 124.771 13.2376 124.089 13.4436C124.017 13.4649 123.945 13.4842 123.874 13.5055C123.819 13.5223 123.766 13.5407 123.711 13.5571C122.601 13.895 121.494 14.2455 120.39 14.6072C120.191 14.6726 119.992 14.7379 119.793 14.804C118.772 15.1436 117.754 15.4933 116.738 15.8538C116.592 15.9053 116.446 15.9522 116.301 16.0037C116.146 16.059 115.993 16.1197 115.839 16.1754C115.354 16.3504 114.867 16.5158 114.385 16.6955C113.965 16.8512 113.55 17.0204 113.132 17.1795C112.694 17.3462 112.259 17.5154 111.822 17.6854C111.072 17.9789 110.323 18.2766 109.576 18.5819C109.326 18.6832 109.076 18.7779 108.826 18.8809C108.469 19.0287 108.117 19.187 107.76 19.3373C107.403 19.4885 107.044 19.63 106.687 19.7837C106.44 19.8909 106.195 20.0052 105.948 20.1132C105.211 20.4344 104.477 20.7627 103.745 21.0939C103.316 21.289 102.886 21.4846 102.459 21.683C101.584 22.0884 100.714 22.5025 99.8478 22.9229C99.5633 23.0615 99.2785 23.2001 98.9948 23.3404C98.5053 23.5816 98.0103 23.8144 97.5228 24.0606C97.0439 24.3022 96.5724 24.5573 96.096 24.8043C95.9135 24.8985 95.7318 24.9932 95.5505 25.0882C94.5159 25.6288 93.487 26.1803 92.4643 26.7426C92.35 26.8055 92.2365 26.8691 92.1223 26.9319C91.9204 27.0433 91.7186 27.1547 91.5172 27.2669C90.6502 27.7514 89.7887 28.2434 88.9312 28.7434C88.8584 28.7857 88.7861 28.8288 88.7137 28.8715C87.6289 29.5059 86.5519 30.152 85.4828 30.8115C85.4293 30.8442 85.3755 30.8781 85.322 30.9112C84.2841 31.5531 83.2523 32.2051 82.228 32.8709C82.0159 33.0082 81.8066 33.1493 81.5953 33.2871C80.7888 33.8168 79.9831 34.3486 79.1857 34.8929C78.3927 35.4314 77.608 35.9821 76.8245 36.5348C76.6124 36.6843 76.3991 36.8313 76.1878 36.9824C75.1947 37.6897 74.2106 38.4099 73.2335 39.1398C73.1809 39.1783 73.1295 39.2164 73.0777 39.2553C72.0706 40.0086 71.0734 40.7749 70.0835 41.5517C70.0428 41.5835 70.0009 41.6141 69.9606 41.6463C69.9347 41.6664 69.9088 41.6882 69.8829 41.7087C68.9202 42.467 67.9661 43.2371 67.0199 44.0176C66.9183 44.1014 66.8164 44.1847 66.7153 44.2684C65.8154 45.0138 64.9234 45.7705 64.0388 46.5359C63.8806 46.6724 63.7227 46.8089 63.5657 46.9463C62.7485 47.6589 61.9379 48.38 61.1343 49.109C60.8971 49.3243 60.6603 49.5403 60.4239 49.7568C60.0425 50.1073 59.6548 50.4498 59.2762 50.8041C58.9494 51.1102 58.63 51.4267 58.3045 51.7358C57.96 52.0632 57.6172 52.3932 57.2744 52.7244C56.6956 53.2842 56.1193 53.8475 55.5467 54.4169C55.353 54.6096 55.1549 54.7963 54.9617 54.9898C54.6855 55.2674 54.4179 55.5525 54.1441 55.8318C53.8724 56.109 53.5953 56.3783 53.3253 56.6572C53.1374 56.8519 52.9557 57.052 52.7683 57.2476C52.5299 57.4955 52.2849 57.7384 52.0485 57.9879C51.7258 58.3284 51.4138 58.6776 51.094 59.0205C50.7734 59.3647 50.4536 59.7093 50.1371 60.0561C49.4785 60.7742 48.8278 61.4982 48.1829 62.2272C47.9736 62.4642 47.7648 62.7016 47.5564 62.9395C47.1939 63.3544 46.8231 63.7631 46.465 64.1806C46.1136 64.5914 45.7736 65.011 45.4259 65.4247C45.2931 65.5821 45.1616 65.7404 45.0296 65.8987C44.2757 66.8023 43.5317 67.7131 42.7979 68.6318C42.7166 68.7331 42.6364 68.8353 42.555 68.9375C42.2718 69.2942 41.9853 69.6497 41.7045 70.009C41.2264 70.6208 40.7558 71.2384 40.2863 71.8569C40.2354 71.9239 40.1848 71.9917 40.1338 72.0596C39.3705 73.0683 38.6178 74.085 37.8779 75.1113C37.8405 75.1632 37.8039 75.2152 37.7661 75.2671C37.2716 75.9546 36.7718 76.6389 36.2875 77.3344C36.0705 77.6463 35.8629 77.965 35.6475 78.2782C35.4987 78.4943 35.3536 78.7129 35.206 78.9298C34.6642 79.7266 34.1245 80.5256 33.5967 81.3325C33.475 81.5176 33.348 81.6989 33.2271 81.884C32.8177 82.5125 32.4227 83.1506 32.0215 83.785C31.885 84.0011 31.7457 84.2159 31.6105 84.4328C30.9581 85.4738 30.3189 86.5236 29.69 87.5792C29.6678 87.6156 29.6451 87.652 29.6234 87.6889C29.6114 87.7086 29.5999 87.7291 29.5888 87.7488C28.9422 88.8358 28.3096 89.9312 27.6872 91.0338C27.6441 91.11 27.6005 91.1858 27.5578 91.262C27.3074 91.7079 27.0485 92.1489 26.8018 92.5973C26.4541 93.2296 26.1211 93.8711 25.7816 94.5084C25.7191 94.6257 25.6562 94.7425 25.5937 94.8598C25.0421 95.9007 24.5019 96.948 23.9717 98.0011C23.8783 98.187 23.7842 98.3734 23.6917 98.5593C23.4492 99.0442 23.1993 99.5241 22.9621 100.012C22.7204 100.507 22.4926 101.011 22.2563 101.508C22.1182 101.799 21.9813 102.09 21.8444 102.382C21.4325 103.264 21.0264 104.149 20.6289 105.039C20.434 105.475 20.2413 105.912 20.0501 106.35C19.7245 107.095 19.4027 107.841 19.0882 108.592C18.9813 108.844 18.8691 109.094 18.7639 109.347C18.613 109.711 18.4737 110.078 18.3249 110.442C18.1777 110.804 18.0232 111.162 17.878 111.525C17.7769 111.779 17.6848 112.034 17.5854 112.287C17.2853 113.049 16.993 113.814 16.7041 114.58C16.5376 115.023 16.3715 115.466 16.2087 115.91C16.0517 116.337 15.8856 116.761 15.7323 117.188C15.5555 117.681 15.3923 118.179 15.2201 118.674C15.1659 118.83 15.1071 118.984 15.0536 119.14C15.0039 119.286 14.9583 119.434 14.9077 119.58C14.553 120.618 14.2085 121.66 13.8743 122.704C13.8106 122.903 13.7473 123.101 13.6848 123.3C13.4904 123.914 13.2873 124.526 13.1007 125.142C12.9445 125.658 12.8014 126.177 12.6502 126.695C12.6345 126.749 12.6164 126.801 12.6008 126.855C12.5807 126.925 12.5626 126.996 12.542 127.066C12.1951 128.259 11.8605 129.456 11.5403 130.657C11.5197 130.734 11.4992 130.812 11.479 130.889C11.151 132.124 10.8365 133.363 10.5369 134.605C10.5237 134.66 10.511 134.715 10.4978 134.77C10.208 135.975 9.93055 137.184 9.66748 138.396C9.61116 138.649 9.561 138.904 9.50633 139.158C9.3045 140.11 9.10513 141.062 8.91975 142.017C8.73271 142.968 8.56007 143.922 8.38989 144.876C8.34385 145.137 8.2937 145.397 8.2493 145.658C8.03801 146.873 7.84234 148.09 7.6582 149.309C7.65202 149.352 7.64381 149.394 7.63765 149.436C7.63435 149.459 7.63188 149.482 7.62819 149.505C7.44034 150.76 7.26646 152.017 7.10614 153.277C7.09505 153.366 7.0827 153.456 7.07161 153.546C6.91746 154.772 6.77811 156.001 6.65068 157.231C6.63711 157.366 6.62231 157.5 6.60916 157.635C6.49077 158.809 6.38554 159.986 6.29059 161.164C6.27415 161.374 6.25688 161.584 6.24127 161.794C6.15823 162.887 6.08546 163.981 6.02299 165.076C6.0049 165.398 5.98764 165.72 5.97119 166.043C5.94406 166.566 5.90829 167.088 5.88609 167.612C5.86719 168.066 5.86143 168.521 5.84582 168.974C5.82938 169.452 5.81622 169.93 5.80348 170.408C5.78334 171.223 5.76607 172.039 5.75703 172.856C5.75374 173.13 5.74388 173.404 5.74182 173.679C5.73854 174.073 5.74757 174.465 5.74757 174.859L6.05711 174.859C6.05711 173.47 6.07478 172.085 6.10684 170.703C6.12164 170.085 6.15042 169.468 6.17221 168.85C6.1981 168.097 6.21866 167.342 6.25401 166.59C6.29388 165.75 6.34938 164.913 6.40117 164.075C6.43323 163.555 6.45912 163.034 6.49571 162.515C6.56517 161.536 6.65027 160.561 6.737 159.586C6.76948 159.214 6.79703 158.842 6.83156 158.471C6.93432 157.393 7.05147 156.317 7.17396 155.242C7.20355 154.981 7.22944 154.718 7.26069 154.457C7.39758 153.305 7.54884 152.155 7.70917 151.008C7.73424 150.828 7.75644 150.647 7.78192 150.467C7.95416 149.262 8.14079 148.059 8.33891 146.858C8.35167 146.782 8.36317 146.706 8.3755 146.631C8.38373 146.58 8.39193 146.528 8.40016 146.477C8.55842 145.53 8.73271 144.586 8.90699 143.643C9.00442 143.12 9.09814 142.595 9.20091 142.074C9.30244 141.551 9.4122 141.031 9.51867 140.51C9.71187 139.572 9.90507 138.634 10.1143 137.7C10.1262 137.645 10.1394 137.59 10.1517 137.536C10.1686 137.46 10.1871 137.385 10.2039 137.309C10.4715 136.126 10.7494 134.946 11.0425 133.769C11.0873 133.589 11.1358 133.409 11.1814 133.229C11.4634 132.111 11.754 130.995 12.059 129.882C12.131 129.62 12.2082 129.359 12.2822 129.096C12.57 128.064 12.8635 127.033 13.1714 126.005C13.2803 125.642 13.397 125.282 13.508 124.92C13.7933 123.991 14.079 123.062 14.3807 122.138C14.4946 121.786 14.6183 121.437 14.7351 121.086C14.7823 120.943 14.8317 120.801 14.8798 120.658C15.1465 119.863 15.41 119.066 15.6895 118.274C15.93 117.591 16.1849 116.912 16.4348 116.231C16.6568 115.626 16.8709 115.019 17.0999 114.416C17.5883 113.127 18.0922 111.842 18.6134 110.561C19.1338 109.279 19.6703 108.007 20.2191 106.743C20.4702 106.166 20.7337 105.596 20.9914 105.022C21.2936 104.347 21.5908 103.669 21.9011 102.999C22.2546 102.236 22.6209 101.482 22.9851 100.726C23.2091 100.261 23.4274 99.7912 23.6551 99.3281C24.0868 98.4534 24.5311 97.5866 24.9759 96.7206C25.1469 96.3881 25.313 96.0523 25.486 95.7211C25.9826 94.7706 26.4919 93.8284 27.0057 92.8888C27.1352 92.6526 27.2606 92.4135 27.3905 92.1778C27.9475 91.1711 28.5168 90.1724 29.0939 89.1783C29.1864 89.018 29.2768 88.8559 29.3706 88.696C29.9826 87.6491 30.607 86.6098 31.2413 85.5776C31.275 85.5228 31.3083 85.4675 31.3416 85.4126C31.3753 85.3582 31.4078 85.3034 31.4415 85.2489C31.9422 84.4378 32.4564 83.6364 32.9702 82.8345C33.258 82.3877 33.5424 81.9388 33.8339 81.495C34.1229 81.0536 34.4188 80.6177 34.7123 80.1793C35.2447 79.3858 35.777 78.5923 36.3229 77.8076C36.3549 77.7619 36.3874 77.7167 36.4191 77.671C36.4602 77.6128 36.5021 77.5546 36.5432 77.496C37.2371 76.504 37.94 75.5183 38.6556 74.5414C38.7638 74.3944 38.8747 74.2496 38.9825 74.103C39.6656 73.1768 40.3554 72.2555 41.0583 71.3431C41.2166 71.1375 41.3794 70.9348 41.5393 70.7301C42.199 69.8804 42.8641 69.0342 43.5411 68.1963C43.7726 67.9099 44.011 67.6281 44.2453 67.3433C44.8623 66.5904 45.4797 65.8384 46.1107 65.0951C46.4424 64.7045 46.7844 64.3201 47.1203 63.9319C47.6674 63.2992 48.2121 62.6644 48.7695 62.0392C49.2553 61.494 49.7531 60.958 50.2468 60.4187C50.6723 59.9539 51.0911 59.4841 51.5219 59.023C52.4575 58.0231 53.4067 57.0319 54.3686 56.0513C55.3321 55.0706 56.3047 54.1041 57.2879 53.1498C57.7348 52.7169 58.1894 52.2952 58.6399 51.8672C59.1743 51.3597 59.7062 50.8468 60.2468 50.3472C60.8568 49.7828 61.4771 49.2309 62.0945 48.6761C62.4797 48.3306 62.8603 47.9793 63.2479 47.638C63.9735 46.999 64.708 46.373 65.443 45.7474C65.7267 45.5058 66.0078 45.2596 66.2927 45.0201C67.1099 44.335 67.9353 43.6621 68.7636 42.9938C68.9704 42.8267 69.1751 42.6559 69.3826 42.4901C70.2771 41.7757 71.1802 41.0739 72.0879 40.3792C72.2325 40.2687 72.3752 40.1556 72.5203 40.0455C73.4752 39.3194 74.4396 38.6054 75.4097 37.9011C75.4746 37.8547 75.5383 37.8065 75.6029 37.76C75.6448 37.7295 75.6867 37.6985 75.7291 37.6679C76.4957 37.1143 77.271 36.5746 78.0462 36.0344C78.4807 35.7329 78.9144 35.4276 79.3522 35.1303C79.783 34.8368 80.2183 34.5504 80.6511 34.2606C81.4428 33.7339 82.2345 33.2075 83.0353 32.6946C83.0776 32.6673 83.12 32.641 83.1615 32.6142C83.2273 32.5723 83.2934 32.5317 83.3584 32.4902C84.3712 31.8454 85.3895 31.2097 86.4159 30.5871C86.5729 30.492 86.732 30.3999 86.889 30.3052C87.8649 29.7178 88.8457 29.1374 89.8335 28.57C90.0657 28.4368 90.3004 28.3091 90.5335 28.1768C91.4547 27.6538 92.3784 27.1358 93.3102 26.6304C93.642 26.4512 93.9778 26.2787 94.3104 26.1016C95.1543 25.6514 95.9982 25.2021 96.8511 24.7662C97.3123 24.5304 97.7793 24.3052 98.2434 24.0736C98.9792 23.706 99.7134 23.3354 100.456 22.9786C101.117 22.6604 101.787 22.356 102.454 22.0461C103.014 21.7861 103.57 21.5193 104.133 21.2647C105.373 20.7053 106.623 20.1593 107.881 19.6287C109.138 19.0978 110.399 18.5848 111.665 18.0869C112.241 17.8604 112.821 17.6481 113.398 17.4283C114.084 17.1674 114.768 16.9007 115.457 16.649C116.223 16.3693 116.993 16.1042 117.762 15.8362C118.257 15.6633 118.751 15.4841 119.246 15.3162C120.149 15.0113 121.055 14.7215 121.962 14.433C122.323 14.3175 122.682 14.1969 123.044 14.0842C124.048 13.7719 125.056 13.4746 126.066 13.1823C126.328 13.1061 126.588 13.0257 126.85 12.9511C127.936 12.6425 129.025 12.3486 130.116 12.0626C130.301 12.0144 130.484 11.9629 130.669 11.9152C131.822 11.6174 132.978 11.3348 134.136 11.0626C134.219 11.0434 134.301 11.0228 134.383 11.0036C134.428 10.9931 134.474 10.9818 134.519 10.9713C135.438 10.7582 136.36 10.5606 137.282 10.3638C137.793 10.2553 138.304 10.1435 138.816 10.0401C139.33 9.93581 139.845 9.83992 140.36 9.74027C141.284 9.56313 142.208 9.38643 143.135 9.22563C143.187 9.21642 143.238 9.20847 143.29 9.19925C143.368 9.18585 143.447 9.17372 143.525 9.16032C144.699 8.95975 145.874 8.77005 147.052 8.59544C147.236 8.56865 147.422 8.54477 147.606 8.51839C148.724 8.35634 149.844 8.20308 150.966 8.06448C151.238 8.03098 151.512 8.00334 151.784 7.97151C152.824 7.84883 153.864 7.73033 154.907 7.62775C155.29 7.59006 155.676 7.56116 156.061 7.52599C156.998 7.44014 157.936 7.35513 158.876 7.28563C159.409 7.24626 159.944 7.21905 160.477 7.18513C161.278 7.13362 162.078 7.07878 162.88 7.039C163.653 7.00088 164.43 6.97868 165.205 6.95148C165.775 6.93136 166.343 6.90375 166.914 6.88951C168.273 6.856 169.635 6.83842 171 6.83842L171 6.52269C170.614 6.52269 170.229 6.51347 169.843 6.5164C169.574 6.51808 169.307 6.52897 169.039 6.53233C168.231 6.54364 167.427 6.56038 166.624 6.58172Z" fill="#6849FF"/>
<path id="Vector_18" d="M148.933 10.6295C147.763 10.7944 146.594 10.9732 145.426 11.1646C144.751 11.2751 144.076 11.3777 143.403 11.4975C142.698 11.6227 141.993 11.7647 141.288 11.8999C140.611 12.0297 139.932 12.1545 139.255 12.2927C130.516 14.0438 121.977 16.5261 113.7 19.693C112.523 20.1436 111.351 20.6084 110.185 21.087C109.347 21.4308 108.51 21.78 107.678 22.1384C98.2365 26.2018 89.173 31.1798 80.599 37.0421C71.6863 43.0811 63.4252 49.9723 55.9126 57.6255C55.8657 57.6728 55.8209 57.7218 55.7741 57.7696C54.9125 58.6493 54.0599 59.5387 53.2177 60.4386C51.2322 62.5611 49.306 64.7419 47.4336 66.973C45.2019 69.6298 43.055 72.3633 40.9894 75.168C39.7109 76.9041 38.4671 78.6695 37.2536 80.4609C36.7336 81.2288 36.2128 81.9964 35.7047 82.7744C35.5041 83.0792 35.3085 83.3878 35.1095 83.6939C33.9733 85.4438 32.8717 87.2138 31.8046 89.0023C31.1502 90.0981 30.5097 91.2015 29.882 92.3111C28.3722 94.9789 26.9298 97.6823 25.5728 100.426C19.0069 113.704 14.2444 127.845 11.4084 142.528C9.29927 153.217 8.24118 164.038 8.24118 174.86L8.86395 174.86C8.86395 174.371 8.87711 173.884 8.88162 173.396C9.66594 174.108 10.5707 174.593 11.5301 174.86L15.0299 174.86C16.1061 174.56 17.1288 174.011 17.9723 173.152C18.9852 172.12 19.5426 170.749 19.5426 169.29C19.5426 168.815 19.4624 168.356 19.3481 167.909C21.6201 170.655 24.4215 173.018 27.6886 174.849C27.6824 174.852 27.6767 174.856 27.6705 174.86L28.4972 174.86C28.4972 174.762 28.4466 174.668 28.3558 174.619C28.3471 174.614 28.3385 174.608 28.3298 174.603C28.3323 174.597 28.3368 174.592 28.3393 174.587C28.7993 173.454 28.2719 172.155 27.1596 171.686C26.2844 171.317 25.313 171.576 24.7133 172.254C24.6977 172.242 24.6817 172.231 24.666 172.219C24.7273 172.122 24.8038 172.039 24.849 171.928C25.3098 170.796 24.7816 169.498 23.67 169.029C22.8878 168.699 22.0348 168.882 21.4314 169.405C21.4187 169.392 21.4075 169.378 21.3948 169.365C21.5387 169.195 21.676 169.016 21.7652 168.798C22.2256 167.665 21.6978 166.367 20.5862 165.898C19.9146 165.614 19.1977 165.721 18.6234 166.084C18.6103 166.065 18.595 166.048 18.5815 166.029C18.8335 165.81 19.0546 165.55 19.1903 165.217C19.6507 164.085 19.1229 162.786 18.0113 162.317C17.4494 162.08 16.8521 162.117 16.3338 162.343C16.3276 162.331 16.3219 162.32 16.3161 162.308C16.6992 162.073 17.0182 161.722 17.2032 161.268C17.6632 160.136 17.1358 158.837 16.0234 158.368C15.5585 158.172 15.0677 158.161 14.6172 158.287C15.1257 158.068 15.5544 157.655 15.7817 157.093C16.2421 155.961 15.7143 154.663 14.6028 154.194C14.2431 154.042 13.8732 154.027 13.5127 154.074C13.5086 154.05 13.5024 154.027 13.4983 154.003C14.1564 153.846 14.7384 153.405 15.0167 152.721C15.4771 151.588 14.9493 150.289 13.8378 149.821C13.5838 149.713 13.3207 149.665 13.0605 149.658C13.0605 149.656 13.0601 149.654 13.0601 149.652C13.8427 149.581 14.5629 149.092 14.8844 148.302C15.3452 147.169 14.817 145.871 13.7054 145.402C13.5509 145.337 13.3934 145.299 13.234 145.273C13.2364 145.252 13.2418 145.232 13.2442 145.211C14.1712 145.301 15.0866 144.814 15.4611 143.892C15.9219 142.76 15.3937 141.462 14.2822 140.992C14.2205 140.966 14.1568 140.96 14.0943 140.941C14.0976 140.93 14.1005 140.918 14.1038 140.905C15.131 141.163 16.2154 140.633 16.633 139.607C17.0782 138.512 16.5936 137.267 15.5548 136.762C15.5561 136.759 15.5581 136.755 15.5589 136.752L15.5598 136.752C16.6713 137.221 17.946 136.683 18.4064 135.551C18.8002 134.582 18.4664 133.495 17.6665 132.907C17.7466 132.953 17.8247 133.004 17.9127 133.041C19.0242 133.511 20.2985 132.973 20.7593 131.84C21.091 131.024 20.904 130.126 20.3597 129.51C20.4547 129.577 20.5517 129.643 20.6594 129.696C21.7446 130.226 23.046 129.759 23.566 128.653C23.9479 127.841 23.7736 126.933 23.238 126.287C23.2557 126.271 23.2746 126.258 23.2923 126.243C23.4929 126.51 23.735 126.749 24.0536 126.905C25.1388 127.435 26.4398 126.968 26.9594 125.862C27.3047 125.13 27.197 124.315 26.7838 123.685C26.8106 123.669 26.8373 123.653 26.864 123.637C27.0753 124.031 27.3713 124.383 27.7992 124.592C28.8844 125.121 30.1858 124.654 30.7054 123.549C30.9586 123.01 30.9767 122.42 30.8061 121.895C30.9845 122.237 31.2463 122.541 31.5957 122.756C32.6259 123.389 33.9647 123.053 34.5875 122.003C34.9155 121.451 34.9636 120.815 34.7987 120.24C34.8185 120.235 34.8374 120.228 34.8567 120.224C34.9714 120.814 35.3048 121.357 35.8503 121.693C36.8808 122.327 38.22 121.99 38.842 120.941C39.1157 120.479 39.1914 119.959 39.1153 119.464C39.1688 119.46 39.2238 119.454 39.2686 119.416C39.2748 119.41 39.2814 119.405 39.2876 119.399C39.3833 119.301 39.3928 119.142 39.304 119.033C39.2978 119.025 39.2925 119.016 39.2863 119.008C39.2909 119.004 39.2966 119.001 39.3011 118.996C40.1524 118.13 40.1524 116.725 39.3011 115.858C38.6331 115.177 37.6519 115.068 36.8442 115.457C36.8286 115.43 36.813 115.404 36.7969 115.378C36.8894 115.312 36.9918 115.265 37.0752 115.18C37.9265 114.313 37.9265 112.908 37.0752 112.041C36.4767 111.431 35.6196 111.268 34.8666 111.516C34.8612 111.504 34.8575 111.492 34.8526 111.48C35.0495 111.378 35.2382 111.253 35.403 111.086C36.2543 110.219 36.2543 108.814 35.403 107.947C34.8888 107.423 34.1859 107.242 33.5199 107.354C33.5142 107.331 33.5072 107.309 33.5018 107.287C33.8171 107.183 34.1197 107.029 34.37 106.773C35.2205 105.907 35.2205 104.502 34.37 103.635C33.9388 103.196 33.3744 102.998 32.8104 103.004C32.8092 102.991 32.808 102.978 32.8067 102.965C33.2499 102.897 33.6761 102.697 34.0169 102.35C34.8678 101.483 34.8678 100.078 34.0169 99.2115C33.6609 98.8489 33.2116 98.6474 32.748 98.588C33.3 98.5842 33.8512 98.3686 34.2722 97.9398C35.1231 97.0726 35.1231 95.6677 34.2722 94.8009C33.9972 94.5204 33.6601 94.3621 33.3103 94.2654C33.3152 94.2415 33.3185 94.2172 33.3234 94.1938C33.9902 94.3056 34.6935 94.1251 35.2086 93.6012C36.0591 92.734 36.0591 91.3292 35.2086 90.4624C35.0137 90.2639 34.7889 90.1161 34.5509 90.0089C34.5517 90.0068 34.5521 90.0047 34.5538 90.0026C35.3031 90.2421 36.1516 90.0721 36.7459 89.4671C37.5964 88.5999 37.5964 87.195 36.7459 86.3282C36.6272 86.2072 36.4956 86.1113 36.3583 86.0259C36.3686 86.0075 36.3809 85.9903 36.3912 85.9723C37.2133 86.417 38.2422 86.3236 38.9353 85.618C39.7862 84.7513 39.7862 83.346 38.9353 82.4792C38.888 82.4314 38.8313 82.4005 38.7807 82.359C38.7881 82.349 38.7951 82.3389 38.8029 82.3293C39.6551 82.967 40.8562 82.9013 41.6273 82.1157C42.4507 81.277 42.4696 79.9387 41.7001 79.0673C41.7026 79.0644 41.705 79.0619 41.7083 79.0594L41.7083 79.0598C42.5592 79.9266 43.9391 79.9266 44.7896 79.0598C45.5184 78.3182 45.6179 77.1838 45.0996 76.3284C45.1563 76.4033 45.2093 76.4804 45.2768 76.549C46.1272 77.4158 47.5072 77.4158 48.3577 76.549C48.9714 75.9239 49.1354 75.0211 48.8641 74.2401C48.9266 74.3394 48.9915 74.4382 49.0709 74.5286C49.8745 75.4411 51.2524 75.5169 52.1477 74.6986C52.8058 74.0973 52.9862 73.1895 52.7339 72.3843C52.756 72.3768 52.7787 72.3717 52.8009 72.3646C52.8859 72.69 53.0191 73.0053 53.2551 73.2728C54.0587 74.1853 55.4362 74.2615 56.3319 73.4429C56.9255 72.9006 57.1326 72.1054 56.9879 71.363C57.0073 71.3596 57.0282 71.3571 57.0484 71.3542C57.0952 71.8001 57.2687 72.2365 57.5848 72.5958C58.3884 73.5082 59.7663 73.5844 60.6616 72.7658C61.0982 72.3667 61.3362 71.8286 61.3765 71.2767C61.4122 71.6628 61.5405 72.0451 61.7822 72.3801C62.4958 73.3671 63.8597 73.5781 64.829 72.8516C65.3399 72.468 65.6232 71.9002 65.6869 71.3044C65.707 71.3073 65.7263 71.3094 65.7461 71.3119C65.6306 71.9019 65.735 72.5342 66.1127 73.0572C66.8263 74.0437 68.1894 74.2552 69.1587 73.5283C69.5858 73.2084 69.8509 72.757 69.9665 72.2708C70.0174 72.288 70.0704 72.3035 70.1259 72.2863C70.1342 72.2838 70.1416 72.2804 70.1498 72.2775C70.2752 72.2243 70.3438 72.0815 70.3027 71.9463C70.2994 71.9367 70.2982 71.9266 70.2949 71.917C70.3011 71.9145 70.3068 71.9136 70.313 71.9111C71.4245 71.4421 71.9527 70.1436 71.4919 69.0114C71.1306 68.1224 70.2653 67.6387 69.3729 67.6836C69.3696 67.6622 69.3659 67.6413 69.3626 67.6203C69.4724 67.5956 69.5821 67.5634 69.6898 67.5182C70.8013 67.0492 71.3295 65.7507 70.8691 64.618C70.5448 63.8215 69.8148 63.3362 69.0247 63.2713C69.0247 63.2588 69.0259 63.2454 69.0259 63.2324C69.2467 63.2152 69.4674 63.1733 69.6828 63.0825C70.7943 62.6135 71.3225 61.315 70.8617 60.1823C70.5835 59.4981 70.0018 59.0572 69.3445 58.9001C69.3478 58.8771 69.3494 58.8541 69.3527 58.8315C69.6832 58.8587 70.0203 58.8336 70.3471 58.6958C71.4586 58.2268 71.9868 56.9283 71.526 55.796C71.2934 55.2232 70.8461 54.8195 70.3224 54.606C70.3261 54.5934 70.3302 54.5809 70.3335 54.5687C70.7684 54.678 71.2375 54.66 71.683 54.472C72.7946 54.0026 73.3228 52.7045 72.8624 51.5718C72.67 51.0982 72.3296 50.7365 71.9239 50.5011C72.4353 50.7126 73.0256 50.7285 73.5756 50.4961C74.6875 50.0271 75.2153 48.7286 74.7549 47.5963C74.6057 47.2299 74.3541 46.9519 74.0672 46.7266C74.0808 46.7065 74.0923 46.6856 74.1063 46.6655C74.6805 47.0285 75.3986 47.1362 76.0703 46.8527C77.1818 46.3837 77.7101 45.0852 77.2493 43.9529C77.1436 43.6937 76.9899 43.4714 76.8111 43.2792C76.8127 43.2771 76.8148 43.2746 76.8172 43.2729C77.419 43.7863 78.2675 43.96 79.0444 43.6326C80.1559 43.1636 80.6837 41.8651 80.2229 40.7324C80.1588 40.5741 80.0515 40.4527 79.9561 40.32C79.9726 40.3066 79.9906 40.2953 80.0079 40.2823C80.5994 41.0167 81.6061 41.3128 82.5133 40.9301C83.6248 40.4607 84.1522 39.1626 83.6919 38.0303C83.6664 37.9671 83.6257 37.9172 83.5948 37.8591C83.6055 37.8528 83.6158 37.8465 83.6265 37.8402C84.1744 38.7623 85.3086 39.1689 86.3161 38.7443C87.3918 38.2899 87.9122 37.0609 87.5283 35.9559C87.532 35.9542 87.5361 35.953 87.5398 35.9517L87.5398 35.9521C88.0002 37.0844 89.2749 37.6225 90.386 37.1535C91.3376 36.7523 91.8556 35.7432 91.6981 34.7508C91.7224 34.8416 91.7421 34.9333 91.7791 35.0234C92.2391 36.1556 93.5142 36.6937 94.6257 36.2247C95.4269 35.8864 95.9177 35.1163 95.9604 34.2889C95.9814 34.4049 96.0036 34.5217 96.0431 34.636C96.443 35.7922 97.6873 36.3993 98.8219 35.9927C99.6555 35.6933 100.163 34.9254 100.233 34.0829C100.255 34.085 100.279 34.0888 100.302 34.0913C100.258 34.425 100.263 34.7679 100.38 35.1075C100.78 36.2637 102.024 36.8708 103.159 36.4642C103.911 36.1941 104.401 35.5409 104.546 34.7981C104.566 34.8031 104.586 34.809 104.605 34.8136C104.481 35.2436 104.478 35.7143 104.635 36.1699C105.035 37.326 106.279 37.9332 107.414 37.5262C107.966 37.3277 108.389 36.9236 108.633 36.4286C108.521 36.7996 108.496 37.2025 108.594 37.6065C108.882 38.7966 110.063 39.5231 111.231 39.2292C111.847 39.0746 112.322 38.6597 112.605 38.1346C112.622 38.145 112.64 38.1547 112.657 38.1647C112.329 38.6647 112.188 39.2895 112.34 39.9201C112.629 41.1101 113.809 41.8366 114.977 41.5427C115.492 41.4133 115.906 41.1001 116.196 40.6956C116.236 40.7311 116.281 40.7663 116.338 40.7718C116.346 40.773 116.355 40.773 116.363 40.773C116.499 40.773 116.616 40.6675 116.628 40.5268C116.63 40.5164 116.632 40.5067 116.633 40.4967C116.639 40.4971 116.645 40.4988 116.651 40.4988C117.854 40.4988 118.83 39.5051 118.83 38.2799C118.83 37.3143 118.223 36.499 117.379 36.1941C117.381 36.1841 117.383 36.1741 117.386 36.164C117.496 36.1841 117.61 36.1975 117.726 36.1975C118.93 36.1975 119.905 35.2038 119.905 33.9782C119.905 33.1156 119.413 32.3828 118.707 32.0152C118.712 32.0034 118.718 31.9917 118.723 31.9796C118.934 32.0499 119.153 32.0972 119.386 32.0972C120.589 32.0972 121.565 31.1036 121.565 29.8775C121.565 29.1368 121.193 28.5028 120.645 28.1016C120.656 28.082 120.666 28.0615 120.679 28.0414C120.973 28.195 121.294 28.3035 121.648 28.3035C122.851 28.3035 123.827 27.3098 123.827 26.0842C123.827 25.464 123.565 24.9167 123.162 24.5152C123.17 24.5051 123.178 24.4951 123.186 24.485C123.546 24.7555 123.987 24.9213 124.469 24.9213C125.673 24.9213 126.648 23.9277 126.648 22.702C126.648 22.1891 126.47 21.7226 126.183 21.3466C126.576 21.7415 127.116 21.9864 127.712 21.9864C128.915 21.9864 129.89 20.9928 129.89 19.7671C129.89 19.3706 129.762 19.0159 129.582 18.6956C129.602 18.6822 129.62 18.6675 129.641 18.6545C130.035 19.214 130.657 19.5933 131.385 19.5933C132.588 19.5933 133.564 18.5993 133.564 17.3736C133.564 17.0926 133.507 16.8263 133.413 16.5797C133.416 16.5784 133.418 16.5776 133.419 16.5768C133.783 17.2861 134.501 17.7769 135.342 17.7769C136.545 17.7769 137.521 16.7832 137.521 15.5576C137.521 15.3867 137.495 15.2238 137.457 15.0647C137.468 15.0613 137.479 15.0597 137.491 15.0568C137.762 15.9663 138.581 16.632 139.562 16.632C140.766 16.632 141.741 15.6384 141.741 14.4123C141.741 14.3441 141.723 14.2821 141.716 14.2159C141.728 14.2147 141.74 14.2121 141.752 14.2109C141.912 15.2757 142.807 16.0948 143.898 16.0948C145.062 16.0948 146.005 15.1619 146.065 13.9915C146.069 13.9915 146.073 13.9919 146.076 13.9919C146.076 15.218 147.052 16.2121 148.255 16.2121C149.285 16.2121 150.143 15.4822 150.37 14.504C150.358 14.5974 150.342 14.6899 150.342 14.7871C150.342 16.0131 151.318 17.0064 152.521 17.0064C153.389 17.0064 154.131 16.4859 154.482 15.7389C154.458 15.854 154.434 15.9704 154.428 16.0919C154.363 17.3158 155.284 18.3623 156.486 18.4284C157.368 18.4774 158.126 17.9649 158.507 17.2137C158.527 17.2246 158.546 17.2371 158.567 17.2484C158.401 17.5394 158.277 17.8585 158.258 18.2178C158.193 19.4417 159.115 20.4882 160.316 20.5543C161.112 20.5983 161.81 20.1854 162.223 19.5561C162.24 19.5682 162.256 19.5816 162.273 19.5938C161.997 19.9426 161.816 20.376 161.79 20.8583C161.725 22.0823 162.646 23.1283 163.848 23.1949C164.434 23.2271 164.976 23.0182 165.387 22.6564C165.144 22.9558 164.969 23.3176 164.908 23.7292C164.728 24.9414 165.545 26.0733 166.735 26.2567C167.362 26.3538 167.957 26.1562 168.415 25.781C168.427 25.7973 168.44 25.8133 168.452 25.8296C167.961 26.1633 167.596 26.6851 167.499 27.3274C167.319 28.5392 168.137 29.6707 169.327 29.8549C169.851 29.9361 170.351 29.808 170.77 29.5471C170.794 29.5961 170.821 29.6451 170.873 29.6727C170.881 29.6769 170.888 29.6803 170.896 29.6836C170.929 29.6975 170.963 29.7033 170.997 29.7033L170.997 28.8612C169.202 25.5578 166.853 22.6937 164.102 20.3571C164.57 20.4886 165.047 20.5782 165.53 20.5782C166.902 20.5782 168.276 20.046 169.321 18.9816C170.164 18.1219 170.704 17.0801 170.997 15.9843L170.997 12.4191C170.736 11.4414 170.26 10.5202 169.561 9.72121C170.04 9.71703 170.517 9.70321 170.997 9.70321L170.997 9.06923C165.285 9.06923 159.573 9.39083 153.88 10.0122C152.23 10.1894 150.581 10.3966 148.933 10.6295ZM108.952 22.2724C109.396 22.0852 109.842 21.9119 110.286 21.7289C109.941 22.7397 109.847 23.7769 109.972 24.7819C109.364 23.9809 108.578 23.3146 107.632 22.849C108.072 22.6581 108.509 22.4592 108.952 22.2724ZM56.3524 58.0744C56.6912 57.7285 57.0389 57.3939 57.3809 57.0518C57.4409 58.1204 57.7443 59.115 58.2376 59.9947C57.3739 59.4918 56.3972 59.1832 55.3486 59.1217C55.6845 58.7737 56.0129 58.4199 56.3524 58.0744ZM21.2061 111.656C21.3899 111.204 21.5855 110.76 21.7722 110.311C22.2293 111.274 22.8833 112.075 23.6692 112.695C22.6827 112.567 21.6649 112.663 20.6726 113.015C20.8522 112.562 21.0228 112.108 21.2061 111.656ZM25.8729 123.418C23.9327 124.236 21.7002 123.294 20.897 121.318C20.2648 119.766 20.9915 117.977 22.5166 117.334C23.7095 116.831 25.082 117.409 25.5757 118.625C25.9601 119.569 25.5182 120.656 24.5908 121.047C23.8764 121.348 23.0543 121.002 22.7587 120.274C22.5334 119.719 22.7928 119.081 23.3366 118.852C23.7452 118.68 24.2147 118.878 24.384 119.294C24.5082 119.599 24.366 119.949 24.0659 120.076C23.9294 120.133 23.8653 120.292 23.9216 120.431C23.9779 120.57 24.1341 120.636 24.2706 120.579C24.8424 120.338 25.1145 119.668 24.8781 119.086C24.5962 118.393 23.8135 118.062 23.1328 118.349C22.3172 118.694 21.9275 119.65 22.2658 120.482C22.6744 121.487 23.8098 121.966 24.7959 121.55C25.9958 121.044 26.5668 119.638 26.0702 118.417C25.4631 116.925 23.7773 116.214 22.3127 116.832C20.5159 117.59 19.6597 119.696 20.4033 121.527C21.1806 123.437 23.1283 124.486 25.0512 124.196C20.5509 127.402 16.936 131.877 14.752 137.249C10.9439 146.615 12.1015 156.793 17.0939 164.755C16.4337 164.359 15.6876 164.133 14.9021 164.133C13.742 164.133 12.6515 164.593 11.831 165.429C11.1647 166.107 10.7984 167.01 10.7984 167.97C10.7984 168.929 11.1651 169.832 11.831 170.511C12.952 171.653 14.7767 171.653 15.8977 170.511C16.3424 170.058 16.587 169.456 16.587 168.815C16.587 168.175 16.342 167.573 15.8977 167.12C15.1421 166.351 13.9143 166.351 13.1587 167.12C12.5545 167.735 12.5536 168.81 13.1596 169.429C13.68 169.959 14.5272 169.959 15.048 169.429C15.4849 168.983 15.4862 168.257 15.048 167.812C14.944 167.706 14.7746 167.706 14.6706 167.811C14.5666 167.919 14.565 168.091 14.6706 168.196C14.8996 168.429 14.8996 168.81 14.6706 169.043C14.3578 169.362 13.8493 169.362 13.5369 169.044C13.1341 168.632 13.1333 167.915 13.5369 167.504C14.084 166.948 14.9736 166.948 15.5199 167.504C16.2076 168.205 16.2076 169.426 15.5199 170.126C14.6077 171.056 13.1217 171.056 12.2088 170.126C11.6436 169.55 11.3324 168.784 11.3324 167.97C11.3324 167.155 11.6436 166.389 12.2088 165.814C12.9281 165.08 13.8843 164.677 14.9021 164.677C15.9198 164.677 16.876 165.081 17.5954 165.814C18.5071 166.742 19.009 167.977 19.009 169.291C19.009 170.605 18.5067 171.839 17.5954 172.768C15.2161 175.192 11.3447 175.192 8.96631 172.768C8.94534 172.747 8.91492 172.749 8.89026 172.736C8.91904 170.412 8.99014 168.094 9.11223 165.786C9.44971 164.549 10.121 163.266 11.461 163.518C13.9488 163.986 13.4658 161.403 13.4658 161.403C13.2594 162.612 11.963 162.295 10.9854 161.813C10.0071 161.332 10.5567 158.864 12.0061 159.99C13.4563 161.117 13.9233 158.966 13.4658 157.747C13.0079 156.528 11.7118 159.018 10.8251 155.894C9.93765 152.771 11.4565 153.39 11.4565 153.39C11.4565 153.39 10.7569 153.795 11.1429 154.242C11.5285 154.688 12.7168 154.256 11.6612 152.26C11.1441 151.281 10.9394 149.946 10.8646 148.838C11.1856 146.761 11.5367 144.691 11.9333 142.634C12.3477 140.535 12.8114 138.442 13.3075 136.354C13.7955 135.298 14.5415 133.967 15.4792 133.188C17.204 131.754 16.2684 130.892 15.7443 131.154C15.2206 131.416 15.7139 132.063 15.7139 132.063C15.7139 132.063 14.0783 132.043 16.0715 129.503C18.0648 126.964 18.3266 129.769 19.2071 128.821C20.0888 127.873 20.4646 125.704 18.7011 126.18C16.9385 126.655 17.3582 124.16 18.4425 124.097C19.5278 124.035 20.844 124.246 20.5813 125.443C20.5813 125.443 21.997 123.245 19.5232 122.708C18.1441 122.408 18.0413 120.868 18.2197 119.562C18.6966 118.201 19.1886 116.843 19.7012 115.49C19.9372 114.868 20.1887 114.25 20.4317 113.63C20.46 113.628 20.4868 113.642 20.5143 113.63C23.6223 112.318 27.1986 113.827 28.4856 116.993C29.5051 119.497 28.3327 122.38 25.8729 123.418ZM38.6019 118.985C34.911 119.408 31.4079 120.524 28.2295 122.222C28.528 121.832 28.7919 121.417 28.9765 120.963C29.5022 119.671 29.5445 118.175 28.9793 116.784C28.5222 115.662 27.7844 114.755 26.9022 114.059C28.0088 114.203 29.1602 114.093 30.2627 113.628C31.5855 113.07 32.616 112.021 33.164 110.672C33.3424 110.234 33.441 109.779 33.5035 109.321C34.5706 112.745 36.2716 116.02 38.6019 118.985ZM40.7744 79.2026C33.7378 86.3705 30.9841 96.2255 32.6045 105.528C32.1441 104.905 31.5398 104.404 30.8143 104.098C29.7427 103.646 28.5621 103.646 27.49 104.099C26.6194 104.466 25.9412 105.157 25.5811 106.044C25.2206 106.93 25.2198 107.907 25.5811 108.793C26.187 110.286 27.8731 110.997 29.3378 110.379C29.919 110.134 30.3712 109.673 30.6117 109.081C30.8521 108.489 30.8521 107.838 30.6117 107.247C30.2026 106.242 29.0677 105.763 28.0812 106.179C27.2919 106.512 26.8866 107.505 27.2142 108.312C27.4962 109.005 28.2785 109.335 28.9592 109.048C29.5301 108.807 29.8039 108.137 29.5663 107.555C29.5104 107.416 29.3542 107.35 29.2173 107.407C29.0809 107.465 29.0155 107.624 29.0726 107.762C29.1968 108.067 29.0537 108.419 28.7545 108.545C28.3463 108.717 27.8764 108.519 27.7071 108.103C27.4892 107.566 27.7581 106.903 28.2859 106.681C28.9999 106.38 29.822 106.727 30.118 107.454C30.4896 108.37 30.0312 109.497 29.1331 109.876C27.9402 110.379 26.568 109.8 26.0739 108.585C25.7681 107.833 25.7681 107.004 26.0739 106.251C26.3802 105.499 26.9553 104.913 27.6939 104.601C28.634 104.204 29.6695 104.204 30.6092 104.601C31.5489 104.997 32.2814 105.743 32.6699 106.701C33.1635 107.914 33.1635 109.251 32.6703 110.465C32.1766 111.679 31.2488 112.623 30.0571 113.127C26.9495 114.438 23.3728 112.929 22.0858 109.763C22.0747 109.735 22.0463 109.725 22.027 109.703C22.9264 107.567 23.8628 105.454 24.8424 103.369C25.6193 102.357 26.7222 101.434 27.8645 102.19C29.9873 103.591 30.5118 101.017 30.5118 101.017C29.8668 102.053 28.7886 101.255 28.0659 100.429C27.3429 99.603 28.7775 97.537 29.6942 99.1432C30.6108 100.749 31.8498 98.9447 31.8851 97.6395C31.9205 96.3343 29.7875 98.1295 30.1406 94.8981C30.4945 91.6667 31.6656 92.8304 31.6656 92.8304C31.6656 92.8304 30.8677 92.9321 31.0556 93.4949C31.2443 94.0577 32.5054 94.1222 32.2802 91.866C32.1696 90.7584 32.4832 89.4449 32.831 88.3913C33.908 86.5975 35.0096 84.822 36.1495 83.0763C37.3173 81.3038 38.5279 79.556 39.7669 77.8254C40.6157 77.0365 41.8033 76.0909 42.9711 75.7342C45.1037 75.0822 44.5627 73.9206 43.9798 73.9583C43.3974 73.996 43.6107 74.7866 43.6107 74.7866C43.6107 74.7866 42.107 74.1296 44.9023 72.5606C47.6979 70.9912 46.8856 73.6853 48.056 73.1527C49.2262 72.6205 50.3883 70.7634 48.5809 70.515C46.7734 70.2672 48.0983 68.1257 49.1243 68.4909C50.1503 68.8552 51.2869 69.5645 50.5943 70.5674C50.5943 70.5674 52.7281 69.0888 50.6444 67.6279C49.4827 66.8134 49.967 65.3508 50.6222 64.2143C52.0116 62.6499 53.4413 61.1136 54.8944 59.5957C54.9211 59.6045 54.9404 59.6279 54.97 59.6279C58.3342 59.6279 61.0714 62.4163 61.0714 65.8428C61.0723 68.5541 58.9064 70.7604 56.2439 70.7608C54.1442 70.7608 52.4354 69.0202 52.4354 66.8808C52.4354 65.2 53.778 63.8312 55.4292 63.8316C56.7208 63.8316 57.7706 64.9015 57.7706 66.2163C57.7714 67.2384 56.9542 68.0705 55.9512 68.07C55.1776 68.07 54.5487 67.4294 54.5487 66.6413C54.5491 66.0408 55.0288 65.5526 55.6175 65.553C56.0589 65.553 56.4186 65.919 56.4186 66.3691C56.4186 66.6995 56.1555 66.9675 55.8312 66.9675C55.6836 66.9675 55.5636 67.0898 55.5636 67.2401C55.5636 67.39 55.6836 67.5119 55.8312 67.5119C56.4495 67.5119 56.953 66.9993 56.953 66.3691C56.953 65.6188 56.3537 65.0087 55.6175 65.0087C54.7337 65.0087 54.0151 65.741 54.0143 66.6413C54.0151 67.7292 54.8837 68.614 55.9512 68.6144C57.2494 68.6144 58.305 67.5383 58.305 66.2163C58.305 64.6012 57.0147 63.2868 55.4292 63.2868C53.484 63.2868 51.9019 64.8994 51.901 66.8808C51.9019 68.9486 53.3073 70.6763 55.1924 71.1586C49.8313 72.3654 44.8106 75.0902 40.7744 79.2026ZM69.6709 71.6268C66.102 70.5791 62.4456 70.2445 58.8719 70.5749C59.2944 70.3304 59.694 70.0507 60.0352 69.7027C61.0061 68.7136 61.6075 67.3481 61.6075 65.8424C61.6075 64.6276 61.2655 63.5021 60.7122 62.5155C61.6806 63.0791 62.7856 63.4271 63.9781 63.4271C65.4102 63.4275 66.7565 62.8593 67.7693 61.8275C68.0994 61.4917 68.3608 61.1098 68.5906 60.7112C68.2905 64.2901 68.6317 67.9788 69.6709 71.6268ZM104.088 33.9506C102.147 33.1319 101.223 30.8578 102.027 28.8813C102.657 27.3278 104.413 26.5871 105.937 27.2311C107.13 27.7344 107.699 29.1322 107.204 30.3473C106.821 31.2916 105.754 31.7417 104.827 31.3502C104.113 31.0487 103.772 30.2117 104.068 29.4839C104.295 28.9295 104.921 28.6653 105.465 28.8947C105.873 29.0668 106.067 29.5459 105.898 29.9617C105.774 30.2665 105.43 30.4118 105.13 30.2854C104.994 30.2276 104.838 30.2937 104.781 30.4328C104.725 30.5718 104.789 30.7309 104.926 30.7883C105.498 31.0295 106.155 30.7518 106.391 30.1702C106.673 29.4768 106.349 28.6795 105.669 28.3923C104.853 28.048 103.913 28.4446 103.575 29.2762C103.166 30.2812 103.636 31.4369 104.623 31.8535C105.822 32.3598 107.202 31.7769 107.699 30.5559C108.305 29.0635 107.607 27.3467 106.142 26.7282C104.346 25.9703 102.278 26.8425 101.533 28.6732C100.756 30.5835 101.406 32.727 102.966 33.9078C97.5587 32.9335 91.8967 33.4941 86.6227 35.7193C77.4293 39.5985 71.1824 47.6298 69.1854 56.8563C68.9939 56.1009 68.6239 55.4028 68.0682 54.8371C67.2481 54.0018 66.1571 53.5416 64.9967 53.542C64.0545 53.5416 63.1687 53.9155 62.5028 54.5943C61.8364 55.273 61.4694 56.175 61.4694 57.1347C61.4694 58.7502 62.7597 60.0646 64.3452 60.0646C64.9741 60.0646 65.5648 59.8146 66.0095 59.362C66.4543 58.9093 66.6993 58.3076 66.6993 57.667C66.6993 56.5791 65.8307 55.6947 64.7624 55.6947C63.9082 55.6943 63.1609 56.4539 63.1601 57.3274C63.1601 58.0769 63.759 58.687 64.4956 58.6874C65.1139 58.6878 65.6186 58.1749 65.6178 57.5447C65.6178 57.3948 65.4978 57.2725 65.351 57.2721C65.203 57.2725 65.083 57.3939 65.0838 57.5443C65.0842 57.8738 64.8199 58.1435 64.4964 58.1431C64.0541 58.1426 63.6944 57.7767 63.6936 57.3269C63.6949 56.7453 64.1922 56.2378 64.7624 56.2382C65.5356 56.2386 66.1649 56.8793 66.1649 57.667C66.1649 58.6573 65.3177 59.5203 64.3447 59.5203C63.0544 59.5203 62.0042 58.45 62.0042 57.1352C62.0042 56.3207 62.3153 55.5549 62.8809 54.9791C63.4462 54.4033 64.1976 54.0859 64.9975 54.0859C66.0145 54.0859 66.9714 54.4896 67.6908 55.2224C68.4102 55.9552 68.806 56.9296 68.806 57.9659C68.806 59.2795 68.3037 60.5144 67.3915 61.4435C66.4798 62.3727 65.268 62.884 63.9785 62.884C60.6139 62.884 57.8771 60.0956 57.8771 56.6687C57.8771 56.6385 57.8545 56.6184 57.8454 56.5912C59.4786 54.9682 61.1376 53.3808 62.8259 51.8365C63.9242 51.2046 65.289 50.7817 66.0618 51.9248C67.496 54.0474 68.9474 51.8733 68.9474 51.8733C67.9625 52.5789 67.267 51.4211 66.9086 50.3759C66.5509 49.3307 68.6531 47.9816 68.896 49.8224C69.1394 51.6635 70.9629 50.4793 71.4861 49.2872C72.0082 48.0959 69.3638 48.9225 70.9045 46.0751C72.4452 43.2272 73.0901 44.759 73.0901 44.759C73.0901 44.759 72.314 44.5412 72.277 45.135C72.24 45.7284 73.3803 46.2794 74.0199 44.1074C74.3336 43.0409 75.1171 41.9497 75.834 41.1118C77.5033 39.874 79.1882 38.663 80.8974 37.4943C82.642 36.3122 84.4166 35.1699 86.2108 34.054C87.2911 33.6558 88.7446 33.2454 89.9573 33.3706C92.1725 33.6001 92.1092 32.3158 91.5567 32.1236C91.0047 31.9314 90.9044 32.7446 90.9044 32.7446C90.9044 32.7446 89.7616 31.5516 92.9338 31.1919C96.106 30.8318 94.3446 33.0042 95.6254 32.9682C96.9063 32.9326 98.6776 31.6701 97.1007 30.7359C95.5243 29.8021 97.5525 28.3403 98.3631 29.0773C99.1737 29.8143 99.958 30.9126 98.9411 31.5688C98.9411 31.5688 101.469 31.0349 100.092 28.8725C99.3246 27.6674 100.321 26.5046 101.354 25.7098C102.636 25.0905 103.926 24.485 105.228 23.8971C105.826 23.627 106.433 23.3712 107.036 23.1082C107.057 23.1271 107.067 23.156 107.094 23.1677C110.202 24.4792 111.683 28.1222 110.396 31.2882C109.378 33.7944 106.548 34.9882 104.088 33.9506ZM116.166 39.9846C113.262 37.6258 110.01 35.8914 106.584 34.8031C107.066 34.742 107.54 34.639 107.986 34.451C109.254 33.9158 110.323 32.8887 110.889 31.4976C111.345 30.375 111.453 29.2021 111.312 28.0749C111.994 28.9735 112.884 29.7251 113.987 30.1903C115.31 30.7489 116.766 30.7489 118.09 30.1907C118.521 30.009 118.907 29.7582 119.268 29.4793C117.647 32.668 116.576 36.2088 116.166 39.9846ZM168.912 9.72623C168.925 9.75177 168.923 9.78234 168.944 9.8037C171.323 12.2273 171.323 16.1706 168.944 18.5938C167.062 20.5112 164 20.5112 162.117 18.5938C160.632 17.0809 160.632 14.6196 162.117 13.1071C163.283 11.9183 165.184 11.9175 166.35 13.1071C167.263 14.0367 167.263 15.5504 166.35 16.48C165.641 17.2032 164.486 17.2032 163.777 16.48C163.231 15.9231 163.231 15.017 163.777 14.4596C164.194 14.0355 164.872 14.0355 165.288 14.4596C165.601 14.7779 165.601 15.2958 165.288 15.6141C165.059 15.8477 164.687 15.8477 164.457 15.6141C164.353 15.5077 164.184 15.5077 164.079 15.6141C163.975 15.7204 163.975 15.8926 164.079 15.9989C164.517 16.4444 165.229 16.4444 165.666 15.9989C166.187 15.4684 166.187 14.6054 165.666 14.0748C165.041 13.4388 164.025 13.4388 163.399 14.0748C162.644 14.844 162.644 16.0952 163.399 16.8649C164.317 17.8003 165.81 17.7995 166.728 16.8649C167.849 15.7225 167.849 13.8642 166.728 12.7223C165.353 11.3216 163.115 11.3216 161.739 12.7223C160.303 14.1845 160.098 16.4189 161.096 18.1177C156.467 15.1095 151.025 13.4199 145.317 13.4199C135.366 13.4199 126.577 18.405 121.266 26.1499C121.373 25.3778 121.293 24.5884 120.992 23.849C120.548 22.7569 119.713 21.9069 118.641 21.4546C117.771 21.0874 116.812 21.0874 115.941 21.4546C115.071 21.8219 114.393 22.5124 114.032 23.3992C113.425 24.8916 114.124 26.6084 115.588 27.2269C116.169 27.4719 116.809 27.4719 117.39 27.2265C117.97 26.9815 118.423 26.5209 118.663 25.9293C119.072 24.9243 118.601 23.7682 117.615 23.3519C116.826 23.0182 115.85 23.429 115.521 24.2359C115.24 24.9285 115.564 25.7262 116.244 26.013C116.815 26.2542 117.474 25.9774 117.71 25.3949C117.767 25.2559 117.702 25.0972 117.566 25.039C117.429 24.9816 117.272 25.0465 117.217 25.186C117.093 25.4904 116.748 25.637 116.449 25.5105C116.041 25.3376 115.846 24.8594 116.015 24.4436C116.234 23.9063 116.884 23.6312 117.411 23.854C118.125 24.1559 118.466 24.993 118.17 25.7203C117.798 26.6352 116.691 27.1025 115.793 26.7236C114.6 26.2203 114.032 24.8225 114.526 23.6078C114.831 22.8553 115.407 22.2691 116.146 21.9575C116.884 21.646 117.698 21.6456 118.437 21.9575C119.377 22.3541 120.109 23.0998 120.498 24.0571C120.888 25.0147 120.888 26.0695 120.498 27.0268C120.004 28.2407 119.077 29.1853 117.885 29.6887C116.694 30.1911 115.382 30.1907 114.19 29.6882C111.082 28.3768 109.601 24.7333 110.889 21.5677C110.9 21.5396 110.887 21.5124 110.889 21.4835C113.008 20.6209 115.137 19.801 117.276 19.0327C118.527 18.8769 119.948 19.0184 120.232 20.3755C120.759 22.8959 122.917 21.4529 122.917 21.4529C121.742 21.7214 121.534 20.3801 121.596 19.2751C121.658 18.1701 124.107 17.7425 123.64 19.5385C123.174 21.334 125.303 20.9509 126.233 20.0535C127.163 19.1562 124.409 18.8894 126.903 16.859C129.396 14.8285 129.416 16.4951 129.416 16.4951C129.416 16.4951 128.78 15.9918 128.524 16.5257C128.266 17.06 129.113 18.0135 130.52 16.2556C131.209 15.3942 132.341 14.6912 133.317 14.1967C135.324 13.7038 137.336 13.2415 139.353 12.8282C141.416 12.4145 143.492 12.0498 145.576 11.7177C146.72 11.773 148.213 11.9656 149.278 12.5498C151.238 13.6251 151.662 12.4137 151.224 12.0213C150.786 11.6285 150.388 12.3408 150.388 12.3408C150.388 12.3408 149.78 10.7936 152.846 11.6977C155.912 12.6013 153.468 13.9216 154.665 14.388C155.862 14.8541 157.973 14.3784 156.867 12.9011C155.762 11.4238 158.185 10.8639 158.657 11.861C159.129 12.8575 159.441 14.1778 158.255 14.388C158.255 14.388 160.79 14.8796 160.331 12.3454C160.075 10.933 161.433 10.2471 162.685 9.9155C164.754 9.80915 166.83 9.75303 168.912 9.72623Z" fill="#6849FF"/>
<path id="Vector_19" d="M20.524 171.191C19.288 173.515 16.8072 174.86 16.8072 174.86L16.8072 174.86L27.0266 174.86L27.0266 174.86C22.5756 174.86 20.524 171.191 20.524 171.191Z" fill="#6849FF"/>
<path id="Vector_20" d="M135.128 172.625C135.128 172.625 136.632 170.726 138.581 169.962C141.018 169.006 142.565 169.1 142.58 169.101L142.584 169.102L142.582 169.101L142.583 169.101L142.582 169.101C142.57 169.097 141.114 168.556 139.22 166.721C137.706 165.256 137.031 162.915 137.031 162.915C136.635 163.671 136.016 166.172 135.735 167.364L135.706 167.357C135.706 167.357 135.681 167.509 135.642 167.762C135.607 167.913 135.586 168.007 135.586 168.007L135.603 168.01C135.415 169.221 135.048 171.772 135.128 172.625Z" fill="#6849FF"/>
</g>
</svg>
