<svg width="375" height="382" viewBox="0 0 375 382" fill="none" xmlns="http://www.w3.org/2000/svg">
<g opacity="0.03">
<path d="M312.404 131.812C312.404 131.812 308.485 126.966 307.896 121.203C307.896 121.203 300.717 126.881 291.701 123.075L291.698 123.08C300.716 126.885 301.85 136.071 301.85 136.071C306.269 132.419 312.403 131.817 312.403 131.817L312.404 131.812Z" fill="#333333"/>
<path d="M52.8307 35.959L52.8334 35.9618C52.8469 35.9755 55.3547 38.3153 57.6841 43.6579C59.5438 47.9206 58.984 53.242 58.984 53.242C60.4083 52.0473 63.722 47.5083 65.2743 45.3356L65.3257 45.3742C65.3257 45.3742 65.5024 45.0867 65.79 44.6102C65.9856 44.3337 66.1073 44.1602 66.1073 44.1602L66.0739 44.14C67.4505 41.8461 70.2982 36.9921 70.8363 35.1941C70.8363 35.1941 66.2245 37.7579 61.6478 37.6395C55.9145 37.4916 52.8577 35.9746 52.8352 35.9627L52.8307 35.959Z" fill="#333333"/>
<path d="M80.5243 17.1113C106.849 17.0249 141.502 23.5769 164.072 33.9636C137.497 35.5917 99.5675 24.7321 80.3656 17.844C79.6814 21.0764 78.8178 24.2766 77.7496 27.4236L121.299 43.1721C155.464 57.7893 170.538 35.3419 170.538 35.3419C170.538 35.3419 164.221 7.97619 128.072 9.29485L82.018 6.22778C81.752 9.87887 81.2535 13.5153 80.5243 17.1113Z" fill="#333333"/>
<path d="M239.106 243.56C239.106 243.56 237.306 237.556 238.928 232C238.928 232 230.16 234.447 223.259 227.417L223.256 227.421C230.157 234.451 227.755 243.381 227.755 243.381C233.208 241.729 239.102 243.562 239.102 243.562L239.106 243.56Z" fill="#333333"/>
<path d="M35.3046 53.8186C35.3154 53.8416 36.7496 56.9785 36.8947 62.8187C37.011 67.4818 34.4942 72.1797 34.4942 72.1797C36.2592 71.6315 41.0261 68.7297 43.2761 67.3275L43.3095 67.3826C43.3095 67.3826 43.5799 67.1861 44.0262 66.8573C44.3092 66.6783 44.4868 66.5653 44.4868 66.5653L44.4634 66.5332C46.598 64.9501 51.0521 61.5754 52.2249 60.1245C52.2249 60.1245 47.001 60.6947 42.8164 58.8022C37.579 56.433 35.3253 53.8416 35.3046 53.8186Z" fill="#333333"/>
<path d="M144.279 99.1304C144.279 99.1304 148.724 71.3863 114.831 58.5111L73.4352 37.7239C71.818 40.9939 69.9926 44.1593 67.967 47.1979C92.3207 57.3807 121.875 76.9419 138.824 95.3369C113.661 86.4801 82.6977 61.6617 67.5451 47.814C65.698 50.5331 63.6977 53.1529 61.5297 55.6433L95.8472 87.1698C121.922 113.993 144.279 99.1304 144.279 99.1304Z" fill="#333333"/>
<path d="M129.408 318.228C129.408 318.228 130.001 311.98 133.585 307.479C133.585 307.479 124.565 306.323 120.831 297.138L120.827 297.14C124.562 306.325 118.988 313.639 118.988 313.639C124.647 314.239 129.404 318.231 129.404 318.231L129.408 318.228Z" fill="#333333"/>
<path d="M14.7 79.1348C14.7 79.1348 15.0254 79.0586 15.5618 78.9282C15.8899 78.874 16.0946 78.8391 16.0946 78.8391L16.0846 78.8015C18.6511 78.1706 24.0328 76.7895 25.6617 75.9061C25.6617 75.9061 20.6217 74.3965 17.4666 71.0163C13.5245 66.7922 12.4139 63.5258 12.4004 63.4864L12.3977 63.4781V63.4808V63.4845C12.4004 63.5194 12.5446 66.9731 10.4866 72.4185C8.84146 76.7711 4.75246 80.1311 4.75246 80.1311C6.58962 80.313 12.0822 79.4902 14.6901 79.0714L14.7 79.1348Z" fill="#333333"/>
<path d="M36.6431 187.634C56.1019 194.08 75.8212 189.917 76.8976 189.681L77.113 189.633L77.2987 189.511C78.2245 188.903 95.0294 177.633 104.315 159.071C124.726 157.449 141.397 145.905 142.301 145.268L142.484 145.139L142.609 144.954C143.235 144.032 154.566 127.05 156.16 106.259C174.381 96.7979 185.445 79.6802 186.041 78.7381L186.16 78.5489L186.207 78.3285C186.44 77.233 190.525 57.1447 184.198 37.3236C197.49 21.4768 201.261 1.326 201.459 0.222224L201.5 0.000918282H199.029C198.592 2.19469 194.748 20.0323 183.24 34.5375C181.32 29.3685 178.654 24.2775 174.958 19.6145C170.03 13.3941 163.746 8.56573 156.18 5.12034C165.713 7.27555 174.707 9.75124 178.355 10.7815C178.525 11.5125 178.798 12.2829 179.207 13.0506C180.569 15.609 181.969 15.6365 183.29 14.9083C184.61 14.1783 185.351 12.968 183.988 10.4087C182.625 7.85039 180.45 6.36645 179.131 7.09556C178.741 7.31044 178.485 7.70714 178.331 8.20485C173.388 6.81182 161.724 3.63181 150.589 1.3765H182.574C182.719 1.3765 182.856 1.33977 182.985 1.29202C183.858 2.52895 186.074 3.41417 188.692 3.41417C192.07 3.41417 192.888 1.94859 192.888 0.140497C192.888 0.0927465 192.885 0.0468324 192.883 0H121.435C121.436 0.167127 121.468 0.326908 121.528 0.472915C121.528 0.472915 121.53 0.474752 121.53 0.476588C121.612 0.674937 121.755 0.831964 121.92 0.96236C121.96 0.994499 121.997 1.01837 122.042 1.045C122.223 1.1552 122.423 1.23693 122.651 1.23693C145.619 1.23693 162.58 7.93855 173.061 21.1554C176.88 25.9718 179.55 31.3208 181.4 36.7552C177.649 41.0536 173.171 44.9554 167.835 47.915C153.188 56.0418 135.001 55.6213 113.78 46.6671C113.16 46.4063 112.45 46.7057 112.195 47.3356C112.131 47.4908 112.102 47.6515 112.102 47.8094C112.102 47.8113 112.102 47.8122 112.102 47.814C112.104 48.0298 112.176 48.23 112.28 48.4137C112.304 48.4596 112.33 48.4963 112.361 48.5385C112.486 48.7121 112.642 48.8636 112.852 48.9527C134.071 57.9069 147.225 70.7095 151.94 87.0063C153.659 92.9402 154.078 98.9072 153.748 104.644C148.671 107.151 143.099 109.039 137.061 109.693C120.476 111.49 103.83 104.012 87.5888 87.4673C87.5095 87.3865 87.4131 87.3387 87.3202 87.2855C87.2751 87.2588 87.2355 87.2157 87.1877 87.1955C86.7496 87.0146 86.2276 87.1046 85.8716 87.4664C85.7571 87.5848 85.6687 87.7216 85.6092 87.8676C85.6074 87.8686 85.6092 87.8713 85.6074 87.8722C85.5272 88.0715 85.5191 88.2845 85.547 88.4958C85.5525 88.5472 85.5606 88.5913 85.575 88.6427C85.6255 88.852 85.712 89.0531 85.8716 89.2166C102.114 105.761 109.455 122.716 107.69 139.611C107.049 145.763 105.194 151.439 102.733 156.61C97.1019 156.947 91.2442 156.519 85.419 154.77C69.4209 149.966 56.8528 136.568 48.0636 114.951C47.8076 114.321 47.0982 114.02 46.478 114.282C46.4663 114.287 46.4608 114.296 46.45 114.301C46.3112 114.364 46.1859 114.445 46.0831 114.55C46.0813 114.551 46.0813 114.552 46.0813 114.554C45.9317 114.706 45.8434 114.901 45.7893 115.106C45.7757 115.156 45.7667 115.2 45.7604 115.252C45.7289 115.466 45.7325 115.684 45.8199 115.899C54.61 137.515 55.022 156.043 47.0441 170.964C44.1387 176.4 40.3075 180.96 36.0878 184.781C30.7539 182.897 25.502 180.176 20.7748 176.286C7.80015 165.611 1.22133 148.333 1.22133 124.936C1.22133 124.254 0.67775 123.699 0.00796865 123.698V196.481C1.71893 196.438 3.08463 195.562 3.08463 192.211C3.08463 189.544 2.21653 187.286 1.00137 186.397C1.04825 186.265 1.08431 186.128 1.08431 185.98V152.694C3.29828 164.217 6.51197 176.459 7.91373 181.621C7.36294 181.77 6.92754 182.043 6.69857 182.472C5.98191 183.816 7.43866 186.032 9.95012 187.42C12.4625 188.809 13.6506 188.054 14.3681 186.709C15.083 185.363 15.056 183.938 12.5445 182.55C11.8414 182.162 11.1355 181.891 10.4621 181.715C9.43268 177.932 6.89959 168.392 4.74421 158.4C8.1436 166.416 12.9763 173.051 19.264 178.22C23.8406 181.985 28.8383 184.701 33.9126 186.657C19.6696 198.378 2.15884 202.295 0.00526428 202.74V205.257L0.222515 205.217C1.30606 205.017 21.0876 201.174 36.6431 187.634ZM154.272 86.3231C152.057 78.6609 148.073 71.7555 142.384 65.6259C150.381 71.3349 157.755 77.1192 160.729 79.4874C160.612 80.2285 160.574 81.0476 160.664 81.9153C160.962 84.8107 162.245 85.3828 163.739 85.223C165.232 85.0641 166.372 84.234 166.074 81.3387C165.777 78.4433 164.324 76.2257 162.83 76.3845C162.39 76.4314 162.004 76.6977 161.675 77.099C157.646 73.8951 148.059 66.4092 138.588 59.9657L168.161 72.4433C168.295 72.5002 168.434 72.5186 168.572 72.525C168.914 74.0089 170.628 75.6903 173.047 76.7105C176.168 78.0273 177.474 76.9915 178.154 75.3202C178.832 73.6499 178.629 71.9768 175.508 70.659C173.088 69.6388 170.708 69.592 169.436 70.3955C169.335 70.3009 169.224 70.2146 169.089 70.1577L138.9 57.4202C150.199 59.7453 162.532 61.4055 167.75 62.0621C167.675 62.6369 167.755 63.1521 168.057 63.5313C169.002 64.7205 171.568 64.1971 173.79 62.3642C176.01 60.5313 175.781 59.1236 174.834 57.9362C173.889 56.7471 172.585 56.2273 170.365 58.0611C169.744 58.5726 169.229 59.1328 168.812 59.7003C164.985 59.2218 155.365 57.9546 145.478 56.1594C154.048 56.0281 161.916 54.0189 169.009 50.0803C174.175 47.2125 178.55 43.5486 182.267 39.5219C187.449 57.4101 184.301 75.3891 183.88 77.5856C182.653 79.4406 172.391 94.4021 156.319 103.318C156.484 97.7998 155.933 92.0651 154.272 86.3231ZM110.101 139.889C110.932 131.941 109.843 124.001 106.884 116.115C112.128 124.505 116.771 132.735 118.634 136.091C118.246 136.73 117.905 137.473 117.661 138.31C116.848 141.1 117.819 142.129 119.258 142.564C120.698 142.999 122.062 142.676 122.876 139.886C123.689 137.094 123.18 134.479 121.74 134.044C121.317 133.916 120.86 134.011 120.405 134.252C117.876 129.705 111.837 119.056 105.528 109.442L128.144 132.481C128.248 132.585 128.369 132.658 128.493 132.717C128.252 134.221 129.206 136.442 131.056 138.327C133.446 140.762 135.042 140.313 136.297 139.034C137.552 137.755 137.992 136.13 135.603 133.696C133.751 131.811 131.572 130.84 130.093 131.086C130.036 130.959 129.964 130.836 129.863 130.73L106.757 107.194C116.322 113.747 127.092 120.088 131.667 122.728C131.382 123.23 131.262 123.738 131.399 124.205C131.825 125.672 134.392 126.189 137.132 125.362C139.871 124.533 140.189 123.144 139.762 121.678C139.334 120.21 138.325 119.222 135.585 120.05C134.821 120.281 134.134 120.598 133.534 120.959C130.179 119.026 121.766 114.105 113.306 108.591C121.274 111.811 129.298 113.022 137.331 112.149C143.181 111.513 148.585 109.818 153.529 107.546C151.6 126.096 141.951 141.492 140.737 143.358C138.903 144.595 123.791 154.425 105.582 156.39C107.812 151.354 109.476 145.849 110.101 139.889ZM38.8021 185.664C42.7559 181.879 46.3518 177.421 49.1679 172.16C52.9225 165.141 54.8985 157.381 55.1283 148.941C56.8222 158.736 58.0166 168.149 58.479 171.977C57.8814 172.416 57.2864 172.969 56.7474 173.647C54.949 175.909 55.4592 177.237 56.6257 178.2C57.7921 179.163 59.1741 179.396 60.9734 177.135C62.7727 174.873 63.2865 172.259 62.1191 171.295C61.7757 171.012 61.3177 170.921 60.8075 170.967C60.1792 165.781 58.5989 153.587 56.3841 142.245L68.6249 172.347C68.6808 172.484 68.7646 172.598 68.8575 172.7C68.0705 173.995 68.1156 176.419 69.1171 178.884C70.4098 182.064 72.0532 182.272 73.6929 181.579C75.3336 180.887 76.3513 179.557 75.0568 176.377C74.0553 173.913 72.4047 172.166 70.948 171.818C70.9417 171.678 70.9227 171.537 70.8678 171.4L58.3592 140.639C64.7523 150.451 72.32 160.507 75.5409 164.711C75.0875 165.063 74.7873 165.485 74.7368 165.971C74.579 167.494 76.757 168.972 79.6001 169.275C82.4424 169.578 83.2573 168.418 83.4133 166.897C83.5702 165.375 83.0076 164.069 80.1663 163.765C79.3721 163.681 78.6194 163.706 77.9306 163.806C75.5634 160.72 69.6526 152.902 63.9094 144.516C70.0564 150.585 77.0058 154.824 84.7475 157.146C90.3842 158.837 96.0138 159.399 101.431 159.23C92.6776 175.604 77.9919 186.057 76.1692 187.307C74.0102 187.735 56.3615 190.944 38.8021 185.664Z" fill="#333333"/>
<path d="M41.9202 214.662C66.5281 227.696 91.512 225.047 91.512 225.047L91.5138 225.046C91.5138 225.046 111.019 208.922 119.372 181.981C147.003 184.43 169.092 172.243 169.092 172.243C169.092 172.243 181.056 149.742 178.652 121.596C205.099 113.088 220.927 93.2175 220.927 93.2175C220.927 93.2175 223.527 67.7655 210.732 42.6992C231.97 24.5291 239.13 0.00088501 239.13 0.00088501L233.228 0.00088501C233.229 0.0477174 233.232 0.0936315 233.232 0.141382C233.232 1.94948 232.414 3.41506 229.035 3.41506C226.417 3.41506 224.201 2.53167 223.328 1.29291C223.199 1.34066 223.064 1.37739 222.919 1.37739H215.348C216.944 2.28006 218.132 3.31405 218.996 4.27824C219.852 5.23601 220.458 6.19194 220.9 7.04135C222.066 7.40683 223.391 8.64008 224.333 10.4087C225.696 12.9679 224.954 14.1782 223.635 14.9083C222.314 15.6374 220.914 15.6098 219.552 13.0506C218.556 11.1791 218.277 9.259 218.712 8.07166C217.382 5.57394 214.07 1.83378 206.133 1.41871C204.993 6.54548 200.273 24.6035 187.89 38.4898C194.155 56.2613 191.774 74.3165 190.951 79.1843C198.358 81.8529 202.823 79.7041 205.006 77.9318C205.108 76.682 206.066 75.0842 207.637 73.7876C209.857 71.9547 211.161 72.4745 212.107 73.6627C213.053 74.8519 213.283 76.2587 211.062 78.0916C209.487 79.3919 207.748 80.0163 206.529 79.8547C205.823 80.4323 204.956 81.031 203.88 81.5462C202.66 82.1284 201.077 82.6435 199.134 82.8345L206.362 85.8841C206.496 85.9411 206.608 86.0274 206.709 86.121C207.98 85.3185 210.36 85.3653 212.78 86.3855C215.901 87.7032 216.105 89.3754 215.425 91.0467C214.746 92.718 213.44 93.7538 210.318 92.4361C207.9 91.4159 206.184 89.7354 205.844 88.2505C205.706 88.2441 205.567 88.2248 205.432 88.1679L198.437 85.2165C199.572 86.6739 200.282 88.0926 200.717 89.3194C201.149 90.5389 201.349 91.6583 201.438 92.6142C202.378 93.4067 203.139 95.0633 203.346 97.0642C203.643 99.9586 202.504 100.789 201.01 100.949C199.516 101.107 198.233 100.536 197.936 97.6409C197.719 95.5233 198.182 93.6409 199.03 92.7134C198.74 89.8869 197.085 85.1412 189.908 81.6646C186.927 85.9557 175.785 100.8 159.127 108.802C158.239 127.662 149.256 143.414 146.667 147.593C152.508 152.943 157.441 152.7 160.124 151.913C160.686 150.798 162.173 149.696 164.111 149.111C166.851 148.282 167.86 149.271 168.287 150.739C168.713 152.204 168.398 153.594 165.657 154.422C163.714 155.01 161.873 154.909 160.806 154.283C159.939 154.542 158.912 154.758 157.724 154.815C156.379 154.877 154.722 154.736 152.855 154.156L158.388 159.791C158.491 159.897 158.561 160.02 158.619 160.147C160.096 159.9 162.277 160.871 164.129 162.756C166.518 165.19 166.079 166.816 164.823 168.094C163.567 169.372 161.971 169.821 159.582 167.386C157.731 165.501 156.779 163.279 157.02 161.775C156.895 161.716 156.775 161.644 156.671 161.54L151.317 156.086C151.818 157.875 151.941 159.462 151.882 160.765C151.824 162.06 151.589 163.172 151.31 164.09C151.882 165.189 151.962 167.015 151.402 168.944C150.588 171.735 149.224 172.058 147.785 171.623C146.346 171.188 145.375 170.159 146.188 167.369C146.783 165.328 147.919 163.77 149.049 163.244C149.843 160.519 150.097 155.489 144.773 149.48C140.408 152.283 124.537 161.652 106.141 162.551C98.235 179.631 84.0173 190.682 80.0554 193.532C83.4421 200.753 88.091 202.451 90.8647 202.769C91.804 201.96 93.5916 201.52 95.6019 201.735C98.4433 202.038 99.0049 203.345 98.8489 204.867C98.693 206.388 97.878 207.548 95.0358 207.244C93.0183 207.029 91.3569 206.219 90.606 205.225C89.7064 205.127 88.6787 204.926 87.5591 204.514C86.2925 204.048 84.816 203.272 83.3087 202.007L86.3025 209.372C86.3584 209.509 86.3773 209.649 86.3827 209.789C87.8403 210.137 89.49 211.884 90.4915 214.348C91.7842 217.527 90.7683 218.858 89.1276 219.55C87.487 220.243 85.8445 220.034 84.5527 216.855C83.5512 214.391 83.5061 211.966 84.2931 210.671C84.2003 210.568 84.1164 210.455 84.0605 210.319L81.1624 203.193C80.955 205.039 80.4718 206.555 79.9265 207.736C79.3856 208.909 78.7519 209.847 78.1506 210.586C78.2633 211.824 77.6539 213.544 76.4099 215.106C74.6115 217.367 73.2287 217.134 72.0622 216.171C70.8957 215.208 70.3855 213.88 72.1839 211.618C73.5 209.964 75.1352 208.968 76.3774 208.922C78.1344 206.714 80.2582 202.165 77.598 194.538C72.512 195.426 54.3279 197.896 36.9965 191.555C23.2772 204.251 5.99093 208.919 1.26009 210.007C1.67566 218 5.33196 221.379 7.77491 222.755C8.9468 222.374 10.7632 222.664 12.5418 223.646C15.0533 225.034 15.0803 226.46 14.3654 227.805C13.6488 229.149 12.4607 229.904 9.94741 228.516C8.16524 227.532 6.93385 226.134 6.61293 224.924C5.81965 224.482 4.94614 223.895 4.06542 223.08C3.07111 222.155 1.99838 220.862 1.0816 219.107V227.077C1.0816 227.225 1.04554 227.363 0.998668 227.495C2.21383 228.384 3.08193 230.642 3.08193 233.309C3.08193 236.661 1.71623 237.536 0.00526428 237.58V243.592C0.00526428 243.589 24.0831 236.296 41.9202 214.662Z" fill="#333333"/>
<path d="M55.8055 117.896C69.8168 152.842 96.0554 147.827 96.0554 147.827C96.0554 147.827 110.586 123.927 84.1103 98.82L53.6735 63.4771C50.952 65.8674 48.0755 68.0805 45.0637 70.0989C63.7392 88.9999 83.6929 118.593 92.4424 142.195C72.5212 124.204 53.239 89.2046 44.4426 70.5038C41.7157 72.2954 38.8825 73.9355 35.9437 75.3928L55.8055 117.896Z" fill="#333333"/>
<path d="M7.90585 336.147C7.90585 336.147 0.00909898 331.563 0.00909898 321.621H0.00549316V344.45H0.00819753C0.00819753 344.45 2.90457 338.908 7.90585 336.147Z" fill="#333333"/>
<path d="M7.39551 381.976C11.1501 381.893 14.1375 378.9 14.4142 375.163C14.4746 375.161 14.5368 375.159 14.5981 375.156C15.2156 378.816 18.4212 381.502 22.1415 381.264C25.8465 381.027 28.6897 377.98 28.8772 374.292C28.9466 374.286 29.0151 374.279 29.0854 374.273C29.8147 377.911 33.0987 380.495 36.81 380.139C40.551 379.783 43.3194 376.577 43.3311 372.828C43.3942 372.821 43.4564 372.814 43.5204 372.807C44.3795 376.486 47.8429 378.962 51.583 378.396C55.2907 377.836 57.8842 374.496 57.7093 370.763C57.7454 370.757 57.7805 370.751 57.8157 370.745C58.7983 374.335 62.2707 376.677 65.9567 376.04C69.6879 375.396 72.2282 371.943 71.9199 368.169C71.9388 368.164 71.9613 368.161 71.9803 368.158C73.0845 371.801 76.7472 374.036 80.4585 373.179C84.1337 372.328 86.4775 368.765 85.9916 365.032C86.0258 365.023 86.0592 365.015 86.0943 365.007C87.3645 368.528 91.046 370.576 94.6816 369.605C98.2991 368.64 100.519 365.046 99.9596 361.361C100.016 361.345 100.071 361.328 100.127 361.312C101.512 364.817 105.294 366.742 108.908 365.621C112.515 364.503 114.599 360.774 113.849 357.086C113.856 357.083 113.865 357.081 113.872 357.078C115.427 360.449 119.23 362.168 122.76 360.919C126.281 359.672 128.217 355.931 127.396 352.313C127.464 352.287 127.532 352.26 127.601 352.235C129.261 355.605 133.175 357.21 136.684 355.8C140.174 354.399 141.958 350.544 140.953 346.944C141.017 346.918 141.081 346.891 141.144 346.864C142.945 350.133 146.893 351.56 150.331 350.02C153.768 348.48 155.403 344.549 154.255 340.989C154.312 340.964 154.367 340.938 154.423 340.912C156.368 344.053 160.339 345.285 163.687 343.615C167.022 341.952 168.502 338.028 167.288 334.547C167.352 334.515 167.413 334.481 167.475 334.449C169.516 337.526 173.521 338.632 176.817 336.858C180.138 335.069 181.492 331.029 180.093 327.561C180.149 327.529 180.204 327.499 180.26 327.467C182.436 330.532 186.565 331.469 189.809 329.489C193.023 327.525 194.164 323.43 192.602 320.048C192.632 320.029 192.663 320.009 192.693 319.989C194.949 322.923 199.037 323.734 202.203 321.708C205.408 319.658 206.458 315.477 204.756 312.111C204.772 312.099 204.79 312.088 204.808 312.076C207.198 315.013 211.42 315.65 214.526 313.411C217.603 311.193 218.429 306.986 216.577 303.727C216.606 303.706 216.634 303.685 216.663 303.664C219.159 306.422 223.33 306.879 226.324 304.565C229.304 302.262 230.004 298.077 228.103 294.891C228.149 294.854 228.194 294.816 228.24 294.78C230.836 297.478 235.053 297.784 237.971 295.339C240.883 292.899 241.407 288.642 239.329 285.527C239.335 285.521 239.341 285.516 239.347 285.511C242.049 288.018 246.21 288.125 249 285.595C251.786 283.069 252.169 278.859 250.05 275.836C250.104 275.786 250.156 275.734 250.211 275.685C253.011 278.15 257.228 278.108 259.942 275.438C262.64 272.783 262.841 268.526 260.56 265.592C260.609 265.542 260.658 265.494 260.707 265.444C263.597 267.761 267.783 267.54 270.379 264.778C272.976 262.015 273.01 257.747 270.611 254.905C270.653 254.86 270.695 254.814 270.737 254.768C273.714 256.911 277.845 256.502 280.311 253.653C282.767 250.817 282.66 246.615 280.233 243.873C280.279 243.818 280.323 243.763 280.368 243.709C283.408 245.756 287.524 245.217 289.903 242.293C292.299 239.346 292.033 235.085 289.436 232.426C289.476 232.376 289.517 232.325 289.557 232.275C292.718 234.257 296.886 233.514 299.139 230.42C301.371 227.353 300.886 223.124 298.17 220.609C298.191 220.579 298.213 220.549 298.234 220.52C301.42 222.351 305.501 221.506 307.666 218.399C309.857 215.256 309.257 210.985 306.417 208.54C306.43 208.522 306.442 208.505 306.453 208.487C309.764 210.268 313.905 209.211 315.934 205.931C317.942 202.682 317.126 198.474 314.19 196.184C314.209 196.153 314.228 196.123 314.247 196.093C317.59 197.669 321.614 196.464 323.511 193.159C325.399 189.87 324.473 185.731 321.52 183.528C321.549 183.476 321.575 183.423 321.605 183.372C325.017 184.853 329.027 183.491 330.805 180.093C332.578 176.706 331.465 172.566 328.374 170.5C328.377 170.492 328.381 170.485 328.386 170.478C331.822 171.742 335.707 170.218 337.334 166.792C338.959 163.372 337.731 159.335 334.639 157.367C334.67 157.3 334.699 157.232 334.731 157.165C338.243 158.351 342.124 156.668 343.627 153.143C345.122 149.639 343.708 145.627 340.5 143.806C340.526 143.74 340.553 143.676 340.579 143.611C344.12 144.626 347.903 142.79 349.264 139.225C350.625 135.661 349.055 131.704 345.771 130.014C345.793 129.955 345.813 129.897 345.834 129.839C349.39 130.658 353.054 128.67 354.262 125.076C355.465 121.499 353.789 117.658 350.515 116.071C350.538 116.003 350.557 115.935 350.579 115.867C354.157 116.573 357.757 114.47 358.856 110.841C359.963 107.185 358.116 103.352 354.721 101.907C354.737 101.845 354.756 101.782 354.773 101.72C358.437 102.319 362.009 100.008 362.928 96.2707C363.838 92.5673 361.803 88.8492 358.348 87.5847C358.356 87.5489 358.365 87.5131 358.373 87.4773C362.005 87.9272 365.458 85.5553 366.291 81.8436C367.136 78.0842 364.974 74.3725 361.433 73.2191C361.437 73.1989 361.443 73.1778 361.446 73.1576C365.174 73.513 368.602 70.9216 369.244 67.0997C369.881 63.3154 367.544 59.7461 363.972 58.7745C363.978 58.7396 363.984 58.7038 363.989 58.668C367.669 58.8204 370.935 56.1391 371.446 52.3456C371.954 48.5706 369.545 45.1077 365.99 44.2234C365.997 44.1647 366.002 44.1059 366.009 44.0471C369.718 44.0848 372.91 41.2638 373.278 37.4327C373.643 33.6099 371.059 30.2215 367.427 29.5171C367.427 29.5089 367.429 29.5006 367.429 29.4924C371.081 29.3197 374.096 26.3977 374.313 22.5979C374.528 18.8063 371.876 15.5537 368.28 14.9413C368.283 14.8669 368.286 14.7925 368.289 14.7181C371.981 14.4454 374.932 11.3774 374.999 7.53439C375.064 3.71342 372.25 0.558205 368.601 0.125694C368.601 0.0862077 368.603 0.0467215 368.603 0.00631714H367.191C367.191 3.12848 367.154 6.24513 367.08 9.35535C366.563 30.9396 364.255 52.2152 360.238 73.0097C359.374 77.3863 358.411 81.7499 357.39 86.1035C352.868 105.397 346.838 124.466 339.242 143.146C335.115 153.294 330.565 163.18 325.659 172.818C324.358 175.371 323.031 177.906 321.676 180.421C318.533 186.264 315.247 192.007 311.821 197.643C309.726 201.088 307.596 204.506 305.399 207.87C304.139 209.782 302.853 211.678 301.557 213.568C300.962 214.435 300.366 215.301 299.764 216.163C296.796 220.414 293.736 224.611 290.585 228.748C289.876 229.679 289.157 230.601 288.439 231.525C285.509 235.3 282.503 239.026 279.42 242.698C275.109 247.832 270.663 252.875 266.055 257.803C263.949 260.055 261.813 262.286 259.645 264.494C257.478 266.702 255.288 268.878 253.077 271.023C249.693 274.307 246.241 277.495 242.755 280.631C237.585 285.285 232.313 289.785 226.931 294.111C223.712 296.7 220.456 299.232 217.164 301.702C213.155 304.709 209.097 307.625 204.987 310.453C204.677 310.667 204.372 310.888 204.061 311.101C186.742 322.837 168.331 333.15 148.956 341.895C146.164 343.155 143.352 344.382 140.521 345.577C137.688 346.772 134.848 347.93 131.999 349.049C112.229 356.822 92.053 362.79 71.6602 366.967C51.2504 371.058 30.3673 373.41 9.1804 373.935C6.12897 374.005 3.07033 374.044 0.00538635 374.044V375.481C0.0342329 375.481 0.0648824 375.48 0.0937289 375.48C0.530033 379.201 3.64186 382.059 7.39551 381.976Z" fill="#333333"/>
<path d="M44.7093 321.11C41.6047 324.26 42.1708 326.37 43.7952 328.032C45.4215 329.694 47.4894 330.28 50.5958 327.131C53.082 324.608 54.317 321.624 53.8888 319.673C54.7822 318.736 55.7188 317.586 56.5833 316.136C57.894 313.935 59.1263 310.837 59.5581 306.77L63.6462 320.917C63.675 321.016 63.7336 321.095 63.7832 321.179C61.9902 322.772 61.4827 326.833 62.7303 331.152C64.1934 336.214 66.6643 336.804 69.2758 336.021C71.8882 335.238 73.6505 333.379 72.1884 328.316C70.9399 323.997 68.3563 320.865 66.0008 320.515C65.9972 320.416 66.0035 320.318 65.9765 320.219L61.7288 305.522C65.6222 310.622 70.0934 312.761 73.463 313.623C74.0382 315.557 76.7182 317.47 80.251 318.24C84.5374 319.175 85.9644 317.541 86.4458 315.246C86.9281 312.951 86.2817 310.867 81.9962 309.932C78.4905 309.168 75.2984 309.783 73.9769 311.282C69.3894 310.132 62.3021 306.2 58.4205 293.251C60.6732 291.017 67.7938 283.324 71.8675 271.824C77.4249 276.401 83.0852 279.991 88.301 282.757C103.125 290.617 118.016 293.712 119.226 293.201L119.689 293.005L119.989 292.598C120.377 292.067 129.58 279.383 134.862 260.042C136.143 255.351 137.227 250.017 137.842 244.222C148.366 249.277 158.585 249.826 161.961 249.735C170.388 260.515 169.429 268.788 167.711 273.278C165.725 273.449 163.346 275.802 161.938 279.241C160.253 283.362 161.568 285.091 163.694 285.993C165.82 286.896 167.952 286.63 169.637 282.509C170.987 279.21 171.007 275.97 169.877 274.336C170.351 273.121 170.785 271.693 171.039 270.017C171.423 267.473 171.398 264.13 170.27 260.203L179.36 271.679C179.424 271.759 179.508 271.81 179.586 271.868C178.527 274.038 179.584 277.988 182.36 281.491C185.613 285.599 188.117 285.18 190.237 283.438C192.355 281.697 193.284 279.291 190.032 275.184C187.256 271.681 183.691 269.794 181.384 270.389C181.345 270.299 181.314 270.205 181.25 270.125L171.805 258.202C177.318 261.397 182.252 261.629 185.688 261.113C186.947 262.675 190.142 263.397 193.695 262.731C198.004 261.924 198.71 259.857 198.293 257.551C197.876 255.243 196.496 253.568 192.185 254.376C188.659 255.037 185.942 256.849 185.285 258.749C180.615 259.474 172.59 258.606 164.139 248.155C165.379 245.212 169.068 235.329 168.512 223.117C175.365 225.178 181.944 226.289 187.803 226.811C204.452 228.294 219.37 225.349 220.296 224.404L220.65 224.044L220.773 223.55C220.934 222.908 224.67 207.601 222.285 187.674C221.707 182.841 220.705 177.49 219.095 171.896C230.717 172.463 240.363 168.987 243.449 167.587C255.283 174.261 257.507 182.278 257.607 187.097C255.835 188.029 254.521 191.131 254.513 194.858C254.505 199.321 256.368 200.406 258.672 200.411C260.975 200.416 262.844 199.341 262.853 194.876C262.861 191.301 261.662 188.301 260.004 187.23C259.986 185.923 259.851 184.435 259.455 182.787C258.855 180.286 257.576 177.208 255.058 174.021L267.767 181.079C267.857 181.128 267.953 181.141 268.047 181.167C267.885 183.585 270.344 186.821 274.224 188.975C278.774 191.501 280.93 190.139 282.234 187.704C283.536 185.27 283.493 182.684 278.943 180.159C275.064 178.003 271.061 177.651 269.155 179.099C269.083 179.032 269.019 178.958 268.931 178.908L255.726 171.575C262.019 172.376 266.667 170.667 269.647 168.85C271.396 169.802 274.619 169.226 277.653 167.225C281.33 164.799 281.205 162.615 279.953 160.646C278.703 158.677 276.797 157.668 273.118 160.094C270.109 162.079 268.28 164.813 268.386 166.824C264.343 169.316 256.604 171.641 244.87 165.281C244.912 162.078 244.606 151.51 239.504 140.445C246.612 139.677 253.107 138.138 258.715 136.337C274.653 131.218 287.331 122.681 287.832 121.448L288.023 120.976L287.953 120.472C287.859 119.816 285.561 104.219 275.87 86.7381C273.521 82.4984 270.585 77.9447 266.996 73.4056C277.947 69.4 285.553 62.4266 287.879 59.9316C301.32 61.4835 306.385 68.0235 308.288 72.4368C307.001 73.9878 306.953 77.3661 308.344 80.8115C310.013 84.9392 312.144 85.2147 314.272 84.3221C316.402 83.4286 317.725 81.7059 316.055 77.5783C314.72 74.2725 312.486 71.9685 310.552 71.625C310.045 70.4249 309.36 69.1025 308.376 67.7352C306.881 65.659 304.544 63.3128 301.021 61.3495L315.415 62.9161C315.515 62.9262 315.609 62.9023 315.705 62.8876C316.463 65.1851 319.952 67.2155 324.347 67.6948C329.498 68.255 330.98 66.1558 331.268 63.3982C331.558 60.6396 330.545 58.2695 325.394 57.7085C321.001 57.231 317.17 58.4642 315.951 60.546C315.86 60.5111 315.773 60.467 315.672 60.4569L300.719 58.8288C306.834 57.1171 310.484 53.7259 312.555 50.8866C314.527 51.0849 317.29 49.2943 319.339 46.2649C321.827 42.589 320.892 40.6202 318.995 39.2887C317.098 37.9572 314.959 37.7671 312.473 41.443C310.439 44.4503 309.775 47.6891 310.629 49.5064C307.83 53.3834 301.552 58.5487 288.323 57.2466C287.158 54.2714 282.905 44.6266 274.035 36.3924C280.312 32.913 285.734 28.9598 290.24 25.1095C303.041 14.1645 311.545 1.33515 311.545 0.00088501H307.566V0.00180329C306.166 2.1763 302.288 7.83291 296.074 14.3647C296.415 12.3922 296.012 10.4932 295.234 8.74017C299.882 8.18186 305.233 6.21306 306.092 0.143219L306.102 0.0605733L306.094 0.00088501H304.918C304.921 0.0201689 304.926 0.0376163 304.93 0.0569002C304.111 5.49405 298.988 7.17634 294.684 7.61987C292.584 3.82553 288.941 0.945797 287.645 0.00088501H284.884V0.00180329C282.131 4.2461 265.157 28.1756 236.068 23.4051C242.475 13.4225 245.735 4.69514 246.811 1.41137C255.175 1.66665 258.641 5.51241 260.002 8.07166C259.568 9.259 259.847 11.1791 260.843 13.0506C262.206 15.6089 263.605 15.6365 264.926 14.9083C266.246 14.1782 266.986 12.9679 265.624 10.4087C264.683 8.64008 263.357 7.40775 262.19 7.04135C261.75 6.19286 261.142 5.23601 260.286 4.27824C259.422 3.31313 258.222 2.28098 256.623 1.37739H264.21C264.355 1.37739 264.49 1.34066 264.621 1.29291C265.494 2.52983 267.71 3.41506 270.328 3.41506C273.705 3.41506 274.524 1.94948 274.524 0.141382C274.524 0.0936315 274.522 0.0477174 274.521 0.00088501H244.486C244.478 0.0477174 244.458 0.0917949 244.458 0.141382C244.458 0.2176 244.487 0.282798 244.502 0.355342C243.151 4.45455 235.247 26.4125 215.879 42.8305C215.675 43.0031 215.559 43.2336 215.491 43.476C215.489 43.4779 215.488 43.4788 215.487 43.4806C215.485 43.488 215.486 43.4981 215.483 43.5063C215.458 43.6018 215.434 43.6955 215.431 43.7947C215.393 44.0591 215.403 44.3328 215.535 44.5872C227.363 67.5029 226.299 91.0678 226.014 95.0954C225.931 95.1946 225.849 95.2965 225.797 95.4242C225.768 95.4939 225.771 95.5665 225.756 95.6381C222.969 98.8999 207.417 116.104 183.357 123.723C183.103 123.802 182.912 123.969 182.757 124.164C182.755 124.166 182.751 124.168 182.749 124.171C182.742 124.177 182.741 124.188 182.734 124.195C182.675 124.273 182.619 124.349 182.58 124.439C182.444 124.669 182.353 124.925 182.378 125.212C184.696 150.994 174.861 172.35 173.085 175.961C172.97 176.019 172.857 176.083 172.761 176.181C172.708 176.234 172.684 176.302 172.644 176.362C168.844 178.288 148.012 188.121 122.921 185.78C122.658 185.756 122.417 185.835 122.202 185.955C122.199 185.957 122.195 185.957 122.19 185.958C122.182 185.961 122.177 185.97 122.167 185.974C122.084 186.025 122.005 186.072 121.934 186.139C121.722 186.298 121.541 186.501 121.457 186.777C113.914 211.499 96.8053 227.396 93.8071 230.04C93.6782 230.049 93.5493 230.063 93.4249 230.116C93.3564 230.145 93.3077 230.199 93.2464 230.238C89.0131 230.536 66.0738 231.5 43.7718 219.556C43.5374 219.43 43.2832 219.41 43.0371 219.438C43.0353 219.438 43.0344 219.435 43.0317 219.435C43.0218 219.435 43.0137 219.441 43.0038 219.442C42.9082 219.455 42.8154 219.468 42.7252 219.503C42.471 219.568 42.2276 219.684 42.0464 219.906C25.7896 239.805 4.01043 247.822 0.248657 249.096C0.171132 249.069 0.0872967 249.06 0.00526428 249.046V279.64C1.71623 279.597 3.08193 278.722 3.08193 275.37C3.08193 272.703 2.21383 270.445 0.998668 269.556C1.04554 269.425 1.0816 269.286 1.0816 269.138V261.133C2.00018 262.896 3.06841 264.214 4.06542 265.141C4.94614 265.957 5.81965 266.544 6.61293 266.986C6.93385 268.197 8.16704 269.594 9.94741 270.578C12.4598 271.967 13.6479 271.212 14.3654 269.867C15.0803 268.522 15.0533 267.096 12.5418 265.708C10.7641 264.726 8.9486 264.436 7.77671 264.817C5.27788 263.41 1.53233 259.883 1.25739 251.5C3.94462 250.574 12.7717 247.236 22.9752 240.441C27.6736 270.066 4.16909 287.389 0.00526428 290.198V293.009C0.0241948 292.982 0.0476327 292.949 0.0647603 292.925C0.921143 294.154 3.73639 297.905 7.47202 300.102C7.02309 304.526 5.34999 309.781 0.00526428 310.606V311.804L0.0259978 311.801C6.036 310.97 8.00207 305.467 8.57089 300.679C10.2819 301.492 12.1407 301.938 14.0725 301.629C7.67575 307.938 2.13721 311.878 0.00526428 313.303V317.357H0.50467L0.934665 317.096C1.49357 316.759 14.7612 308.626 26.9074 292.817C29.8533 288.983 32.8597 284.478 35.6046 279.363C43.4275 288.136 52.6629 292.626 55.8162 293.858C59.5518 307.103 55.5583 314.372 52.2843 317.851C50.3849 317.234 47.3028 318.481 44.7093 321.11ZM80.4574 273.555C79.355 272.799 78.2552 272.015 77.1581 271.19C73.9561 265.854 78.6798 258.616 80.5494 256.118C84.5329 259.924 88.7689 262.737 92.5865 264.761C92.7145 264.828 92.8398 264.889 92.9687 264.956C91.2506 267.841 86.4377 274.732 80.4574 273.555ZM77.9703 257.879C76.1232 260.935 74.0932 265.532 75.2272 269.674C72.2479 267.303 69.3227 264.664 66.5164 261.727C70.7316 262.472 75.1758 259.939 77.9703 257.879ZM66.5849 244.349C63.8193 246.781 60.5912 250.582 60.684 254.937C57.793 251.16 55.1446 246.965 52.8089 242.357C56.6121 245.926 62.9999 245.17 66.5849 244.349ZM70.6748 242.709C73.1286 247.664 76.2026 251.757 79.5127 255.111C77.6197 256.831 70.5027 262.702 64.8217 259.892C63.895 258.862 62.9854 257.796 62.0948 256.695C60.2089 249.731 69.1361 243.688 70.6748 242.709ZM82.3992 274.855C87.0119 274.52 90.7376 270.328 92.8299 267.307C91.7509 270.684 90.4645 276.704 93.0607 280.907C89.6099 279.21 86.0167 277.214 82.3992 274.855ZM97.7843 283.091C97.1055 282.797 96.4159 282.487 95.7191 282.169C90.2004 277.821 93.6845 268.073 94.6094 265.778C100.804 268.765 106.538 270.242 108.923 270.569C108.27 273.363 105.312 283.7 97.7843 283.091ZM110.104 270.603C111.357 271.406 115.368 273.774 119.645 274.346C120.894 278.623 121.326 284.158 116.644 286.994C111.4 288.305 107.914 284.126 105.864 280.246C108.557 276.747 109.772 272.091 110.104 270.603ZM117.703 289.455C115.193 288.968 108.58 287.482 100.279 284.135C102.198 283.702 103.766 282.596 105.057 281.192C107.342 285.352 111.175 289.634 117.01 288.12L117.088 288.1L117.158 288.058C122.399 284.947 122.148 279.097 120.873 274.451C122.76 274.536 124.645 274.224 126.314 273.185C122.774 281.509 119.137 287.307 117.703 289.455ZM128.312 268.149C127.983 269.039 127.65 269.908 127.313 270.754C122.353 276.315 113.214 271.172 110.888 269.709C111.912 268.187 115.076 263.164 117.569 255.97C119.491 256.769 128.943 261.086 128.312 268.149ZM129.278 265.425C128.112 260.681 123.099 257.42 120.03 255.83C123.564 256.45 129.021 256.737 132.521 253.768C131.623 257.927 130.503 261.825 129.278 265.425ZM132.979 251.52C129.427 256.517 121.19 255.002 118.145 254.223C119.539 249.787 120.609 244.639 120.794 239.05C123.666 239.425 132.098 241.048 133.74 247.028C133.52 248.555 133.263 250.049 132.979 251.52ZM134.041 244.65C131.922 241.018 127.373 239.279 123.996 238.459C127.357 237.911 132.16 236.523 134.654 233.065C134.703 237.053 134.479 240.922 134.041 244.65ZM122.652 220.693C125.692 218.733 130.584 214.792 130.988 209.689C132.467 214.469 133.474 219.187 134.044 223.793C131.072 220.771 126.242 220.423 122.652 220.693ZM134.262 225.981C134.415 227.572 134.527 229.15 134.59 230.711C132.277 236.678 123.037 237.511 120.829 237.621C120.853 232.824 120.195 227.73 118.509 222.505C119.871 222.173 130.554 219.825 134.262 225.981ZM161.95 247.245C161.896 247.271 161.844 247.306 161.792 247.34C158.863 247.336 148.536 246.907 138.078 241.661C139.045 229.374 137.709 215.163 131.465 200.422C142.292 211.791 154.507 218.494 166.102 222.337C166.854 234.409 163.102 244.486 161.95 247.245ZM153.312 199.795C151.67 203.119 150.116 207.889 151.837 211.877C147.747 209.515 143.724 206.67 139.835 203.323C144.69 205.14 150.308 201.951 153.312 199.795ZM213.601 206.826C216.364 210.29 218.841 215.234 215.581 219.679C211.228 222.933 206.439 220.434 203.088 217.647C204.26 213.364 203.633 208.589 203.383 207.085C204.839 207.339 209.433 207.962 213.601 206.826ZM185.001 208.517C185.143 208.531 185.284 208.536 185.427 208.549C184.925 211.883 183.067 220.127 177.1 221.37C175.798 221.101 174.487 220.806 173.164 220.471C168.201 216.79 169.847 208.262 170.634 205.224C175.744 207.186 180.715 208.134 185.001 208.517ZM170.81 219.823C167.166 218.793 163.472 217.496 159.776 215.876C163.95 214.921 167.105 210.849 168.914 207.857C168.354 211.4 168.208 216.438 170.81 219.823ZM157.522 214.842C156.279 214.251 155.038 213.62 153.802 212.951C149.443 207.253 155.419 198.19 156.473 196.686C160.601 200.308 164.979 202.89 169.299 204.697C168.196 207.023 163.826 215.223 157.522 214.842ZM179.382 221.813C183.517 219.706 185.384 214.381 186.184 210.774C186.454 214.314 187.527 220.378 191.505 223.248C187.681 223.027 183.611 222.581 179.382 221.813ZM194.437 223.378C187.703 221.513 187.26 211.15 187.254 208.668C194.097 209.013 199.951 208.142 202.276 207.515C202.724 210.351 203.875 221.053 196.689 223.425C195.952 223.418 195.199 223.401 194.437 223.378ZM217.482 221.54C214.982 222.068 208.314 223.274 199.386 223.417C200.996 222.269 202.03 220.635 202.697 218.835C206.37 221.788 211.521 224.25 216.341 220.577L216.406 220.527L216.455 220.461C220.129 215.545 217.699 210.238 214.777 206.442C216.553 205.783 218.176 204.761 219.327 203.151C219.183 212.221 218.001 218.997 217.482 221.54ZM219.338 200.516C216.843 207.587 206.468 206.399 203.769 205.954C204.143 204.15 205.181 198.274 204.781 190.656C206.857 190.645 217.212 190.948 219.282 197.721C219.312 198.671 219.331 199.603 219.338 200.516ZM219.15 194.828C216.29 190.9 210.434 189.84 207.002 189.567C210.5 188.763 215.648 186.9 217.767 182.794C218.5 186.986 218.928 191.024 219.15 194.828ZM216.361 176.092C216.732 177.587 217.054 179.069 217.346 180.537C215.943 186.538 207.763 188.351 204.656 188.819C204.279 184.176 203.332 179.003 201.404 173.768C204.199 172.994 212.599 171.206 216.361 176.092ZM215.743 173.776C212.423 171.248 207.566 171.414 204.14 171.973C207.038 170.157 210.954 167.001 211.96 162.834C213.504 166.498 214.75 170.162 215.743 173.776ZM196.224 156.081C198.296 153.086 201.335 147.538 199.789 142.666C202.953 146.505 205.657 150.472 207.914 154.505C204.033 152.873 199.44 154.434 196.224 156.081ZM208.935 156.442C209.677 157.853 210.372 159.267 211.016 160.685C211.122 167.099 202.898 171.47 200.898 172.433C199.118 167.992 196.598 163.542 193.077 159.371C194.211 158.533 203.199 152.201 208.935 156.442ZM236.985 140.665C242.214 151.523 242.534 162.293 242.506 165.293C242.464 165.339 242.43 165.392 242.395 165.444C239.686 166.583 229.984 170.211 218.351 169.441C214.63 157.713 208.058 145.104 196.752 133.92C211.024 140.203 224.829 141.635 236.985 140.665ZM219.876 136.561C215.21 135.973 210.424 134.914 205.573 133.337C210.74 133.122 214.734 127.986 216.698 124.823C216.429 128.535 216.787 133.547 219.876 136.561ZM218.453 120.718C223.626 122.455 228.641 123.134 233.311 123.12C233.166 125.699 232.208 134.977 226.243 137.083C224.871 137.021 223.488 136.922 222.093 136.786C215.926 133.221 218.043 122.519 218.453 120.718ZM240.387 136.506C236.635 136.975 232.735 137.216 228.713 137.16C232.21 134.65 233.594 129.659 234.14 126.189C234.957 129.681 236.711 134.393 240.387 136.506ZM242.806 136.187C236.837 134.719 235.153 126.199 234.743 123.086C240.202 122.908 245.149 121.846 249.252 120.528C249.392 120.483 249.518 120.431 249.656 120.385C250.445 123.657 251.831 132.005 246.782 135.482C245.478 135.741 244.155 135.981 242.806 136.187ZM249.056 135.002C252.085 131.444 251.811 125.796 251.194 122.153C252.774 125.317 256.043 130.502 260.797 131.602C257.18 132.888 253.252 134.065 249.056 135.002ZM265.651 129.745C264.968 130.027 264.265 130.304 263.553 130.581C256.612 131.484 252.305 122.029 251.383 119.773C257.893 117.401 262.962 114.324 264.828 112.858C266.299 115.287 271.407 124.746 265.651 129.745ZM265.696 112.04C267.139 111.706 271.617 110.491 275.038 107.816C278.893 109.939 283.038 113.543 281.697 118.919C278.898 123.623 273.533 123.181 269.391 121.912C268.865 117.499 266.493 113.332 265.696 112.04ZM284.154 119.897C282.043 121.359 276.334 125.074 268.14 128.685C269.198 126.997 269.539 125.085 269.478 123.163C273.982 124.459 279.664 124.726 282.739 119.453L282.78 119.381L282.801 119.301C284.348 113.327 280.108 109.371 275.982 107.004C277.376 105.703 278.492 104.126 278.952 102.189C282.224 110.625 283.678 117.345 284.154 119.897ZM276.867 97.1909C277.252 98.0569 277.62 98.9109 277.969 99.7511C278.321 107.256 268.29 110.204 265.629 110.845C265.295 109.032 264.046 103.199 260.816 96.3167C262.73 95.4976 272.411 91.74 276.867 97.1909ZM275.659 94.5692C271.542 92.0541 265.733 93.358 262.459 94.4434C265.39 92.3369 269.447 88.6077 269.861 83.9879C272.112 87.5774 274.026 91.1404 275.659 94.5692ZM266.045 78.3469C266.95 79.5838 267.803 80.8262 268.624 82.0696C269.582 88.1605 262.704 93.0238 260.011 94.6675C257.918 90.5251 255.101 86.1155 251.353 82.0301C253.644 80.2257 260.733 75.2991 266.045 78.3469ZM251.803 63.0869C253.017 64.1006 254.189 65.1365 255.318 66.1943C257.825 72.0796 251.87 79.3239 250.384 80.9924C247.071 77.5838 243.071 74.4552 238.251 71.9749C238.984 70.76 244.908 61.4046 251.803 63.0869ZM239.923 67.7095C240.712 64.1346 241.435 57.8242 238.179 53.9252C242.543 56.2401 246.531 58.8499 250.131 61.6957C245.931 61.7002 242.275 64.9326 239.923 67.7095ZM264.604 76.4469C260.586 75.4047 256.162 77.4525 253.206 79.3046C255.201 76.4974 257.633 72.0548 256.998 67.8142C259.8 70.5966 262.328 73.4956 264.604 76.4469ZM262.83 37.5641C265.119 33.8818 264.522 28.7312 263.723 25.3124C265.788 28.2197 269.18 31.8882 273.372 32.408C270.08 34.3033 266.567 36.048 262.83 37.5641ZM280.814 27.6393C282.277 23.171 279.901 18.0607 277.961 14.9349C280.612 17.2425 285.579 20.7577 290.384 19.9203C287.525 22.5199 284.34 25.137 280.814 27.6393ZM287.066 1.03028C289.338 2.70155 297.611 9.45092 294.171 16.3123C293.645 16.8394 293.101 17.3684 292.546 17.9019C286.472 21.4446 278.943 14.3858 277.242 12.6622C282.366 7.933 285.893 3.11478 287.066 1.03028ZM275.558 14.1893C275.67 14.0938 275.767 13.9964 275.877 13.9C277.835 16.6163 282.251 23.789 278.893 28.969C277.785 29.7165 276.654 30.453 275.485 31.1692C269.42 32.1408 264.663 24.9249 263.114 22.2095C268.089 19.9175 272.262 17.0075 275.558 14.1893ZM261.804 22.8C262.64 25.2389 265.241 34.1848 260.518 38.4567C259.23 38.9342 257.913 39.3814 256.577 39.7992C249.538 38.9085 247.474 28.1958 247.175 26.373C252.607 25.9607 257.495 24.6329 261.804 22.8ZM254.44 40.4549C249.908 41.7304 245.088 42.6174 240.015 43.0518C244.708 40.8387 246.468 34.5375 247.096 30.8487C248.243 34.3823 250.455 38.8736 254.44 40.4549ZM234.648 25.5732C234.741 25.6182 234.804 25.7091 234.91 25.7284C238.829 26.4327 242.52 26.6173 246.008 26.441C246.049 26.7054 246.146 27.2509 246.307 27.9708C246.303 27.9947 246.278 28.0085 246.278 28.0342C246.27 28.183 245.433 42.9508 236.122 42.6845C231.052 40.9489 230.26 35.6293 230.567 31.1536C232.031 29.2775 233.401 27.4125 234.648 25.5732ZM220.329 42.2979C223.692 39.1867 226.689 35.9535 229.335 32.7018C229.335 32.7275 229.332 32.7523 229.332 32.779C229.332 36.9121 230.491 41.296 234.687 43.3227C230.103 43.4026 225.316 43.083 220.329 42.2979ZM271.789 37.577C280.699 45.5697 285.041 55.3972 286.142 58.1786C286.122 58.2356 286.111 58.2962 286.098 58.3577C284.038 60.4514 276.416 67.5681 265.364 71.3991C257.52 62.0244 246.717 52.949 232.087 47.0289C247.632 47.2704 260.923 43.2106 271.789 37.577ZM219.447 46.8121C224.254 48.0068 228.717 49.5385 232.854 51.3521C228.389 51.7185 225.756 55.2585 224.236 58.9996C224.204 59.0776 224.185 59.1557 224.155 59.2337C222.932 55.1759 221.385 51.0041 219.447 46.8121ZM226.349 67.7976C225.896 65.6388 225.347 63.4165 224.712 61.1447C226.09 56.8508 228.826 52.1207 234.231 52.4981C242.932 55.8802 238.159 69.8509 238.109 69.9914C238.101 70.0153 238.117 70.0373 238.112 70.0612C237.584 70.8234 237.272 71.3385 237.199 71.4634C234.042 69.9391 230.563 68.6783 226.695 67.805C226.577 67.7774 226.463 67.7885 226.349 67.7976ZM227.495 97.5151C235.126 101.012 236.883 105.916 237.18 108.812C236.333 109.738 235.868 111.622 236.087 113.738C236.385 116.634 237.668 117.206 239.161 117.046C240.654 116.887 241.793 116.057 241.495 113.162C241.291 111.161 240.528 109.505 239.587 108.713C239.5 107.756 239.299 106.636 238.867 105.418C238.432 104.189 237.71 102.767 236.572 101.309L243.581 104.267C243.715 104.323 243.855 104.343 243.992 104.349C244.334 105.832 246.049 107.513 248.468 108.534C251.589 109.851 252.895 108.815 253.575 107.144C254.253 105.474 254.049 103.801 250.928 102.483C248.51 101.463 246.13 101.416 244.859 102.219C244.757 102.125 244.646 102.039 244.511 101.982L237.25 98.9182C239.202 98.7272 240.806 98.2268 242.027 97.6427C243.121 97.1202 243.998 96.5114 244.705 95.9274C245.926 96.0807 247.641 95.4829 249.211 94.1881C251.429 92.3553 251.202 90.9475 250.256 89.7593C249.311 88.571 248.006 88.0513 245.785 89.8842C244.215 91.1808 243.257 92.7786 243.154 94.0274C240.924 95.8401 236.29 98.0155 228.582 95.0669C228.77 92.1835 229.122 82.6105 226.867 70.4175C255.516 77.3423 262.247 106.066 263.2 111.055C259.062 113.903 234.388 129.394 209.306 113.647C218.977 106.922 225.267 100.129 227.495 97.5151ZM207.18 115.097C207.25 115.175 207.272 115.283 207.364 115.343C210.719 117.519 214.062 119.13 217.349 120.326C217.288 120.588 217.173 121.128 217.051 121.856C217.038 121.876 217.01 121.88 217 121.903C216.938 122.038 210.615 135.356 202.114 131.48C198.081 127.898 199.349 122.676 201.314 118.659C203.371 117.499 205.336 116.31 207.18 115.097ZM187.668 124.966C191.944 123.403 195.927 121.584 199.594 119.612C199.584 119.636 199.571 119.658 199.56 119.681C198.008 123.501 197.433 128.002 200.548 131.51C196.283 129.796 191.98 127.636 187.668 124.966ZM185.158 128.794C189.149 131.772 192.699 134.927 195.839 138.215C191.577 136.812 187.814 139.056 185.004 141.92C184.945 141.98 184.898 142.043 184.841 142.104C185.235 137.879 185.373 133.422 185.158 128.794ZM183.651 150.871C184.042 148.699 184.371 146.433 184.637 144.086C187.523 140.656 191.829 137.353 196.679 139.808C203.447 146.325 193.789 157.371 193.691 157.482C193.675 157.501 193.682 157.528 193.668 157.547C192.892 158.045 192.411 158.4 192.296 158.487C189.953 155.848 187.213 153.326 183.967 151.012C183.868 150.942 183.759 150.908 183.651 150.871ZM150.681 186.588C162.142 184.144 170.505 180.32 173.544 178.774C179.281 184.98 179.061 190.195 178.248 192.986C177.118 193.512 175.982 195.071 175.387 197.111C174.576 199.903 175.545 200.93 176.985 201.365C178.424 201.801 179.789 201.478 180.602 198.687C181.163 196.758 181.081 194.932 180.511 193.833C180.789 192.914 181.025 191.802 181.082 190.508C181.142 189.203 181.009 187.608 180.507 185.817L185.873 191.283C185.975 191.386 186.095 191.459 186.222 191.518C185.979 193.022 186.932 195.244 188.783 197.129C191.171 199.563 192.768 199.115 194.023 197.836C195.278 196.558 195.717 194.932 193.33 192.499C191.477 190.613 189.296 189.642 187.82 189.889C187.76 189.762 187.69 189.639 187.587 189.534L182.031 183.874C183.906 184.459 185.575 184.621 186.923 184.558C188.113 184.501 189.139 184.286 190.006 184.027C191.072 184.653 192.914 184.753 194.858 184.166C197.598 183.339 197.914 181.949 197.487 180.482C197.06 179.015 196.05 178.025 193.311 178.854C191.373 179.44 189.888 180.542 189.323 181.656C186.58 182.462 181.484 182.665 175.47 176.936C176.727 174.345 180.651 165.628 183.149 153.473C207.038 171.037 202.441 200.22 201.445 205.203C196.552 206.22 167.937 210.915 150.681 186.588ZM148.171 187.097C148.207 187.196 148.186 187.306 148.25 187.397C150.531 190.716 153.013 193.506 155.602 195.893C155.447 196.112 155.138 196.566 154.751 197.192C154.731 197.206 154.705 197.198 154.686 197.216C154.579 197.316 143.733 207.155 137.337 200.261C134.957 195.38 138.088 191.049 141.412 188.104C143.75 187.833 146.014 187.5 148.171 187.097ZM139.467 188.311C139.449 188.33 139.428 188.345 139.41 188.364C136.541 191.286 134.317 195.222 135.878 199.677C132.581 196.431 129.418 192.757 126.436 188.61C130.974 188.833 135.338 188.704 139.467 188.311ZM122.68 191.167C125.249 195.475 127.343 199.773 129.009 204.036C125.597 201.078 121.279 201.685 117.606 203.234C117.529 203.266 117.462 203.309 117.386 203.342C119.339 199.591 121.14 195.528 122.68 191.167ZM112.994 210.977C114.171 209.124 115.326 207.158 116.453 205.094C120.409 203.05 125.628 201.677 129.186 205.837C132.992 214.495 119.918 220.935 119.785 220.999C119.763 221.009 119.76 221.037 119.739 221.051C118.836 221.21 118.259 221.349 118.119 221.384C116.946 218.033 115.362 214.635 113.233 211.231C113.168 211.128 113.079 211.053 112.994 210.977ZM111.554 213.186C127.025 238.725 111.814 263.894 109.023 268.109C104.122 267.142 75.9529 260.309 69.1379 231.128C80.6341 233.334 89.7857 233.061 93.1743 232.817C96.1437 240.786 93.9811 245.519 92.1809 247.781C90.9387 247.826 89.3034 248.823 87.9873 250.476C86.1889 252.738 86.6991 254.067 87.8656 255.03C89.0321 255.993 90.414 256.226 92.2133 253.966C93.4483 252.413 94.0225 250.726 93.9189 249.49C94.5301 248.744 95.1791 247.791 95.7299 246.595C96.2744 245.414 96.7521 243.888 96.9595 242.037L99.8631 249.178C99.9181 249.314 100.003 249.427 100.096 249.531C99.3069 250.827 99.3537 253.25 100.356 255.714C101.648 258.893 103.292 259.102 104.931 258.41C106.571 257.719 107.589 256.388 106.295 253.208C105.293 250.744 103.643 248.997 102.186 248.649C102.18 248.509 102.161 248.368 102.106 248.23L99.0977 240.835C100.609 242.106 102.091 242.907 103.362 243.374C104.481 243.785 105.509 243.987 106.408 244.085C107.159 245.079 108.822 245.889 110.838 246.104C113.68 246.407 114.495 245.247 114.651 243.726C114.807 242.203 114.246 240.897 111.403 240.594C109.393 240.38 107.606 240.819 106.666 241.629C103.83 241.303 99.0445 239.504 95.6406 231.867C97.7771 229.964 104.679 223.441 111.554 213.186ZM66.5534 230.604C66.548 230.709 66.5417 230.815 66.566 230.921C67.4269 234.878 68.6718 238.424 70.1664 241.638C69.942 241.778 69.4858 242.078 68.8936 242.504C68.8701 242.51 68.8476 242.493 68.826 242.502C68.6871 242.552 54.9724 247.415 51.6514 238.552C51.2863 233.115 55.8071 230.334 59.9845 228.91C62.2255 229.565 64.425 230.137 66.5534 230.604ZM58.1077 228.344C58.0824 228.354 58.059 228.36 58.0355 228.37C54.2864 229.952 50.7536 232.721 50.5219 237.445C48.6956 233.16 47.1541 228.533 45.9578 223.539C50.0667 225.514 54.1449 227.097 58.1077 228.344ZM41.5263 224.436C42.2835 229.418 42.6017 234.205 42.5395 238.793C40.4986 234.729 36.2816 233.607 32.3053 233.607C32.2224 233.607 32.1448 233.619 32.0619 233.621C35.2738 230.918 38.465 227.865 41.5263 224.436ZM25.9627 250.576C26.1375 247.023 25.95 243.267 25.2613 239.291C25.2406 239.17 25.1865 239.067 25.1351 238.964C26.92 237.71 28.7256 236.345 30.5421 234.876C34.9637 234.53 40.3012 235.296 42.0266 240.526C42.2907 250.009 27.7926 250.863 27.6457 250.87C27.6213 250.872 27.6069 250.897 27.5835 250.9C26.6901 250.694 26.1042 250.598 25.9627 250.576ZM42.2438 244.787C41.8157 249.781 40.9737 254.533 39.7703 259.01C38.1585 255.061 33.8279 252.856 30.4095 251.706C33.9541 251.079 39.9523 249.345 42.2438 244.787ZM25.9005 251.763C27.2842 251.988 38.0359 253.983 39.1483 261.116C38.693 262.646 38.2035 264.147 37.6753 265.614C33.296 270.224 24.4464 267.393 22.365 266.633C24.1886 262.211 25.4948 257.249 25.9005 251.763ZM36.8477 267.814C35.3964 271.517 33.735 275.005 31.9294 278.277C31.3371 274.097 27.7872 270.717 24.9756 268.644C28.2857 269.446 33.2455 270.036 36.8477 267.814ZM15.9096 299.773C9.23797 302.977 2.72405 294.663 1.12667 292.404C2.64292 291.397 7.45489 287.989 12.4607 282.315C13.9355 283.801 21.047 291.476 17.8108 297.755C17.1708 298.45 16.5371 299.123 15.9096 299.773ZM19.7255 295.615C20.4295 290.779 17.0247 285.811 14.7882 283.146C17.8198 285.096 22.7535 287.488 27.1021 286.111C24.7087 289.602 22.2099 292.767 19.7255 295.615ZM30.7575 280.359C29.9832 281.683 29.1827 282.963 28.3696 284.211C23.2123 287.443 16.1693 282.833 13.647 280.925C16.602 277.371 19.5245 273.032 21.7952 267.941C24.3076 269.407 31.4877 274.194 30.7575 280.359ZM36.7819 277.091C42.2916 266.115 46.3978 252.466 46.167 236.414C51.8903 251.123 60.6489 262.072 69.9059 270.139C66.0603 281.598 58.827 289.467 56.7383 291.555C56.6789 291.558 56.6194 291.571 56.5581 291.582C53.8537 290.436 44.474 286.014 36.7819 277.091Z" fill="#333333"/>
<path d="M33.2123 174.017C33.2123 174.017 55.6134 157.6 40.5853 124.084L25.7428 79.5673C22.3308 80.7143 18.8422 81.638 15.3013 82.3286C25.4535 107.071 32.7733 142.19 31.989 167.406C20.344 143.019 15.6772 103.166 14.5756 82.4599C11.3827 83.0522 8.14823 83.4636 4.88586 83.6638L7.26841 130.675C7.08541 168.422 33.2123 174.017 33.2123 174.017Z" fill="#333333"/>
<path d="M11.3934 58.3871C17.9677 74.2146 29.0268 73.8041 29.5866 73.772L29.9922 73.7481L30.2951 73.4735C30.7134 73.0934 38.803 65.4322 32.5073 49.5495C44.5056 61.5515 54.5433 56.8738 55.0482 56.6258L55.4132 56.4449L55.589 56.0739C55.8333 55.5597 60.428 45.3273 48.646 33.1077C64.2403 39.5192 71.7566 31.2831 72.1307 30.8579L72.3994 30.5494L72.4228 30.1371C72.4562 29.5659 72.8582 18.2949 57.3225 11.6006C74.1599 11.4555 78.047 0.932023 78.2309 0.392991L78.3661 0.00088501H75.8718C74.8504 2.27822 68.7313 12.9808 45.7812 7.91648L26.4243 4.05877C24.7403 3.72268 23.8461 2.64003 23.4386 1.48942C39.8036 1.80806 57.8174 1.41504 66.2433 0.00088501H20.8172C20.8172 1.5987 21.4031 3.30946 22.6291 4.58495C21.0173 5.2856 19.8328 6.63823 19.2324 8.11391V8.11483C18.6321 9.5905 18.532 11.3995 19.1856 13.057C17.4322 13.0763 15.8304 13.8633 14.7216 14.9928H14.7198C13.6119 16.1222 12.8384 17.7549 12.8204 19.5401C11.1942 18.8743 9.41831 18.9772 7.96967 19.5888H7.96877C6.52013 20.1994 5.19228 21.407 4.50537 23.0488C3.25235 21.8 1.57294 21.2022 0.00440979 21.2022V67.4744V67.4762C1.39265 58.8931 1.77937 40.544 1.46567 23.8725C2.59609 24.2885 3.65711 25.1985 3.98704 26.9148L7.77946 46.6551C12.7492 70.0245 2.2283 76.2504 0.00531125 77.2844V79.8244L0.389331 79.6876C0.917584 79.5002 11.2555 75.5388 11.3934 58.3871ZM22.8896 14.0488C21.4572 13.0791 21.0164 11.7246 21.0723 10.5005C36.0779 17.1792 52.8802 23.8432 61.2015 25.823C53.9439 21.2297 37.4364 13.8394 22.191 7.75302C23.0005 6.84576 24.2526 6.20572 25.9393 6.55375L45.2944 10.5391C68.3897 14.8045 70.0105 27.0893 70.0988 29.5769C68.3004 31.2812 58.6251 38.7864 39.3241 25.1609L22.8896 14.0488ZM15.5248 17.9138C26.8786 29.9332 39.8992 42.6404 46.8431 47.7121C41.8644 40.6395 29.39 27.3758 17.5909 15.81C18.6799 15.2875 20.0762 15.1838 21.5041 16.1626L37.8881 27.3896C57.6236 40.3346 54.5055 52.3163 53.6518 54.6478C51.3495 55.5211 39.5918 58.6846 26.8786 38.5706L15.8709 21.901C14.9109 20.4464 15.0118 19.0231 15.5248 17.9138ZM10.3432 46.1115L6.43449 26.418C6.09464 24.7008 6.72386 23.4253 7.61359 22.6007C13.5875 38.1307 20.8442 54.9463 25.3533 62.3403C23.4098 53.8646 16.8679 36.7469 10.3125 21.4621C11.5151 21.4033 12.8429 21.8523 13.7949 23.3133L24.7142 40.0729C38.0855 59.725 30.7035 69.5791 29.0376 71.401C26.5838 71.311 14.5332 69.6489 10.3432 46.1115Z" fill="#333333"/>
<path d="M9.59597 369.033C10.6209 369.005 11.645 368.976 12.669 368.939C13.6471 368.904 14.6288 368.891 15.6051 368.849C16.7337 368.8 17.8596 368.719 18.9873 368.66C19.6778 368.622 20.3666 368.584 21.0562 368.543C23.4198 368.404 25.7807 368.241 28.1389 368.056C28.586 368.021 29.0322 367.983 29.4794 367.945C32.0197 367.735 34.5573 367.499 37.0895 367.234C37.3743 367.203 37.6592 367.172 37.944 367.142C40.6033 366.856 43.2581 366.543 45.9075 366.198C45.9769 366.189 46.0454 366.182 46.1139 366.173C46.2203 366.159 46.3258 366.141 46.4339 366.127C49.1563 365.768 51.8769 365.38 54.5912 364.956C54.7264 364.935 54.8616 364.912 54.9978 364.89C56.4103 364.669 57.8229 364.452 59.231 364.214C60.1766 364.054 61.1186 363.886 62.0606 363.719C62.332 363.67 62.6024 363.617 62.8729 363.567C63.4264 363.468 63.979 363.359 64.5315 363.258C66.5914 362.876 68.6503 362.49 70.7047 362.071C72.7582 361.657 74.8063 361.212 76.8508 360.763C77.4025 360.64 77.9542 360.526 78.505 360.4C81.0994 359.816 83.6848 359.199 86.2656 358.556C86.4035 358.521 86.5433 358.488 86.6821 358.454C87.6809 358.204 88.6842 357.975 89.6803 357.716C91.3381 357.285 92.9869 356.815 94.6392 356.36C94.8177 356.312 94.9962 356.264 95.1747 356.214C96.2447 355.919 97.3184 355.643 98.3848 355.337C99.8875 354.906 101.379 354.436 102.876 353.985C103.033 353.938 103.19 353.896 103.346 353.849C103.467 353.812 103.584 353.772 103.703 353.736C106.138 352.995 108.566 352.226 110.986 351.433C111.423 351.29 111.859 351.146 112.295 351.001C114.535 350.256 116.768 349.49 118.996 348.699C119.315 348.586 119.636 348.483 119.954 348.37C120.293 348.249 120.629 348.116 120.968 347.994C122.03 347.61 123.098 347.247 124.156 346.853C125.077 346.512 125.987 346.141 126.904 345.792C127.863 345.426 128.819 345.055 129.775 344.683C131.42 344.039 133.064 343.386 134.702 342.716C135.249 342.494 135.799 342.287 136.346 342.061C137.13 341.737 137.902 341.39 138.684 341.06C139.467 340.728 140.255 340.418 141.036 340.081C141.58 339.846 142.115 339.595 142.659 339.358C144.274 338.654 145.884 337.934 147.489 337.208C148.431 336.78 149.372 336.351 150.309 335.916C152.228 335.027 154.135 334.119 156.036 333.197C156.659 332.893 157.284 332.589 157.906 332.281C158.98 331.752 160.065 331.242 161.134 330.702C162.184 330.172 163.218 329.613 164.263 329.071C164.663 328.864 165.062 328.657 165.459 328.448C167.728 327.263 169.985 326.053 172.227 324.82C172.478 324.682 172.727 324.543 172.977 324.405C173.42 324.161 173.863 323.916 174.304 323.67C176.206 322.608 178.095 321.529 179.975 320.433C180.135 320.34 180.294 320.245 180.452 320.152C182.831 318.76 185.193 317.343 187.538 315.897C187.655 315.826 187.773 315.751 187.89 315.679C190.166 314.271 192.429 312.841 194.676 311.381C195.141 311.08 195.6 310.77 196.063 310.468C197.832 309.307 199.598 308.14 201.347 306.947C203.086 305.766 204.807 304.558 206.525 303.346C206.99 303.018 207.458 302.696 207.921 302.364C210.099 300.813 212.257 299.234 214.4 297.633C214.516 297.549 214.628 297.465 214.742 297.38C216.95 295.728 219.137 294.048 221.308 292.344C221.397 292.274 221.489 292.207 221.578 292.137C221.634 292.092 221.691 292.045 221.748 292C223.859 290.337 225.951 288.648 228.027 286.936C228.249 286.753 228.473 286.57 228.695 286.386C230.668 284.752 232.624 283.092 234.564 281.414C234.911 281.114 235.257 280.815 235.602 280.514C237.394 278.951 239.171 277.37 240.934 275.771C241.454 275.299 241.973 274.825 242.491 274.35C243.328 273.582 244.178 272.831 245.008 272.054C245.725 271.383 246.425 270.688 247.139 270.011C247.895 269.292 248.647 268.569 249.398 267.843C250.668 266.615 251.931 265.38 253.187 264.131C253.612 263.708 254.046 263.299 254.47 262.875C255.076 262.266 255.663 261.64 256.263 261.028C256.859 260.42 257.466 259.83 258.059 259.218C258.471 258.791 258.869 258.352 259.28 257.923C259.803 257.38 260.34 256.847 260.859 256.3C261.566 255.553 262.25 254.787 262.952 254.035C263.655 253.28 264.356 252.525 265.05 251.764C266.494 250.189 267.921 248.602 269.336 247.003C269.795 246.483 270.253 245.963 270.71 245.441C271.505 244.531 272.318 243.635 273.103 242.719C273.874 241.818 274.619 240.898 275.382 239.991C275.673 239.646 275.962 239.299 276.251 238.952C277.904 236.97 279.536 234.973 281.145 232.958C281.323 232.736 281.499 232.512 281.678 232.288C282.299 231.505 282.927 230.726 283.543 229.938C284.591 228.596 285.623 227.242 286.653 225.885C286.765 225.738 286.875 225.59 286.987 225.441C288.661 223.229 290.312 220.999 291.934 218.748C292.016 218.635 292.097 218.521 292.18 218.407C293.264 216.899 294.36 215.399 295.422 213.873C295.898 213.189 296.353 212.49 296.826 211.803C297.152 211.33 297.47 210.85 297.794 210.375C298.982 208.627 300.166 206.875 301.323 205.105C301.59 204.7 301.868 204.302 302.133 203.896C303.031 202.518 303.898 201.118 304.777 199.727C305.077 199.253 305.382 198.782 305.679 198.307C307.109 196.024 308.511 193.722 309.89 191.407C309.939 191.327 309.989 191.247 310.037 191.166C310.063 191.123 310.088 191.078 310.112 191.035C311.53 188.651 312.918 186.249 314.282 183.831C314.377 183.664 314.473 183.497 314.566 183.33C315.115 182.352 315.683 181.385 316.224 180.402C316.987 179.015 317.717 177.608 318.462 176.211C318.599 175.954 318.736 175.698 318.873 175.44C320.083 173.158 321.268 170.861 322.431 168.551C322.635 168.144 322.842 167.735 323.045 167.327C323.576 166.264 324.124 165.212 324.645 164.142C325.175 163.056 325.674 161.952 326.192 160.86C326.495 160.223 326.795 159.584 327.096 158.943C327.999 157.01 328.89 155.068 329.761 153.117C330.189 152.161 330.611 151.202 331.031 150.242C331.744 148.608 332.45 146.972 333.14 145.326C333.374 144.773 333.62 144.225 333.851 143.671C334.182 142.873 334.488 142.067 334.814 141.268C335.137 140.474 335.476 139.69 335.794 138.893C336.016 138.337 336.217 137.778 336.436 137.222C337.094 135.551 337.735 133.874 338.368 132.195C338.733 131.223 339.098 130.252 339.455 129.277C339.799 128.342 340.163 127.412 340.499 126.476C340.887 125.393 341.245 124.302 341.623 123.216C341.742 122.874 341.871 122.535 341.988 122.194C342.097 121.873 342.197 121.55 342.308 121.23C343.086 118.952 343.841 116.669 344.574 114.379C344.714 113.943 344.853 113.508 344.99 113.071C345.416 111.724 345.861 110.382 346.271 109.032C346.613 107.901 346.927 106.761 347.258 105.626C347.293 105.509 347.332 105.393 347.367 105.275C347.411 105.122 347.451 104.967 347.496 104.813C348.256 102.195 348.99 99.571 349.692 96.9374C349.738 96.7684 349.783 96.5985 349.827 96.4296C350.546 93.7206 351.236 91.0044 351.893 88.2789C351.922 88.1586 351.95 88.0392 351.979 87.9189C352.614 85.2752 353.223 82.625 353.799 79.9666C353.923 79.4111 354.033 78.8518 354.153 78.2953C354.595 76.2081 355.033 74.1199 355.439 72.0253C355.849 69.9399 356.228 67.8481 356.601 65.7562C356.702 65.1841 356.812 64.6129 356.91 64.0399C357.373 61.376 357.802 58.7065 358.206 56.0334C358.219 55.9407 358.237 55.8479 358.251 55.7552C358.258 55.7056 358.263 55.6542 358.272 55.6046C358.684 52.8525 359.065 50.0958 359.416 47.3327C359.441 47.1362 359.468 46.9397 359.492 46.7432C359.83 44.0535 360.136 41.3593 360.415 38.6604C360.445 38.3657 360.477 38.0718 360.506 37.7761C360.766 35.2004 360.997 32.62 361.205 30.0369C361.241 29.5759 361.279 29.1158 361.313 28.6549C361.495 26.2581 361.655 23.8596 361.792 21.4574C361.831 20.7503 361.869 20.0441 361.905 19.337C361.965 18.1892 362.043 17.045 362.092 15.8953C362.133 14.9008 362.146 13.9036 362.18 12.9091C362.216 11.8613 362.245 10.8136 362.273 9.76396C362.317 7.97606 362.355 6.18725 362.375 4.3966C362.382 3.79421 362.404 3.19365 362.408 2.59034C362.416 1.72807 362.396 0.867641 362.396 0.00445557H361.717C361.717 3.04856 361.678 6.08624 361.608 9.1184C361.575 10.4738 361.512 11.8255 361.465 13.18C361.408 14.832 361.363 16.4876 361.285 18.1378C361.198 19.9789 361.076 21.8146 360.962 23.6521C360.892 24.7935 360.835 25.9358 360.755 27.0745C360.603 29.2196 360.416 31.3592 360.226 33.4979C360.155 34.3124 360.094 35.1278 360.019 35.9414C359.793 38.306 359.536 40.666 359.268 43.0223C359.203 43.5962 359.146 44.172 359.077 44.745C358.777 47.2712 358.446 49.7919 358.094 52.308C358.039 52.7037 357.99 53.0995 357.934 53.4944C357.557 56.1381 357.147 58.7763 356.713 61.4091C356.685 61.5753 356.66 61.7415 356.633 61.9077C356.615 62.0197 356.597 62.1317 356.579 62.2447C356.232 64.3209 355.849 66.3907 355.467 68.4605C355.254 69.6075 355.048 70.7572 354.823 71.9013C354.6 73.0474 354.359 74.1879 354.126 75.3311C353.702 77.3872 353.278 79.4432 352.82 81.4928C352.793 81.6131 352.765 81.7334 352.738 81.8528C352.701 82.019 352.66 82.1843 352.623 82.3505C352.036 84.9437 351.427 87.5314 350.784 90.1127C350.686 90.5076 350.579 90.9015 350.479 91.2964C349.861 93.7482 349.224 96.1973 348.555 98.6371C348.397 99.212 348.228 99.785 348.065 100.36C347.434 102.624 346.791 104.886 346.115 107.14C345.877 107.936 345.621 108.725 345.377 109.518C344.752 111.556 344.125 113.592 343.463 115.621C343.214 116.391 342.942 117.157 342.686 117.927C342.583 118.24 342.475 118.552 342.369 118.865C341.784 120.609 341.206 122.355 340.593 124.094C340.066 125.591 339.507 127.081 338.959 128.573C338.472 129.9 338.002 131.232 337.5 132.555C336.429 135.381 335.324 138.199 334.181 141.008C333.04 143.818 331.863 146.608 330.66 149.38C330.109 150.647 329.531 151.896 328.966 153.156C328.304 154.636 327.652 156.122 326.971 157.592C326.196 159.264 325.393 160.918 324.594 162.575C324.103 163.596 323.624 164.626 323.125 165.641C322.178 167.56 321.204 169.461 320.228 171.36C319.853 172.089 319.489 172.825 319.11 173.551C318.021 175.636 316.904 177.702 315.777 179.763C315.493 180.281 315.218 180.805 314.933 181.322C313.712 183.53 312.463 185.72 311.198 187.9C310.995 188.251 310.796 188.607 310.591 188.958C309.249 191.253 307.879 193.532 306.488 195.796C306.414 195.916 306.341 196.037 306.268 196.158C306.195 196.277 306.123 196.397 306.049 196.517C304.951 198.296 303.824 200.053 302.697 201.812C302.066 202.791 301.442 203.776 300.803 204.749C300.169 205.717 299.52 206.673 298.877 207.634C297.709 209.375 296.542 211.115 295.345 212.836C295.274 212.936 295.203 213.035 295.134 213.135C295.044 213.263 294.952 213.39 294.861 213.519C293.34 215.694 291.798 217.856 290.229 219.998C289.992 220.32 289.748 220.638 289.512 220.96C288.014 222.991 286.501 225.011 284.96 227.012C284.613 227.463 284.256 227.907 283.905 228.356C282.458 230.22 281 232.075 279.515 233.913C279.008 234.541 278.485 235.159 277.971 235.783C276.618 237.435 275.264 239.084 273.88 240.714C273.153 241.57 272.403 242.413 271.666 243.265C270.466 244.652 269.272 246.044 268.049 247.415C266.984 248.611 265.892 249.786 264.81 250.969C263.877 251.988 262.958 253.019 262.013 254.03C259.962 256.223 257.88 258.396 255.771 260.547C253.658 262.697 251.525 264.817 249.369 266.91C248.389 267.859 247.392 268.784 246.404 269.722C245.232 270.835 244.065 271.96 242.88 273.056C241.542 274.293 240.182 275.504 238.828 276.72C237.983 277.478 237.148 278.249 236.298 278.997C234.707 280.398 233.096 281.771 231.485 283.143C230.863 283.673 230.246 284.213 229.621 284.738C227.829 286.24 226.019 287.716 224.203 289.182C223.749 289.548 223.3 289.923 222.845 290.286C220.884 291.853 218.903 293.392 216.913 294.915C216.595 295.158 216.282 295.406 215.964 295.647C213.87 297.239 211.755 298.805 209.628 300.35C209.486 300.452 209.346 300.557 209.204 300.659C209.112 300.726 209.02 300.794 208.928 300.861C207.246 302.075 205.546 303.259 203.846 304.443C202.893 305.105 201.942 305.774 200.982 306.426C200.037 307.07 199.083 307.698 198.133 308.333C196.397 309.488 194.661 310.643 192.905 311.768C192.812 311.827 192.719 311.885 192.628 311.944C192.484 312.036 192.339 312.125 192.197 312.216C189.975 313.63 187.742 315.024 185.491 316.389C185.147 316.598 184.798 316.8 184.454 317.007C182.314 318.296 180.163 319.568 177.997 320.813C177.487 321.105 176.973 321.385 176.462 321.675C174.441 322.822 172.416 323.958 170.372 325.066C169.645 325.459 168.908 325.838 168.179 326.226C166.328 327.213 164.478 328.198 162.607 329.154C161.596 329.671 160.572 330.165 159.554 330.673C157.94 331.479 156.33 332.292 154.701 333.074C153.252 333.772 151.783 334.44 150.321 335.12C149.093 335.69 147.874 336.275 146.638 336.833C143.918 338.06 141.179 339.257 138.419 340.421C135.662 341.585 132.896 342.71 130.121 343.802C128.858 344.299 127.586 344.764 126.32 345.246C124.816 345.818 123.315 346.403 121.805 346.955C120.124 347.569 118.437 348.15 116.75 348.738C115.664 349.117 114.582 349.51 113.495 349.878C111.514 350.547 109.528 351.182 107.54 351.815C106.748 352.068 105.96 352.333 105.167 352.58C102.964 353.265 100.754 353.917 98.5398 354.558C97.9656 354.725 97.3941 354.901 96.8199 355.065C94.4391 355.741 92.0512 356.386 89.6587 357.013C89.253 357.119 88.851 357.232 88.4453 357.336C85.9159 357.989 83.3819 358.609 80.8416 359.206C80.6604 359.248 80.4801 359.293 80.3007 359.336C80.2015 359.359 80.1015 359.383 80.0023 359.406C77.9876 359.874 75.9647 360.307 73.9436 360.739C72.8231 360.977 71.7026 361.222 70.5785 361.449C69.4526 361.677 68.3222 361.887 67.1926 362.106C65.1671 362.494 63.1406 362.882 61.1078 363.235C60.9942 363.255 60.8806 363.272 60.7671 363.292C60.5958 363.322 60.4236 363.348 60.2523 363.378C57.6787 363.818 55.1014 364.234 52.517 364.617C52.1131 364.675 51.7065 364.728 51.3027 364.786C48.8507 365.141 46.3952 365.477 43.9351 365.781C43.3374 365.854 42.7371 365.915 42.1394 365.985C39.8605 366.254 37.5789 366.514 35.292 366.739C34.4509 366.821 33.6053 366.885 32.7616 366.962C30.7053 367.15 28.65 367.337 26.5884 367.489C25.4192 367.575 24.2455 367.635 23.0763 367.709C21.3203 367.822 19.5661 367.943 17.8064 368.03C16.1108 368.113 14.4088 368.162 12.7078 368.222C11.4584 368.266 10.2117 368.326 8.96135 368.358C5.98024 368.431 2.99282 368.47 -1.52588e-05 368.47V369.162C0.846451 369.162 1.69111 369.182 2.53758 369.176C3.12713 369.172 3.71308 369.148 4.30083 369.141C6.07219 369.116 7.83543 369.079 9.59597 369.033Z" fill="#333333"/>
<path d="M48.3928 360.156C50.9574 359.794 53.523 359.402 56.084 358.982C57.5633 358.74 59.0435 358.515 60.5192 358.252C62.067 357.978 63.6112 357.666 65.1581 357.37C66.6437 357.085 68.1311 356.811 69.6167 356.508C88.7798 352.668 107.507 347.224 125.658 340.279C128.24 339.291 130.809 338.272 133.366 337.223C135.205 336.469 137.039 335.703 138.865 334.917C159.569 326.006 179.445 315.089 198.248 302.233C217.793 288.99 235.91 273.878 252.385 257.094C252.488 256.99 252.586 256.883 252.689 256.778C254.578 254.849 256.448 252.899 258.295 250.925C262.649 246.27 266.873 241.488 270.979 236.595C275.873 230.769 280.581 224.774 285.111 218.624C287.915 214.816 290.643 210.945 293.304 207.017C294.444 205.332 295.586 203.649 296.7 201.943C297.14 201.275 297.569 200.598 298.006 199.926C300.497 196.089 302.913 192.207 305.253 188.285C306.689 185.882 308.093 183.463 309.469 181.029C312.781 175.179 315.944 169.25 318.919 163.234C333.318 134.114 343.763 103.105 349.982 70.9051C354.607 47.4641 356.928 23.7339 356.928 0.00183105H355.562C355.562 1.07347 355.533 2.14143 355.523 3.21214C353.803 1.65107 351.819 0.586777 349.715 0.00183105H342.04C339.68 0.658403 337.437 1.86319 335.587 3.7475C333.366 6.00923 332.144 9.01661 332.144 12.2168C332.144 13.2581 332.32 14.2646 332.57 15.2453C327.588 9.2223 321.444 4.04044 314.28 0.0247881C314.293 0.0174418 314.306 0.00917731 314.319 0.00183105H312.506C312.506 0.215791 312.617 0.422404 312.817 0.529843C312.836 0.540863 312.854 0.5528 312.873 0.56382C312.868 0.576676 312.858 0.587695 312.853 0.600551C311.844 3.0845 313.001 5.9321 315.44 6.96057C317.359 7.7705 319.489 7.203 320.804 5.71538C320.839 5.74109 320.874 5.76589 320.908 5.7916C320.774 6.00556 320.606 6.18738 320.507 6.4298C319.496 8.91284 320.655 11.7604 323.092 12.7889C324.808 13.5125 326.678 13.1112 328.002 11.9643C328.03 11.9928 328.054 12.0231 328.082 12.0506C327.766 12.4243 327.465 12.8165 327.27 13.2958C326.26 15.7788 327.417 18.6264 329.855 19.6549C331.328 20.2766 332.9 20.0415 334.159 19.2472C334.188 19.2885 334.222 19.3262 334.251 19.3666C333.699 19.8468 333.214 20.4171 332.916 21.148C331.907 23.6311 333.064 26.4787 335.502 27.5071C336.734 28.0278 338.044 27.947 339.181 27.4511C339.194 27.4759 339.207 27.5007 339.219 27.5264C338.379 28.0434 337.68 28.812 337.274 29.8074C336.265 32.2905 337.422 35.1381 339.861 36.1665C340.881 36.5972 341.957 36.622 342.945 36.3447C341.83 36.8249 340.89 37.7322 340.391 38.9627C339.382 41.4457 340.539 44.2933 342.977 45.3218C343.765 45.6542 344.577 45.6873 345.367 45.5835C345.376 45.6368 345.39 45.6882 345.399 45.7396C343.956 46.084 342.679 47.0509 342.069 48.5523C341.059 51.0363 342.217 53.8839 344.654 54.9114C345.211 55.1474 345.788 55.2539 346.359 55.2677C346.359 55.2723 346.36 55.2778 346.36 55.2824C344.643 55.4376 343.064 56.5092 342.359 58.2429C341.349 60.726 342.507 63.5736 344.944 64.6021C345.283 64.7453 345.629 64.8279 345.978 64.884C345.973 64.9299 345.961 64.9749 345.956 65.0208C343.923 64.8224 341.916 65.8913 341.094 67.9125C340.084 70.3964 341.242 73.2431 343.68 74.2725C343.815 74.3294 343.955 74.3432 344.092 74.3836C344.084 74.4093 344.078 74.4359 344.071 74.4626C341.818 73.8987 339.44 75.0594 338.524 77.3102C337.548 79.7124 338.611 82.4406 340.889 83.548C340.886 83.5554 340.882 83.5637 340.88 83.571H340.878C338.44 82.5425 335.645 83.7216 334.635 86.2056C333.772 88.3305 334.504 90.7143 336.258 92.0036C336.082 91.9017 335.911 91.7905 335.718 91.7088C333.281 90.6794 330.486 91.8585 329.475 94.3424C328.748 96.1322 329.158 98.1028 330.352 99.4527C330.143 99.3048 329.931 99.1607 329.695 99.045C327.315 97.8824 324.461 98.9072 323.32 101.331C322.483 103.112 322.865 105.105 324.04 106.522C324.001 106.555 323.959 106.585 323.921 106.618C323.481 106.031 322.95 105.507 322.251 105.166C319.871 104.004 317.018 105.028 315.879 107.452C315.122 109.058 315.358 110.845 316.264 112.226C316.205 112.263 316.147 112.297 316.088 112.333C315.625 111.467 314.976 110.697 314.037 110.239C311.657 109.078 308.803 110.101 307.664 112.525C307.109 113.706 307.069 115 307.443 116.153C307.052 115.401 306.478 114.737 305.711 114.265C303.452 112.875 300.516 113.614 299.151 115.915C298.431 117.127 298.326 118.521 298.687 119.783C298.644 119.794 298.602 119.807 298.56 119.817C298.309 118.523 297.577 117.332 296.381 116.595C294.121 115.205 291.184 115.943 289.82 118.244C289.22 119.258 289.054 120.399 289.221 121.483C289.104 121.491 288.983 121.506 288.885 121.588C288.871 121.601 288.857 121.614 288.843 121.626C288.633 121.841 288.613 122.189 288.807 122.429C288.821 122.446 288.832 122.465 288.846 122.482C288.836 122.492 288.823 122.499 288.814 122.509C286.947 124.41 286.947 127.491 288.814 129.392C290.278 130.885 292.43 131.124 294.202 130.271C294.236 130.33 294.27 130.387 294.305 130.445C294.102 130.589 293.878 130.692 293.695 130.878C291.828 132.779 291.828 135.861 293.695 137.762C295.007 139.099 296.887 139.458 298.538 138.913C298.55 138.94 298.558 138.966 298.569 138.993C298.137 139.216 297.724 139.49 297.362 139.857C295.495 141.758 295.495 144.84 297.362 146.741C298.49 147.888 300.031 148.285 301.492 148.041C301.504 148.09 301.52 148.139 301.531 148.188C300.84 148.416 300.176 148.753 299.627 149.314C297.762 151.214 297.762 154.295 299.627 156.197C300.573 157.158 301.811 157.593 303.048 157.579C303.05 157.607 303.053 157.636 303.056 157.664C302.084 157.814 301.149 158.253 300.402 159.013C298.536 160.915 298.536 163.996 300.402 165.897C301.182 166.692 302.168 167.134 303.185 167.264C301.974 167.272 300.765 167.745 299.842 168.686C297.976 170.587 297.976 173.668 299.842 175.569C300.445 176.184 301.184 176.531 301.951 176.744C301.941 176.796 301.933 176.849 301.923 176.901C300.46 176.655 298.918 177.051 297.788 178.2C295.923 180.102 295.923 183.183 297.788 185.083C298.216 185.519 298.709 185.843 299.231 186.078C299.229 186.082 299.228 186.087 299.224 186.092C297.581 185.566 295.721 185.939 294.417 187.266C292.552 189.168 292.552 192.249 294.417 194.15C294.678 194.415 294.966 194.625 295.267 194.813C295.245 194.853 295.218 194.891 295.195 194.93C293.392 193.955 291.136 194.16 289.616 195.707C287.75 197.608 287.75 200.69 289.616 202.59C289.72 202.695 289.844 202.763 289.955 202.854C289.939 202.876 289.923 202.898 289.906 202.919C288.037 201.521 285.403 201.665 283.712 203.387C281.907 205.227 281.865 208.162 283.553 210.073C283.547 210.079 283.542 210.085 283.535 210.09V210.089C281.669 208.188 278.642 208.188 276.777 210.089C275.179 211.715 274.961 214.203 276.098 216.079C275.973 215.915 275.857 215.746 275.709 215.595C273.844 213.694 270.818 213.694 268.953 215.595C267.607 216.966 267.247 218.946 267.842 220.659C267.705 220.441 267.563 220.224 267.389 220.026C265.626 218.025 262.605 217.859 260.641 219.653C259.198 220.972 258.802 222.963 259.356 224.728C259.307 224.745 259.258 224.756 259.209 224.772C259.022 224.058 258.73 223.367 258.213 222.78C256.45 220.779 253.43 220.612 251.465 222.407C250.164 223.596 249.709 225.34 250.027 226.968C249.984 226.975 249.938 226.981 249.894 226.987C249.791 226.009 249.411 225.053 248.718 224.265C246.955 222.264 243.934 222.097 241.97 223.892C241.013 224.767 240.491 225.947 240.403 227.157C240.324 226.311 240.043 225.472 239.513 224.738C237.948 222.573 234.957 222.11 232.831 223.704C231.711 224.545 231.09 225.79 230.95 227.097C230.906 227.09 230.864 227.086 230.82 227.08C231.074 225.786 230.845 224.4 230.016 223.253C228.451 221.089 225.462 220.626 223.336 222.22C222.4 222.921 221.818 223.911 221.565 224.977C221.453 224.94 221.337 224.906 221.215 224.943C221.197 224.949 221.181 224.956 221.163 224.963C220.888 225.079 220.737 225.392 220.828 225.689C220.835 225.71 220.838 225.732 220.845 225.753C220.831 225.759 220.819 225.761 220.805 225.766C218.368 226.795 217.209 229.642 218.22 232.125C219.012 234.075 220.91 235.135 222.867 235.037C222.874 235.084 222.882 235.13 222.889 235.176C222.649 235.23 222.408 235.301 222.172 235.4C219.734 236.428 218.576 239.276 219.585 241.76C220.297 243.506 221.898 244.571 223.63 244.713C223.63 244.741 223.628 244.77 223.628 244.798C223.143 244.836 222.659 244.928 222.187 245.127C219.749 246.156 218.591 249.003 219.602 251.487C220.212 252.988 221.487 253.955 222.929 254.299C222.922 254.349 222.918 254.4 222.911 254.45C222.186 254.39 221.447 254.445 220.73 254.747C218.293 255.775 217.134 258.623 218.145 261.106C218.655 262.362 219.636 263.248 220.784 263.716C220.776 263.743 220.767 263.771 220.76 263.798C219.806 263.558 218.778 263.597 217.801 264.01C215.363 265.039 214.205 267.886 215.214 270.37C215.636 271.408 216.383 272.202 217.272 272.718C216.151 272.254 214.856 272.219 213.65 272.729C211.212 273.757 210.054 276.605 211.064 279.088C211.391 279.891 211.943 280.501 212.572 280.995C212.542 281.039 212.517 281.085 212.486 281.129C211.227 280.333 209.652 280.097 208.179 280.719C205.742 281.747 204.583 284.595 205.594 287.078C205.826 287.646 206.163 288.134 206.555 288.555C206.551 288.56 206.547 288.565 206.541 288.569C205.222 287.443 203.361 287.062 201.657 287.78C199.22 288.809 198.062 291.656 199.073 294.14C199.213 294.488 199.449 294.754 199.658 295.045C199.622 295.074 199.582 295.099 199.544 295.128C198.247 293.517 196.039 292.868 194.05 293.707C191.612 294.736 190.456 297.583 191.465 300.066C191.521 300.205 191.611 300.314 191.678 300.442C191.655 300.455 191.632 300.469 191.609 300.483C190.407 298.461 187.92 297.569 185.711 298.5C183.351 299.497 182.21 302.192 183.052 304.615C183.044 304.619 183.035 304.622 183.027 304.624V304.624C182.017 302.14 179.222 300.96 176.785 301.989C174.698 302.869 173.563 305.082 173.908 307.258C173.855 307.059 173.811 306.858 173.73 306.66C172.721 304.177 169.925 302.997 167.488 304.026C165.731 304.768 164.654 306.456 164.561 308.271C164.515 308.017 164.466 307.76 164.379 307.51C163.502 304.974 160.774 303.643 158.286 304.534C156.457 305.191 155.344 306.875 155.192 308.723C155.142 308.718 155.091 308.71 155.039 308.704C155.136 307.972 155.125 307.22 154.868 306.476C153.991 303.94 151.264 302.609 148.775 303.5C147.125 304.093 146.051 305.525 145.733 307.154C145.689 307.143 145.645 307.13 145.603 307.12C145.876 306.177 145.882 305.145 145.538 304.146C144.661 301.611 141.932 300.279 139.443 301.172C138.232 301.607 137.306 302.493 136.771 303.578C137.016 302.765 137.071 301.882 136.856 300.995C136.224 298.386 133.633 296.792 131.072 297.437C129.721 297.776 128.679 298.686 128.059 299.837C128.021 299.814 127.982 299.793 127.944 299.771C128.665 298.675 128.975 297.305 128.64 295.922C128.008 293.312 125.419 291.719 122.857 292.364C121.728 292.647 120.82 293.334 120.185 294.221C120.096 294.143 119.999 294.066 119.874 294.054C119.856 294.051 119.837 294.051 119.819 294.051C119.52 294.051 119.264 294.283 119.236 294.591C119.234 294.614 119.229 294.635 119.226 294.657C119.213 294.656 119.2 294.653 119.187 294.653C116.547 294.653 114.408 296.832 114.408 299.519C114.408 301.636 115.74 303.424 117.59 304.093C117.587 304.115 117.58 304.137 117.575 304.159C117.333 304.115 117.085 304.085 116.829 304.085C114.189 304.085 112.051 306.264 112.051 308.952C112.051 310.844 113.13 312.451 114.677 313.257C114.666 313.283 114.653 313.309 114.643 313.335C114.181 313.181 113.7 313.077 113.188 313.077C110.55 313.077 108.411 315.256 108.411 317.945C108.411 319.569 109.226 320.96 110.428 321.839C110.403 321.883 110.381 321.928 110.354 321.972C109.708 321.635 109.004 321.397 108.228 321.397C105.59 321.397 103.45 323.576 103.45 326.264C103.45 327.624 104.024 328.824 104.909 329.705C104.891 329.727 104.873 329.749 104.855 329.771C104.065 329.177 103.099 328.814 102.042 328.814C99.4025 328.814 97.2634 330.993 97.2634 333.681C97.2634 334.806 97.6537 335.829 98.2829 336.653C97.4202 335.787 96.2375 335.25 94.9304 335.25C92.2928 335.25 90.1527 337.429 90.1527 340.117C90.1527 340.987 90.434 341.764 90.8297 342.467C90.7855 342.496 90.745 342.528 90.7008 342.557C89.8354 341.33 88.4706 340.498 86.875 340.498C84.2365 340.498 82.0964 342.678 82.0964 345.366C82.0964 345.982 82.2208 346.566 82.4272 347.107C82.4218 347.11 82.4173 347.112 82.4137 347.113C81.6168 345.558 80.0411 344.482 78.1976 344.482C75.56 344.482 73.419 346.661 73.419 349.348C73.419 349.723 73.4767 350.08 73.5596 350.429C73.5344 350.437 73.51 350.44 73.4848 350.447C72.8898 348.452 71.095 346.992 68.9424 346.992C66.3038 346.992 64.1647 349.171 64.1647 351.86C64.1647 352.01 64.2043 352.146 64.2197 352.291C64.1935 352.293 64.1674 352.299 64.1403 352.302C63.7897 349.966 61.8272 348.17 59.4347 348.17C56.8818 348.17 54.8148 350.216 54.6823 352.783C54.6741 352.783 54.6651 352.782 54.657 352.782C54.657 350.093 52.5179 347.913 49.8793 347.913C47.6203 347.913 45.7398 349.514 45.2404 351.659C45.2675 351.454 45.3026 351.251 45.3026 351.038C45.3026 348.349 43.1635 346.171 40.524 346.171C38.621 346.171 36.993 347.313 36.2232 348.951C36.2772 348.698 36.3286 348.443 36.3422 348.177C36.4846 345.493 34.4644 343.198 31.8295 343.053C29.8949 342.945 28.2336 344.069 27.3979 345.717C27.3537 345.693 27.3105 345.665 27.2645 345.64C27.6287 345.002 27.9009 344.302 27.9424 343.515C28.0857 340.83 26.0647 338.536 23.4306 338.391C21.6845 338.294 20.1529 339.2 19.247 340.58C19.2109 340.553 19.1748 340.524 19.1388 340.497C19.7446 339.732 20.1403 338.782 20.1971 337.724C20.3395 335.04 18.3194 332.746 15.6835 332.6C14.3998 332.529 13.2117 332.987 12.3094 333.781C12.8412 333.124 13.2252 332.331 13.3596 331.428C13.7553 328.77 11.9623 326.288 9.35259 325.885C7.97787 325.672 6.67256 326.106 5.66834 326.929C5.6422 326.893 5.61335 326.858 5.58721 326.822C6.66535 326.09 7.46584 324.946 7.67678 323.537C8.07342 320.88 6.27953 318.399 3.66982 317.995C2.52046 317.816 1.42249 318.097 0.503905 318.67C0.451621 318.562 0.392125 318.455 0.279443 318.394C0.261414 318.385 0.245187 318.378 0.228961 318.37C0.155943 318.34 0.0811226 318.327 0.00630188 318.327V320.174C3.94386 327.418 9.09387 333.699 15.1273 338.823C14.1015 338.535 13.0549 338.338 11.9966 338.338C8.9866 338.338 5.97393 339.505 3.68244 341.84C1.83265 343.725 0.649941 346.01 0.00630188 348.413V356.231C0.579627 358.375 1.62351 360.395 3.15689 362.147C2.10489 362.157 1.0583 362.187 0.00630188 362.187V363.577C12.5329 363.577 25.0586 362.872 37.5429 361.509C41.1622 361.121 44.7789 360.666 48.3928 360.156ZM136.07 334.623C135.097 335.033 134.118 335.413 133.144 335.815C133.902 333.598 134.109 331.323 133.833 329.12C135.168 330.876 136.891 332.337 138.966 333.358C137.999 333.777 137.043 334.213 136.07 334.623ZM251.42 256.11C250.677 256.868 249.915 257.602 249.165 258.352C249.033 256.009 248.368 253.828 247.286 251.898C249.18 253.001 251.322 253.678 253.622 253.813C252.885 254.576 252.165 255.352 251.42 256.11ZM328.496 138.606C328.093 139.597 327.664 140.572 327.254 141.557C326.252 139.444 324.818 137.687 323.094 136.327C325.258 136.607 327.49 136.398 329.666 135.627C329.272 136.619 328.898 137.616 328.496 138.606ZM318.261 112.813C322.516 111.018 327.412 113.084 329.174 117.417C330.56 120.822 328.966 124.744 325.622 126.154C323.006 127.258 319.996 125.989 318.913 123.323C318.07 121.253 319.039 118.869 321.073 118.012C322.64 117.351 324.443 118.111 325.091 119.707C325.585 120.924 325.016 122.324 323.823 122.826C322.927 123.203 321.898 122.769 321.526 121.857C321.254 121.187 321.566 120.419 322.224 120.142C322.523 120.016 322.664 119.667 322.541 119.362C322.417 119.058 322.075 118.913 321.775 119.039C320.521 119.568 319.925 121.037 320.443 122.313C321.061 123.833 322.778 124.558 324.27 123.928C326.059 123.173 326.914 121.075 326.172 119.25C325.276 117.046 322.786 115.996 320.623 116.908C317.992 118.019 316.74 121.101 317.829 123.779C319.16 127.052 322.857 128.611 326.069 127.256C330.009 125.592 331.887 120.974 330.256 116.959C328.551 112.77 324.28 110.471 320.063 111.106C329.933 104.075 337.86 94.2626 342.649 82.4801C351 61.9427 348.462 39.6211 337.514 22.16C338.962 23.0287 340.598 23.5255 342.32 23.5255C344.864 23.5255 347.256 22.5163 349.055 20.6825C350.516 19.1958 351.32 17.2159 351.32 15.1112C351.32 13.0065 350.515 11.0267 349.055 9.53911C346.597 7.03403 342.595 7.03403 340.137 9.53911C339.162 10.5318 338.625 11.8523 338.625 13.2572C338.625 14.6613 339.163 15.9818 340.137 16.9744C341.794 18.6613 344.487 18.6613 346.143 16.9744C347.469 15.6255 347.47 13.2673 346.142 11.911C345 10.7485 343.142 10.7485 342 11.9119C341.042 12.8881 341.039 14.4804 342 15.4565C342.228 15.6888 342.6 15.6888 342.828 15.4584C343.056 15.2233 343.06 14.8459 342.828 14.6145C342.326 14.1039 342.326 13.2673 342.828 12.7568C343.514 12.0589 344.629 12.0589 345.314 12.7549C346.197 13.6585 346.199 15.2306 345.314 16.1315C344.114 17.3519 342.163 17.3519 340.965 16.1315C339.457 14.5952 339.457 11.9175 340.965 10.3821C342.966 8.3435 346.225 8.3435 348.227 10.3821C349.466 11.6456 350.149 13.3252 350.149 15.1112C350.149 16.8973 349.466 18.5768 348.227 19.8395C346.649 21.4474 344.552 22.3317 342.32 22.3317C340.088 22.3317 337.992 21.4465 336.414 19.8395C334.415 17.8027 333.314 15.0956 333.314 12.2141C333.314 9.33249 334.415 6.6254 336.414 4.58773C341.632 -0.726367 350.122 -0.726367 355.337 4.58773C355.383 4.63456 355.45 4.62997 355.504 4.65844C355.441 9.75582 355.285 14.8376 355.017 19.8992C354.277 22.6136 352.805 25.4263 349.866 24.8735C344.411 23.8469 345.47 29.5108 345.47 29.5108C345.923 26.8607 348.766 27.5567 350.909 28.6118C353.055 29.6678 351.85 35.0793 348.671 32.61C345.491 30.1398 344.467 34.8561 345.47 37.5293C346.474 40.2033 349.317 34.7432 351.261 41.5927C353.207 48.4421 349.876 47.084 349.876 47.084C349.876 47.084 351.411 46.1951 350.564 45.2162C349.719 44.2373 347.112 45.1841 349.427 49.5633C350.561 51.7094 351.01 54.6359 351.174 57.0657C350.47 61.6213 349.701 66.1604 348.831 70.671C347.922 75.2743 346.905 79.8648 345.817 84.4443C344.747 86.7593 343.111 89.6794 341.055 91.3865C337.272 94.5307 339.324 96.4214 340.473 95.8475C341.622 95.2727 340.54 93.853 340.54 93.853C340.54 93.853 344.127 93.898 339.756 99.4674C335.385 105.037 334.81 98.8843 332.879 100.963C330.946 103.042 330.122 107.799 333.989 106.756C337.855 105.714 336.934 111.185 334.556 111.322C332.176 111.46 329.29 110.995 329.866 108.371C329.866 108.371 326.761 113.191 332.186 114.37C335.211 115.027 335.436 118.404 335.045 121.267C333.999 124.253 332.92 127.232 331.796 130.199C331.278 131.563 330.727 132.919 330.194 134.278C330.132 134.282 330.073 134.252 330.013 134.278C323.197 137.154 315.354 133.844 312.532 126.902C310.296 121.411 312.867 115.089 318.261 112.813ZM290.347 122.535C298.441 121.606 306.123 119.158 313.093 115.434C312.439 116.29 311.86 117.199 311.455 118.196C310.302 121.03 310.21 124.31 311.449 127.36C312.451 129.821 314.07 131.81 316.004 133.335C313.577 133.021 311.052 133.261 308.635 134.281C305.734 135.505 303.474 137.807 302.272 140.763C301.881 141.725 301.665 142.722 301.528 143.728C299.188 136.219 295.457 129.037 290.347 122.535ZM285.583 209.776C301.014 194.057 307.053 172.445 303.499 152.045C304.509 153.411 305.834 154.509 307.425 155.18C309.775 156.172 312.364 156.172 314.715 155.179C316.624 154.374 318.112 152.859 318.901 150.914C319.692 148.97 319.694 146.827 318.901 144.884C317.573 141.611 313.875 140.052 310.663 141.406C309.388 141.943 308.397 142.954 307.869 144.253C307.342 145.55 307.342 146.978 307.869 148.276C308.766 150.48 311.255 151.53 313.419 150.618C315.15 149.887 316.038 147.71 315.32 145.939C314.702 144.42 312.986 143.696 311.493 144.325C310.241 144.853 309.641 146.324 310.162 147.6C310.284 147.905 310.627 148.049 310.927 147.924C311.226 147.797 311.37 147.449 311.244 147.145C310.972 146.477 311.286 145.705 311.942 145.428C312.837 145.051 313.868 145.485 314.239 146.397C314.717 147.576 314.127 149.029 312.97 149.516C311.404 150.177 309.601 149.415 308.952 147.82C308.137 145.813 309.142 143.34 311.112 142.509C313.728 141.406 316.737 142.676 317.821 145.34C318.491 146.99 318.491 148.808 317.821 150.459C317.149 152.108 315.888 153.394 314.268 154.078C312.206 154.948 309.936 154.948 307.875 154.079C305.814 153.209 304.208 151.573 303.356 149.473C302.273 146.812 302.273 143.881 303.355 141.218C304.438 138.556 306.472 136.485 309.085 135.381C315.9 132.505 323.744 135.815 326.567 142.758C326.591 142.819 326.653 142.841 326.695 142.888C324.723 147.573 322.67 152.207 320.521 156.779C318.818 158.998 316.399 161.023 313.894 159.366C309.239 156.292 308.088 161.936 308.088 161.936C309.503 159.665 311.867 161.416 313.452 163.226C315.038 165.038 311.892 169.569 309.881 166.046C307.871 162.525 305.154 166.482 305.077 169.344C304.999 172.206 309.677 168.27 308.902 175.356C308.126 182.442 305.558 179.891 305.558 179.891C305.558 179.891 307.308 179.667 306.896 178.433C306.482 177.199 303.716 177.058 304.21 182.005C304.453 184.434 303.765 187.315 303.002 189.625C300.641 193.559 298.225 197.453 295.725 201.281C293.164 205.168 290.509 209.001 287.792 212.796C285.931 214.526 283.326 216.6 280.765 217.382C276.089 218.812 277.275 221.359 278.553 221.277C279.831 221.194 279.363 219.46 279.363 219.46C279.363 219.46 282.66 220.901 276.53 224.342C270.4 227.783 272.181 221.875 269.614 223.043C267.048 224.21 264.499 228.283 268.463 228.828C272.427 229.371 269.522 234.067 267.271 233.267C265.021 232.468 262.529 230.912 264.048 228.713C264.048 228.713 259.368 231.955 263.938 235.159C266.485 236.945 265.424 240.153 263.987 242.645C260.94 246.076 257.804 249.445 254.618 252.774C254.559 252.754 254.517 252.703 254.452 252.703C247.074 252.703 241.072 246.588 241.072 239.074C241.07 233.128 245.82 228.289 251.658 228.289C256.263 228.289 260.01 232.106 260.01 236.797C260.01 240.483 257.066 243.485 253.445 243.484C250.613 243.484 248.31 241.138 248.31 238.255C248.308 236.013 250.101 234.189 252.3 234.189C253.997 234.189 255.376 235.594 255.376 237.323C255.375 238.639 254.323 239.71 253.032 239.709C252.064 239.709 251.275 238.907 251.275 237.92C251.275 237.195 251.852 236.607 252.563 236.607C252.887 236.607 253.15 236.339 253.15 236.009C253.15 235.681 252.887 235.414 252.563 235.414C251.208 235.414 250.103 236.537 250.103 237.92C250.103 239.565 251.418 240.903 253.032 240.903C254.97 240.903 256.546 239.297 256.548 237.323C256.546 234.937 254.641 232.997 252.3 232.996C249.453 232.996 247.138 235.356 247.138 238.255C247.138 241.796 249.968 244.679 253.445 244.679C257.711 244.679 261.18 241.143 261.182 236.797C261.18 232.263 258.098 228.474 253.964 227.416C265.721 224.77 276.731 218.794 285.583 209.776ZM222.213 226.39C230.04 228.687 238.058 229.421 245.895 228.696C244.969 229.233 244.092 229.846 243.344 230.609C241.215 232.778 239.896 235.773 239.896 239.075C239.896 241.739 240.646 244.207 241.859 246.37C239.736 245.134 237.313 244.371 234.697 244.371C231.557 244.37 228.604 245.617 226.383 247.879C225.659 248.616 225.086 249.453 224.582 250.327C225.24 242.479 224.492 234.39 222.213 226.39ZM146.738 309.013C150.993 310.808 153.02 315.795 151.258 320.13C149.874 323.536 146.025 325.161 142.681 323.749C140.065 322.645 138.819 319.58 139.903 316.915C140.744 314.844 143.084 313.857 145.116 314.715C146.682 315.377 147.429 317.212 146.78 318.808C146.284 320.024 144.911 320.603 143.718 320.1C142.823 319.723 142.397 318.672 142.768 317.76C143.04 317.092 143.794 316.773 144.452 317.051C144.751 317.177 145.093 317.032 145.217 316.727C145.341 316.422 145.199 316.074 144.9 315.948C143.646 315.419 142.204 316.028 141.686 317.303C141.068 318.824 141.778 320.572 143.27 321.202C145.06 321.957 147.12 321.087 147.862 319.264C148.758 317.06 147.728 314.525 145.563 313.612C142.934 312.501 139.908 313.78 138.819 316.457C137.488 319.73 139.02 323.495 142.232 324.851C146.172 326.514 150.706 324.601 152.34 320.586C154.043 316.397 152.618 311.696 149.197 309.107C161.056 311.243 173.472 310.014 185.038 305.134C205.199 296.627 218.898 279.014 223.278 258.781C223.698 260.438 224.509 261.968 225.728 263.209C227.526 265.041 229.919 266.05 232.464 266.049C234.53 266.05 236.472 265.23 237.933 263.742C239.394 262.253 240.199 260.275 240.199 258.17C240.199 254.628 237.369 251.745 233.892 251.745C232.513 251.745 231.218 252.293 230.242 253.286C229.267 254.279 228.73 255.598 228.73 257.003C228.73 259.389 230.635 261.328 232.977 261.328C234.851 261.329 236.49 259.663 236.491 257.748C236.491 256.104 235.178 254.766 233.562 254.765C232.207 254.764 231.1 255.889 231.102 257.271C231.102 257.6 231.365 257.868 231.687 257.869C232.011 257.868 232.274 257.602 232.272 257.272C232.272 256.55 232.851 255.958 233.561 255.959C234.531 255.96 235.319 256.763 235.321 257.749C235.319 259.024 234.228 260.137 232.977 260.136C231.282 260.135 229.902 258.73 229.902 257.003C229.902 254.831 231.76 252.939 233.893 252.939C236.723 252.939 239.026 255.286 239.026 258.169C239.026 259.956 238.344 261.635 237.103 262.898C235.864 264.16 234.216 264.856 232.462 264.856C230.232 264.856 228.133 263.971 226.555 262.364C224.978 260.757 224.11 258.62 224.11 256.348C224.11 253.467 225.211 250.759 227.212 248.721C229.211 246.684 231.869 245.562 234.697 245.562C242.075 245.562 248.077 251.677 248.077 259.192C248.077 259.259 248.126 259.303 248.146 259.362C244.565 262.922 240.926 266.403 237.224 269.789C234.816 271.175 231.823 272.103 230.128 269.596C226.983 264.941 223.8 269.709 223.8 269.709C225.96 268.161 227.485 270.7 228.271 272.992C229.055 275.284 224.445 278.243 223.912 274.206C223.379 270.169 219.38 272.766 218.232 275.38C217.087 277.992 222.887 276.18 219.508 282.424C216.129 288.669 214.715 285.31 214.715 285.31C214.715 285.31 216.417 285.788 216.498 284.486C216.579 283.184 214.078 281.976 212.676 286.739C211.988 289.078 210.27 291.471 208.698 293.308C205.037 296.023 201.342 298.679 197.594 301.241C193.768 303.834 189.876 306.339 185.941 308.786C183.572 309.659 180.385 310.559 177.725 310.285C172.868 309.781 173.006 312.598 174.218 313.019C175.429 313.441 175.648 311.658 175.648 311.658C175.648 311.658 178.155 314.274 171.198 315.063C164.241 315.852 168.104 311.088 165.295 311.167C162.486 311.245 158.602 314.014 162.06 316.063C165.517 318.11 161.069 321.316 159.292 319.7C157.514 318.084 155.794 315.675 158.024 314.236C158.024 314.236 152.481 315.407 155.501 320.149C157.183 322.792 154.997 325.342 152.734 327.085C149.922 328.443 147.092 329.771 144.236 331.06C142.925 331.652 141.594 332.213 140.273 332.79C140.226 332.749 140.205 332.685 140.145 332.66C133.329 329.784 130.081 321.794 132.904 314.851C135.137 309.355 141.343 306.737 146.738 309.013ZM120.25 295.78C126.619 300.953 133.75 304.757 141.262 307.143C140.206 307.277 139.167 307.503 138.189 307.916C135.408 309.089 133.064 311.342 131.822 314.392C130.822 316.854 130.587 319.426 130.896 321.898C129.398 319.928 127.447 318.279 125.029 317.259C122.127 316.034 118.933 316.034 116.03 317.258C115.085 317.657 114.24 318.207 113.447 318.818C117.003 311.826 119.352 304.061 120.25 295.78ZM4.57938 362.136C4.55144 362.08 4.55595 362.013 4.50997 361.967C-0.70765 356.652 -0.70765 348.004 4.50997 342.69C8.63503 338.485 15.3518 338.485 19.4813 342.69C22.7374 346.008 22.7374 351.405 19.4813 354.722C16.923 357.329 12.7556 357.331 10.1973 354.722C8.19422 352.684 8.19422 349.364 10.1973 347.325C11.7523 345.74 14.2844 345.74 15.8395 347.325C17.0384 348.547 17.0384 350.534 15.8395 351.756C14.9245 352.686 13.438 352.686 12.5266 351.756C11.8406 351.058 11.8406 349.922 12.5266 349.224C13.0287 348.712 13.8454 348.712 14.3485 349.224C14.5765 349.458 14.9479 349.458 15.1778 349.224C15.4059 348.991 15.4059 348.614 15.1778 348.381C14.2177 347.404 12.6564 347.404 11.6982 348.381C10.5551 349.544 10.5551 351.437 11.6982 352.6C13.0675 353.995 15.2968 353.995 16.6697 352.6C18.3248 350.913 18.3248 348.169 16.6697 346.482C14.6558 344.43 11.3809 344.432 9.36881 346.482C6.91055 348.987 6.91055 353.062 9.36881 355.566C12.3833 358.638 17.2926 358.638 20.3098 355.566C23.4577 352.359 23.9075 347.46 21.7187 343.734C31.8709 350.331 43.8044 354.036 56.3229 354.036C78.1453 354.036 97.4184 343.104 109.067 326.12C108.832 327.813 109.007 329.544 109.667 331.166C110.64 333.56 112.471 335.424 114.822 336.416C116.731 337.222 118.834 337.222 120.743 336.416C122.652 335.611 124.139 334.097 124.93 332.152C126.26 328.879 124.729 325.114 121.518 323.758C120.243 323.221 118.841 323.221 117.567 323.759C116.294 324.296 115.302 325.306 114.775 326.603C113.878 328.807 114.909 331.343 117.073 332.256C118.804 332.987 120.943 332.087 121.665 330.317C122.281 328.798 121.571 327.049 120.079 326.42C118.827 325.891 117.381 326.498 116.864 327.775C116.74 328.08 116.882 328.428 117.179 328.556C117.479 328.682 117.824 328.539 117.945 328.233C118.217 327.566 118.975 327.244 119.629 327.522C120.525 327.901 120.952 328.95 120.582 329.862C120.101 331.04 118.676 331.643 117.519 331.154C115.953 330.492 115.207 328.657 115.856 327.062C116.671 325.055 119.099 324.03 121.069 324.862C123.684 325.965 124.931 329.031 123.847 331.694C123.178 333.345 121.914 334.63 120.295 335.313C118.676 335.997 116.891 335.998 115.271 335.313C113.209 334.444 111.603 332.808 110.749 330.709C109.895 328.609 109.895 326.296 110.751 324.197C111.833 321.535 113.866 319.463 116.48 318.359C119.093 317.257 121.97 317.258 124.583 318.36C131.399 321.236 134.647 329.226 131.823 336.168C131.798 336.23 131.827 336.29 131.823 336.353C127.175 338.245 122.508 340.043 117.817 341.728C115.072 342.069 111.957 341.759 111.333 338.783C110.177 333.256 105.445 336.42 105.445 336.42C108.021 335.831 108.478 338.773 108.342 341.196C108.207 343.619 102.835 344.557 103.86 340.618C104.882 336.681 100.214 337.521 98.1739 339.489C96.133 341.457 102.173 342.042 96.7045 346.494C91.2381 350.947 91.1939 347.292 91.1939 347.292C91.1939 347.292 92.5875 348.396 93.15 347.225C93.7144 346.054 91.8574 343.963 88.7726 347.818C87.2608 349.707 84.7782 351.248 82.6373 352.333C78.2364 353.414 73.8256 354.427 69.4021 355.334C64.8777 356.241 60.3245 357.041 55.755 357.769C53.2462 357.648 49.9713 357.225 47.6356 355.944C43.3374 353.586 42.4071 356.243 43.369 357.103C44.3299 357.965 45.2026 356.403 45.2026 356.403C45.2026 356.403 46.5349 359.796 39.811 357.813C33.087 355.831 38.447 352.936 35.822 351.913C33.197 350.891 28.568 351.934 30.9929 355.174C33.4169 358.414 28.1038 359.641 27.068 357.455C26.0331 355.27 25.3489 352.374 27.9505 351.913C27.9505 351.913 22.3903 350.835 23.3973 356.393C23.9589 359.49 20.9814 360.994 18.2355 361.721C13.6985 361.955 9.14435 362.078 4.57938 362.136Z" fill="#333333"/>
<path d="M329.991 8.04693C332.702 2.95139 338.142 0.00186433 338.142 0.00186433V0.000946045H315.731V0.00186433C325.492 0.00186433 329.991 8.04693 329.991 8.04693Z" fill="#333333"/>
<path d="M78.6664 4.90179C78.6664 4.90179 75.3679 9.06712 71.0941 10.743C65.7494 12.8385 62.3582 12.6319 62.3248 12.6301L62.3167 12.6282L62.3194 12.6301H62.3176H62.3212C62.3464 12.6402 65.5385 13.8247 69.6933 17.8487C73.0124 21.0626 74.4944 26.1968 74.4944 26.1968C75.3616 24.5383 76.7192 19.0534 77.3358 16.44L77.398 16.4556C77.398 16.4556 77.4539 16.1214 77.5405 15.5667C77.6162 15.2361 77.6631 15.0295 77.6631 15.0295L77.6243 15.0231C78.0372 12.3674 78.8431 6.77233 78.6664 4.90179Z" fill="#333333"/>
</g>
</svg>
