<svg width="8" height="12" viewBox="0 0 8 12" fill="none" xmlns="http://www.w3.org/2000/svg">
<path d="M3.6129 11.2755V7.62366L1.30645 9.93011C1.19803 10.0385 1.06003 10.0927 0.89247 10.0927C0.724907 10.0927 0.586914 10.0385 0.478491 9.93011C0.370068 9.82169 0.315857 9.6837 0.315857 9.51613C0.315857 9.34857 0.370068 9.21058 0.478491 9.10216L3.37634 6.20431L0.478491 3.30646C0.370068 3.19803 0.315857 3.06004 0.315857 2.89248C0.315857 2.72491 0.370068 2.58692 0.478491 2.4785C0.586914 2.37008 0.724907 2.31586 0.89247 2.31586C1.06003 2.31586 1.19803 2.37008 1.30645 2.4785L3.6129 4.78495V1.13307C3.6129 0.955649 3.67204 0.810264 3.79032 0.696913C3.9086 0.583562 4.04659 0.526886 4.2043 0.526886C4.28315 0.526886 4.35708 0.541671 4.42607 0.571241C4.49507 0.600811 4.55914 0.645166 4.61828 0.704305L7.16129 3.24732C7.22043 3.30646 7.26232 3.37052 7.28696 3.43952C7.3116 3.50852 7.32392 3.58244 7.32392 3.66129C7.32392 3.74015 7.3116 3.81407 7.28696 3.88307C7.26232 3.95207 7.22043 4.01613 7.16129 4.07527L5.03225 6.20431L7.16129 8.33334C7.22043 8.39248 7.26232 8.45655 7.28696 8.52554C7.3116 8.59454 7.32392 8.66846 7.32392 8.74732C7.32392 8.82617 7.3116 8.90009 7.28696 8.96909C7.26232 9.03809 7.22043 9.10216 7.16129 9.16129L4.61828 11.7043C4.55914 11.7634 4.49507 11.8078 4.42607 11.8374C4.35708 11.8669 4.28315 11.8817 4.2043 11.8817C4.04659 11.8817 3.9086 11.8251 3.79032 11.7117C3.67204 11.5983 3.6129 11.453 3.6129 11.2755ZM4.7957 4.78495L5.91935 3.66129L4.7957 2.56721V4.78495ZM4.7957 9.8414L5.91935 8.74732L4.7957 7.62366V9.8414Z" fill="white"/>
</svg>
