<svg width="375" height="344" viewBox="0 0 375 344" fill="none" xmlns="http://www.w3.org/2000/svg">
<g clip-path="url(#clip0_16_1083)">
<path d="M0 0H375V244C375 299.228 330.228 344 275 344H100C44.7715 344 0 299.228 0 244V0Z" fill="url(#paint0_linear_16_1083)"/>
<g clip-path="url(#clip1_16_1083)">
<g opacity="0.53">
<g opacity="0.53">
<path opacity="0.21" d="M266.313 147.576C109.6 139.972 36.2894 85.3247 -29.1179 33.5742L-40.1577 39.7629C-40.1577 39.7629 86.0333 153.921 281.424 148.823C476.815 143.725 523.624 69.3755 523.624 69.3755L521.52 66.674C498.661 85.6104 405.589 154.33 266.313 147.576Z" fill="#C5B7FF"/>
<path opacity="0.21" d="M266.313 141.738C266.313 141.738 118.464 142.037 3.52732 15.2677L-6.76562 21.0409C10.7097 44.049 91.5467 136.705 266.319 146.349C380.607 152.661 461.833 99.2543 510.415 52.4133L508.973 50.5625C508.973 50.5625 414.336 151.265 266.319 138.212C118.302 125.159 39.6663 -5 39.6663 -5L25.8471 2.74732C45.6343 38.094 110.762 128.107 266.313 141.738Z" fill="#C5B7FF"/>
</g>
<path opacity="0.21" d="M-123.105 153.706C-295.391 137.459 -326.302 127.575 -304.08 121.568C-309.197 120.769 -314.139 119.983 -318.847 119.23C-398.437 124.665 -418.757 135.471 -144.672 156.876C268.8 189.164 430.357 171.656 478.471 163.35C477.821 163.454 287.275 192.404 -123.105 153.706Z" fill="#C5B7FF"/>
<path opacity="0.21" d="M-115.417 133.348C356.683 185.404 470.814 162.558 495.459 153.739V144.985C460.495 151.187 338.013 168.656 145.602 150.843C145.602 150.843 347.695 167.175 495.459 140.316V132.854C350.371 171.961 120.036 150.44 -17.3055 131.763C42.9391 144.401 86.6306 148.823 96.7352 149.739C97.4821 149.804 98.2224 149.868 98.9757 149.933C98.9757 149.933 98.2029 149.875 96.7352 149.739C-24.4424 139.322 -111.819 119.392 -134.541 113.846C-148.899 113.95 -208.196 114.47 -263.823 116.502C-265.759 116.645 -267.661 116.788 -269.525 116.938C-231.587 120.749 -181.103 126.107 -115.417 133.348Z" fill="#C5B7FF"/>
</g>
<g clip-path="url(#clip2_16_1083)">
<g opacity="0.53">
<g opacity="0.53">
<path opacity="0.21" d="M268.313 153.576C111.6 145.972 38.2894 91.3247 -27.1179 39.5742L-38.1577 45.7629C-38.1577 45.7629 88.0333 159.921 283.424 154.823C478.815 149.725 525.624 75.3755 525.624 75.3755L523.52 72.674C500.661 91.6104 407.589 160.33 268.313 153.576Z" fill="#7C5BFF"/>
<path opacity="0.21" d="M268.313 147.738C268.313 147.738 120.464 148.037 5.52732 21.2677L-4.76562 27.0409C12.7097 50.049 93.5467 142.705 268.319 152.349C382.607 158.661 463.833 105.254 512.415 58.4133L510.973 56.5625C510.973 56.5625 416.336 157.265 268.319 144.212C120.302 131.159 41.6663 1 41.6663 1L27.8471 8.74732C47.6343 44.094 112.762 134.107 268.313 147.738Z" fill="#7C5BFF"/>
</g>
<path opacity="0.21" d="M-121.105 159.706C-293.391 143.459 -324.302 133.575 -302.08 127.568C-307.197 126.769 -312.139 125.983 -316.847 125.23C-396.437 130.665 -416.757 141.471 -142.672 162.876C270.8 195.164 432.357 177.656 480.471 169.35C479.821 169.454 289.275 198.404 -121.105 159.706Z" fill="#7C5BFF"/>
<path opacity="0.21" d="M-113.417 139.348C358.683 191.404 472.814 168.558 497.459 159.739V150.985C462.495 157.187 340.013 174.656 147.602 156.843C147.602 156.843 349.695 173.175 497.459 146.316V138.854C352.371 177.961 122.036 156.44 -15.3055 137.763C44.9391 150.401 88.6306 154.823 98.7352 155.739C99.4821 155.804 100.222 155.868 100.976 155.933C100.976 155.933 100.203 155.875 98.7352 155.739C-22.4424 145.322 -109.819 125.392 -132.541 119.846C-146.899 119.95 -206.196 120.47 -261.823 122.502C-263.759 122.645 -265.661 122.788 -267.525 122.938C-229.587 126.749 -179.103 132.107 -113.417 139.348Z" fill="#7C5BFF"/>
</g>
<g clip-path="url(#clip3_16_1083)">
<g opacity="0.39">
<path d="M44.7478 14.8491C44.7478 15.5272 44.3594 16.0821 43.8845 16.0821C43.4097 16.0821 43.0212 15.5272 43.0212 14.8491C43.0212 14.1709 43.4097 13.616 43.8845 13.616C44.3594 13.6006 44.7478 14.1555 44.7478 14.8491Z" fill="white"/>
<path d="M105.017 47.3864C105.017 48.0646 104.629 48.6194 104.154 48.6194C103.679 48.6194 103.291 48.0646 103.291 47.3864C103.291 46.7082 103.679 46.1533 104.154 46.1533C104.629 46.1533 105.017 46.7082 105.017 47.3864Z" fill="white"/>
<path d="M309.781 7.72815C309.781 8.40633 309.393 8.9612 308.918 8.9612C308.443 8.9612 308.055 8.40633 308.055 7.72815C308.055 7.04996 308.443 6.49509 308.918 6.49509C309.393 6.49509 309.781 7.04996 309.781 7.72815Z" fill="white"/>
<path d="M246.393 53.2588C246.393 53.5979 246.199 53.8754 245.962 53.8754C245.724 53.8754 245.53 53.5979 245.53 53.2588C245.53 52.9197 245.724 52.6423 245.962 52.6423C246.199 52.6423 246.393 52.9197 246.393 53.2588Z" fill="white"/>
<path d="M264.987 14.4637C265.225 14.4637 265.418 14.1877 265.418 13.8472C265.418 13.5067 265.225 13.2307 264.987 13.2307C264.748 13.2307 264.555 13.5067 264.555 13.8472C264.555 14.1877 264.748 14.4637 264.987 14.4637Z" fill="white"/>
<path d="M224.293 41.776C224.293 42.1151 224.099 42.3925 223.861 42.3925C223.624 42.3925 223.429 42.1151 223.429 41.776C223.429 41.4369 223.624 41.1595 223.861 41.1595C224.099 41.1595 224.293 41.4369 224.293 41.776Z" fill="white"/>
<path d="M202.689 11.2269C202.689 11.566 202.494 11.8435 202.257 11.8435C202.02 11.8435 201.825 11.566 201.825 11.2269C201.825 10.8879 202.02 10.6104 202.257 10.6104C202.494 10.595 202.689 10.8724 202.689 11.2269Z" fill="white"/>
<path d="M162.901 32.898C162.901 33.2371 162.707 33.5145 162.47 33.5145C162.232 33.5145 162.038 33.2371 162.038 32.898C162.038 32.5589 162.232 32.2814 162.47 32.2814C162.707 32.2814 162.901 32.5589 162.901 32.898Z" fill="white"/>
<path d="M120.384 55.8174C120.384 56.1565 120.19 56.434 119.952 56.434C119.715 56.434 119.521 56.1565 119.521 55.8174C119.521 55.4783 119.715 55.2009 119.952 55.2009C120.19 55.2009 120.384 55.4783 120.384 55.8174Z" fill="white"/>
<path d="M88.5278 7.48153C88.7662 7.48153 88.9595 7.2055 88.9595 6.865C88.9595 6.5245 88.7662 6.24847 88.5278 6.24847C88.2894 6.24847 88.0962 6.5245 88.0962 6.865C88.0962 7.2055 88.2894 7.48153 88.5278 7.48153Z" fill="white"/>
<path d="M36.104 48.6195C36.104 48.9585 35.9098 49.236 35.6724 49.236C35.435 49.236 35.2407 48.9585 35.2407 48.6195C35.2407 48.2804 35.435 48.0029 35.6724 48.0029C35.9098 48.0029 36.104 48.2804 36.104 48.6195Z" fill="white"/>
<path d="M4.43165 6.23306C4.67004 6.23306 4.8633 5.95703 4.8633 5.61653C4.8633 5.27603 4.67004 5 4.43165 5C4.19326 5 4 5.27603 4 5.61653C4 5.95703 4.19326 6.23306 4.43165 6.23306Z" fill="white"/>
<path d="M19.8091 34.3776C19.8091 34.7167 19.6149 34.9942 19.3775 34.9942C19.14 34.9942 18.9458 34.7167 18.9458 34.3776C18.9458 34.0385 19.14 33.7611 19.3775 33.7611C19.6149 33.7611 19.8091 34.0385 19.8091 34.3776Z" fill="white"/>
<path d="M339.878 54.0757C339.878 54.4148 339.684 54.6923 339.446 54.6923C339.209 54.6923 339.015 54.4148 339.015 54.0757C339.015 53.7366 339.209 53.4592 339.446 53.4592C339.684 53.4592 339.878 53.7366 339.878 54.0757Z" fill="white"/>
<path d="M299.853 30.8172C300.33 30.8172 300.717 30.2651 300.717 29.5841C300.717 28.9031 300.33 28.351 299.853 28.351C299.377 28.351 298.99 28.9031 298.99 29.5841C298.99 30.2651 299.377 30.8172 299.853 30.8172Z" fill="white"/>
<path d="M254.735 61.7669C254.735 62.4451 254.346 63 253.872 63C253.397 63 253.008 62.4451 253.008 61.7669C253.008 61.0888 253.397 60.5339 253.872 60.5339C254.346 60.5185 254.735 61.0734 254.735 61.7669Z" fill="white"/>
</g>
</g>
<g clip-path="url(#clip4_16_1083)">
<g opacity="0.39">
<path d="M44.7478 140.849C44.7478 141.527 44.3594 142.082 43.8845 142.082C43.4097 142.082 43.0212 141.527 43.0212 140.849C43.0212 140.171 43.4097 139.616 43.8845 139.616C44.3594 139.601 44.7478 140.155 44.7478 140.849Z" fill="white"/>
<path d="M105.017 173.386C105.017 174.065 104.629 174.619 104.154 174.619C103.679 174.619 103.291 174.065 103.291 173.386C103.291 172.708 103.679 172.153 104.154 172.153C104.629 172.153 105.017 172.708 105.017 173.386Z" fill="white"/>
<path d="M309.781 133.728C309.781 134.406 309.393 134.961 308.918 134.961C308.443 134.961 308.055 134.406 308.055 133.728C308.055 133.05 308.443 132.495 308.918 132.495C309.393 132.495 309.781 133.05 309.781 133.728Z" fill="white"/>
<path d="M264.987 140.464C265.225 140.464 265.418 140.188 265.418 139.847C265.418 139.507 265.225 139.231 264.987 139.231C264.748 139.231 264.555 139.507 264.555 139.847C264.555 140.188 264.748 140.464 264.987 140.464Z" fill="white"/>
<path d="M224.293 167.776C224.293 168.115 224.099 168.393 223.861 168.393C223.624 168.393 223.429 168.115 223.429 167.776C223.429 167.437 223.624 167.159 223.861 167.159C224.099 167.159 224.293 167.437 224.293 167.776Z" fill="white"/>
<path d="M202.689 137.227C202.689 137.566 202.494 137.843 202.257 137.843C202.02 137.843 201.825 137.566 201.825 137.227C201.825 136.888 202.02 136.61 202.257 136.61C202.494 136.595 202.689 136.872 202.689 137.227Z" fill="white"/>
<path d="M162.901 158.898C162.901 159.237 162.707 159.514 162.47 159.514C162.232 159.514 162.038 159.237 162.038 158.898C162.038 158.559 162.232 158.281 162.47 158.281C162.707 158.281 162.901 158.559 162.901 158.898Z" fill="white"/>
<path d="M88.5278 133.482C88.7662 133.482 88.9595 133.206 88.9595 132.865C88.9595 132.525 88.7662 132.248 88.5278 132.248C88.2894 132.248 88.0962 132.525 88.0962 132.865C88.0962 133.206 88.2894 133.482 88.5278 133.482Z" fill="white"/>
<path d="M36.104 174.619C36.104 174.959 35.9098 175.236 35.6724 175.236C35.435 175.236 35.2407 174.959 35.2407 174.619C35.2407 174.28 35.435 174.003 35.6724 174.003C35.9098 174.003 36.104 174.28 36.104 174.619Z" fill="white"/>
<path d="M4.43165 132.233C4.67004 132.233 4.8633 131.957 4.8633 131.617C4.8633 131.276 4.67004 131 4.43165 131C4.19326 131 4 131.276 4 131.617C4 131.957 4.19326 132.233 4.43165 132.233Z" fill="white"/>
<path d="M19.8091 160.378C19.8091 160.717 19.6149 160.994 19.3775 160.994C19.14 160.994 18.9458 160.717 18.9458 160.378C18.9458 160.039 19.14 159.761 19.3775 159.761C19.6149 159.761 19.8091 160.039 19.8091 160.378Z" fill="white"/>
<path d="M299.853 156.817C300.33 156.817 300.717 156.265 300.717 155.584C300.717 154.903 300.33 154.351 299.853 154.351C299.377 154.351 298.99 154.903 298.99 155.584C298.99 156.265 299.377 156.817 299.853 156.817Z" fill="white"/>
</g>
</g>
</g>
</g>
<circle cx="213.5" cy="74.5" r="17.5" fill="url(#paint1_linear_16_1083)"/>
<path d="M424 160C424 160 365.841 163.76 351.933 176.931C338.026 190.102 318.075 193.861 282.815 176.931C270.814 171.156 244.181 218.336 228.731 207.057C213.277 195.754 216.371 191.183 206.113 208.654C198.318 221.924 181.246 200.84 174.082 208.654C166.918 216.468 140.271 209.809 121.821 187.841C107.352 170.615 101.169 205.189 90.2105 195.778C79.2516 186.367 65.7645 170.615 52.2821 176.955C41.398 182.066 -21.9063 160 -21.9063 160L-24 288L424 265.393V160Z" fill="#858E99" fill-opacity="0.97"/>
<g clip-path="url(#clip5_16_1083)">
<path d="M-7 201C-7 201 51.1591 205.758 65.0668 222.428C78.9745 239.098 98.9247 243.856 134.185 222.428C146.186 215.119 172.819 274.831 188.269 260.557C203.723 246.251 200.629 240.466 210.887 262.578C218.682 279.372 235.754 252.688 242.918 262.578C250.082 272.468 276.729 264.04 295.179 236.236C309.648 214.435 315.831 258.193 326.79 246.282C337.748 234.37 351.235 214.435 364.718 222.459C375.602 228.928 438.906 201 438.906 201L441 363L-7 334.388V201Z" fill="#5686BA"/>
</g>
<path d="M0 266.247C0.578134 266.247 1.15431 266.247 1.86331 266.247C1.81058 265.615 1.86917 265.076 1.70901 264.609C0.962906 262.421 1.52932 260.513 2.86137 258.759C4.34382 256.808 6.32041 255.429 8.35755 254.134C8.86537 253.812 9.31069 253.56 9.23061 252.802C9.1935 252.452 9.46695 251.97 9.74625 251.702C10.6076 250.88 10.8439 249.868 10.8439 248.749C10.8459 247.419 10.8439 246.091 10.8439 244.761C10.9826 244.761 11.1213 244.761 11.2599 244.759C11.2599 246.105 11.2658 247.452 11.258 248.798C11.2521 249.919 11.4904 250.927 12.3576 251.741C12.6193 251.987 12.8928 252.458 12.8361 252.765C12.6818 253.589 13.219 253.816 13.7385 254.146C15.7776 255.445 17.7347 256.847 19.2288 258.783C20.5609 260.507 21.0667 262.404 20.389 264.554C20.2386 265.031 20.2835 265.57 20.2288 266.191C20.8577 266.222 21.3929 266.249 21.9984 266.279C21.9984 266.757 21.9984 267.195 21.9984 267.738C21.4691 267.769 20.9359 267.8 20.3382 267.835C20.3382 274.404 20.3382 280.925 20.3382 287.48C21.473 287.443 22.4535 287.176 23.1254 286.256C23.5336 285.695 23.8305 285.115 23.4535 284.369C20.7269 278.972 22.0863 274.23 25.8539 269.917C28.9731 266.347 32.8247 263.681 36.8482 261.253C37.4752 260.874 37.7779 260.579 37.5963 259.742C37.3443 258.577 38.0006 257.626 38.776 256.786C39.1959 256.331 39.5826 255.847 39.9362 255.433C40.0846 254.929 40.2331 254.419 40.3854 253.909C40.4948 253.55 40.6999 253.196 40.7116 252.837C40.8366 248.642 40.9323 244.446 41.0378 240.251C41.0417 240.06 41.0631 239.868 41.2116 239.677C41.2936 242.696 41.3717 245.714 41.4557 248.734C41.4948 250.163 41.5163 251.595 41.6061 253.023C41.6276 253.372 41.9186 253.698 42.0319 254.052C42.1706 254.482 42.2507 254.929 42.3542 255.355C42.8171 255.898 43.362 256.501 43.8698 257.136C44.5241 257.952 44.9792 258.888 44.6999 259.935C44.5144 260.628 44.8425 260.839 45.2976 261.154C47.9402 262.988 50.6434 264.745 53.1708 266.728C55.6376 268.664 57.749 270.98 59.1201 273.865C60.4599 276.687 60.6924 279.58 59.6064 282.543C59.5419 282.716 59.5224 282.906 59.3974 283.463C60.6396 282.908 61.71 282.556 62.626 281.966C63.0615 281.685 63.2608 280.97 63.4561 280.412C63.5791 280.062 63.501 279.638 63.501 279.248C63.5029 266.521 63.5029 253.792 63.5029 241.065C63.5029 240.712 63.5029 240.36 63.5029 239.956C63.0811 239.897 62.7393 239.851 62.2959 239.79C62.2783 239.497 62.2588 239.196 62.2393 238.862C62.6748 238.8 63.0205 238.749 63.4815 238.683C63.458 238.302 63.5029 237.911 63.4014 237.561C62.9053 235.87 63.2686 234.343 64.4834 233.145C65.6084 232.036 66.9327 231.128 68.1378 230.095C68.4171 229.854 68.5812 229.472 68.7765 229.141C69.0636 228.655 69.4679 228.184 69.5773 227.657C69.8331 226.405 69.9464 225.122 70.0656 224.221C70.171 225.038 70.1066 226.329 70.5402 227.423C71.0011 228.587 71.423 229.837 72.7101 230.616C73.9347 231.356 75.0012 232.431 75.968 233.509C76.9758 234.632 77.261 236.028 76.7805 237.53C76.6692 237.88 76.6907 238.272 76.6457 238.69C77.1008 238.741 77.4485 238.78 77.8997 238.829C77.9211 239.124 77.9426 239.425 77.9661 239.774C77.5129 239.831 77.136 239.878 76.6985 239.933C76.6985 253.353 76.6985 266.749 76.6985 280.14C78.4309 280.486 80.0442 279.213 80.218 277.382C80.2434 277.125 80.2259 276.863 80.2259 276.601C80.2259 253.847 80.2259 231.095 80.2259 208.34C80.2259 207.957 80.2259 207.575 80.2259 207.102C79.4602 207.067 78.7922 207.038 78.0325 207.002C78.0325 206.422 78.0325 205.862 78.0325 205.196C78.7219 205.164 79.4173 205.135 80.2513 205.098C80.2024 204.448 80.2766 203.84 80.0989 203.321C79.1477 200.53 79.8079 198.086 81.5657 195.84C83.3822 193.518 85.7631 191.873 88.2084 190.313C88.8588 189.899 89.4252 189.555 89.2924 188.613C89.2436 188.262 89.4858 187.738 89.767 187.49C91.146 186.274 91.2553 184.674 91.2553 183.02C91.2534 181.363 91.2553 179.707 91.2553 178.051C91.4155 178.051 91.5757 178.051 91.7378 178.049C91.7378 179.93 91.7475 181.811 91.7339 183.69C91.7241 185.078 92.0561 186.297 93.0718 187.34C93.4409 187.719 93.7104 188.383 93.689 188.903C93.6616 189.559 93.939 189.795 94.4058 190.088C96.7808 191.576 99.0992 193.143 100.947 195.297C102.976 197.662 103.992 200.248 102.838 203.377C102.662 203.854 102.812 204.452 102.812 205.092C103.547 205.129 104.242 205.163 104.99 205.2C104.99 205.811 104.99 206.348 104.99 206.995C104.281 207.028 103.586 207.059 102.83 207.094C102.83 230.61 102.83 254.062 102.83 277.505C104.199 277.685 105.416 277.181 105.927 276.119C106.111 275.736 106.191 275.136 106.021 274.773C104.023 270.499 105.064 266.798 108.078 263.46C110.412 260.874 113.213 258.867 116.189 257.099C116.791 256.741 116.961 256.363 117.047 255.669C117.142 254.894 117.48 254.009 118.012 253.456C119.037 252.388 119.363 251.124 119.428 249.775C119.547 247.306 119.555 244.831 119.613 242.358C119.617 242.212 119.652 242.063 119.672 241.917C119.762 241.919 119.853 241.919 119.943 241.921C119.943 243.126 119.932 244.329 119.947 245.534C119.965 246.933 119.945 248.337 120.057 249.728C120.168 251.132 120.439 252.493 121.598 253.523C122.297 254.146 122.633 254.97 122.525 255.976C122.494 256.273 122.797 256.706 123.072 256.915C125.521 258.788 128.1 260.505 130.438 262.505C132.68 264.423 134.272 266.867 134.461 269.941C134.527 271.019 134.297 272.117 134.205 273.191C135.119 273.025 135.949 271.966 136.112 270.679C136.139 270.455 136.129 270.224 136.129 269.996C136.135 253.169 136.135 236.341 136.135 219.512C136.135 219.255 136.135 218.997 136.135 218.645C135.59 218.61 135.088 218.577 134.502 218.54C134.502 218.143 134.502 217.743 134.502 217.229C134.979 217.194 135.481 217.159 136.151 217.11C136.098 216.59 136.125 216.077 135.986 215.612C135.43 213.751 135.801 212.081 136.938 210.553C138.342 208.665 140.197 207.297 142.186 206.096C142.635 205.825 142.938 205.582 142.893 204.967C142.869 204.629 143.092 204.194 143.34 203.932C144.106 203.123 144.334 202.164 144.332 201.104C144.328 199.653 144.332 198.203 144.487 196.752C144.563 198.44 144.604 200.129 144.733 201.813C144.776 202.362 144.922 202.989 145.241 203.413C145.733 204.065 146.338 204.588 146.192 205.536C146.168 205.682 146.586 205.907 146.811 206.081C148.223 207.17 149.733 208.159 151.032 209.37C152.907 211.118 153.832 213.249 152.928 215.876C152.811 216.215 152.913 216.631 152.913 217.098C153.416 217.137 153.891 217.174 154.444 217.217C154.444 217.628 154.444 218.032 154.444 218.54C153.973 218.565 153.471 218.592 152.934 218.622C152.934 235.948 152.934 253.208 152.934 270.47C156.051 270.476 157.893 267.519 156.536 264.824C155.045 261.867 154.022 258.792 153.909 255.435C153.766 251.185 155.077 247.374 157.252 243.814C160.022 239.278 163.717 235.548 167.919 232.388C171.993 229.323 176.298 226.565 180.503 223.676C180.823 223.456 181.163 223.264 181.579 223.007C180.112 218.549 183.118 216.186 186.009 213.778C185.231 213.004 185.212 212.184 186.067 211.293C186.556 210.786 186.737 210.282 186.753 209.583C186.929 202.004 187.144 194.428 187.349 186.852C187.353 186.697 187.382 186.545 187.597 186.381C187.628 187.022 187.671 187.662 187.688 188.303C187.884 195.522 188.069 202.741 188.288 209.959C188.3 210.327 188.571 210.696 188.753 211.049C189.003 211.532 189.397 211.971 189.513 212.479C189.597 212.844 189.325 213.292 189.159 213.897C191.763 216.133 194.884 218.446 193.417 222.975C195.39 224.216 197.366 225.405 199.286 226.678C204.857 230.376 210.185 234.374 214.578 239.479C217.457 242.825 219.718 246.513 220.685 250.874C221.769 255.763 220.8 260.367 218.499 264.716C217.726 266.179 217.978 267.492 218.695 268.781C219.39 270.029 220.599 270.47 222.066 270.517C222.066 253.218 222.066 235.956 222.066 218.635C221.566 218.604 221.091 218.573 220.548 218.538C220.548 218.108 220.548 217.708 220.548 217.231C221.031 217.192 221.505 217.155 222.138 217.102C222.105 216.618 222.168 216.124 222.025 215.696C221.316 213.557 221.822 211.622 223.318 210.11C224.791 208.622 226.543 207.409 228.187 206.094C228.535 205.815 228.925 205.694 228.822 205.055C228.763 204.696 229.103 204.202 229.384 203.872C229.992 203.157 230.267 202.364 230.297 201.436C230.343 199.942 230.441 198.451 230.672 196.959C230.672 198.393 230.658 199.825 230.675 201.258C230.687 202.243 230.92 203.155 231.642 203.893C231.84 204.094 232.086 204.405 232.06 204.637C231.949 205.666 232.724 205.942 233.349 206.45C234.957 207.752 236.603 209.045 238.008 210.551C239.322 211.96 239.596 213.768 238.996 215.663C238.863 216.081 238.887 216.547 238.826 217.106C239.418 217.145 239.92 217.178 240.502 217.215C240.502 217.639 240.502 218.04 240.502 218.538C240.017 218.563 239.512 218.589 238.867 218.622C238.867 218.944 238.867 219.257 238.867 219.569C238.867 236.366 238.867 253.163 238.869 269.958C238.869 271.689 239.59 272.884 240.736 273.216C240.736 271.679 240.533 270.082 240.783 268.558C241.187 266.093 242.666 264.099 244.525 262.535C246.855 260.572 249.369 258.827 251.834 257.029C252.32 256.673 252.623 256.419 252.496 255.722C252.318 254.743 252.863 253.939 253.572 253.341C254.524 252.542 254.772 251.403 254.856 250.351C255.068 247.696 255.053 245.023 255.129 242.356C255.135 242.171 255.15 241.987 255.16 241.804C255.266 241.802 255.369 241.802 255.475 241.8C255.475 243.038 255.465 244.278 255.477 245.517C255.49 246.915 255.49 248.316 255.563 249.712C255.635 251.111 255.912 252.446 257.041 253.454C257.727 254.066 258.135 254.845 257.994 255.794C257.902 256.411 258.166 256.71 258.672 257.015C262.197 259.142 265.561 261.484 268.035 264.859C270.139 267.728 270.612 270.839 269.211 274.166C268.541 275.755 269.065 276.914 270.735 277.416C271.159 277.543 271.614 277.57 272.153 277.66C272.153 254.097 272.153 230.653 272.153 207.104C271.459 207.069 270.764 207.032 270.012 206.995C270.012 206.393 270.012 205.856 270.012 205.204C270.711 205.168 271.407 205.135 272.172 205.096C272.172 204.473 272.328 203.848 272.147 203.346C271.026 200.252 272.018 197.686 274.01 195.342C275.848 193.182 278.161 191.608 280.54 190.121C281.03 189.815 281.397 189.57 281.297 188.863C281.241 188.467 281.42 187.883 281.709 187.621C283.368 186.121 283.286 184.139 283.329 182.19C283.36 180.793 283.335 179.397 283.335 178C283.487 178 283.637 178 283.79 178C283.79 180.107 283.747 182.217 283.807 184.322C283.836 185.365 284.116 186.352 284.92 187.156C285.305 187.543 285.708 188.156 285.686 188.651C285.649 189.541 286.09 189.881 286.731 190.285C289.157 191.815 291.507 193.444 293.329 195.717C295.161 198.002 295.889 200.494 294.866 203.348C294.811 203.498 294.753 203.659 294.753 203.815C294.755 204.202 294.788 204.586 294.815 205.08C295.534 205.123 296.227 205.164 296.985 205.209C296.985 205.795 296.985 206.334 296.985 206.987C296.303 207.022 295.606 207.059 294.819 207.1C294.801 207.454 294.774 207.768 294.774 208.083C294.772 230.999 294.772 253.915 294.774 276.832C294.774 279.007 296.196 280.381 298.3 280.189C298.3 266.798 298.3 253.404 298.3 239.944C297.934 239.897 297.591 239.854 297.134 239.796C297.108 239.52 297.081 239.222 297.05 238.87C297.499 238.804 297.872 238.749 298.343 238.681C298.311 238.306 298.35 237.938 298.245 237.62C297.61 235.712 298.249 234.126 299.585 232.827C300.604 231.839 301.815 231.048 302.907 230.132C303.192 229.891 303.372 229.516 303.571 229.186C303.895 228.645 304.347 228.122 304.475 227.534C304.741 226.321 304.829 225.069 304.934 224.268C305.05 225.12 304.997 226.479 305.456 227.636C305.929 228.823 306.409 230.098 307.8 230.806C308.864 231.347 309.745 232.317 310.583 233.212C311.726 234.434 312.093 235.913 311.589 237.558C311.532 237.741 311.505 237.938 311.495 238.13C311.487 238.288 311.524 238.448 311.548 238.663C311.931 238.728 312.3 238.79 312.714 238.86C312.714 239.169 312.714 239.45 312.714 239.776C312.337 239.827 311.991 239.874 311.493 239.94C311.493 240.341 311.493 240.751 311.493 241.161C311.493 253.79 311.493 266.421 311.495 279.05C311.495 281.636 312.12 282.431 314.638 283.043C314.888 283.103 315.144 283.142 315.548 283.218C315.358 282.533 315.181 281.937 315.032 281.332C314.147 277.726 315.149 274.529 317.216 271.597C319.56 268.277 322.696 265.794 326.001 263.513C327.259 262.646 328.581 261.872 329.851 261.023C330.081 260.868 330.392 260.511 330.347 260.326C329.882 258.441 330.898 257.222 332.15 256.089C332.39 255.872 332.64 255.667 332.642 255.378C332.747 254.935 332.837 254.488 332.96 254.05C333.095 253.573 333.38 253.109 333.398 252.632C333.556 248.441 333.669 244.245 333.798 240.052C333.8 239.962 333.843 239.874 333.923 239.581C334.011 242.903 334.095 246.021 334.177 249.138C334.21 250.405 334.22 251.675 334.288 252.943C334.306 253.273 334.492 253.597 334.626 253.913C334.726 254.15 335.025 254.423 334.968 254.585C334.576 255.677 335.523 256.007 336.038 256.572C336.992 257.613 337.734 258.699 337.359 260.24C337.304 260.466 337.656 260.913 337.927 261.077C341.384 263.179 344.709 265.456 347.617 268.287C349.757 270.371 351.588 272.691 352.494 275.595C353.332 278.283 353.062 280.925 351.957 283.494C350.933 285.869 351.923 287.344 354.674 287.451C354.674 280.949 354.674 274.449 354.674 267.849C354.134 267.812 353.603 267.777 353 267.736C353 267.259 353 266.822 353 266.285C353.531 266.257 354.066 266.232 354.744 266.197C354.701 265.611 354.763 265.046 354.607 264.55C353.922 262.359 354.453 260.437 355.828 258.7C357.386 256.734 359.396 255.292 361.508 253.988C361.914 253.738 362.181 253.546 362.152 252.958C362.131 252.53 362.394 251.986 362.709 251.667C363.461 250.903 363.728 250.009 363.732 248.989C363.736 247.593 363.734 246.198 363.734 244.802C363.877 244.8 364.017 244.8 364.16 244.798C364.16 245.985 364.18 247.175 364.154 248.362C364.125 249.689 364.344 250.9 365.392 251.847C365.594 252.029 365.808 252.38 365.767 252.611C365.598 253.579 366.277 253.876 366.904 254.284C368.844 255.548 370.734 256.884 372.15 258.759C373.477 260.515 374.041 262.425 373.291 264.611C373.131 265.076 373.193 265.615 373.143 266.24C373.85 266.24 374.426 266.24 375 266.24C375 266.761 375 267.281 375 267.802C372.777 267.779 373.186 267.591 373.18 269.558C373.162 276.482 373.172 283.408 373.172 290.334C373.172 307.99 373.172 325.645 373.176 343.301C373.176 343.721 373.219 344.141 373.242 344.561C249.412 344.561 125.582 344.561 1.75198 344.561C1.77542 344.108 1.81839 343.657 1.81839 343.204C1.82815 318.664 1.83206 294.115 1.82034 269.568C1.82034 267.601 2.22269 267.789 0 267.812C0 267.29 0 266.769 0 266.247ZM95.1148 223.411C95.1148 220.913 95.1226 218.485 95.1128 216.059C95.1031 213.971 93.5542 212.387 91.5229 212.36C89.5209 212.335 87.8979 213.913 87.8549 215.993C87.8158 217.876 87.8432 219.758 87.8432 221.641C87.8432 222.214 87.8432 222.788 87.8432 223.413C90.2983 223.411 92.6225 223.411 95.1148 223.411ZM287.153 223.409C287.153 220.835 287.2 218.313 287.137 215.792C287.088 213.848 285.403 212.331 283.477 212.358C281.485 212.387 279.909 213.958 279.895 215.963C279.879 218.204 279.889 220.444 279.895 222.682C279.895 222.926 279.95 223.173 279.979 223.405C282.387 223.409 284.711 223.409 287.153 223.409ZM13.9104 281.088C13.9104 278.839 14.0393 276.609 13.8635 274.402C13.7522 273.005 12.3889 272.121 10.9943 272.138C9.5646 272.158 8.22864 273.117 8.12708 274.552C7.97669 276.703 8.08802 278.873 8.08802 281.086C10.0392 281.088 11.9123 281.088 13.9104 281.088ZM360.984 281.14C362.744 281.14 364.39 281.14 366.037 281.14C366.199 281.14 366.439 281.203 366.508 281.121C366.699 280.892 366.945 280.607 366.951 280.338C366.99 278.619 366.988 276.898 366.965 275.177C366.941 273.46 365.703 272.189 364.055 272.14C362.457 272.091 361.08 273.261 361.006 274.925C360.916 276.929 360.984 278.941 360.984 281.14ZM147.2 230.679C147.2 228.684 147.268 226.768 147.176 224.858C147.114 223.546 145.909 222.569 144.584 222.532C143.211 222.495 141.934 223.44 141.856 224.802C141.744 226.737 141.828 228.684 141.828 230.677C143.625 230.679 145.338 230.679 147.2 230.679ZM233.197 230.686C233.197 228.718 233.244 226.864 233.181 225.016C233.135 223.632 232.009 222.602 230.634 222.534C229.308 222.467 227.978 223.344 227.886 224.653C227.746 226.647 227.849 228.659 227.849 230.688C229.65 230.686 231.365 230.686 233.197 230.686ZM102.205 223.415C102.205 219.702 102.205 216.059 102.205 212.409C100.25 212.588 98.7945 213.647 98.7047 215.301C98.5562 217.983 98.6656 220.678 98.6656 223.415C99.8629 223.415 100.99 223.415 102.205 223.415ZM276.356 223.407C276.356 220.704 276.452 218.042 276.323 215.389C276.237 213.647 274.549 212.385 272.766 212.471C272.766 216.096 272.766 219.723 272.766 223.407C273.973 223.407 275.123 223.407 276.356 223.407ZM84.3626 223.413C84.3626 220.721 84.4466 218.092 84.3334 215.471C84.2572 213.706 82.4954 212.342 80.7708 212.493C80.7708 216.114 80.7708 219.739 80.7708 223.413C81.9603 223.413 83.0872 223.413 84.3626 223.413ZM294.206 223.415C294.206 219.7 294.206 216.059 294.206 212.411C292.282 212.581 290.799 213.663 290.708 215.307C290.557 217.985 290.667 220.68 290.667 223.415C291.866 223.415 292.993 223.415 294.206 223.415ZM19.7718 272.234C18.2581 272.238 16.9807 273.144 16.8967 274.523C16.7678 276.683 16.8616 278.855 16.8616 281.082C17.8694 281.082 18.7952 281.082 19.7698 281.082C19.7718 278.095 19.7718 275.164 19.7718 272.234ZM355.23 272.253C355.23 275.183 355.23 278.115 355.23 281.136C356.082 281.136 356.861 281.177 357.631 281.109C357.832 281.091 358.158 280.74 358.162 280.535C358.199 278.617 358.236 276.697 358.158 274.783C358.095 273.271 356.783 272.185 355.23 272.253ZM67.9718 246.786C67.9698 246.786 67.9679 246.786 67.9659 246.786C67.9659 247.468 67.921 248.155 67.9913 248.829C68.0147 249.044 68.3351 249.386 68.5343 249.396C69.5695 249.452 70.6124 249.446 71.6496 249.402C71.8507 249.392 72.2082 249.114 72.2121 248.954C72.2433 247.526 72.2941 246.091 72.1671 244.673C72.0695 243.573 71.0285 242.894 69.9093 242.974C68.839 243.05 68.0421 243.837 67.9776 244.933C67.9425 245.552 67.9718 246.171 67.9718 246.786ZM302.77 246.907C302.768 246.907 302.764 246.907 302.763 246.907C302.763 247.525 302.784 248.142 302.757 248.759C302.733 249.275 302.958 249.444 303.45 249.433C304.425 249.411 305.399 249.409 306.372 249.433C306.882 249.444 307.058 249.234 307.05 248.739C307.03 247.538 307.059 246.337 307.038 245.136C307.017 243.87 306.19 243.009 305.005 242.974C303.765 242.937 302.858 243.769 302.778 245.058C302.739 245.671 302.77 246.29 302.77 246.907ZM2.32816 272.173C2.32816 275.173 2.32816 278.107 2.32816 281.072C3.32622 281.072 4.24811 281.072 5.26571 281.072C5.26571 279.064 5.28133 277.121 5.25985 275.179C5.24227 273.453 4.22272 272.39 2.32816 272.173ZM372.695 272.175C370.801 272.376 369.779 273.449 369.744 275.169C369.728 275.949 369.74 276.73 369.74 277.509C369.74 278.699 369.74 279.888 369.74 281.06C370.82 281.06 371.744 281.06 372.695 281.06C372.695 278.07 372.695 275.158 372.695 272.175ZM152.444 222.587C150.973 222.725 149.922 223.464 149.856 224.639C149.743 226.637 149.825 228.645 149.825 230.673C150.737 230.673 151.563 230.673 152.444 230.673C152.444 227.96 152.444 225.309 152.444 222.587ZM222.58 222.557C222.58 225.309 222.58 227.985 222.58 230.667C223.482 230.667 224.312 230.667 225.222 230.667C225.222 228.854 225.234 227.104 225.218 225.354C225.207 223.712 224.388 222.815 222.58 222.557ZM139.248 230.686C139.248 228.72 139.305 226.866 139.231 225.018C139.172 223.567 138.049 222.61 136.578 222.606C136.578 225.29 136.578 227.973 136.578 230.686C137.473 230.686 138.307 230.686 139.248 230.686ZM238.441 222.585C237.045 222.643 235.941 223.382 235.849 224.655C235.707 226.647 235.812 228.657 235.812 230.647C236.74 230.647 237.596 230.647 238.443 230.647C238.441 227.907 238.441 225.247 238.441 222.585ZM76.3703 243.007C75.2297 243.017 74.425 243.544 74.3312 244.458C74.1652 246.073 74.2844 247.718 74.2844 249.423C74.8234 249.423 75.2863 249.491 75.7141 249.396C75.9641 249.339 76.3371 249.027 76.343 248.819C76.3899 246.917 76.3703 245.011 76.3703 243.007ZM298.641 243.05C298.641 245.017 298.63 246.982 298.663 248.946C298.665 249.107 298.948 249.38 299.122 249.4C299.651 249.46 300.19 249.421 300.782 249.421C300.782 247.782 300.833 246.296 300.764 244.814C300.716 243.726 299.907 243.091 298.641 243.05ZM63.8584 249.425C64.4346 249.425 64.9014 249.495 65.3291 249.398C65.5772 249.341 65.9405 249.025 65.9502 248.812C66.0069 247.513 66.0225 246.206 65.962 244.907C65.9073 243.704 64.9209 242.931 63.8584 243.157C63.8584 245.198 63.8584 247.239 63.8584 249.425ZM311.196 243.03C309.874 243.13 309.097 243.778 309.046 244.866C308.983 246.198 309.018 247.534 309.032 248.868C309.04 249.71 309.708 249.398 310.12 249.405C310.536 249.413 311.192 249.689 311.194 248.851C311.202 246.937 311.196 245.023 311.196 243.03Z" fill="#43658A"/>
</g>
<defs>
<linearGradient id="paint0_linear_16_1083" x1="188" y1="0" x2="188" y2="172" gradientUnits="userSpaceOnUse">
<stop stop-color="#AAC2FF"/>
<stop offset="0.405" stop-color="#A4D9FF"/>
<stop offset="1" stop-color="#BDEBFF"/>
</linearGradient>
<linearGradient id="paint1_linear_16_1083" x1="213.5" y1="57" x2="213.5" y2="92" gradientUnits="userSpaceOnUse">
<stop stop-color="#FFF7CC"/>
<stop offset="1" stop-color="#FFDFCD"/>
</linearGradient>
<clipPath id="clip0_16_1083">
<path d="M0 0H375V244C375 299.228 330.228 344 275 344H100C44.7715 344 0 299.228 0 244V0Z" fill="white"/>
</clipPath>
<clipPath id="clip1_16_1083">
<rect width="894.63" height="180.604" fill="white" transform="translate(-371 -5)"/>
</clipPath>
<clipPath id="clip2_16_1083">
<rect width="894.63" height="180.604" fill="white" transform="translate(-369 1)"/>
</clipPath>
<clipPath id="clip3_16_1083">
<rect width="373" height="58" fill="white" transform="translate(4 5)"/>
</clipPath>
<clipPath id="clip4_16_1083">
<rect width="373" height="58" fill="white" transform="translate(4 131)"/>
</clipPath>
<clipPath id="clip5_16_1083">
<rect width="448" height="162" fill="white" transform="translate(-7 201)"/>
</clipPath>
</defs>
</svg>
