<svg width="24" height="17" viewBox="0 0 24 17" fill="none" xmlns="http://www.w3.org/2000/svg">
<g id="Frame" clip-path="url(#clip0_49_2936)">
<g id="Group">
<g id="Vector">
<mask id="path-1-outside-1_49_2936" maskUnits="userSpaceOnUse" x="-0.999939" y="-1.00018" width="26" height="19" fill="black">
<rect fill="white" x="-0.999939" y="-1.00018" width="26" height="19"/>
<path d="M6.83359 0.0391331C6.52168 0.107616 6.35497 0.200558 6.10221 0.450033C5.8871 0.660374 5.61283 1.10552 5.61283 1.24737C5.61283 1.28162 5.53755 1.2327 5.4515 1.13976C4.99439 0.670158 4.05328 0.743532 3.49936 1.30118C3.03687 1.76589 2.92932 2.10342 2.54212 4.38782C2.38616 5.28789 2.25172 6.03631 2.24634 6.0461C2.23558 6.05588 2.11727 6.01186 1.98283 5.95316C1.47194 5.72814 0.423267 5.90424 0.181267 6.25644C0.0737111 6.41297 -0.0553559 10.7959 0.025311 11.603C0.143622 12.8162 0.503934 13.7994 1.12238 14.5869C1.49345 15.0663 2.56901 15.9713 3.05301 16.2208C4.27377 16.8518 5.81719 17.1061 7.47355 16.9594C8.33937 16.886 8.84489 16.7686 9.3988 16.5191C10.4851 16.0349 11.3079 15.1837 11.6521 14.1956C11.7596 13.8874 11.9586 12.9531 11.964 12.7134L11.9694 12.5324L12.0178 12.7281C12.0393 12.8357 12.1146 13.1781 12.1737 13.4863C12.3781 14.4793 12.7223 15.1104 13.3784 15.712C13.8247 16.118 14.2442 16.3773 14.8196 16.6072C15.3251 16.8029 15.7661 16.8909 16.6373 16.9643C18.4066 17.111 20.0307 16.7784 21.2891 16.0153C21.687 15.7707 22.6766 14.8658 22.9455 14.4989C23.4456 13.8141 23.7736 12.9727 23.935 11.9797C24.0156 11.4612 24.0156 11.1726 23.9672 8.89304C23.9135 6.52548 23.9027 6.37384 23.8059 6.25155C23.4671 5.84065 22.4238 5.6939 21.929 5.9874C21.8538 6.02653 21.7892 6.05588 21.7731 6.0461C21.7623 6.03142 21.6171 5.25365 21.4558 4.31445C21.2891 3.37036 21.1278 2.48986 21.0955 2.35778C20.9449 1.75611 20.547 1.22292 20.0845 0.993008C19.5359 0.723967 18.8476 0.782665 18.5518 1.12019L18.4281 1.26694L18.2506 0.914742C17.7505 -0.063591 16.6373 -0.303284 15.9221 0.420683C15.7123 0.631025 15.5617 1.00768 15.5617 1.31097V1.49685L15.3359 1.40391C15.0509 1.28651 14.8626 1.28162 14.4862 1.38434C14.1044 1.48707 13.9377 1.60936 13.7548 1.91264C13.5397 2.26484 13.5182 2.86162 13.6795 3.75191C13.7441 4.10411 13.7871 4.40739 13.7763 4.41717C13.7602 4.42696 13.6688 4.41228 13.5666 4.38782C13.2869 4.31445 12.9965 4.32912 12.7761 4.43185C12.5233 4.54925 12.4211 4.65686 12.2867 4.9308C12.1415 5.22919 12.12 5.58139 12.2168 6.24666C12.2652 6.60375 12.2974 7.2788 12.3028 8.10549C12.3082 9.24035 12.292 9.48494 12.1845 10.0866C12.1146 10.4633 12.0393 10.8497 12.0124 10.9427L11.9694 11.1139L11.964 10.9427C11.9586 10.8497 11.9048 10.5171 11.8457 10.2089C11.6951 9.45559 11.6467 7.65056 11.7489 6.72115C11.8618 5.73792 11.8457 5.14114 11.7059 4.90145C11.4155 4.40739 10.9422 4.2264 10.3829 4.40739C10.2001 4.47098 10.184 4.46609 10.2055 4.39271C10.3076 4.06986 10.4636 2.90565 10.4421 2.60726C10.3937 1.99091 10.0925 1.55066 9.60853 1.39902C9.32889 1.31097 8.85026 1.31586 8.64591 1.4088L8.47382 1.48707L8.44155 1.21313C8.33937 0.396225 7.61875 -0.132074 6.83359 0.0391331ZM17.4063 0.508734C17.8419 0.7631 18.0947 1.32564 18.2238 2.33821C18.2614 2.67574 18.4066 3.60026 18.541 4.39271C18.6755 5.18516 18.8368 6.1586 18.9014 6.56461C18.9659 6.96573 19.0466 7.32771 19.0842 7.36685C19.1971 7.47446 19.38 7.38641 19.38 7.22988C19.38 7.08802 19.0143 4.79872 18.7562 3.33611C18.5948 2.43116 18.5948 1.73654 18.7508 1.4675C18.8852 1.24248 19.1218 1.13976 19.4499 1.174C19.9769 1.2327 20.4018 1.59468 20.6222 2.1719C20.6814 2.31865 20.8858 3.33611 21.0794 4.43185L21.4343 6.41786L21.3106 6.76028C21.203 7.06845 21.1869 7.22988 21.16 8.37453L21.1278 9.64636L20.9664 9.91051C20.8804 10.0524 20.7513 10.204 20.6868 10.2431C20.6222 10.2823 20.3534 10.3557 20.0952 10.4095C19.4176 10.5415 18.8906 10.791 18.4658 11.1823C17.8796 11.7204 17.5784 12.3857 17.9226 12.3857C18.0302 12.3857 18.0893 12.327 18.2345 12.0628C18.3313 11.8867 18.5034 11.6471 18.611 11.5297C18.982 11.1334 19.6811 10.8106 20.348 10.7225C20.8535 10.654 21.2407 10.3263 21.4504 9.79311C21.5311 9.59255 21.558 9.31373 21.5849 8.25224C21.6225 6.88257 21.6386 6.78963 21.9075 6.47656C22.085 6.276 22.2947 6.19774 22.6712 6.19774C22.9939 6.19774 23.4079 6.31514 23.4832 6.43254C23.5047 6.457 23.5478 7.54784 23.58 8.8588C23.6446 11.4416 23.6231 11.828 23.3864 12.6792C23.1283 13.6135 22.7734 14.2103 22.0474 14.9147C21.4988 15.4479 21.1278 15.712 20.5254 15.9957C19.423 16.5143 18.1646 16.7197 16.7502 16.6121C15.7607 16.5387 15.3413 16.4507 14.7067 16.1718C14.2334 15.9615 14.0882 15.8637 13.7118 15.5261C13.0396 14.9098 12.7761 14.4304 12.5394 13.4032C12.4319 12.9482 12.4157 12.733 12.4157 11.8232C12.4211 10.928 12.4372 10.6834 12.5448 10.1844C12.7008 9.4458 12.7599 7.8022 12.6631 6.90703C12.6255 6.58418 12.5824 6.08523 12.5663 5.79662C12.5394 5.32702 12.5448 5.25854 12.6577 5.05309C12.8083 4.75959 13.0127 4.66176 13.3461 4.70578C13.7172 4.7547 13.9108 4.96015 14.0237 5.41018C14.2281 6.2222 14.4055 7.60654 14.4485 8.69249C14.4593 9.00066 14.4647 9.01044 14.6045 9.02512C14.8089 9.04469 14.8304 8.92729 14.7927 8.06146C14.7443 7.05867 14.5776 5.96783 14.3249 4.99928C14.1635 4.39271 13.9484 3.10621 13.9484 2.76379C13.9484 2.12787 14.1797 1.79035 14.6744 1.69741C15.024 1.62892 15.2498 1.7023 15.4757 1.94688C15.6747 2.15722 15.7069 2.23549 15.9167 3.04261C16.2501 4.28999 16.5297 6.0412 16.6158 7.3962C16.6373 7.6897 16.6749 7.9832 16.6965 8.04189C16.7449 8.16908 16.9116 8.18865 17.0084 8.08592C17.1213 7.96363 16.8255 5.37105 16.5513 4.04541C16.3845 3.24317 16.1372 2.31376 16.0242 2.06428C15.9113 1.82948 15.9113 1.24248 16.0189 0.953875C16.2286 0.401115 16.8739 0.195667 17.4063 0.508734ZM7.65102 0.518517C7.88764 0.670158 8.03284 0.983225 8.07048 1.40391C8.09737 1.69252 8.08124 1.80502 7.96293 2.12298C7.56497 3.20893 7.23693 4.93569 7.03257 6.99019C6.94115 7.96852 6.9519 8.1544 7.11324 8.1544C7.28533 8.1544 7.32297 8.05168 7.38213 7.37174C7.50582 6.00207 7.69404 4.69111 7.90377 3.78615C8.31786 1.98112 8.48995 1.69741 9.14604 1.69741C9.67844 1.69741 9.99036 1.9958 10.0549 2.55834C10.0979 2.90565 9.93658 3.91333 9.67307 5.02863C9.38804 6.21241 9.26435 7.05867 9.23209 8.05168C9.2052 8.87837 9.21058 8.95664 9.29662 9.01534C9.36115 9.05936 9.42569 9.06425 9.48484 9.0349C9.56551 8.99577 9.58164 8.87348 9.60853 8.12016C9.65156 6.99019 9.89893 5.44442 10.1033 5.05309C10.2162 4.84275 10.469 4.71556 10.7916 4.71067C11.0175 4.70578 11.0713 4.72535 11.2057 4.86231C11.4908 5.15092 11.5176 5.38572 11.3886 6.42276C11.2595 7.44022 11.3079 9.52896 11.4746 10.3067C11.5768 10.7617 11.5983 11.0454 11.6037 11.7742C11.6144 13.7798 11.0928 15.0517 9.95271 15.8196C9.04386 16.4262 8.16191 16.6365 6.55395 16.6317C5.0643 16.6317 3.84892 16.3137 2.84327 15.6631C2.47758 15.4234 1.62789 14.6456 1.38051 14.3179C0.955669 13.7505 0.627623 12.9238 0.477045 12.0433C0.391001 11.5639 0.385623 11.2508 0.423267 9.11806C0.444779 7.8071 0.46629 6.67223 0.477045 6.60375C0.503934 6.35916 0.869624 6.19774 1.38051 6.19774C1.85376 6.19774 2.12265 6.38362 2.31625 6.84344C2.38616 7.00976 2.41305 7.31793 2.43456 8.35007C2.46683 9.64636 2.46683 9.64636 2.62278 9.94964C2.71421 10.1306 2.87016 10.3361 3.00461 10.4486C3.19821 10.61 3.30039 10.654 3.75212 10.747C4.75777 10.9524 5.43537 11.4074 5.77955 12.0922C5.90861 12.3563 5.95701 12.4102 6.06457 12.4102C6.29044 12.4102 6.29044 12.2438 6.07532 11.8525C5.65586 11.0747 4.75777 10.5171 3.7091 10.3752C3.38105 10.3312 3.13905 10.1502 2.97234 9.80779C2.85403 9.5632 2.84327 9.47515 2.81638 8.25224C2.7895 7.10759 2.77336 6.9266 2.67656 6.71136L2.56901 6.46678L2.9347 4.39271C3.31652 2.2306 3.37567 2.01047 3.7091 1.61425C3.92421 1.35499 4.26839 1.19846 4.64483 1.19357C5.04279 1.18867 5.19875 1.30118 5.32781 1.69252C5.42999 2.01537 5.4031 2.49475 5.24177 3.40949C5.17723 3.74701 5.01052 4.7547 4.85994 5.65476C4.58568 7.34728 4.58568 7.42065 4.81154 7.42065C4.94061 7.42065 4.99977 7.30815 5.04279 6.9804C5.0643 6.83365 5.23639 5.77706 5.42461 4.63241C5.61283 3.48776 5.7903 2.35289 5.82257 2.10342C5.9355 1.26694 6.18826 0.758207 6.63461 0.484274C6.88737 0.327742 7.38213 0.347307 7.65102 0.518517Z"/>
</mask>
<path d="M6.83359 0.0391331C6.52168 0.107616 6.35497 0.200558 6.10221 0.450033C5.8871 0.660374 5.61283 1.10552 5.61283 1.24737C5.61283 1.28162 5.53755 1.2327 5.4515 1.13976C4.99439 0.670158 4.05328 0.743532 3.49936 1.30118C3.03687 1.76589 2.92932 2.10342 2.54212 4.38782C2.38616 5.28789 2.25172 6.03631 2.24634 6.0461C2.23558 6.05588 2.11727 6.01186 1.98283 5.95316C1.47194 5.72814 0.423267 5.90424 0.181267 6.25644C0.0737111 6.41297 -0.0553559 10.7959 0.025311 11.603C0.143622 12.8162 0.503934 13.7994 1.12238 14.5869C1.49345 15.0663 2.56901 15.9713 3.05301 16.2208C4.27377 16.8518 5.81719 17.1061 7.47355 16.9594C8.33937 16.886 8.84489 16.7686 9.3988 16.5191C10.4851 16.0349 11.3079 15.1837 11.6521 14.1956C11.7596 13.8874 11.9586 12.9531 11.964 12.7134L11.9694 12.5324L12.0178 12.7281C12.0393 12.8357 12.1146 13.1781 12.1737 13.4863C12.3781 14.4793 12.7223 15.1104 13.3784 15.712C13.8247 16.118 14.2442 16.3773 14.8196 16.6072C15.3251 16.8029 15.7661 16.8909 16.6373 16.9643C18.4066 17.111 20.0307 16.7784 21.2891 16.0153C21.687 15.7707 22.6766 14.8658 22.9455 14.4989C23.4456 13.8141 23.7736 12.9727 23.935 11.9797C24.0156 11.4612 24.0156 11.1726 23.9672 8.89304C23.9135 6.52548 23.9027 6.37384 23.8059 6.25155C23.4671 5.84065 22.4238 5.6939 21.929 5.9874C21.8538 6.02653 21.7892 6.05588 21.7731 6.0461C21.7623 6.03142 21.6171 5.25365 21.4558 4.31445C21.2891 3.37036 21.1278 2.48986 21.0955 2.35778C20.9449 1.75611 20.547 1.22292 20.0845 0.993008C19.5359 0.723967 18.8476 0.782665 18.5518 1.12019L18.4281 1.26694L18.2506 0.914742C17.7505 -0.063591 16.6373 -0.303284 15.9221 0.420683C15.7123 0.631025 15.5617 1.00768 15.5617 1.31097V1.49685L15.3359 1.40391C15.0509 1.28651 14.8626 1.28162 14.4862 1.38434C14.1044 1.48707 13.9377 1.60936 13.7548 1.91264C13.5397 2.26484 13.5182 2.86162 13.6795 3.75191C13.7441 4.10411 13.7871 4.40739 13.7763 4.41717C13.7602 4.42696 13.6688 4.41228 13.5666 4.38782C13.2869 4.31445 12.9965 4.32912 12.7761 4.43185C12.5233 4.54925 12.4211 4.65686 12.2867 4.9308C12.1415 5.22919 12.12 5.58139 12.2168 6.24666C12.2652 6.60375 12.2974 7.2788 12.3028 8.10549C12.3082 9.24035 12.292 9.48494 12.1845 10.0866C12.1146 10.4633 12.0393 10.8497 12.0124 10.9427L11.9694 11.1139L11.964 10.9427C11.9586 10.8497 11.9048 10.5171 11.8457 10.2089C11.6951 9.45559 11.6467 7.65056 11.7489 6.72115C11.8618 5.73792 11.8457 5.14114 11.7059 4.90145C11.4155 4.40739 10.9422 4.2264 10.3829 4.40739C10.2001 4.47098 10.184 4.46609 10.2055 4.39271C10.3076 4.06986 10.4636 2.90565 10.4421 2.60726C10.3937 1.99091 10.0925 1.55066 9.60853 1.39902C9.32889 1.31097 8.85026 1.31586 8.64591 1.4088L8.47382 1.48707L8.44155 1.21313C8.33937 0.396225 7.61875 -0.132074 6.83359 0.0391331ZM17.4063 0.508734C17.8419 0.7631 18.0947 1.32564 18.2238 2.33821C18.2614 2.67574 18.4066 3.60026 18.541 4.39271C18.6755 5.18516 18.8368 6.1586 18.9014 6.56461C18.9659 6.96573 19.0466 7.32771 19.0842 7.36685C19.1971 7.47446 19.38 7.38641 19.38 7.22988C19.38 7.08802 19.0143 4.79872 18.7562 3.33611C18.5948 2.43116 18.5948 1.73654 18.7508 1.4675C18.8852 1.24248 19.1218 1.13976 19.4499 1.174C19.9769 1.2327 20.4018 1.59468 20.6222 2.1719C20.6814 2.31865 20.8858 3.33611 21.0794 4.43185L21.4343 6.41786L21.3106 6.76028C21.203 7.06845 21.1869 7.22988 21.16 8.37453L21.1278 9.64636L20.9664 9.91051C20.8804 10.0524 20.7513 10.204 20.6868 10.2431C20.6222 10.2823 20.3534 10.3557 20.0952 10.4095C19.4176 10.5415 18.8906 10.791 18.4658 11.1823C17.8796 11.7204 17.5784 12.3857 17.9226 12.3857C18.0302 12.3857 18.0893 12.327 18.2345 12.0628C18.3313 11.8867 18.5034 11.6471 18.611 11.5297C18.982 11.1334 19.6811 10.8106 20.348 10.7225C20.8535 10.654 21.2407 10.3263 21.4504 9.79311C21.5311 9.59255 21.558 9.31373 21.5849 8.25224C21.6225 6.88257 21.6386 6.78963 21.9075 6.47656C22.085 6.276 22.2947 6.19774 22.6712 6.19774C22.9939 6.19774 23.4079 6.31514 23.4832 6.43254C23.5047 6.457 23.5478 7.54784 23.58 8.8588C23.6446 11.4416 23.6231 11.828 23.3864 12.6792C23.1283 13.6135 22.7734 14.2103 22.0474 14.9147C21.4988 15.4479 21.1278 15.712 20.5254 15.9957C19.423 16.5143 18.1646 16.7197 16.7502 16.6121C15.7607 16.5387 15.3413 16.4507 14.7067 16.1718C14.2334 15.9615 14.0882 15.8637 13.7118 15.5261C13.0396 14.9098 12.7761 14.4304 12.5394 13.4032C12.4319 12.9482 12.4157 12.733 12.4157 11.8232C12.4211 10.928 12.4372 10.6834 12.5448 10.1844C12.7008 9.4458 12.7599 7.8022 12.6631 6.90703C12.6255 6.58418 12.5824 6.08523 12.5663 5.79662C12.5394 5.32702 12.5448 5.25854 12.6577 5.05309C12.8083 4.75959 13.0127 4.66176 13.3461 4.70578C13.7172 4.7547 13.9108 4.96015 14.0237 5.41018C14.2281 6.2222 14.4055 7.60654 14.4485 8.69249C14.4593 9.00066 14.4647 9.01044 14.6045 9.02512C14.8089 9.04469 14.8304 8.92729 14.7927 8.06146C14.7443 7.05867 14.5776 5.96783 14.3249 4.99928C14.1635 4.39271 13.9484 3.10621 13.9484 2.76379C13.9484 2.12787 14.1797 1.79035 14.6744 1.69741C15.024 1.62892 15.2498 1.7023 15.4757 1.94688C15.6747 2.15722 15.7069 2.23549 15.9167 3.04261C16.2501 4.28999 16.5297 6.0412 16.6158 7.3962C16.6373 7.6897 16.6749 7.9832 16.6965 8.04189C16.7449 8.16908 16.9116 8.18865 17.0084 8.08592C17.1213 7.96363 16.8255 5.37105 16.5513 4.04541C16.3845 3.24317 16.1372 2.31376 16.0242 2.06428C15.9113 1.82948 15.9113 1.24248 16.0189 0.953875C16.2286 0.401115 16.8739 0.195667 17.4063 0.508734ZM7.65102 0.518517C7.88764 0.670158 8.03284 0.983225 8.07048 1.40391C8.09737 1.69252 8.08124 1.80502 7.96293 2.12298C7.56497 3.20893 7.23693 4.93569 7.03257 6.99019C6.94115 7.96852 6.9519 8.1544 7.11324 8.1544C7.28533 8.1544 7.32297 8.05168 7.38213 7.37174C7.50582 6.00207 7.69404 4.69111 7.90377 3.78615C8.31786 1.98112 8.48995 1.69741 9.14604 1.69741C9.67844 1.69741 9.99036 1.9958 10.0549 2.55834C10.0979 2.90565 9.93658 3.91333 9.67307 5.02863C9.38804 6.21241 9.26435 7.05867 9.23209 8.05168C9.2052 8.87837 9.21058 8.95664 9.29662 9.01534C9.36115 9.05936 9.42569 9.06425 9.48484 9.0349C9.56551 8.99577 9.58164 8.87348 9.60853 8.12016C9.65156 6.99019 9.89893 5.44442 10.1033 5.05309C10.2162 4.84275 10.469 4.71556 10.7916 4.71067C11.0175 4.70578 11.0713 4.72535 11.2057 4.86231C11.4908 5.15092 11.5176 5.38572 11.3886 6.42276C11.2595 7.44022 11.3079 9.52896 11.4746 10.3067C11.5768 10.7617 11.5983 11.0454 11.6037 11.7742C11.6144 13.7798 11.0928 15.0517 9.95271 15.8196C9.04386 16.4262 8.16191 16.6365 6.55395 16.6317C5.0643 16.6317 3.84892 16.3137 2.84327 15.6631C2.47758 15.4234 1.62789 14.6456 1.38051 14.3179C0.955669 13.7505 0.627623 12.9238 0.477045 12.0433C0.391001 11.5639 0.385623 11.2508 0.423267 9.11806C0.444779 7.8071 0.46629 6.67223 0.477045 6.60375C0.503934 6.35916 0.869624 6.19774 1.38051 6.19774C1.85376 6.19774 2.12265 6.38362 2.31625 6.84344C2.38616 7.00976 2.41305 7.31793 2.43456 8.35007C2.46683 9.64636 2.46683 9.64636 2.62278 9.94964C2.71421 10.1306 2.87016 10.3361 3.00461 10.4486C3.19821 10.61 3.30039 10.654 3.75212 10.747C4.75777 10.9524 5.43537 11.4074 5.77955 12.0922C5.90861 12.3563 5.95701 12.4102 6.06457 12.4102C6.29044 12.4102 6.29044 12.2438 6.07532 11.8525C5.65586 11.0747 4.75777 10.5171 3.7091 10.3752C3.38105 10.3312 3.13905 10.1502 2.97234 9.80779C2.85403 9.5632 2.84327 9.47515 2.81638 8.25224C2.7895 7.10759 2.77336 6.9266 2.67656 6.71136L2.56901 6.46678L2.9347 4.39271C3.31652 2.2306 3.37567 2.01047 3.7091 1.61425C3.92421 1.35499 4.26839 1.19846 4.64483 1.19357C5.04279 1.18867 5.19875 1.30118 5.32781 1.69252C5.42999 2.01537 5.4031 2.49475 5.24177 3.40949C5.17723 3.74701 5.01052 4.7547 4.85994 5.65476C4.58568 7.34728 4.58568 7.42065 4.81154 7.42065C4.94061 7.42065 4.99977 7.30815 5.04279 6.9804C5.0643 6.83365 5.23639 5.77706 5.42461 4.63241C5.61283 3.48776 5.7903 2.35289 5.82257 2.10342C5.9355 1.26694 6.18826 0.758207 6.63461 0.484274C6.88737 0.327742 7.38213 0.347307 7.65102 0.518517Z" fill="#333333"/>
<path d="M6.83359 0.0391331C6.52168 0.107616 6.35497 0.200558 6.10221 0.450033C5.8871 0.660374 5.61283 1.10552 5.61283 1.24737C5.61283 1.28162 5.53755 1.2327 5.4515 1.13976C4.99439 0.670158 4.05328 0.743532 3.49936 1.30118C3.03687 1.76589 2.92932 2.10342 2.54212 4.38782C2.38616 5.28789 2.25172 6.03631 2.24634 6.0461C2.23558 6.05588 2.11727 6.01186 1.98283 5.95316C1.47194 5.72814 0.423267 5.90424 0.181267 6.25644C0.0737111 6.41297 -0.0553559 10.7959 0.025311 11.603C0.143622 12.8162 0.503934 13.7994 1.12238 14.5869C1.49345 15.0663 2.56901 15.9713 3.05301 16.2208C4.27377 16.8518 5.81719 17.1061 7.47355 16.9594C8.33937 16.886 8.84489 16.7686 9.3988 16.5191C10.4851 16.0349 11.3079 15.1837 11.6521 14.1956C11.7596 13.8874 11.9586 12.9531 11.964 12.7134L11.9694 12.5324L12.0178 12.7281C12.0393 12.8357 12.1146 13.1781 12.1737 13.4863C12.3781 14.4793 12.7223 15.1104 13.3784 15.712C13.8247 16.118 14.2442 16.3773 14.8196 16.6072C15.3251 16.8029 15.7661 16.8909 16.6373 16.9643C18.4066 17.111 20.0307 16.7784 21.2891 16.0153C21.687 15.7707 22.6766 14.8658 22.9455 14.4989C23.4456 13.8141 23.7736 12.9727 23.935 11.9797C24.0156 11.4612 24.0156 11.1726 23.9672 8.89304C23.9135 6.52548 23.9027 6.37384 23.8059 6.25155C23.4671 5.84065 22.4238 5.6939 21.929 5.9874C21.8538 6.02653 21.7892 6.05588 21.7731 6.0461C21.7623 6.03142 21.6171 5.25365 21.4558 4.31445C21.2891 3.37036 21.1278 2.48986 21.0955 2.35778C20.9449 1.75611 20.547 1.22292 20.0845 0.993008C19.5359 0.723967 18.8476 0.782665 18.5518 1.12019L18.4281 1.26694L18.2506 0.914742C17.7505 -0.063591 16.6373 -0.303284 15.9221 0.420683C15.7123 0.631025 15.5617 1.00768 15.5617 1.31097V1.49685L15.3359 1.40391C15.0509 1.28651 14.8626 1.28162 14.4862 1.38434C14.1044 1.48707 13.9377 1.60936 13.7548 1.91264C13.5397 2.26484 13.5182 2.86162 13.6795 3.75191C13.7441 4.10411 13.7871 4.40739 13.7763 4.41717C13.7602 4.42696 13.6688 4.41228 13.5666 4.38782C13.2869 4.31445 12.9965 4.32912 12.7761 4.43185C12.5233 4.54925 12.4211 4.65686 12.2867 4.9308C12.1415 5.22919 12.12 5.58139 12.2168 6.24666C12.2652 6.60375 12.2974 7.2788 12.3028 8.10549C12.3082 9.24035 12.292 9.48494 12.1845 10.0866C12.1146 10.4633 12.0393 10.8497 12.0124 10.9427L11.9694 11.1139L11.964 10.9427C11.9586 10.8497 11.9048 10.5171 11.8457 10.2089C11.6951 9.45559 11.6467 7.65056 11.7489 6.72115C11.8618 5.73792 11.8457 5.14114 11.7059 4.90145C11.4155 4.40739 10.9422 4.2264 10.3829 4.40739C10.2001 4.47098 10.184 4.46609 10.2055 4.39271C10.3076 4.06986 10.4636 2.90565 10.4421 2.60726C10.3937 1.99091 10.0925 1.55066 9.60853 1.39902C9.32889 1.31097 8.85026 1.31586 8.64591 1.4088L8.47382 1.48707L8.44155 1.21313C8.33937 0.396225 7.61875 -0.132074 6.83359 0.0391331ZM17.4063 0.508734C17.8419 0.7631 18.0947 1.32564 18.2238 2.33821C18.2614 2.67574 18.4066 3.60026 18.541 4.39271C18.6755 5.18516 18.8368 6.1586 18.9014 6.56461C18.9659 6.96573 19.0466 7.32771 19.0842 7.36685C19.1971 7.47446 19.38 7.38641 19.38 7.22988C19.38 7.08802 19.0143 4.79872 18.7562 3.33611C18.5948 2.43116 18.5948 1.73654 18.7508 1.4675C18.8852 1.24248 19.1218 1.13976 19.4499 1.174C19.9769 1.2327 20.4018 1.59468 20.6222 2.1719C20.6814 2.31865 20.8858 3.33611 21.0794 4.43185L21.4343 6.41786L21.3106 6.76028C21.203 7.06845 21.1869 7.22988 21.16 8.37453L21.1278 9.64636L20.9664 9.91051C20.8804 10.0524 20.7513 10.204 20.6868 10.2431C20.6222 10.2823 20.3534 10.3557 20.0952 10.4095C19.4176 10.5415 18.8906 10.791 18.4658 11.1823C17.8796 11.7204 17.5784 12.3857 17.9226 12.3857C18.0302 12.3857 18.0893 12.327 18.2345 12.0628C18.3313 11.8867 18.5034 11.6471 18.611 11.5297C18.982 11.1334 19.6811 10.8106 20.348 10.7225C20.8535 10.654 21.2407 10.3263 21.4504 9.79311C21.5311 9.59255 21.558 9.31373 21.5849 8.25224C21.6225 6.88257 21.6386 6.78963 21.9075 6.47656C22.085 6.276 22.2947 6.19774 22.6712 6.19774C22.9939 6.19774 23.4079 6.31514 23.4832 6.43254C23.5047 6.457 23.5478 7.54784 23.58 8.8588C23.6446 11.4416 23.6231 11.828 23.3864 12.6792C23.1283 13.6135 22.7734 14.2103 22.0474 14.9147C21.4988 15.4479 21.1278 15.712 20.5254 15.9957C19.423 16.5143 18.1646 16.7197 16.7502 16.6121C15.7607 16.5387 15.3413 16.4507 14.7067 16.1718C14.2334 15.9615 14.0882 15.8637 13.7118 15.5261C13.0396 14.9098 12.7761 14.4304 12.5394 13.4032C12.4319 12.9482 12.4157 12.733 12.4157 11.8232C12.4211 10.928 12.4372 10.6834 12.5448 10.1844C12.7008 9.4458 12.7599 7.8022 12.6631 6.90703C12.6255 6.58418 12.5824 6.08523 12.5663 5.79662C12.5394 5.32702 12.5448 5.25854 12.6577 5.05309C12.8083 4.75959 13.0127 4.66176 13.3461 4.70578C13.7172 4.7547 13.9108 4.96015 14.0237 5.41018C14.2281 6.2222 14.4055 7.60654 14.4485 8.69249C14.4593 9.00066 14.4647 9.01044 14.6045 9.02512C14.8089 9.04469 14.8304 8.92729 14.7927 8.06146C14.7443 7.05867 14.5776 5.96783 14.3249 4.99928C14.1635 4.39271 13.9484 3.10621 13.9484 2.76379C13.9484 2.12787 14.1797 1.79035 14.6744 1.69741C15.024 1.62892 15.2498 1.7023 15.4757 1.94688C15.6747 2.15722 15.7069 2.23549 15.9167 3.04261C16.2501 4.28999 16.5297 6.0412 16.6158 7.3962C16.6373 7.6897 16.6749 7.9832 16.6965 8.04189C16.7449 8.16908 16.9116 8.18865 17.0084 8.08592C17.1213 7.96363 16.8255 5.37105 16.5513 4.04541C16.3845 3.24317 16.1372 2.31376 16.0242 2.06428C15.9113 1.82948 15.9113 1.24248 16.0189 0.953875C16.2286 0.401115 16.8739 0.195667 17.4063 0.508734ZM7.65102 0.518517C7.88764 0.670158 8.03284 0.983225 8.07048 1.40391C8.09737 1.69252 8.08124 1.80502 7.96293 2.12298C7.56497 3.20893 7.23693 4.93569 7.03257 6.99019C6.94115 7.96852 6.9519 8.1544 7.11324 8.1544C7.28533 8.1544 7.32297 8.05168 7.38213 7.37174C7.50582 6.00207 7.69404 4.69111 7.90377 3.78615C8.31786 1.98112 8.48995 1.69741 9.14604 1.69741C9.67844 1.69741 9.99036 1.9958 10.0549 2.55834C10.0979 2.90565 9.93658 3.91333 9.67307 5.02863C9.38804 6.21241 9.26435 7.05867 9.23209 8.05168C9.2052 8.87837 9.21058 8.95664 9.29662 9.01534C9.36115 9.05936 9.42569 9.06425 9.48484 9.0349C9.56551 8.99577 9.58164 8.87348 9.60853 8.12016C9.65156 6.99019 9.89893 5.44442 10.1033 5.05309C10.2162 4.84275 10.469 4.71556 10.7916 4.71067C11.0175 4.70578 11.0713 4.72535 11.2057 4.86231C11.4908 5.15092 11.5176 5.38572 11.3886 6.42276C11.2595 7.44022 11.3079 9.52896 11.4746 10.3067C11.5768 10.7617 11.5983 11.0454 11.6037 11.7742C11.6144 13.7798 11.0928 15.0517 9.95271 15.8196C9.04386 16.4262 8.16191 16.6365 6.55395 16.6317C5.0643 16.6317 3.84892 16.3137 2.84327 15.6631C2.47758 15.4234 1.62789 14.6456 1.38051 14.3179C0.955669 13.7505 0.627623 12.9238 0.477045 12.0433C0.391001 11.5639 0.385623 11.2508 0.423267 9.11806C0.444779 7.8071 0.46629 6.67223 0.477045 6.60375C0.503934 6.35916 0.869624 6.19774 1.38051 6.19774C1.85376 6.19774 2.12265 6.38362 2.31625 6.84344C2.38616 7.00976 2.41305 7.31793 2.43456 8.35007C2.46683 9.64636 2.46683 9.64636 2.62278 9.94964C2.71421 10.1306 2.87016 10.3361 3.00461 10.4486C3.19821 10.61 3.30039 10.654 3.75212 10.747C4.75777 10.9524 5.43537 11.4074 5.77955 12.0922C5.90861 12.3563 5.95701 12.4102 6.06457 12.4102C6.29044 12.4102 6.29044 12.2438 6.07532 11.8525C5.65586 11.0747 4.75777 10.5171 3.7091 10.3752C3.38105 10.3312 3.13905 10.1502 2.97234 9.80779C2.85403 9.5632 2.84327 9.47515 2.81638 8.25224C2.7895 7.10759 2.77336 6.9266 2.67656 6.71136L2.56901 6.46678L2.9347 4.39271C3.31652 2.2306 3.37567 2.01047 3.7091 1.61425C3.92421 1.35499 4.26839 1.19846 4.64483 1.19357C5.04279 1.18867 5.19875 1.30118 5.32781 1.69252C5.42999 2.01537 5.4031 2.49475 5.24177 3.40949C5.17723 3.74701 5.01052 4.7547 4.85994 5.65476C4.58568 7.34728 4.58568 7.42065 4.81154 7.42065C4.94061 7.42065 4.99977 7.30815 5.04279 6.9804C5.0643 6.83365 5.23639 5.77706 5.42461 4.63241C5.61283 3.48776 5.7903 2.35289 5.82257 2.10342C5.9355 1.26694 6.18826 0.758207 6.63461 0.484274C6.88737 0.327742 7.38213 0.347307 7.65102 0.518517Z" stroke="#333333" stroke-width="0.5" mask="url(#path-1-outside-1_49_2936)"/>
</g>
</g>
</g>
<defs>
<clipPath id="clip0_49_2936">
<rect width="24" height="17" fill="white"/>
</clipPath>
</defs>
</svg>
