<svg width="375" height="344" viewBox="0 0 375 344" fill="none" xmlns="http://www.w3.org/2000/svg">
<g clip-path="url(#clip0_16_1142)">
<path d="M0 0H375V244C375 299.228 330.228 344 275 344H100C44.7715 344 0 299.228 0 244V0Z" fill="url(#paint0_linear_16_1142)"/>
<g clip-path="url(#clip1_16_1142)">
<g opacity="0.53">
<g opacity="0.53">
<path opacity="0.21" d="M266.313 147.576C109.6 139.972 36.2894 85.3247 -29.1179 33.5742L-40.1577 39.7629C-40.1577 39.7629 86.0333 153.921 281.424 148.823C476.815 143.725 523.624 69.3755 523.624 69.3755L521.52 66.674C498.661 85.6104 405.589 154.33 266.313 147.576Z" fill="#C5B7FF"/>
<path opacity="0.21" d="M266.313 141.738C266.313 141.738 118.464 142.037 3.52732 15.2677L-6.76562 21.0409C10.7097 44.049 91.5467 136.705 266.319 146.349C380.607 152.661 461.833 99.2543 510.415 52.4133L508.973 50.5625C508.973 50.5625 414.336 151.265 266.319 138.212C118.302 125.159 39.6663 -5 39.6663 -5L25.8471 2.74732C45.6343 38.094 110.762 128.107 266.313 141.738Z" fill="#C5B7FF"/>
</g>
<path opacity="0.21" d="M-123.105 153.706C-295.391 137.459 -326.302 127.575 -304.08 121.568C-309.197 120.769 -314.139 119.983 -318.847 119.23C-398.437 124.665 -418.757 135.471 -144.672 156.876C268.8 189.164 430.357 171.656 478.471 163.35C477.821 163.454 287.275 192.404 -123.105 153.706Z" fill="#C5B7FF"/>
<path opacity="0.21" d="M-115.417 133.348C356.683 185.404 470.814 162.558 495.459 153.739V144.985C460.495 151.187 338.013 168.656 145.602 150.843C145.602 150.843 347.695 167.175 495.459 140.316V132.854C350.371 171.961 120.036 150.44 -17.3055 131.763C42.9391 144.401 86.6306 148.823 96.7352 149.739C97.4821 149.804 98.2224 149.868 98.9757 149.933C98.9757 149.933 98.2029 149.875 96.7352 149.739C-24.4424 139.322 -111.819 119.392 -134.541 113.846C-148.899 113.95 -208.196 114.47 -263.823 116.502C-265.759 116.645 -267.661 116.788 -269.525 116.938C-231.587 120.749 -181.103 126.107 -115.417 133.348Z" fill="#C5B7FF"/>
</g>
<g clip-path="url(#clip2_16_1142)">
<g opacity="0.53">
<g opacity="0.53">
<path opacity="0.21" d="M268.313 153.576C111.6 145.972 38.2894 91.3247 -27.1179 39.5742L-38.1577 45.7629C-38.1577 45.7629 88.0333 159.921 283.424 154.823C478.815 149.725 525.624 75.3755 525.624 75.3755L523.52 72.674C500.661 91.6104 407.589 160.33 268.313 153.576Z" fill="#7C5BFF"/>
<path opacity="0.21" d="M268.313 147.738C268.313 147.738 120.464 148.037 5.52732 21.2677L-4.76562 27.0409C12.7097 50.049 93.5467 142.705 268.319 152.349C382.607 158.661 463.833 105.254 512.415 58.4133L510.973 56.5625C510.973 56.5625 416.336 157.265 268.319 144.212C120.302 131.159 41.6663 1 41.6663 1L27.8471 8.74732C47.6343 44.094 112.762 134.107 268.313 147.738Z" fill="#7C5BFF"/>
</g>
<path opacity="0.21" d="M-121.105 159.706C-293.391 143.459 -324.302 133.575 -302.08 127.568C-307.197 126.769 -312.139 125.983 -316.847 125.23C-396.437 130.665 -416.757 141.471 -142.672 162.876C270.8 195.164 432.357 177.656 480.471 169.35C479.821 169.454 289.275 198.404 -121.105 159.706Z" fill="#7C5BFF"/>
<path opacity="0.21" d="M-113.417 139.348C358.683 191.404 472.814 168.558 497.459 159.739V150.985C462.495 157.187 340.013 174.656 147.602 156.843C147.602 156.843 349.695 173.175 497.459 146.316V138.854C352.371 177.961 122.036 156.44 -15.3055 137.763C44.9391 150.401 88.6306 154.823 98.7352 155.739C99.4821 155.804 100.222 155.868 100.976 155.933C100.976 155.933 100.203 155.875 98.7352 155.739C-22.4424 145.322 -109.819 125.392 -132.541 119.846C-146.899 119.95 -206.196 120.47 -261.823 122.502C-263.759 122.645 -265.661 122.788 -267.525 122.938C-229.587 126.749 -179.103 132.107 -113.417 139.348Z" fill="#7C5BFF"/>
</g>
<g clip-path="url(#clip3_16_1142)">
<g opacity="0.39">
<path d="M44.7478 14.8491C44.7478 15.5272 44.3594 16.0821 43.8845 16.0821C43.4097 16.0821 43.0212 15.5272 43.0212 14.8491C43.0212 14.1709 43.4097 13.616 43.8845 13.616C44.3594 13.6006 44.7478 14.1555 44.7478 14.8491Z" fill="white"/>
<path d="M105.017 47.3864C105.017 48.0646 104.629 48.6194 104.154 48.6194C103.679 48.6194 103.291 48.0646 103.291 47.3864C103.291 46.7082 103.679 46.1533 104.154 46.1533C104.629 46.1533 105.017 46.7082 105.017 47.3864Z" fill="white"/>
<path d="M309.781 7.72815C309.781 8.40633 309.393 8.9612 308.918 8.9612C308.443 8.9612 308.055 8.40633 308.055 7.72815C308.055 7.04996 308.443 6.49509 308.918 6.49509C309.393 6.49509 309.781 7.04996 309.781 7.72815Z" fill="white"/>
<path d="M246.393 53.2588C246.393 53.5979 246.199 53.8754 245.962 53.8754C245.724 53.8754 245.53 53.5979 245.53 53.2588C245.53 52.9197 245.724 52.6423 245.962 52.6423C246.199 52.6423 246.393 52.9197 246.393 53.2588Z" fill="white"/>
<path d="M264.987 14.4637C265.225 14.4637 265.418 14.1877 265.418 13.8472C265.418 13.5067 265.225 13.2307 264.987 13.2307C264.748 13.2307 264.555 13.5067 264.555 13.8472C264.555 14.1877 264.748 14.4637 264.987 14.4637Z" fill="white"/>
<path d="M224.293 41.776C224.293 42.1151 224.099 42.3925 223.861 42.3925C223.624 42.3925 223.429 42.1151 223.429 41.776C223.429 41.4369 223.624 41.1595 223.861 41.1595C224.099 41.1595 224.293 41.4369 224.293 41.776Z" fill="white"/>
<path d="M202.689 11.2269C202.689 11.566 202.494 11.8435 202.257 11.8435C202.02 11.8435 201.825 11.566 201.825 11.2269C201.825 10.8879 202.02 10.6104 202.257 10.6104C202.494 10.595 202.689 10.8724 202.689 11.2269Z" fill="white"/>
<path d="M162.901 32.898C162.901 33.2371 162.707 33.5145 162.47 33.5145C162.232 33.5145 162.038 33.2371 162.038 32.898C162.038 32.5589 162.232 32.2814 162.47 32.2814C162.707 32.2814 162.901 32.5589 162.901 32.898Z" fill="white"/>
<path d="M120.384 55.8174C120.384 56.1565 120.19 56.434 119.952 56.434C119.715 56.434 119.521 56.1565 119.521 55.8174C119.521 55.4783 119.715 55.2009 119.952 55.2009C120.19 55.2009 120.384 55.4783 120.384 55.8174Z" fill="white"/>
<path d="M88.5278 7.48153C88.7662 7.48153 88.9595 7.2055 88.9595 6.865C88.9595 6.5245 88.7662 6.24847 88.5278 6.24847C88.2894 6.24847 88.0962 6.5245 88.0962 6.865C88.0962 7.2055 88.2894 7.48153 88.5278 7.48153Z" fill="white"/>
<path d="M36.104 48.6195C36.104 48.9585 35.9098 49.236 35.6724 49.236C35.435 49.236 35.2407 48.9585 35.2407 48.6195C35.2407 48.2804 35.435 48.0029 35.6724 48.0029C35.9098 48.0029 36.104 48.2804 36.104 48.6195Z" fill="white"/>
<path d="M4.43165 6.23306C4.67004 6.23306 4.8633 5.95703 4.8633 5.61653C4.8633 5.27603 4.67004 5 4.43165 5C4.19326 5 4 5.27603 4 5.61653C4 5.95703 4.19326 6.23306 4.43165 6.23306Z" fill="white"/>
<path d="M19.8091 34.3776C19.8091 34.7167 19.6149 34.9942 19.3775 34.9942C19.14 34.9942 18.9458 34.7167 18.9458 34.3776C18.9458 34.0385 19.14 33.7611 19.3775 33.7611C19.6149 33.7611 19.8091 34.0385 19.8091 34.3776Z" fill="white"/>
<path d="M339.878 54.0757C339.878 54.4148 339.684 54.6923 339.446 54.6923C339.209 54.6923 339.015 54.4148 339.015 54.0757C339.015 53.7366 339.209 53.4592 339.446 53.4592C339.684 53.4592 339.878 53.7366 339.878 54.0757Z" fill="white"/>
<path d="M299.853 30.8172C300.33 30.8172 300.717 30.2651 300.717 29.5841C300.717 28.9031 300.33 28.351 299.853 28.351C299.377 28.351 298.99 28.9031 298.99 29.5841C298.99 30.2651 299.377 30.8172 299.853 30.8172Z" fill="white"/>
<path d="M254.735 61.7669C254.735 62.4451 254.346 63 253.872 63C253.397 63 253.008 62.4451 253.008 61.7669C253.008 61.0888 253.397 60.5339 253.872 60.5339C254.346 60.5185 254.735 61.0734 254.735 61.7669Z" fill="white"/>
</g>
</g>
<g clip-path="url(#clip4_16_1142)">
<g opacity="0.39">
<path d="M44.7478 140.849C44.7478 141.527 44.3594 142.082 43.8845 142.082C43.4097 142.082 43.0212 141.527 43.0212 140.849C43.0212 140.171 43.4097 139.616 43.8845 139.616C44.3594 139.601 44.7478 140.155 44.7478 140.849Z" fill="white"/>
<path d="M105.017 173.386C105.017 174.065 104.629 174.619 104.154 174.619C103.679 174.619 103.291 174.065 103.291 173.386C103.291 172.708 103.679 172.153 104.154 172.153C104.629 172.153 105.017 172.708 105.017 173.386Z" fill="white"/>
<path d="M309.781 133.728C309.781 134.406 309.393 134.961 308.918 134.961C308.443 134.961 308.055 134.406 308.055 133.728C308.055 133.05 308.443 132.495 308.918 132.495C309.393 132.495 309.781 133.05 309.781 133.728Z" fill="white"/>
<path d="M264.987 140.464C265.225 140.464 265.418 140.188 265.418 139.847C265.418 139.507 265.225 139.231 264.987 139.231C264.748 139.231 264.555 139.507 264.555 139.847C264.555 140.188 264.748 140.464 264.987 140.464Z" fill="white"/>
<path d="M224.293 167.776C224.293 168.115 224.099 168.393 223.861 168.393C223.624 168.393 223.429 168.115 223.429 167.776C223.429 167.437 223.624 167.159 223.861 167.159C224.099 167.159 224.293 167.437 224.293 167.776Z" fill="white"/>
<path d="M202.689 137.227C202.689 137.566 202.494 137.843 202.257 137.843C202.02 137.843 201.825 137.566 201.825 137.227C201.825 136.888 202.02 136.61 202.257 136.61C202.494 136.595 202.689 136.872 202.689 137.227Z" fill="white"/>
<path d="M162.901 158.898C162.901 159.237 162.707 159.514 162.47 159.514C162.232 159.514 162.038 159.237 162.038 158.898C162.038 158.559 162.232 158.281 162.47 158.281C162.707 158.281 162.901 158.559 162.901 158.898Z" fill="white"/>
<path d="M88.5278 133.482C88.7662 133.482 88.9595 133.206 88.9595 132.865C88.9595 132.525 88.7662 132.248 88.5278 132.248C88.2894 132.248 88.0962 132.525 88.0962 132.865C88.0962 133.206 88.2894 133.482 88.5278 133.482Z" fill="white"/>
<path d="M36.104 174.619C36.104 174.959 35.9098 175.236 35.6724 175.236C35.435 175.236 35.2407 174.959 35.2407 174.619C35.2407 174.28 35.435 174.003 35.6724 174.003C35.9098 174.003 36.104 174.28 36.104 174.619Z" fill="white"/>
<path d="M4.43165 132.233C4.67004 132.233 4.8633 131.957 4.8633 131.617C4.8633 131.276 4.67004 131 4.43165 131C4.19326 131 4 131.276 4 131.617C4 131.957 4.19326 132.233 4.43165 132.233Z" fill="white"/>
<path d="M19.8091 160.378C19.8091 160.717 19.6149 160.994 19.3775 160.994C19.14 160.994 18.9458 160.717 18.9458 160.378C18.9458 160.039 19.14 159.761 19.3775 159.761C19.6149 159.761 19.8091 160.039 19.8091 160.378Z" fill="white"/>
<path d="M299.853 156.817C300.33 156.817 300.717 156.265 300.717 155.584C300.717 154.903 300.33 154.351 299.853 154.351C299.377 154.351 298.99 154.903 298.99 155.584C298.99 156.265 299.377 156.817 299.853 156.817Z" fill="white"/>
</g>
</g>
</g>
</g>
<circle cx="17.5" cy="183.5" r="17.5" fill="url(#paint1_linear_16_1142)"/>
<path d="M424 160C424 160 365.841 163.76 351.933 176.931C338.026 190.102 318.075 193.861 282.815 176.931C270.814 171.156 244.181 218.336 228.731 207.057C213.277 195.754 216.371 191.183 206.113 208.654C198.318 221.924 181.246 200.84 174.082 208.654C166.918 216.468 140.271 209.809 121.821 187.841C107.352 170.615 101.169 205.189 90.2105 195.778C79.2516 186.367 65.7645 170.615 52.2821 176.955C41.398 182.066 -21.9063 160 -21.9063 160L-24 288L424 265.393V160Z" fill="#37485B" fill-opacity="0.97"/>
<g clip-path="url(#clip5_16_1142)">
<path d="M-7 201C-7 201 51.1591 205.758 65.0668 222.428C78.9745 239.098 98.9247 243.856 134.185 222.428C146.186 215.119 172.819 274.831 188.269 260.557C203.723 246.251 200.629 240.466 210.887 262.578C218.682 279.372 235.754 252.688 242.918 262.578C250.082 272.468 276.729 264.04 295.179 236.236C309.648 214.435 315.831 258.193 326.79 246.282C337.748 234.37 351.235 214.435 364.718 222.459C375.602 228.928 438.906 201 438.906 201L441 363L-7 334.388V201Z" fill="#45607D"/>
</g>
<path d="M0 266.247C0.578134 266.247 1.15431 266.247 1.86331 266.247C1.81058 265.615 1.86917 265.076 1.70901 264.609C0.962906 262.421 1.52932 260.513 2.86137 258.759C4.34382 256.808 6.32041 255.429 8.35755 254.134C8.86537 253.812 9.31069 253.56 9.23061 252.802C9.1935 252.452 9.46695 251.97 9.74625 251.702C10.6076 250.88 10.8439 249.868 10.8439 248.749C10.8459 247.419 10.8439 246.091 10.8439 244.761C10.9826 244.761 11.1213 244.761 11.2599 244.759C11.2599 246.105 11.2658 247.452 11.258 248.798C11.2521 249.919 11.4904 250.927 12.3576 251.741C12.6193 251.987 12.8928 252.458 12.8361 252.765C12.6818 253.589 13.219 253.816 13.7385 254.146C15.7776 255.445 17.7347 256.847 19.2288 258.783C20.5609 260.507 21.0667 262.404 20.389 264.554C20.2386 265.031 20.2835 265.57 20.2288 266.191C20.8577 266.222 21.3929 266.249 21.9984 266.279C21.9984 266.757 21.9984 267.195 21.9984 267.738C21.4691 267.769 20.9359 267.8 20.3382 267.835C20.3382 274.404 20.3382 280.925 20.3382 287.48C21.473 287.443 22.4535 287.176 23.1254 286.256C23.5336 285.695 23.8305 285.115 23.4535 284.369C20.7269 278.972 22.0863 274.23 25.8539 269.917C28.9731 266.347 32.8247 263.681 36.8482 261.253C37.4752 260.874 37.7779 260.579 37.5963 259.742C37.3443 258.577 38.0006 257.626 38.776 256.786C39.1959 256.331 39.5826 255.847 39.9362 255.433C40.0846 254.929 40.2331 254.419 40.3854 253.909C40.4948 253.55 40.6999 253.196 40.7116 252.837C40.8366 248.642 40.9323 244.446 41.0378 240.251C41.0417 240.06 41.0631 239.868 41.2116 239.677C41.2936 242.696 41.3717 245.714 41.4557 248.734C41.4948 250.163 41.5163 251.595 41.6061 253.023C41.6276 253.372 41.9186 253.698 42.0319 254.052C42.1706 254.482 42.2507 254.929 42.3542 255.355C42.8171 255.898 43.362 256.501 43.8698 257.136C44.5241 257.952 44.9792 258.888 44.6999 259.935C44.5144 260.628 44.8425 260.839 45.2976 261.154C47.9402 262.988 50.6434 264.745 53.1708 266.728C55.6376 268.664 57.749 270.98 59.1201 273.865C60.4599 276.687 60.6924 279.58 59.6064 282.543C59.5419 282.716 59.5224 282.906 59.3974 283.463C60.6396 282.908 61.71 282.556 62.626 281.966C63.0615 281.685 63.2608 280.97 63.4561 280.412C63.5791 280.062 63.501 279.638 63.501 279.248C63.5029 266.521 63.5029 253.792 63.5029 241.065C63.5029 240.712 63.5029 240.36 63.5029 239.956C63.0811 239.897 62.7393 239.851 62.2959 239.79C62.2783 239.497 62.2588 239.196 62.2393 238.862C62.6748 238.8 63.0205 238.749 63.4815 238.683C63.458 238.302 63.5029 237.911 63.4014 237.561C62.9053 235.87 63.2686 234.343 64.4834 233.145C65.6084 232.036 66.9327 231.128 68.1378 230.095C68.4171 229.854 68.5812 229.472 68.7765 229.141C69.0636 228.655 69.4679 228.184 69.5773 227.657C69.8331 226.405 69.9464 225.122 70.0656 224.221C70.171 225.038 70.1066 226.329 70.5402 227.423C71.0011 228.587 71.423 229.837 72.7101 230.616C73.9347 231.356 75.0012 232.431 75.968 233.509C76.9758 234.632 77.261 236.028 76.7805 237.53C76.6692 237.88 76.6907 238.272 76.6457 238.69C77.1008 238.741 77.4485 238.78 77.8997 238.829C77.9211 239.124 77.9426 239.425 77.9661 239.774C77.5129 239.831 77.136 239.878 76.6985 239.933C76.6985 253.353 76.6985 266.749 76.6985 280.14C78.4309 280.486 80.0442 279.213 80.218 277.382C80.2434 277.125 80.2259 276.863 80.2259 276.601C80.2259 253.847 80.2259 231.095 80.2259 208.34C80.2259 207.957 80.2259 207.575 80.2259 207.102C79.4602 207.067 78.7922 207.038 78.0325 207.002C78.0325 206.422 78.0325 205.862 78.0325 205.196C78.7219 205.164 79.4173 205.135 80.2513 205.098C80.2024 204.448 80.2766 203.84 80.0989 203.321C79.1477 200.53 79.8079 198.086 81.5657 195.84C83.3822 193.518 85.7631 191.873 88.2084 190.313C88.8588 189.899 89.4252 189.555 89.2924 188.613C89.2436 188.262 89.4858 187.738 89.767 187.49C91.146 186.274 91.2553 184.674 91.2553 183.02C91.2534 181.363 91.2553 179.707 91.2553 178.051C91.4155 178.051 91.5757 178.051 91.7378 178.049C91.7378 179.93 91.7475 181.811 91.7339 183.69C91.7241 185.078 92.0561 186.297 93.0718 187.34C93.4409 187.719 93.7104 188.383 93.689 188.903C93.6616 189.559 93.939 189.795 94.4058 190.088C96.7808 191.576 99.0992 193.143 100.947 195.297C102.976 197.662 103.992 200.248 102.838 203.377C102.662 203.854 102.812 204.452 102.812 205.092C103.547 205.129 104.242 205.163 104.99 205.2C104.99 205.811 104.99 206.348 104.99 206.995C104.281 207.028 103.586 207.059 102.83 207.094C102.83 230.61 102.83 254.062 102.83 277.505C104.199 277.685 105.416 277.181 105.927 276.119C106.111 275.736 106.191 275.136 106.021 274.773C104.023 270.499 105.064 266.798 108.078 263.46C110.412 260.874 113.213 258.867 116.189 257.099C116.791 256.741 116.961 256.363 117.047 255.669C117.142 254.894 117.48 254.009 118.012 253.456C119.037 252.388 119.363 251.124 119.428 249.775C119.547 247.306 119.555 244.831 119.613 242.358C119.617 242.212 119.652 242.063 119.672 241.917C119.762 241.919 119.853 241.919 119.943 241.921C119.943 243.126 119.932 244.329 119.947 245.534C119.965 246.933 119.945 248.337 120.057 249.728C120.168 251.132 120.439 252.493 121.598 253.523C122.297 254.146 122.633 254.97 122.525 255.976C122.494 256.273 122.797 256.706 123.072 256.915C125.521 258.788 128.1 260.505 130.438 262.505C132.68 264.423 134.272 266.867 134.461 269.941C134.527 271.019 134.297 272.117 134.205 273.191C135.119 273.025 135.949 271.966 136.112 270.679C136.139 270.455 136.129 270.224 136.129 269.996C136.135 253.169 136.135 236.341 136.135 219.512C136.135 219.255 136.135 218.997 136.135 218.645C135.59 218.61 135.088 218.577 134.502 218.54C134.502 218.143 134.502 217.743 134.502 217.229C134.979 217.194 135.481 217.159 136.151 217.11C136.098 216.59 136.125 216.077 135.986 215.612C135.43 213.751 135.801 212.081 136.938 210.553C138.342 208.665 140.197 207.297 142.186 206.096C142.635 205.825 142.938 205.582 142.893 204.967C142.869 204.629 143.092 204.194 143.34 203.932C144.106 203.123 144.334 202.164 144.332 201.104C144.328 199.653 144.332 198.203 144.487 196.752C144.563 198.44 144.604 200.129 144.733 201.813C144.776 202.362 144.922 202.989 145.241 203.413C145.733 204.065 146.338 204.588 146.192 205.536C146.168 205.682 146.586 205.907 146.811 206.081C148.223 207.17 149.733 208.159 151.032 209.37C152.907 211.118 153.832 213.249 152.928 215.876C152.811 216.215 152.913 216.631 152.913 217.098C153.416 217.137 153.891 217.174 154.444 217.217C154.444 217.628 154.444 218.032 154.444 218.54C153.973 218.565 153.471 218.592 152.934 218.622C152.934 235.948 152.934 253.208 152.934 270.47C156.051 270.476 157.893 267.519 156.536 264.824C155.045 261.867 154.022 258.792 153.909 255.435C153.766 251.185 155.077 247.374 157.252 243.814C160.022 239.278 163.717 235.548 167.919 232.388C171.993 229.323 176.298 226.565 180.503 223.676C180.823 223.456 181.163 223.264 181.579 223.007C180.112 218.549 183.118 216.186 186.009 213.778C185.231 213.004 185.212 212.184 186.067 211.293C186.556 210.786 186.737 210.282 186.753 209.583C186.929 202.004 187.144 194.428 187.349 186.852C187.353 186.697 187.382 186.545 187.597 186.381C187.628 187.022 187.671 187.662 187.688 188.303C187.884 195.522 188.069 202.741 188.288 209.959C188.3 210.327 188.571 210.696 188.753 211.049C189.003 211.532 189.397 211.971 189.513 212.479C189.597 212.844 189.325 213.292 189.159 213.897C191.763 216.133 194.884 218.446 193.417 222.975C195.39 224.216 197.366 225.405 199.286 226.678C204.857 230.376 210.185 234.374 214.578 239.479C217.457 242.825 219.718 246.513 220.685 250.874C221.769 255.763 220.8 260.367 218.499 264.716C217.726 266.179 217.978 267.492 218.695 268.781C219.39 270.029 220.599 270.47 222.066 270.517C222.066 253.218 222.066 235.956 222.066 218.635C221.566 218.604 221.091 218.573 220.548 218.538C220.548 218.108 220.548 217.708 220.548 217.231C221.031 217.192 221.505 217.155 222.138 217.102C222.105 216.618 222.168 216.124 222.025 215.696C221.316 213.557 221.822 211.622 223.318 210.11C224.791 208.622 226.543 207.409 228.187 206.094C228.535 205.815 228.925 205.694 228.822 205.055C228.763 204.696 229.103 204.202 229.384 203.872C229.992 203.157 230.267 202.364 230.297 201.436C230.343 199.942 230.441 198.451 230.672 196.959C230.672 198.393 230.658 199.825 230.675 201.258C230.687 202.243 230.92 203.155 231.642 203.893C231.84 204.094 232.086 204.405 232.06 204.637C231.949 205.666 232.724 205.942 233.349 206.45C234.957 207.752 236.603 209.045 238.008 210.551C239.322 211.96 239.596 213.768 238.996 215.663C238.863 216.081 238.887 216.547 238.826 217.106C239.418 217.145 239.92 217.178 240.502 217.215C240.502 217.639 240.502 218.04 240.502 218.538C240.017 218.563 239.512 218.589 238.867 218.622C238.867 218.944 238.867 219.257 238.867 219.569C238.867 236.366 238.867 253.163 238.869 269.958C238.869 271.689 239.59 272.884 240.736 273.216C240.736 271.679 240.533 270.082 240.783 268.558C241.187 266.093 242.666 264.099 244.525 262.535C246.855 260.572 249.369 258.827 251.834 257.029C252.32 256.673 252.623 256.419 252.496 255.722C252.318 254.743 252.863 253.939 253.572 253.341C254.524 252.542 254.772 251.403 254.856 250.351C255.068 247.696 255.053 245.023 255.129 242.356C255.135 242.171 255.15 241.987 255.16 241.804C255.266 241.802 255.369 241.802 255.475 241.8C255.475 243.038 255.465 244.278 255.477 245.517C255.49 246.915 255.49 248.316 255.563 249.712C255.635 251.111 255.912 252.446 257.041 253.454C257.727 254.066 258.135 254.845 257.994 255.794C257.902 256.411 258.166 256.71 258.672 257.015C262.197 259.142 265.561 261.484 268.035 264.859C270.139 267.728 270.612 270.839 269.211 274.166C268.541 275.755 269.065 276.914 270.735 277.416C271.159 277.543 271.614 277.57 272.153 277.66C272.153 254.097 272.153 230.653 272.153 207.104C271.459 207.069 270.764 207.032 270.012 206.995C270.012 206.393 270.012 205.856 270.012 205.204C270.711 205.168 271.407 205.135 272.172 205.096C272.172 204.473 272.328 203.848 272.147 203.346C271.026 200.252 272.018 197.686 274.01 195.342C275.848 193.182 278.161 191.608 280.54 190.121C281.03 189.815 281.397 189.57 281.297 188.863C281.241 188.467 281.42 187.883 281.709 187.621C283.368 186.121 283.286 184.139 283.329 182.19C283.36 180.793 283.335 179.397 283.335 178C283.487 178 283.637 178 283.79 178C283.79 180.107 283.747 182.217 283.807 184.322C283.836 185.365 284.116 186.352 284.92 187.156C285.305 187.543 285.708 188.156 285.686 188.651C285.649 189.541 286.09 189.881 286.731 190.285C289.157 191.815 291.507 193.444 293.329 195.717C295.161 198.002 295.889 200.494 294.866 203.348C294.811 203.498 294.753 203.659 294.753 203.815C294.755 204.202 294.788 204.586 294.815 205.08C295.534 205.123 296.227 205.164 296.985 205.209C296.985 205.795 296.985 206.334 296.985 206.987C296.303 207.022 295.606 207.059 294.819 207.1C294.801 207.454 294.774 207.768 294.774 208.083C294.772 230.999 294.772 253.915 294.774 276.832C294.774 279.007 296.196 280.381 298.3 280.189C298.3 266.798 298.3 253.404 298.3 239.944C297.934 239.897 297.591 239.854 297.134 239.796C297.108 239.52 297.081 239.222 297.05 238.87C297.499 238.804 297.872 238.749 298.343 238.681C298.311 238.306 298.35 237.938 298.245 237.62C297.61 235.712 298.249 234.126 299.585 232.827C300.604 231.839 301.815 231.048 302.907 230.132C303.192 229.891 303.372 229.516 303.571 229.186C303.895 228.645 304.347 228.122 304.475 227.534C304.741 226.321 304.829 225.069 304.934 224.268C305.05 225.12 304.997 226.479 305.456 227.636C305.929 228.823 306.409 230.098 307.8 230.806C308.864 231.347 309.745 232.317 310.583 233.212C311.726 234.434 312.093 235.913 311.589 237.558C311.532 237.741 311.505 237.938 311.495 238.13C311.487 238.288 311.524 238.448 311.548 238.663C311.931 238.728 312.3 238.79 312.714 238.86C312.714 239.169 312.714 239.45 312.714 239.776C312.337 239.827 311.991 239.874 311.493 239.94C311.493 240.341 311.493 240.751 311.493 241.161C311.493 253.79 311.493 266.421 311.495 279.05C311.495 281.636 312.12 282.431 314.638 283.043C314.888 283.103 315.144 283.142 315.548 283.218C315.358 282.533 315.181 281.937 315.032 281.332C314.147 277.726 315.149 274.529 317.216 271.597C319.56 268.277 322.696 265.794 326.001 263.513C327.259 262.646 328.581 261.872 329.851 261.023C330.081 260.868 330.392 260.511 330.347 260.326C329.882 258.441 330.898 257.222 332.15 256.089C332.39 255.872 332.64 255.667 332.642 255.378C332.747 254.935 332.837 254.488 332.96 254.05C333.095 253.573 333.38 253.109 333.398 252.632C333.556 248.441 333.669 244.245 333.798 240.052C333.8 239.962 333.843 239.874 333.923 239.581C334.011 242.903 334.095 246.021 334.177 249.138C334.21 250.405 334.22 251.675 334.288 252.943C334.306 253.273 334.492 253.597 334.626 253.913C334.726 254.15 335.025 254.423 334.968 254.585C334.576 255.677 335.523 256.007 336.038 256.572C336.992 257.613 337.734 258.699 337.359 260.24C337.304 260.466 337.656 260.913 337.927 261.077C341.384 263.179 344.709 265.456 347.617 268.287C349.757 270.371 351.588 272.691 352.494 275.595C353.332 278.283 353.062 280.925 351.957 283.494C350.933 285.869 351.923 287.344 354.674 287.451C354.674 280.949 354.674 274.449 354.674 267.849C354.134 267.812 353.603 267.777 353 267.736C353 267.259 353 266.822 353 266.285C353.531 266.257 354.066 266.232 354.744 266.197C354.701 265.611 354.763 265.046 354.607 264.55C353.922 262.359 354.453 260.437 355.828 258.7C357.386 256.734 359.396 255.292 361.508 253.988C361.914 253.738 362.181 253.546 362.152 252.958C362.131 252.53 362.394 251.986 362.709 251.667C363.461 250.903 363.728 250.009 363.732 248.989C363.736 247.593 363.734 246.198 363.734 244.802C363.877 244.8 364.017 244.8 364.16 244.798C364.16 245.985 364.18 247.175 364.154 248.362C364.125 249.689 364.344 250.9 365.392 251.847C365.594 252.029 365.808 252.38 365.767 252.611C365.598 253.579 366.277 253.876 366.904 254.284C368.844 255.548 370.734 256.884 372.15 258.759C373.477 260.515 374.041 262.425 373.291 264.611C373.131 265.076 373.193 265.615 373.143 266.24C373.85 266.24 374.426 266.24 375 266.24C375 266.761 375 267.281 375 267.802C372.777 267.779 373.186 267.591 373.18 269.558C373.162 276.482 373.172 283.408 373.172 290.334C373.172 307.99 373.172 325.645 373.176 343.301C373.176 343.721 373.219 344.141 373.242 344.561C249.412 344.561 125.582 344.561 1.75198 344.561C1.77542 344.108 1.81839 343.657 1.81839 343.204C1.82815 318.664 1.83206 294.115 1.82034 269.568C1.82034 267.601 2.22269 267.789 0 267.812C0 267.29 0 266.769 0 266.247ZM95.1148 223.411C95.1148 220.913 95.1226 218.485 95.1128 216.059C95.1031 213.971 93.5542 212.387 91.5229 212.36C89.5209 212.335 87.8979 213.913 87.8549 215.993C87.8158 217.876 87.8432 219.758 87.8432 221.641C87.8432 222.214 87.8432 222.788 87.8432 223.413C90.2983 223.411 92.6225 223.411 95.1148 223.411ZM287.153 223.409C287.153 220.835 287.2 218.313 287.137 215.792C287.088 213.848 285.403 212.331 283.477 212.358C281.485 212.387 279.909 213.958 279.895 215.963C279.879 218.204 279.889 220.444 279.895 222.682C279.895 222.926 279.95 223.173 279.979 223.405C282.387 223.409 284.711 223.409 287.153 223.409ZM13.9104 281.088C13.9104 278.839 14.0393 276.609 13.8635 274.402C13.7522 273.005 12.3889 272.121 10.9943 272.138C9.5646 272.158 8.22864 273.117 8.12708 274.552C7.97669 276.703 8.08802 278.873 8.08802 281.086C10.0392 281.088 11.9123 281.088 13.9104 281.088ZM360.984 281.14C362.744 281.14 364.39 281.14 366.037 281.14C366.199 281.14 366.439 281.203 366.508 281.121C366.699 280.892 366.945 280.607 366.951 280.338C366.99 278.619 366.988 276.898 366.965 275.177C366.941 273.46 365.703 272.189 364.055 272.14C362.457 272.091 361.08 273.261 361.006 274.925C360.916 276.929 360.984 278.941 360.984 281.14ZM147.2 230.679C147.2 228.684 147.268 226.768 147.176 224.858C147.114 223.546 145.909 222.569 144.584 222.532C143.211 222.495 141.934 223.44 141.856 224.802C141.744 226.737 141.828 228.684 141.828 230.677C143.625 230.679 145.338 230.679 147.2 230.679ZM233.197 230.686C233.197 228.718 233.244 226.864 233.181 225.016C233.135 223.632 232.009 222.602 230.634 222.534C229.308 222.467 227.978 223.344 227.886 224.653C227.746 226.647 227.849 228.659 227.849 230.688C229.65 230.686 231.365 230.686 233.197 230.686ZM102.205 223.415C102.205 219.702 102.205 216.059 102.205 212.409C100.25 212.588 98.7945 213.647 98.7047 215.301C98.5562 217.983 98.6656 220.678 98.6656 223.415C99.8629 223.415 100.99 223.415 102.205 223.415ZM276.356 223.407C276.356 220.704 276.452 218.042 276.323 215.389C276.237 213.647 274.549 212.385 272.766 212.471C272.766 216.096 272.766 219.723 272.766 223.407C273.973 223.407 275.123 223.407 276.356 223.407ZM84.3626 223.413C84.3626 220.721 84.4466 218.092 84.3334 215.471C84.2572 213.706 82.4954 212.342 80.7708 212.493C80.7708 216.114 80.7708 219.739 80.7708 223.413C81.9603 223.413 83.0872 223.413 84.3626 223.413ZM294.206 223.415C294.206 219.7 294.206 216.059 294.206 212.411C292.282 212.581 290.799 213.663 290.708 215.307C290.557 217.985 290.667 220.68 290.667 223.415C291.866 223.415 292.993 223.415 294.206 223.415ZM19.7718 272.234C18.2581 272.238 16.9807 273.144 16.8967 274.523C16.7678 276.683 16.8616 278.855 16.8616 281.082C17.8694 281.082 18.7952 281.082 19.7698 281.082C19.7718 278.095 19.7718 275.164 19.7718 272.234ZM355.23 272.253C355.23 275.183 355.23 278.115 355.23 281.136C356.082 281.136 356.861 281.177 357.631 281.109C357.832 281.091 358.158 280.74 358.162 280.535C358.199 278.617 358.236 276.697 358.158 274.783C358.095 273.271 356.783 272.185 355.23 272.253ZM67.9718 246.786C67.9698 246.786 67.9679 246.786 67.9659 246.786C67.9659 247.468 67.921 248.155 67.9913 248.829C68.0147 249.044 68.3351 249.386 68.5343 249.396C69.5695 249.452 70.6124 249.446 71.6496 249.402C71.8507 249.392 72.2082 249.114 72.2121 248.954C72.2433 247.526 72.2941 246.091 72.1671 244.673C72.0695 243.573 71.0285 242.894 69.9093 242.974C68.839 243.05 68.0421 243.837 67.9776 244.933C67.9425 245.552 67.9718 246.171 67.9718 246.786ZM302.77 246.907C302.768 246.907 302.764 246.907 302.763 246.907C302.763 247.525 302.784 248.142 302.757 248.759C302.733 249.275 302.958 249.444 303.45 249.433C304.425 249.411 305.399 249.409 306.372 249.433C306.882 249.444 307.058 249.234 307.05 248.739C307.03 247.538 307.059 246.337 307.038 245.136C307.017 243.87 306.19 243.009 305.005 242.974C303.765 242.937 302.858 243.769 302.778 245.058C302.739 245.671 302.77 246.29 302.77 246.907ZM2.32816 272.173C2.32816 275.173 2.32816 278.107 2.32816 281.072C3.32622 281.072 4.24811 281.072 5.26571 281.072C5.26571 279.064 5.28133 277.121 5.25985 275.179C5.24227 273.453 4.22272 272.39 2.32816 272.173ZM372.695 272.175C370.801 272.376 369.779 273.449 369.744 275.169C369.728 275.949 369.74 276.73 369.74 277.509C369.74 278.699 369.74 279.888 369.74 281.06C370.82 281.06 371.744 281.06 372.695 281.06C372.695 278.07 372.695 275.158 372.695 272.175ZM152.444 222.587C150.973 222.725 149.922 223.464 149.856 224.639C149.743 226.637 149.825 228.645 149.825 230.673C150.737 230.673 151.563 230.673 152.444 230.673C152.444 227.96 152.444 225.309 152.444 222.587ZM222.58 222.557C222.58 225.309 222.58 227.985 222.58 230.667C223.482 230.667 224.312 230.667 225.222 230.667C225.222 228.854 225.234 227.104 225.218 225.354C225.207 223.712 224.388 222.815 222.58 222.557ZM139.248 230.686C139.248 228.72 139.305 226.866 139.231 225.018C139.172 223.567 138.049 222.61 136.578 222.606C136.578 225.29 136.578 227.973 136.578 230.686C137.473 230.686 138.307 230.686 139.248 230.686ZM238.441 222.585C237.045 222.643 235.941 223.382 235.849 224.655C235.707 226.647 235.812 228.657 235.812 230.647C236.74 230.647 237.596 230.647 238.443 230.647C238.441 227.907 238.441 225.247 238.441 222.585ZM76.3703 243.007C75.2297 243.017 74.425 243.544 74.3312 244.458C74.1652 246.073 74.2844 247.718 74.2844 249.423C74.8234 249.423 75.2863 249.491 75.7141 249.396C75.9641 249.339 76.3371 249.027 76.343 248.819C76.3899 246.917 76.3703 245.011 76.3703 243.007ZM298.641 243.05C298.641 245.017 298.63 246.982 298.663 248.946C298.665 249.107 298.948 249.38 299.122 249.4C299.651 249.46 300.19 249.421 300.782 249.421C300.782 247.782 300.833 246.296 300.764 244.814C300.716 243.726 299.907 243.091 298.641 243.05ZM63.8584 249.425C64.4346 249.425 64.9014 249.495 65.3291 249.398C65.5772 249.341 65.9405 249.025 65.9502 248.812C66.0069 247.513 66.0225 246.206 65.962 244.907C65.9073 243.704 64.9209 242.931 63.8584 243.157C63.8584 245.198 63.8584 247.239 63.8584 249.425ZM311.196 243.03C309.874 243.13 309.097 243.778 309.046 244.866C308.983 246.198 309.018 247.534 309.032 248.868C309.04 249.71 309.708 249.398 310.12 249.405C310.536 249.413 311.192 249.689 311.194 248.851C311.202 246.937 311.196 245.023 311.196 243.03Z" fill="#182D45"/>
<g clip-path="url(#clip6_16_1142)">
<path d="M171.713 122.371C173.095 122.757 174.594 121.355 175.917 121.112C176.666 120.969 177.483 120.895 178.221 121.146C178.596 121.277 178.888 121.479 179.225 121.685C179.255 121.704 179.285 121.73 179.319 121.749C179.795 120.745 180.537 120.007 181.788 119.752C182.624 119.583 183.429 119.403 184.19 119.01C184.737 118.725 185.269 118.32 185.895 118.275C185.913 118.272 185.921 118.275 185.936 118.275C185.25 119.531 183.755 119.995 182.455 120.565C182.219 120.67 181.987 120.778 181.762 120.91C181.608 120.951 181.458 120.999 181.32 121.063C180.694 121.352 180.484 121.876 180.323 122.468C180.282 122.584 180.248 122.708 180.226 122.832C180.117 123.195 179.701 123.491 179.315 123.427C178.884 123.146 178.431 122.903 177.963 122.719C177.727 122.584 177.483 122.468 177.217 122.431C176.992 122.393 176.771 122.382 176.554 122.389C176.336 122.371 176.115 122.367 175.891 122.382C174.501 122.472 172.811 123.397 171.627 122.36C171.66 122.36 171.687 122.36 171.713 122.371Z" fill="#19234F"/>
<path d="M167.696 128.651C167.618 128.654 167.535 128.658 167.46 128.669C167.112 128.733 166.943 128.965 166.786 129.239C166.748 129.291 166.718 129.347 166.692 129.407C166.595 129.572 166.347 129.666 166.168 129.583C165.984 129.389 165.797 129.209 165.587 129.059C165.489 128.961 165.381 128.875 165.257 128.819C165.148 128.774 165.044 128.74 164.935 128.714C164.83 128.677 164.721 128.647 164.605 128.624C163.905 128.493 162.949 128.733 162.499 128.07C162.514 128.074 162.529 128.077 162.537 128.085C163.174 128.452 164.092 127.95 164.778 127.999C165.167 128.025 165.579 128.092 165.913 128.313C166.081 128.422 166.201 128.561 166.34 128.71C166.355 128.725 166.366 128.737 166.377 128.755C166.741 128.317 167.202 128.047 167.854 128.081C168.288 128.103 168.708 128.118 169.139 128.021C169.442 127.95 169.757 127.819 170.076 127.879C170.083 127.879 170.09 127.882 170.094 127.882C169.596 128.414 168.798 128.456 168.078 128.572C167.955 128.594 167.824 128.621 167.696 128.651Z" fill="#19234F"/>
<path d="M187.895 124.892C188.274 124.802 188.69 124.743 189.072 124.855C189.27 124.911 189.42 125.009 189.596 125.106C189.611 125.113 189.63 125.125 189.645 125.136C189.862 124.611 190.222 124.214 190.855 124.053C191.279 123.944 191.683 123.836 192.062 123.611C192.335 123.45 192.594 123.229 192.916 123.191C192.924 123.191 192.931 123.191 192.935 123.191C192.616 123.851 191.863 124.124 191.215 124.45C191.095 124.506 190.983 124.574 190.87 124.641C190.792 124.668 190.717 124.694 190.649 124.731C190.335 124.896 190.245 125.17 190.177 125.473C190.155 125.533 190.147 125.597 190.136 125.66C190.087 125.852 189.885 126.009 189.69 125.986C189.462 125.855 189.222 125.743 188.978 125.66C188.855 125.597 188.727 125.544 188.592 125.529C188.476 125.514 188.36 125.514 188.251 125.526C188.143 125.522 188.03 125.526 187.914 125.537C187.206 125.619 186.37 126.136 185.737 125.634C185.752 125.634 185.763 125.634 185.782 125.634C186.498 125.807 187.232 125.057 187.895 124.892Z" fill="#19234F"/>
<path d="M199.983 114.192C200.597 114.162 201.256 114.188 201.815 114.469C202.103 114.611 202.317 114.806 202.56 115.008C202.583 115.027 202.605 115.05 202.628 115.072C203.115 114.319 203.782 113.809 204.812 113.742C205.494 113.697 206.157 113.641 206.809 113.405C207.274 113.236 207.742 112.97 208.248 113C208.263 113 208.27 113.004 208.282 113.008C207.6 113.933 206.356 114.143 205.254 114.458C205.056 114.514 204.857 114.581 204.666 114.66C204.539 114.675 204.415 114.697 204.299 114.735C203.767 114.896 203.546 115.297 203.351 115.75C203.306 115.844 203.265 115.934 203.235 116.031C203.111 116.309 202.748 116.503 202.448 116.41C202.129 116.136 201.8 115.893 201.444 115.698C201.268 115.563 201.088 115.45 200.878 115.387C200.702 115.334 200.53 115.301 200.357 115.282C200.185 115.244 200.009 115.218 199.829 115.203C198.709 115.128 197.262 115.687 196.431 114.727C196.453 114.731 196.476 114.731 196.498 114.742C197.551 115.203 198.9 114.248 199.983 114.192Z" fill="#19234F"/>
<path d="M192.612 119.332C192.545 119.321 192.485 119.317 192.421 119.321C192.137 119.332 191.975 119.501 191.822 119.699C191.788 119.741 191.754 119.782 191.728 119.823C191.631 119.943 191.425 119.992 191.29 119.909C191.166 119.733 191.031 119.572 190.881 119.426C190.814 119.336 190.739 119.257 190.645 119.201C190.567 119.149 190.484 119.115 190.398 119.081C190.319 119.04 190.237 119.006 190.147 118.976C189.604 118.796 188.817 118.886 188.525 118.309C188.536 118.309 188.547 118.313 188.555 118.324C189.019 118.684 189.814 118.384 190.353 118.497C190.66 118.56 190.983 118.658 191.226 118.868C191.346 118.976 191.428 119.096 191.522 119.231C191.533 119.242 191.537 119.257 191.545 119.272C191.882 118.957 192.279 118.793 192.796 118.894C193.141 118.957 193.474 119.014 193.826 118.984C194.077 118.961 194.343 118.89 194.591 118.969C194.594 118.969 194.602 118.972 194.606 118.976C194.149 119.347 193.508 119.291 192.923 119.306C192.822 119.31 192.714 119.317 192.612 119.332Z" fill="#19234F"/>
<path d="M209.136 118.497C209.447 118.467 209.784 118.463 210.076 118.59C210.226 118.658 210.339 118.748 210.474 118.849C210.485 118.856 210.492 118.868 210.507 118.879C210.74 118.482 211.066 118.204 211.59 118.144C211.939 118.103 212.272 118.058 212.602 117.923C212.834 117.826 213.066 117.676 213.325 117.68C213.329 117.68 213.336 117.68 213.34 117.68C213.018 118.171 212.388 118.309 211.83 118.5C211.732 118.534 211.631 118.572 211.538 118.617C211.47 118.628 211.41 118.643 211.35 118.665C211.081 118.763 210.979 118.973 210.893 119.209C210.874 119.257 210.856 119.306 210.841 119.355C210.785 119.497 210.601 119.606 210.447 119.568C210.279 119.437 210.103 119.321 209.919 119.231C209.825 119.171 209.732 119.115 209.623 119.089C209.529 119.066 209.439 119.055 209.353 119.047C209.263 119.032 209.173 119.025 209.08 119.021C208.506 119.01 207.78 119.332 207.33 118.868C207.341 118.868 207.352 118.871 207.364 118.875C207.922 119.074 208.585 118.553 209.136 118.497Z" fill="#19234F"/>
<path d="M145.717 118.8C145.545 118.86 145.373 118.927 145.204 119.006C145.092 119.025 144.979 119.055 144.878 119.089C144.41 119.257 144.234 119.624 144.08 120.037C144.046 120.119 144.013 120.205 143.986 120.291C143.889 120.546 143.574 120.737 143.305 120.666C143.009 120.437 142.701 120.239 142.379 120.078C142.222 119.965 142.049 119.872 141.862 119.827C141.701 119.785 141.544 119.767 141.39 119.759C141.236 119.733 141.079 119.718 140.914 119.714C139.914 119.696 138.655 120.265 137.868 119.452C137.887 119.452 137.909 119.456 137.928 119.459C138.895 119.819 140.049 118.901 141.008 118.804C141.555 118.748 142.143 118.744 142.653 118.969C142.915 119.081 143.113 119.242 143.338 119.415C143.361 119.43 143.383 119.448 143.402 119.467C143.799 118.778 144.372 118.29 145.287 118.182C145.894 118.111 146.478 118.032 147.051 117.792C147.46 117.62 147.864 117.361 148.314 117.365C148.325 117.365 148.333 117.369 148.344 117.369C147.778 118.223 146.684 118.467 145.717 118.8Z" fill="#19234F"/>
<path d="M132.637 123.09C132.915 123.131 133.207 123.206 133.432 123.383C133.548 123.472 133.626 123.577 133.713 123.693C133.72 123.705 133.728 123.716 133.739 123.727C134.024 123.435 134.368 123.266 134.837 123.33C135.144 123.371 135.444 123.409 135.758 123.364C135.983 123.33 136.216 123.255 136.44 123.315C136.444 123.315 136.448 123.319 136.455 123.323C136.069 123.671 135.492 123.652 134.972 123.693C134.878 123.701 134.784 123.712 134.691 123.731C134.631 123.723 134.574 123.723 134.518 123.731C134.267 123.753 134.132 123.911 134.005 124.094C133.975 124.132 133.949 124.169 133.926 124.211C133.848 124.327 133.664 124.375 133.544 124.308C133.428 124.158 133.301 124.019 133.158 123.9C133.091 123.825 133.023 123.761 132.937 123.712C132.862 123.671 132.783 123.641 132.712 123.615C132.637 123.585 132.562 123.555 132.484 123.532C131.989 123.397 131.292 123.514 131.007 123.015C131.015 123.015 131.026 123.019 131.034 123.027C131.461 123.323 132.15 123.015 132.637 123.09Z" fill="#19234F"/>
<path d="M150.566 122.465C150.581 122.476 150.588 122.483 150.6 122.491C150.783 122.124 151.064 121.865 151.529 121.786C151.836 121.734 152.132 121.678 152.417 121.539C152.619 121.442 152.822 121.299 153.054 121.288C153.058 121.288 153.065 121.288 153.069 121.288C152.803 121.741 152.248 121.891 151.765 122.09C151.679 122.124 151.589 122.161 151.506 122.206C151.45 122.221 151.394 122.236 151.345 122.258C151.109 122.356 151.031 122.547 150.959 122.761C150.941 122.802 150.929 122.847 150.922 122.892C150.877 123.027 150.723 123.128 150.581 123.101C150.424 122.993 150.262 122.899 150.094 122.824C150.008 122.772 149.922 122.731 149.824 122.712C149.738 122.693 149.659 122.689 149.581 122.689C149.502 122.678 149.419 122.674 149.337 122.678C148.824 122.697 148.194 123.015 147.771 122.622C147.782 122.622 147.793 122.622 147.801 122.622C148.303 122.779 148.872 122.285 149.36 122.21C149.637 122.169 149.937 122.15 150.206 122.251C150.345 122.307 150.446 122.386 150.566 122.465Z" fill="#19234F"/>
<path d="M161.96 115.87C161.87 115.874 161.776 115.885 161.69 115.9C161.301 115.986 161.117 116.26 160.952 116.574C160.915 116.634 160.881 116.702 160.855 116.769C160.75 116.96 160.476 117.076 160.266 116.994C160.057 116.78 159.832 116.589 159.588 116.425C159.472 116.32 159.348 116.226 159.202 116.17C159.079 116.121 158.955 116.091 158.831 116.065C158.711 116.031 158.588 116.001 158.46 115.982C157.662 115.863 156.595 116.174 156.055 115.443C156.07 115.443 156.085 115.45 156.1 115.458C156.834 115.848 157.853 115.241 158.629 115.267C159.071 115.282 159.54 115.338 159.925 115.574C160.124 115.694 160.263 115.844 160.427 116.005C160.442 116.02 160.457 116.035 160.472 116.054C160.862 115.544 161.372 115.218 162.11 115.229C162.601 115.237 163.08 115.237 163.56 115.106C163.905 115.012 164.253 114.851 164.613 114.9C164.624 114.9 164.631 114.903 164.639 114.907C164.096 115.529 163.193 115.604 162.387 115.773C162.245 115.791 162.102 115.829 161.96 115.87Z" fill="#19234F"/>
<path d="M153.29 118.508C153.215 118.504 153.14 118.504 153.061 118.508C153.016 118.497 152.971 118.489 152.926 118.489C152.72 118.485 152.597 118.594 152.477 118.729C152.45 118.755 152.424 118.785 152.402 118.811C152.323 118.894 152.173 118.916 152.083 118.849C152.005 118.718 151.918 118.594 151.817 118.478C151.776 118.414 151.724 118.351 151.66 118.306C151.607 118.268 151.551 118.234 151.491 118.208C151.439 118.174 151.379 118.144 151.319 118.118C150.94 117.957 150.371 117.976 150.199 117.545C150.206 117.545 150.214 117.552 150.217 117.556C150.532 117.841 151.113 117.672 151.495 117.785C151.712 117.848 151.937 117.935 152.098 118.103C152.181 118.186 152.229 118.279 152.289 118.381C152.297 118.388 152.304 118.399 152.304 118.41C152.563 118.208 152.859 118.114 153.222 118.212C153.466 118.279 153.702 118.339 153.957 118.339C154.136 118.339 154.335 118.302 154.504 118.373C154.507 118.377 154.511 118.377 154.515 118.381C154.163 118.609 153.706 118.534 153.29 118.508Z" fill="#19234F"/>
<path d="M166.864 119.036C166.793 119.055 166.722 119.077 166.647 119.1C166.598 119.104 166.553 119.115 166.508 119.126C166.314 119.178 166.227 119.325 166.153 119.486C166.134 119.519 166.115 119.553 166.104 119.587C166.055 119.684 165.92 119.752 165.812 119.718C165.699 119.613 165.579 119.523 165.452 119.444C165.392 119.392 165.324 119.351 165.25 119.325C165.186 119.306 165.122 119.287 165.055 119.283C164.995 119.265 164.931 119.257 164.86 119.246C164.451 119.205 163.912 119.392 163.62 119.032C163.627 119.032 163.638 119.036 163.642 119.04C164.028 119.22 164.534 118.882 164.931 118.879C165.16 118.875 165.396 118.89 165.602 118.999C165.703 119.055 165.778 119.13 165.868 119.205C165.879 119.212 165.886 119.22 165.894 119.231C166.081 118.957 166.332 118.781 166.711 118.766C166.962 118.759 167.205 118.744 167.449 118.665C167.621 118.609 167.797 118.515 167.981 118.534C167.985 118.534 167.992 118.534 167.992 118.534C167.73 118.871 167.273 118.935 166.864 119.036Z" fill="#19234F"/>
<path d="M206.528 158.303C207.772 158.647 209.117 157.392 210.305 157.171C210.98 157.044 211.71 156.976 212.373 157.205C212.711 157.321 212.973 157.505 213.276 157.692C213.303 157.711 213.333 157.729 213.359 157.752C213.786 156.849 214.453 156.186 215.577 155.957C216.326 155.804 217.049 155.646 217.735 155.29C218.226 155.036 218.705 154.668 219.267 154.631C219.282 154.627 219.294 154.631 219.305 154.631C218.687 155.759 217.345 156.175 216.176 156.688C215.963 156.782 215.757 156.879 215.554 156.995C215.416 157.033 215.285 157.074 215.157 157.134C214.595 157.392 214.408 157.864 214.262 158.396C214.224 158.501 214.194 158.61 214.172 158.722C214.074 159.048 213.7 159.314 213.355 159.258C212.965 159.003 212.561 158.786 212.141 158.621C211.931 158.498 211.71 158.396 211.47 158.359C211.268 158.325 211.069 158.318 210.875 158.321C210.68 158.306 210.481 158.303 210.279 158.314C209.027 158.393 207.514 159.228 206.45 158.295C206.483 158.295 206.506 158.295 206.528 158.303Z" fill="#19234F"/>
<path d="M220.938 149.483C220.867 149.486 220.792 149.49 220.725 149.501C220.414 149.558 220.26 149.767 220.118 150.015C220.084 150.063 220.058 150.112 220.032 150.165C219.942 150.311 219.721 150.397 219.56 150.326C219.395 150.15 219.226 149.989 219.039 149.854C218.949 149.767 218.855 149.689 218.743 149.64C218.645 149.599 218.548 149.569 218.454 149.546C218.361 149.513 218.259 149.486 218.158 149.468C217.529 149.348 216.671 149.565 216.266 148.969C216.277 148.973 216.292 148.977 216.3 148.984C216.869 149.314 217.697 148.864 218.316 148.906C218.664 148.932 219.035 148.988 219.335 149.187C219.485 149.284 219.593 149.412 219.717 149.543C219.728 149.554 219.739 149.565 219.751 149.584C220.077 149.19 220.489 148.951 221.077 148.981C221.467 149.003 221.845 149.014 222.231 148.924C222.505 148.861 222.789 148.745 223.074 148.797C223.082 148.797 223.089 148.801 223.093 148.801C222.643 149.28 221.928 149.314 221.283 149.419C221.171 149.43 221.051 149.453 220.938 149.483Z" fill="#19234F"/>
<path d="M243.213 169.588C243.554 169.506 243.925 169.453 244.27 169.554C244.446 169.603 244.585 169.693 244.742 169.783C244.757 169.791 244.772 169.798 244.783 169.809C244.978 169.337 245.3 168.981 245.87 168.835C246.248 168.738 246.612 168.64 246.953 168.438C247.2 168.296 247.432 168.097 247.721 168.059C247.728 168.059 247.732 168.059 247.74 168.059C247.455 168.651 246.777 168.899 246.196 169.187C246.091 169.24 245.99 169.296 245.889 169.36C245.817 169.382 245.754 169.408 245.69 169.442C245.409 169.588 245.327 169.835 245.267 170.109C245.248 170.165 245.24 170.221 245.229 170.278C245.188 170.446 245.001 170.592 244.828 170.57C244.622 170.454 244.409 170.349 244.191 170.278C244.079 170.218 243.966 170.173 243.843 170.161C243.738 170.15 243.637 170.15 243.536 170.158C243.438 170.154 243.337 170.158 243.232 170.169C242.595 170.244 241.842 170.708 241.276 170.259C241.287 170.259 241.302 170.259 241.314 170.259C241.954 170.409 242.614 169.734 243.213 169.588Z" fill="#19234F"/>
<path d="M242.734 154.597C243.284 154.571 243.876 154.593 244.378 154.848C244.637 154.976 244.832 155.152 245.049 155.331C245.072 155.346 245.09 155.369 245.109 155.391C245.547 154.713 246.147 154.256 247.072 154.196C247.687 154.155 248.279 154.106 248.867 153.893C249.283 153.743 249.706 153.503 250.16 153.529C250.171 153.529 250.182 153.533 250.19 153.537C249.575 154.369 248.459 154.556 247.47 154.841C247.29 154.893 247.114 154.949 246.941 155.02C246.829 155.035 246.716 155.054 246.611 155.088C246.132 155.234 245.937 155.594 245.761 156.002C245.72 156.085 245.686 156.167 245.656 156.253C245.544 156.5 245.218 156.677 244.948 156.594C244.663 156.347 244.367 156.13 244.045 155.953C243.888 155.834 243.726 155.729 243.539 155.672C243.382 155.624 243.224 155.597 243.071 155.579C242.917 155.545 242.756 155.523 242.595 155.511C241.587 155.444 240.287 155.946 239.541 155.084C239.56 155.088 239.582 155.088 239.601 155.099C240.553 155.504 241.763 154.646 242.734 154.597Z" fill="#19234F"/>
<path d="M236.113 159.217C236.053 159.21 235.997 159.206 235.941 159.21C235.686 159.217 235.54 159.371 235.401 159.55C235.371 159.588 235.341 159.625 235.315 159.663C235.229 159.772 235.045 159.816 234.922 159.742C234.809 159.584 234.689 159.438 234.554 159.307C234.494 159.228 234.427 159.157 234.341 159.105C234.27 159.06 234.195 159.026 234.12 158.996C234.049 158.958 233.974 158.928 233.895 158.902C233.404 158.741 232.7 158.82 232.437 158.303C232.445 158.303 232.456 158.307 232.464 158.314C232.883 158.636 233.595 158.366 234.078 158.468C234.356 158.524 234.644 158.61 234.862 158.801C234.97 158.899 235.045 159.007 235.128 159.127C235.135 159.138 235.143 159.15 235.15 159.165C235.454 158.884 235.81 158.734 236.274 158.824C236.581 158.884 236.885 158.932 237.2 158.902C237.424 158.88 237.664 158.816 237.885 158.887C237.889 158.887 237.893 158.891 237.896 158.895C237.488 159.228 236.911 159.176 236.383 159.191C236.3 159.195 236.207 159.202 236.113 159.217Z" fill="#19234F"/>
<path d="M250.962 158.468C251.239 158.441 251.542 158.438 251.808 158.554C251.943 158.614 252.044 158.696 252.164 158.786C252.172 158.794 252.183 158.801 252.194 158.812C252.4 158.456 252.696 158.209 253.169 158.153C253.483 158.115 253.783 158.074 254.075 157.954C254.285 157.864 254.491 157.733 254.727 157.737C254.731 157.737 254.738 157.737 254.742 157.737C254.45 158.179 253.884 158.303 253.386 158.475C253.296 158.505 253.21 158.539 253.124 158.58C253.064 158.587 253.007 158.602 252.955 158.621C252.715 158.707 252.621 158.895 252.543 159.108C252.524 159.153 252.509 159.194 252.494 159.239C252.442 159.367 252.281 159.464 252.142 159.43C251.992 159.314 251.831 159.209 251.666 159.127C251.584 159.071 251.497 159.022 251.4 159C251.314 158.977 251.235 158.97 251.156 158.962C251.078 158.951 250.995 158.94 250.913 158.94C250.396 158.932 249.744 159.221 249.343 158.801C249.354 158.801 249.366 158.805 249.373 158.809C249.868 158.985 250.463 158.516 250.962 158.468Z" fill="#19234F"/>
<path d="M198.072 134.72C197.914 134.773 197.761 134.836 197.611 134.904C197.51 134.923 197.409 134.949 197.319 134.979C196.899 135.132 196.738 135.458 196.603 135.829C196.573 135.904 196.543 135.979 196.521 136.058C196.431 136.286 196.15 136.459 195.906 136.395C195.64 136.189 195.363 136.009 195.074 135.867C194.932 135.766 194.778 135.679 194.61 135.642C194.464 135.604 194.325 135.586 194.186 135.582C194.048 135.559 193.905 135.544 193.759 135.541C192.86 135.526 191.728 136.035 191.02 135.305C191.039 135.305 191.058 135.305 191.073 135.312C191.942 135.634 192.98 134.81 193.842 134.724C194.332 134.675 194.861 134.668 195.322 134.87C195.558 134.971 195.738 135.117 195.94 135.271C195.959 135.286 195.977 135.301 195.996 135.316C196.352 134.694 196.865 134.259 197.69 134.162C198.233 134.098 198.757 134.027 199.275 133.813C199.642 133.66 200.005 133.424 200.41 133.431C200.417 133.431 200.425 133.435 200.436 133.435C199.926 134.199 198.941 134.417 198.072 134.72Z" fill="#19234F"/>
<path d="M189.435 144.484C189.686 144.522 189.945 144.586 190.147 144.747C190.252 144.829 190.32 144.923 190.402 145.024C190.409 145.032 190.417 145.043 190.424 145.054C190.679 144.792 190.99 144.642 191.41 144.698C191.687 144.736 191.957 144.769 192.238 144.728C192.44 144.698 192.65 144.631 192.849 144.683C192.852 144.683 192.856 144.687 192.86 144.691C192.511 145.005 191.994 144.987 191.53 145.024C191.444 145.032 191.361 145.039 191.275 145.058C191.223 145.05 191.174 145.05 191.121 145.058C190.897 145.076 190.773 145.219 190.66 145.387C190.634 145.421 190.612 145.455 190.589 145.489C190.518 145.59 190.353 145.639 190.245 145.575C190.14 145.44 190.024 145.316 189.9 145.208C189.84 145.14 189.776 145.08 189.701 145.039C189.634 145.002 189.563 144.975 189.499 144.953C189.432 144.927 189.364 144.9 189.293 144.878C188.847 144.754 188.221 144.863 187.967 144.413C187.974 144.413 187.982 144.417 187.989 144.421C188.379 144.691 188.997 144.417 189.435 144.484Z" fill="#19234F"/>
<path d="M205.546 143.922C205.558 143.934 205.569 143.937 205.576 143.949C205.741 143.619 205.996 143.387 206.412 143.316C206.689 143.267 206.955 143.218 207.21 143.094C207.394 143.008 207.573 142.881 207.78 142.87C207.783 142.87 207.787 142.87 207.791 142.87C207.551 143.274 207.053 143.409 206.618 143.589C206.539 143.619 206.461 143.653 206.386 143.69C206.333 143.705 206.285 143.716 206.24 143.739C206.026 143.825 205.955 144.001 205.895 144.192C205.88 144.23 205.869 144.271 205.861 144.312C205.824 144.432 205.681 144.522 205.554 144.499C205.415 144.402 205.269 144.32 205.116 144.252C205.037 144.207 204.958 144.166 204.876 144.151C204.801 144.136 204.726 144.129 204.658 144.129C204.587 144.117 204.512 144.117 204.441 144.117C203.98 144.132 203.414 144.421 203.036 144.065C203.047 144.065 203.055 144.065 203.062 144.065C203.516 144.207 204.025 143.761 204.46 143.694C204.711 143.656 204.981 143.638 205.22 143.731C205.344 143.78 205.438 143.851 205.546 143.922Z" fill="#19234F"/>
<path d="M215.783 137.999C215.7 138.002 215.618 138.01 215.543 138.025C215.195 138.104 215.026 138.347 214.88 138.628C214.846 138.684 214.816 138.744 214.79 138.804C214.696 138.977 214.449 139.082 214.262 139.007C214.074 138.816 213.872 138.643 213.655 138.497C213.55 138.403 213.441 138.317 213.31 138.268C213.198 138.227 213.089 138.197 212.976 138.175C212.868 138.145 212.759 138.119 212.643 138.1C211.927 137.991 210.968 138.272 210.481 137.617C210.492 137.617 210.507 137.624 210.522 137.628C211.182 137.976 212.1 137.433 212.797 137.455C213.194 137.47 213.617 137.519 213.962 137.729C214.138 137.838 214.265 137.972 214.412 138.115C214.423 138.126 214.438 138.141 214.453 138.16C214.805 137.703 215.262 137.407 215.925 137.418C216.367 137.425 216.794 137.425 217.225 137.309C217.536 137.223 217.851 137.081 218.173 137.126C218.185 137.126 218.188 137.129 218.196 137.133C217.709 137.691 216.899 137.759 216.173 137.909C216.041 137.928 215.91 137.957 215.783 137.999Z" fill="#19234F"/>
<path d="M207.993 140.367C207.926 140.363 207.858 140.363 207.787 140.367C207.746 140.356 207.705 140.352 207.664 140.348C207.48 140.344 207.368 140.442 207.259 140.562C207.233 140.588 207.214 140.61 207.191 140.637C207.124 140.712 206.989 140.73 206.907 140.67C206.835 140.554 206.757 140.438 206.667 140.341C206.629 140.281 206.584 140.228 206.525 140.183C206.476 140.149 206.423 140.12 206.371 140.093C206.322 140.063 206.27 140.033 206.217 140.011C205.876 139.865 205.363 139.883 205.209 139.494C205.217 139.494 205.221 139.501 205.228 139.505C205.509 139.76 206.034 139.61 206.375 139.711C206.569 139.771 206.772 139.846 206.918 139.996C206.993 140.071 207.038 140.153 207.09 140.243C207.098 140.251 207.102 140.262 207.105 140.269C207.338 140.09 207.604 140.003 207.93 140.093C208.147 140.157 208.36 140.209 208.589 140.206C208.75 140.206 208.926 140.172 209.08 140.236C209.084 140.239 209.087 140.239 209.091 140.243C208.776 140.46 208.368 140.389 207.993 140.367Z" fill="#19234F"/>
<path d="M220.189 140.843C220.125 140.857 220.062 140.88 219.994 140.902C219.953 140.906 219.912 140.914 219.871 140.925C219.695 140.974 219.616 141.101 219.552 141.251C219.537 141.281 219.518 141.311 219.507 141.345C219.462 141.434 219.342 141.494 219.245 141.461C219.144 141.367 219.035 141.285 218.919 141.213C218.863 141.168 218.803 141.127 218.739 141.105C218.683 141.086 218.623 141.071 218.567 141.067C218.511 141.052 218.454 141.045 218.394 141.034C218.027 140.996 217.544 141.165 217.282 140.843C217.289 140.843 217.297 140.846 217.3 140.85C217.645 141.011 218.102 140.708 218.458 140.704C218.664 140.7 218.878 140.715 219.061 140.813C219.155 140.861 219.222 140.929 219.301 140.996C219.309 141.004 219.316 141.011 219.324 141.019C219.492 140.775 219.717 140.614 220.058 140.603C220.283 140.595 220.504 140.584 220.721 140.513C220.875 140.464 221.032 140.378 221.201 140.397C221.205 140.397 221.208 140.397 221.208 140.397C220.968 140.693 220.556 140.753 220.189 140.843Z" fill="#19234F"/>
</g>
</g>
<defs>
<linearGradient id="paint0_linear_16_1142" x1="309.5" y1="41" x2="-54.5" y2="245" gradientUnits="userSpaceOnUse">
<stop stop-color="#2F4C95"/>
<stop offset="0.405" stop-color="#34719D"/>
<stop offset="1" stop-color="#C9EFFF"/>
</linearGradient>
<linearGradient id="paint1_linear_16_1142" x1="17.5" y1="166" x2="17.5" y2="201" gradientUnits="userSpaceOnUse">
<stop stop-color="#FFF7CC"/>
<stop offset="1" stop-color="#FFDFCD"/>
</linearGradient>
<clipPath id="clip0_16_1142">
<path d="M0 0H375V244C375 299.228 330.228 344 275 344H100C44.7715 344 0 299.228 0 244V0Z" fill="white"/>
</clipPath>
<clipPath id="clip1_16_1142">
<rect width="894.63" height="180.604" fill="white" transform="translate(-371 -5)"/>
</clipPath>
<clipPath id="clip2_16_1142">
<rect width="894.63" height="180.604" fill="white" transform="translate(-369 1)"/>
</clipPath>
<clipPath id="clip3_16_1142">
<rect width="373" height="58" fill="white" transform="translate(4 5)"/>
</clipPath>
<clipPath id="clip4_16_1142">
<rect width="373" height="58" fill="white" transform="translate(4 131)"/>
</clipPath>
<clipPath id="clip5_16_1142">
<rect width="448" height="162" fill="white" transform="translate(-7 201)"/>
</clipPath>
<clipPath id="clip6_16_1142">
<rect width="123.738" height="57.5772" fill="white" transform="matrix(-1 0 0 1 254.738 113)"/>
</clipPath>
</defs>
</svg>
