<svg width="375" height="344" viewBox="0 0 375 344" fill="none" xmlns="http://www.w3.org/2000/svg">
<g clip-path="url(#clip0_9_1312)">
<path d="M0 0H375V244C375 299.228 330.228 344 275 344H100C44.7715 344 0 299.228 0 244V0Z" fill="#192E8F"/>
<g clip-path="url(#clip1_9_1312)">
<g opacity="0.53">
<g opacity="0.53">
<path opacity="0.21" d="M266.312 147.576C109.6 139.972 36.2893 85.3247 -29.1181 33.5742L-40.1578 39.7629C-40.1578 39.7629 86.0331 153.921 281.424 148.823C476.815 143.725 523.623 69.3755 523.623 69.3755L521.519 66.674C498.661 85.6104 405.589 154.33 266.312 147.576Z" fill="#7C5BFF"/>
<path opacity="0.21" d="M266.312 141.738C266.312 141.738 118.464 142.037 3.52707 15.2677L-6.76587 21.0409C10.7094 44.049 91.5465 136.705 266.319 146.349C380.606 152.661 461.833 99.2543 510.415 52.4133L508.973 50.5625C508.973 50.5625 414.336 151.265 266.319 138.212C118.302 125.159 39.6661 -5 39.6661 -5L25.8469 2.74732C45.634 38.094 110.762 128.107 266.312 141.738Z" fill="#7C5BFF"/>
</g>
<path opacity="0.21" d="M-123.105 153.706C-295.391 137.459 -326.302 127.575 -304.08 121.568C-309.197 120.769 -314.139 119.983 -318.847 119.23C-398.437 124.665 -418.757 135.471 -144.672 156.876C268.8 189.164 430.357 171.656 478.471 163.35C477.821 163.454 287.275 192.404 -123.105 153.706Z" fill="#7C5BFF"/>
<path opacity="0.21" d="M-115.417 133.348C356.683 185.404 470.814 162.558 495.459 153.739V144.985C460.495 151.187 338.013 168.656 145.602 150.843C145.602 150.843 347.695 167.175 495.459 140.316V132.854C350.371 171.961 120.036 150.44 -17.3055 131.763C42.9391 144.401 86.6306 148.823 96.7352 149.739C97.4821 149.804 98.2224 149.868 98.9757 149.933C98.9757 149.933 98.2029 149.875 96.7352 149.739C-24.4424 139.322 -111.819 119.392 -134.541 113.846C-148.899 113.95 -208.196 114.47 -263.823 116.502C-265.759 116.645 -267.661 116.788 -269.525 116.938C-231.587 120.749 -181.103 126.107 -115.417 133.348Z" fill="#7C5BFF"/>
</g>
<g clip-path="url(#clip2_9_1312)">
<g opacity="0.39">
<path d="M42.7478 8.84906C42.7478 9.52725 42.3594 10.0821 41.8845 10.0821C41.4097 10.0821 41.0212 9.52725 41.0212 8.84906C41.0212 8.17088 41.4097 7.61601 41.8845 7.61601C42.3594 7.60059 42.7478 8.15547 42.7478 8.84906Z" fill="white"/>
<path d="M103.017 41.3864C103.017 42.0646 102.629 42.6194 102.154 42.6194C101.679 42.6194 101.29 42.0646 101.29 41.3864C101.29 40.7082 101.679 40.1533 102.154 40.1533C102.629 40.1533 103.017 40.7082 103.017 41.3864Z" fill="white"/>
<path d="M307.781 1.72815C307.781 2.40633 307.393 2.9612 306.918 2.9612C306.443 2.9612 306.055 2.40633 306.055 1.72815C306.055 1.04996 306.443 0.495087 306.918 0.495087C307.393 0.495087 307.781 1.04996 307.781 1.72815Z" fill="white"/>
<path d="M244.393 47.2588C244.393 47.5979 244.199 47.8754 243.962 47.8754C243.724 47.8754 243.53 47.5979 243.53 47.2588C243.53 46.9197 243.724 46.6423 243.962 46.6423C244.199 46.6423 244.393 46.9197 244.393 47.2588Z" fill="white"/>
<path d="M262.987 8.46371C263.225 8.46371 263.418 8.18768 263.418 7.84718C263.418 7.50668 263.225 7.23065 262.987 7.23065C262.748 7.23065 262.555 7.50668 262.555 7.84718C262.555 8.18768 262.748 8.46371 262.987 8.46371Z" fill="white"/>
<path d="M222.293 35.776C222.293 36.1151 222.099 36.3925 221.861 36.3925C221.624 36.3925 221.43 36.1151 221.43 35.776C221.43 35.4369 221.624 35.1595 221.861 35.1595C222.099 35.1595 222.293 35.4369 222.293 35.776Z" fill="white"/>
<path d="M200.689 5.22694C200.689 5.56603 200.494 5.84347 200.257 5.84347C200.02 5.84347 199.825 5.56603 199.825 5.22694C199.825 4.88785 200.02 4.61041 200.257 4.61041C200.494 4.595 200.689 4.87244 200.689 5.22694Z" fill="white"/>
<path d="M160.901 26.898C160.901 27.2371 160.707 27.5145 160.47 27.5145C160.232 27.5145 160.038 27.2371 160.038 26.898C160.038 26.5589 160.232 26.2814 160.47 26.2814C160.707 26.2814 160.901 26.5589 160.901 26.898Z" fill="white"/>
<path d="M118.384 49.8174C118.384 50.1565 118.19 50.434 117.952 50.434C117.715 50.434 117.521 50.1565 117.521 49.8174C117.521 49.4783 117.715 49.2009 117.952 49.2009C118.19 49.2009 118.384 49.4783 118.384 49.8174Z" fill="white"/>
<path d="M86.528 1.48153C86.7664 1.48153 86.9596 1.2055 86.9596 0.865004C86.9596 0.524504 86.7664 0.248474 86.528 0.248474C86.2896 0.248474 86.0963 0.524504 86.0963 0.865004C86.0963 1.2055 86.2896 1.48153 86.528 1.48153Z" fill="white"/>
<path d="M34.104 42.6195C34.104 42.9585 33.9098 43.236 33.6724 43.236C33.435 43.236 33.2407 42.9585 33.2407 42.6195C33.2407 42.2804 33.435 42.0029 33.6724 42.0029C33.9098 42.0029 34.104 42.2804 34.104 42.6195Z" fill="white"/>
<path d="M2.43165 0.233059C2.67004 0.233059 2.8633 -0.0429709 2.8633 -0.383471C2.8633 -0.72397 2.67004 -1 2.43165 -1C2.19326 -1 2 -0.72397 2 -0.383471C2 -0.0429709 2.19326 0.233059 2.43165 0.233059Z" fill="white"/>
<path d="M17.8092 28.3776C17.8092 28.7167 17.615 28.9942 17.3776 28.9942C17.1402 28.9942 16.9459 28.7167 16.9459 28.3776C16.9459 28.0385 17.1402 27.7611 17.3776 27.7611C17.615 27.7611 17.8092 28.0385 17.8092 28.3776Z" fill="white"/>
<path d="M337.878 48.0757C337.878 48.4148 337.684 48.6923 337.446 48.6923C337.209 48.6923 337.015 48.4148 337.015 48.0757C337.015 47.7366 337.209 47.4592 337.446 47.4592C337.684 47.4592 337.878 47.7366 337.878 48.0757Z" fill="white"/>
<path d="M374.568 8.46371C374.807 8.46371 375 8.18768 375 7.84718C375 7.50668 374.807 7.23065 374.568 7.23065C374.33 7.23065 374.137 7.50668 374.137 7.84718C374.137 8.18768 374.33 8.46371 374.568 8.46371Z" fill="white"/>
<path d="M297.853 24.8172C298.33 24.8172 298.717 24.2651 298.717 23.5841C298.717 22.9031 298.33 22.351 297.853 22.351C297.377 22.351 296.99 22.9031 296.99 23.5841C296.99 24.2651 297.377 24.8172 297.853 24.8172Z" fill="white"/>
<path d="M252.735 55.7669C252.735 56.4451 252.347 57 251.872 57C251.397 57 251.008 56.4451 251.008 55.7669C251.008 55.0888 251.397 54.5339 251.872 54.5339C252.347 54.5185 252.735 55.0734 252.735 55.7669Z" fill="white"/>
</g>
</g>
<g clip-path="url(#clip3_9_1312)">
<g opacity="0.39">
<path d="M42.7478 134.849C42.7478 135.527 42.3594 136.082 41.8845 136.082C41.4097 136.082 41.0212 135.527 41.0212 134.849C41.0212 134.171 41.4097 133.616 41.8845 133.616C42.3594 133.601 42.7478 134.155 42.7478 134.849Z" fill="white"/>
<path d="M103.017 167.386C103.017 168.065 102.629 168.619 102.154 168.619C101.679 168.619 101.29 168.065 101.29 167.386C101.29 166.708 101.679 166.153 102.154 166.153C102.629 166.153 103.017 166.708 103.017 167.386Z" fill="white"/>
<path d="M307.781 127.728C307.781 128.406 307.393 128.961 306.918 128.961C306.443 128.961 306.055 128.406 306.055 127.728C306.055 127.05 306.443 126.495 306.918 126.495C307.393 126.495 307.781 127.05 307.781 127.728Z" fill="white"/>
<path d="M244.393 173.259C244.393 173.598 244.199 173.875 243.962 173.875C243.724 173.875 243.53 173.598 243.53 173.259C243.53 172.92 243.724 172.642 243.962 172.642C244.199 172.642 244.393 172.92 244.393 173.259Z" fill="white"/>
<path d="M262.987 134.464C263.225 134.464 263.418 134.188 263.418 133.847C263.418 133.507 263.225 133.231 262.987 133.231C262.748 133.231 262.555 133.507 262.555 133.847C262.555 134.188 262.748 134.464 262.987 134.464Z" fill="white"/>
<path d="M222.293 161.776C222.293 162.115 222.099 162.393 221.861 162.393C221.624 162.393 221.43 162.115 221.43 161.776C221.43 161.437 221.624 161.159 221.861 161.159C222.099 161.159 222.293 161.437 222.293 161.776Z" fill="white"/>
<path d="M200.689 131.227C200.689 131.566 200.494 131.843 200.257 131.843C200.02 131.843 199.825 131.566 199.825 131.227C199.825 130.888 200.02 130.61 200.257 130.61C200.494 130.595 200.689 130.872 200.689 131.227Z" fill="white"/>
<path d="M160.901 152.898C160.901 153.237 160.707 153.514 160.47 153.514C160.232 153.514 160.038 153.237 160.038 152.898C160.038 152.559 160.232 152.281 160.47 152.281C160.707 152.281 160.901 152.559 160.901 152.898Z" fill="white"/>
<path d="M118.384 175.817C118.384 176.157 118.19 176.434 117.952 176.434C117.715 176.434 117.521 176.157 117.521 175.817C117.521 175.478 117.715 175.201 117.952 175.201C118.19 175.201 118.384 175.478 118.384 175.817Z" fill="white"/>
<path d="M86.528 127.482C86.7664 127.482 86.9596 127.206 86.9596 126.865C86.9596 126.525 86.7664 126.248 86.528 126.248C86.2896 126.248 86.0963 126.525 86.0963 126.865C86.0963 127.206 86.2896 127.482 86.528 127.482Z" fill="white"/>
<path d="M34.104 168.619C34.104 168.959 33.9098 169.236 33.6724 169.236C33.435 169.236 33.2407 168.959 33.2407 168.619C33.2407 168.28 33.435 168.003 33.6724 168.003C33.9098 168.003 34.104 168.28 34.104 168.619Z" fill="white"/>
<path d="M2.43165 126.233C2.67004 126.233 2.8633 125.957 2.8633 125.617C2.8633 125.276 2.67004 125 2.43165 125C2.19326 125 2 125.276 2 125.617C2 125.957 2.19326 126.233 2.43165 126.233Z" fill="white"/>
<path d="M17.8092 154.378C17.8092 154.717 17.615 154.994 17.3776 154.994C17.1402 154.994 16.9459 154.717 16.9459 154.378C16.9459 154.039 17.1402 153.761 17.3776 153.761C17.615 153.761 17.8092 154.039 17.8092 154.378Z" fill="white"/>
<path d="M337.878 174.076C337.878 174.415 337.684 174.692 337.446 174.692C337.209 174.692 337.015 174.415 337.015 174.076C337.015 173.737 337.209 173.459 337.446 173.459C337.684 173.459 337.878 173.737 337.878 174.076Z" fill="white"/>
<path d="M374.568 134.464C374.807 134.464 375 134.188 375 133.847C375 133.507 374.807 133.231 374.568 133.231C374.33 133.231 374.137 133.507 374.137 133.847C374.137 134.188 374.33 134.464 374.568 134.464Z" fill="white"/>
<path d="M297.853 150.817C298.33 150.817 298.717 150.265 298.717 149.584C298.717 148.903 298.33 148.351 297.853 148.351C297.377 148.351 296.99 148.903 296.99 149.584C296.99 150.265 297.377 150.817 297.853 150.817Z" fill="white"/>
</g>
</g>
</g>
<g clip-path="url(#clip4_9_1312)">
<g opacity="0.53">
<g opacity="0.53">
<path opacity="0.21" d="M266.312 147.576C109.6 139.972 36.2893 85.3247 -29.1181 33.5742L-40.1578 39.7629C-40.1578 39.7629 86.0331 153.921 281.424 148.823C476.815 143.725 523.623 69.3755 523.623 69.3755L521.519 66.674C498.661 85.6104 405.589 154.33 266.312 147.576Z" fill="#7C5BFF"/>
<path opacity="0.21" d="M266.312 141.738C266.312 141.738 118.464 142.037 3.52707 15.2677L-6.76587 21.0409C10.7094 44.049 91.5465 136.705 266.319 146.349C380.606 152.661 461.833 99.2543 510.415 52.4133L508.973 50.5625C508.973 50.5625 414.336 151.265 266.319 138.212C118.302 125.159 39.6661 -5 39.6661 -5L25.8469 2.74732C45.634 38.094 110.762 128.107 266.312 141.738Z" fill="#7C5BFF"/>
</g>
<path opacity="0.21" d="M-123.105 153.706C-295.391 137.459 -326.302 127.575 -304.08 121.568C-309.197 120.769 -314.139 119.983 -318.847 119.23C-398.437 124.665 -418.757 135.471 -144.672 156.876C268.8 189.164 430.357 171.656 478.471 163.35C477.821 163.454 287.275 192.404 -123.105 153.706Z" fill="#7C5BFF"/>
<path opacity="0.21" d="M-115.417 133.348C356.683 185.404 470.814 162.558 495.459 153.739V144.985C460.495 151.187 338.013 168.656 145.602 150.843C145.602 150.843 347.695 167.175 495.459 140.316V132.854C350.371 171.961 120.036 150.44 -17.3055 131.763C42.9391 144.401 86.6306 148.823 96.7352 149.739C97.4821 149.804 98.2224 149.868 98.9757 149.933C98.9757 149.933 98.2029 149.875 96.7352 149.739C-24.4424 139.322 -111.819 119.392 -134.541 113.846C-148.899 113.95 -208.196 114.47 -263.823 116.502C-265.759 116.645 -267.661 116.788 -269.525 116.938C-231.587 120.749 -181.103 126.107 -115.417 133.348Z" fill="#7C5BFF"/>
</g>
<g clip-path="url(#clip5_9_1312)">
<g opacity="0.39">
<path d="M42.7478 8.84906C42.7478 9.52725 42.3594 10.0821 41.8845 10.0821C41.4097 10.0821 41.0212 9.52725 41.0212 8.84906C41.0212 8.17088 41.4097 7.61601 41.8845 7.61601C42.3594 7.60059 42.7478 8.15547 42.7478 8.84906Z" fill="white"/>
<path d="M103.017 41.3864C103.017 42.0646 102.629 42.6194 102.154 42.6194C101.679 42.6194 101.29 42.0646 101.29 41.3864C101.29 40.7082 101.679 40.1533 102.154 40.1533C102.629 40.1533 103.017 40.7082 103.017 41.3864Z" fill="white"/>
<path d="M307.781 1.72815C307.781 2.40633 307.393 2.9612 306.918 2.9612C306.443 2.9612 306.055 2.40633 306.055 1.72815C306.055 1.04996 306.443 0.495087 306.918 0.495087C307.393 0.495087 307.781 1.04996 307.781 1.72815Z" fill="white"/>
<path d="M244.393 47.2588C244.393 47.5979 244.199 47.8754 243.962 47.8754C243.724 47.8754 243.53 47.5979 243.53 47.2588C243.53 46.9197 243.724 46.6423 243.962 46.6423C244.199 46.6423 244.393 46.9197 244.393 47.2588Z" fill="white"/>
<path d="M262.987 8.46371C263.225 8.46371 263.418 8.18768 263.418 7.84718C263.418 7.50668 263.225 7.23065 262.987 7.23065C262.748 7.23065 262.555 7.50668 262.555 7.84718C262.555 8.18768 262.748 8.46371 262.987 8.46371Z" fill="white"/>
<path d="M222.293 35.776C222.293 36.1151 222.099 36.3925 221.861 36.3925C221.624 36.3925 221.43 36.1151 221.43 35.776C221.43 35.4369 221.624 35.1595 221.861 35.1595C222.099 35.1595 222.293 35.4369 222.293 35.776Z" fill="white"/>
<path d="M200.689 5.22694C200.689 5.56603 200.494 5.84347 200.257 5.84347C200.02 5.84347 199.825 5.56603 199.825 5.22694C199.825 4.88785 200.02 4.61041 200.257 4.61041C200.494 4.595 200.689 4.87244 200.689 5.22694Z" fill="white"/>
<path d="M160.901 26.898C160.901 27.2371 160.707 27.5145 160.47 27.5145C160.232 27.5145 160.038 27.2371 160.038 26.898C160.038 26.5589 160.232 26.2814 160.47 26.2814C160.707 26.2814 160.901 26.5589 160.901 26.898Z" fill="white"/>
<path d="M118.384 49.8174C118.384 50.1565 118.19 50.434 117.952 50.434C117.715 50.434 117.521 50.1565 117.521 49.8174C117.521 49.4783 117.715 49.2009 117.952 49.2009C118.19 49.2009 118.384 49.4783 118.384 49.8174Z" fill="white"/>
<path d="M86.528 1.48153C86.7664 1.48153 86.9596 1.2055 86.9596 0.865004C86.9596 0.524504 86.7664 0.248474 86.528 0.248474C86.2896 0.248474 86.0963 0.524504 86.0963 0.865004C86.0963 1.2055 86.2896 1.48153 86.528 1.48153Z" fill="white"/>
<path d="M34.104 42.6195C34.104 42.9585 33.9098 43.236 33.6724 43.236C33.435 43.236 33.2407 42.9585 33.2407 42.6195C33.2407 42.2804 33.435 42.0029 33.6724 42.0029C33.9098 42.0029 34.104 42.2804 34.104 42.6195Z" fill="white"/>
<path d="M2.43165 0.233059C2.67004 0.233059 2.8633 -0.0429709 2.8633 -0.383471C2.8633 -0.72397 2.67004 -1 2.43165 -1C2.19326 -1 2 -0.72397 2 -0.383471C2 -0.0429709 2.19326 0.233059 2.43165 0.233059Z" fill="white"/>
<path d="M17.8092 28.3776C17.8092 28.7167 17.615 28.9942 17.3776 28.9942C17.1402 28.9942 16.9459 28.7167 16.9459 28.3776C16.9459 28.0385 17.1402 27.7611 17.3776 27.7611C17.615 27.7611 17.8092 28.0385 17.8092 28.3776Z" fill="white"/>
<path d="M337.878 48.0757C337.878 48.4148 337.684 48.6923 337.446 48.6923C337.209 48.6923 337.015 48.4148 337.015 48.0757C337.015 47.7366 337.209 47.4592 337.446 47.4592C337.684 47.4592 337.878 47.7366 337.878 48.0757Z" fill="white"/>
<path d="M374.568 8.46371C374.807 8.46371 375 8.18768 375 7.84718C375 7.50668 374.807 7.23065 374.568 7.23065C374.33 7.23065 374.137 7.50668 374.137 7.84718C374.137 8.18768 374.33 8.46371 374.568 8.46371Z" fill="white"/>
<path d="M297.853 24.8172C298.33 24.8172 298.717 24.2651 298.717 23.5841C298.717 22.9031 298.33 22.351 297.853 22.351C297.377 22.351 296.99 22.9031 296.99 23.5841C296.99 24.2651 297.377 24.8172 297.853 24.8172Z" fill="white"/>
<path d="M252.735 55.7669C252.735 56.4451 252.347 57 251.872 57C251.397 57 251.008 56.4451 251.008 55.7669C251.008 55.0888 251.397 54.5339 251.872 54.5339C252.347 54.5185 252.735 55.0734 252.735 55.7669Z" fill="white"/>
</g>
</g>
<g clip-path="url(#clip6_9_1312)">
<g opacity="0.39">
<path d="M42.7478 134.849C42.7478 135.527 42.3594 136.082 41.8845 136.082C41.4097 136.082 41.0212 135.527 41.0212 134.849C41.0212 134.171 41.4097 133.616 41.8845 133.616C42.3594 133.601 42.7478 134.155 42.7478 134.849Z" fill="white"/>
<path d="M103.017 167.386C103.017 168.065 102.629 168.619 102.154 168.619C101.679 168.619 101.29 168.065 101.29 167.386C101.29 166.708 101.679 166.153 102.154 166.153C102.629 166.153 103.017 166.708 103.017 167.386Z" fill="white"/>
<path d="M307.781 127.728C307.781 128.406 307.393 128.961 306.918 128.961C306.443 128.961 306.055 128.406 306.055 127.728C306.055 127.05 306.443 126.495 306.918 126.495C307.393 126.495 307.781 127.05 307.781 127.728Z" fill="white"/>
<path d="M244.393 173.259C244.393 173.598 244.199 173.875 243.962 173.875C243.724 173.875 243.53 173.598 243.53 173.259C243.53 172.92 243.724 172.642 243.962 172.642C244.199 172.642 244.393 172.92 244.393 173.259Z" fill="white"/>
<path d="M262.987 134.464C263.225 134.464 263.418 134.188 263.418 133.847C263.418 133.507 263.225 133.231 262.987 133.231C262.748 133.231 262.555 133.507 262.555 133.847C262.555 134.188 262.748 134.464 262.987 134.464Z" fill="white"/>
<path d="M222.293 161.776C222.293 162.115 222.099 162.393 221.861 162.393C221.624 162.393 221.43 162.115 221.43 161.776C221.43 161.437 221.624 161.159 221.861 161.159C222.099 161.159 222.293 161.437 222.293 161.776Z" fill="white"/>
<path d="M200.689 131.227C200.689 131.566 200.494 131.843 200.257 131.843C200.02 131.843 199.825 131.566 199.825 131.227C199.825 130.888 200.02 130.61 200.257 130.61C200.494 130.595 200.689 130.872 200.689 131.227Z" fill="white"/>
<path d="M160.901 152.898C160.901 153.237 160.707 153.514 160.47 153.514C160.232 153.514 160.038 153.237 160.038 152.898C160.038 152.559 160.232 152.281 160.47 152.281C160.707 152.281 160.901 152.559 160.901 152.898Z" fill="white"/>
<path d="M118.384 175.817C118.384 176.157 118.19 176.434 117.952 176.434C117.715 176.434 117.521 176.157 117.521 175.817C117.521 175.478 117.715 175.201 117.952 175.201C118.19 175.201 118.384 175.478 118.384 175.817Z" fill="white"/>
<path d="M86.528 127.482C86.7664 127.482 86.9596 127.206 86.9596 126.865C86.9596 126.525 86.7664 126.248 86.528 126.248C86.2896 126.248 86.0963 126.525 86.0963 126.865C86.0963 127.206 86.2896 127.482 86.528 127.482Z" fill="white"/>
<path d="M34.104 168.619C34.104 168.959 33.9098 169.236 33.6724 169.236C33.435 169.236 33.2407 168.959 33.2407 168.619C33.2407 168.28 33.435 168.003 33.6724 168.003C33.9098 168.003 34.104 168.28 34.104 168.619Z" fill="white"/>
<path d="M2.43165 126.233C2.67004 126.233 2.8633 125.957 2.8633 125.617C2.8633 125.276 2.67004 125 2.43165 125C2.19326 125 2 125.276 2 125.617C2 125.957 2.19326 126.233 2.43165 126.233Z" fill="white"/>
<path d="M17.8092 154.378C17.8092 154.717 17.615 154.994 17.3776 154.994C17.1402 154.994 16.9459 154.717 16.9459 154.378C16.9459 154.039 17.1402 153.761 17.3776 153.761C17.615 153.761 17.8092 154.039 17.8092 154.378Z" fill="white"/>
<path d="M337.878 174.076C337.878 174.415 337.684 174.692 337.446 174.692C337.209 174.692 337.015 174.415 337.015 174.076C337.015 173.737 337.209 173.459 337.446 173.459C337.684 173.459 337.878 173.737 337.878 174.076Z" fill="white"/>
<path d="M374.568 134.464C374.807 134.464 375 134.188 375 133.847C375 133.507 374.807 133.231 374.568 133.231C374.33 133.231 374.137 133.507 374.137 133.847C374.137 134.188 374.33 134.464 374.568 134.464Z" fill="white"/>
<path d="M297.853 150.817C298.33 150.817 298.717 150.265 298.717 149.584C298.717 148.903 298.33 148.351 297.853 148.351C297.377 148.351 296.99 148.903 296.99 149.584C296.99 150.265 297.377 150.817 297.853 150.817Z" fill="white"/>
</g>
</g>
</g>
<path opacity="0.62" d="M424 160C424 160 365.841 163.76 351.933 176.931C338.026 190.102 318.075 193.861 282.815 176.931C270.814 171.156 244.181 218.336 228.731 207.057C213.277 195.754 216.371 191.183 206.113 208.654C198.318 221.924 181.246 200.84 174.082 208.654C166.918 216.468 140.271 209.809 121.821 187.841C107.352 170.615 101.169 205.189 90.2105 195.778C79.2516 186.367 65.7645 170.615 52.2821 176.955C41.398 182.066 -21.9063 160 -21.9063 160L-24 288L424 265.393V160Z" fill="#4B61BB"/>
<g clip-path="url(#clip7_9_1312)">
<path d="M-7 201C-7 201 51.1591 205.758 65.0668 222.428C78.9745 239.098 98.9247 243.856 134.185 222.428C146.186 215.119 172.819 274.831 188.269 260.557C203.723 246.251 200.629 240.466 210.887 262.578C218.682 279.372 235.754 252.688 242.918 262.578C250.082 272.468 276.729 264.04 295.179 236.236C309.648 214.435 315.831 258.193 326.79 246.282C337.748 234.37 351.235 214.435 364.718 222.459C375.602 228.928 438.906 201 438.906 201L441 363L-7 334.388V201Z" fill="#4F68CA"/>
</g>
<path d="M0 266.247C0.578134 266.247 1.15431 266.247 1.86331 266.247C1.81058 265.615 1.86917 265.076 1.70901 264.609C0.962906 262.421 1.52932 260.513 2.86137 258.759C4.34382 256.808 6.32041 255.429 8.35755 254.134C8.86537 253.812 9.31069 253.56 9.23061 252.802C9.1935 252.452 9.46695 251.97 9.74625 251.702C10.6076 250.88 10.8439 249.868 10.8439 248.749C10.8459 247.419 10.8439 246.091 10.8439 244.761C10.9826 244.761 11.1213 244.761 11.2599 244.759C11.2599 246.105 11.2658 247.452 11.258 248.798C11.2521 249.919 11.4904 250.927 12.3576 251.741C12.6193 251.987 12.8928 252.458 12.8361 252.765C12.6818 253.589 13.219 253.816 13.7385 254.146C15.7776 255.445 17.7347 256.847 19.2288 258.783C20.5609 260.507 21.0667 262.404 20.389 264.554C20.2386 265.031 20.2835 265.57 20.2288 266.191C20.8577 266.222 21.3929 266.249 21.9984 266.279C21.9984 266.757 21.9984 267.195 21.9984 267.738C21.4691 267.769 20.9359 267.8 20.3382 267.835C20.3382 274.404 20.3382 280.925 20.3382 287.48C21.473 287.443 22.4535 287.176 23.1254 286.256C23.5336 285.695 23.8305 285.115 23.4535 284.369C20.7269 278.972 22.0863 274.23 25.8539 269.917C28.9731 266.347 32.8247 263.681 36.8482 261.253C37.4752 260.874 37.7779 260.579 37.5963 259.742C37.3443 258.577 38.0006 257.626 38.776 256.786C39.1959 256.331 39.5826 255.847 39.9362 255.433C40.0846 254.929 40.2331 254.419 40.3854 253.909C40.4948 253.55 40.6999 253.196 40.7116 252.837C40.8366 248.642 40.9323 244.446 41.0378 240.251C41.0417 240.06 41.0631 239.868 41.2116 239.677C41.2936 242.696 41.3717 245.714 41.4557 248.734C41.4948 250.163 41.5163 251.595 41.6061 253.023C41.6276 253.372 41.9186 253.698 42.0319 254.052C42.1706 254.482 42.2507 254.929 42.3542 255.355C42.8171 255.898 43.362 256.501 43.8698 257.136C44.5241 257.952 44.9792 258.888 44.6999 259.935C44.5144 260.628 44.8425 260.839 45.2976 261.154C47.9402 262.988 50.6434 264.745 53.1708 266.728C55.6376 268.664 57.749 270.98 59.1201 273.865C60.4599 276.687 60.6924 279.58 59.6064 282.543C59.5419 282.716 59.5224 282.906 59.3974 283.463C60.6396 282.908 61.71 282.556 62.626 281.966C63.0615 281.685 63.2608 280.97 63.4561 280.412C63.5791 280.062 63.501 279.638 63.501 279.248C63.5029 266.521 63.5029 253.792 63.5029 241.065C63.5029 240.712 63.5029 240.36 63.5029 239.956C63.0811 239.897 62.7393 239.851 62.2959 239.79C62.2783 239.497 62.2588 239.196 62.2393 238.862C62.6748 238.8 63.0205 238.749 63.4815 238.683C63.458 238.302 63.5029 237.911 63.4014 237.561C62.9053 235.87 63.2686 234.343 64.4834 233.145C65.6084 232.036 66.9327 231.128 68.1378 230.095C68.4171 229.854 68.5812 229.472 68.7765 229.141C69.0636 228.655 69.4679 228.184 69.5773 227.657C69.8331 226.405 69.9464 225.122 70.0656 224.221C70.171 225.038 70.1066 226.329 70.5402 227.423C71.0011 228.587 71.423 229.837 72.7101 230.616C73.9347 231.356 75.0012 232.431 75.968 233.509C76.9758 234.632 77.261 236.028 76.7805 237.53C76.6692 237.88 76.6907 238.272 76.6457 238.69C77.1008 238.741 77.4485 238.78 77.8997 238.829C77.9211 239.124 77.9426 239.425 77.9661 239.774C77.5129 239.831 77.136 239.878 76.6985 239.933C76.6985 253.353 76.6985 266.749 76.6985 280.14C78.4309 280.486 80.0442 279.213 80.218 277.382C80.2434 277.125 80.2259 276.863 80.2259 276.601C80.2259 253.847 80.2259 231.095 80.2259 208.34C80.2259 207.957 80.2259 207.575 80.2259 207.102C79.4602 207.067 78.7922 207.038 78.0325 207.002C78.0325 206.422 78.0325 205.862 78.0325 205.196C78.7219 205.164 79.4173 205.135 80.2513 205.098C80.2024 204.448 80.2766 203.84 80.0989 203.321C79.1477 200.53 79.8079 198.086 81.5657 195.84C83.3822 193.518 85.7631 191.873 88.2084 190.313C88.8588 189.899 89.4252 189.555 89.2924 188.613C89.2436 188.262 89.4858 187.738 89.767 187.49C91.146 186.274 91.2553 184.674 91.2553 183.02C91.2534 181.363 91.2553 179.707 91.2553 178.051C91.4155 178.051 91.5757 178.051 91.7378 178.049C91.7378 179.93 91.7475 181.811 91.7339 183.69C91.7241 185.078 92.0561 186.297 93.0718 187.34C93.4409 187.719 93.7104 188.383 93.689 188.903C93.6616 189.559 93.939 189.795 94.4058 190.088C96.7808 191.576 99.0992 193.143 100.947 195.297C102.976 197.662 103.992 200.248 102.838 203.377C102.662 203.854 102.812 204.452 102.812 205.092C103.547 205.129 104.242 205.163 104.99 205.2C104.99 205.811 104.99 206.348 104.99 206.995C104.281 207.028 103.586 207.059 102.83 207.094C102.83 230.61 102.83 254.062 102.83 277.505C104.199 277.685 105.416 277.181 105.927 276.119C106.111 275.736 106.191 275.136 106.021 274.773C104.023 270.499 105.064 266.798 108.078 263.46C110.412 260.874 113.213 258.867 116.189 257.099C116.791 256.741 116.961 256.363 117.047 255.669C117.142 254.894 117.48 254.009 118.012 253.456C119.037 252.388 119.363 251.124 119.428 249.775C119.547 247.306 119.555 244.831 119.613 242.358C119.617 242.212 119.652 242.063 119.672 241.917C119.762 241.919 119.853 241.919 119.943 241.921C119.943 243.126 119.932 244.329 119.947 245.534C119.965 246.933 119.945 248.337 120.057 249.728C120.168 251.132 120.439 252.493 121.598 253.523C122.297 254.146 122.633 254.97 122.525 255.976C122.494 256.273 122.797 256.706 123.072 256.915C125.521 258.788 128.1 260.505 130.438 262.505C132.68 264.423 134.272 266.867 134.461 269.941C134.527 271.019 134.297 272.117 134.205 273.191C135.119 273.025 135.949 271.966 136.112 270.679C136.139 270.455 136.129 270.224 136.129 269.996C136.135 253.169 136.135 236.341 136.135 219.512C136.135 219.255 136.135 218.997 136.135 218.645C135.59 218.61 135.088 218.577 134.502 218.54C134.502 218.143 134.502 217.743 134.502 217.229C134.979 217.194 135.481 217.159 136.151 217.11C136.098 216.59 136.125 216.077 135.986 215.612C135.43 213.751 135.801 212.081 136.938 210.553C138.342 208.665 140.197 207.297 142.186 206.096C142.635 205.825 142.938 205.582 142.893 204.967C142.869 204.629 143.092 204.194 143.34 203.932C144.106 203.123 144.334 202.164 144.332 201.104C144.328 199.653 144.332 198.203 144.487 196.752C144.563 198.44 144.604 200.129 144.733 201.813C144.776 202.362 144.922 202.989 145.241 203.413C145.733 204.065 146.338 204.588 146.192 205.536C146.168 205.682 146.586 205.907 146.811 206.081C148.223 207.17 149.733 208.159 151.032 209.37C152.907 211.118 153.832 213.249 152.928 215.876C152.811 216.215 152.913 216.631 152.913 217.098C153.416 217.137 153.891 217.174 154.444 217.217C154.444 217.628 154.444 218.032 154.444 218.54C153.973 218.565 153.471 218.592 152.934 218.622C152.934 235.948 152.934 253.208 152.934 270.47C156.051 270.476 157.893 267.519 156.536 264.824C155.045 261.867 154.022 258.792 153.909 255.435C153.766 251.185 155.077 247.374 157.252 243.814C160.022 239.278 163.717 235.548 167.919 232.388C171.993 229.323 176.298 226.565 180.503 223.676C180.823 223.456 181.163 223.264 181.579 223.007C180.112 218.549 183.118 216.186 186.009 213.778C185.231 213.004 185.212 212.184 186.067 211.293C186.556 210.786 186.737 210.282 186.753 209.583C186.929 202.004 187.144 194.428 187.349 186.852C187.353 186.697 187.382 186.545 187.597 186.381C187.628 187.022 187.671 187.662 187.688 188.303C187.884 195.522 188.069 202.741 188.288 209.959C188.3 210.327 188.571 210.696 188.753 211.049C189.003 211.532 189.397 211.971 189.513 212.479C189.597 212.844 189.325 213.292 189.159 213.897C191.763 216.133 194.884 218.446 193.417 222.975C195.39 224.216 197.366 225.405 199.286 226.678C204.857 230.376 210.185 234.374 214.578 239.479C217.457 242.825 219.718 246.513 220.685 250.874C221.769 255.763 220.8 260.367 218.499 264.716C217.726 266.179 217.978 267.492 218.695 268.781C219.39 270.029 220.599 270.47 222.066 270.517C222.066 253.218 222.066 235.956 222.066 218.635C221.566 218.604 221.091 218.573 220.548 218.538C220.548 218.108 220.548 217.708 220.548 217.231C221.031 217.192 221.505 217.155 222.138 217.102C222.105 216.618 222.168 216.124 222.025 215.696C221.316 213.557 221.822 211.622 223.318 210.11C224.791 208.622 226.543 207.409 228.187 206.094C228.535 205.815 228.925 205.694 228.822 205.055C228.763 204.696 229.103 204.202 229.384 203.872C229.992 203.157 230.267 202.364 230.297 201.436C230.343 199.942 230.441 198.451 230.672 196.959C230.672 198.393 230.658 199.825 230.675 201.258C230.687 202.243 230.92 203.155 231.642 203.893C231.84 204.094 232.086 204.405 232.06 204.637C231.949 205.666 232.724 205.942 233.349 206.45C234.957 207.752 236.603 209.045 238.008 210.551C239.322 211.96 239.596 213.768 238.996 215.663C238.863 216.081 238.887 216.547 238.826 217.106C239.418 217.145 239.92 217.178 240.502 217.215C240.502 217.639 240.502 218.04 240.502 218.538C240.017 218.563 239.512 218.589 238.867 218.622C238.867 218.944 238.867 219.257 238.867 219.569C238.867 236.366 238.867 253.163 238.869 269.958C238.869 271.689 239.59 272.884 240.736 273.216C240.736 271.679 240.533 270.082 240.783 268.558C241.187 266.093 242.666 264.099 244.525 262.535C246.855 260.572 249.369 258.827 251.834 257.029C252.32 256.673 252.623 256.419 252.496 255.722C252.318 254.743 252.863 253.939 253.572 253.341C254.524 252.542 254.772 251.403 254.856 250.351C255.068 247.696 255.053 245.023 255.129 242.356C255.135 242.171 255.15 241.987 255.16 241.804C255.266 241.802 255.369 241.802 255.475 241.8C255.475 243.038 255.465 244.278 255.477 245.517C255.49 246.915 255.49 248.316 255.563 249.712C255.635 251.111 255.912 252.446 257.041 253.454C257.727 254.066 258.135 254.845 257.994 255.794C257.902 256.411 258.166 256.71 258.672 257.015C262.197 259.142 265.561 261.484 268.035 264.859C270.139 267.728 270.612 270.839 269.211 274.166C268.541 275.755 269.065 276.914 270.735 277.416C271.159 277.543 271.614 277.57 272.153 277.66C272.153 254.097 272.153 230.653 272.153 207.104C271.459 207.069 270.764 207.032 270.012 206.995C270.012 206.393 270.012 205.856 270.012 205.204C270.711 205.168 271.407 205.135 272.172 205.096C272.172 204.473 272.328 203.848 272.147 203.346C271.026 200.252 272.018 197.686 274.01 195.342C275.848 193.182 278.161 191.608 280.54 190.121C281.03 189.815 281.397 189.57 281.297 188.863C281.241 188.467 281.42 187.883 281.709 187.621C283.368 186.121 283.286 184.139 283.329 182.19C283.36 180.793 283.335 179.397 283.335 178C283.487 178 283.637 178 283.79 178C283.79 180.107 283.747 182.217 283.807 184.322C283.836 185.365 284.116 186.352 284.92 187.156C285.305 187.543 285.708 188.156 285.686 188.651C285.649 189.541 286.09 189.881 286.731 190.285C289.157 191.815 291.507 193.444 293.329 195.717C295.161 198.002 295.889 200.494 294.866 203.348C294.811 203.498 294.753 203.659 294.753 203.815C294.755 204.202 294.788 204.586 294.815 205.08C295.534 205.123 296.227 205.164 296.985 205.209C296.985 205.795 296.985 206.334 296.985 206.987C296.303 207.022 295.606 207.059 294.819 207.1C294.801 207.454 294.774 207.768 294.774 208.083C294.772 230.999 294.772 253.915 294.774 276.832C294.774 279.007 296.196 280.381 298.3 280.189C298.3 266.798 298.3 253.404 298.3 239.944C297.934 239.897 297.591 239.854 297.134 239.796C297.108 239.52 297.081 239.222 297.05 238.87C297.499 238.804 297.872 238.749 298.343 238.681C298.311 238.306 298.35 237.938 298.245 237.62C297.61 235.712 298.249 234.126 299.585 232.827C300.604 231.839 301.815 231.048 302.907 230.132C303.192 229.891 303.372 229.516 303.571 229.186C303.895 228.645 304.347 228.122 304.475 227.534C304.741 226.321 304.829 225.069 304.934 224.268C305.05 225.12 304.997 226.479 305.456 227.636C305.929 228.823 306.409 230.098 307.8 230.806C308.864 231.347 309.745 232.317 310.583 233.212C311.726 234.434 312.093 235.913 311.589 237.558C311.532 237.741 311.505 237.938 311.495 238.13C311.487 238.288 311.524 238.448 311.548 238.663C311.931 238.728 312.3 238.79 312.714 238.86C312.714 239.169 312.714 239.45 312.714 239.776C312.337 239.827 311.991 239.874 311.493 239.94C311.493 240.341 311.493 240.751 311.493 241.161C311.493 253.79 311.493 266.421 311.495 279.05C311.495 281.636 312.12 282.431 314.638 283.043C314.888 283.103 315.144 283.142 315.548 283.218C315.358 282.533 315.181 281.937 315.032 281.332C314.147 277.726 315.149 274.529 317.216 271.597C319.56 268.277 322.696 265.794 326.001 263.513C327.259 262.646 328.581 261.872 329.851 261.023C330.081 260.868 330.392 260.511 330.347 260.326C329.882 258.441 330.898 257.222 332.15 256.089C332.39 255.872 332.64 255.667 332.642 255.378C332.747 254.935 332.837 254.488 332.96 254.05C333.095 253.573 333.38 253.109 333.398 252.632C333.556 248.441 333.669 244.245 333.798 240.052C333.8 239.962 333.843 239.874 333.923 239.581C334.011 242.903 334.095 246.021 334.177 249.138C334.21 250.405 334.22 251.675 334.288 252.943C334.306 253.273 334.492 253.597 334.626 253.913C334.726 254.15 335.025 254.423 334.968 254.585C334.576 255.677 335.523 256.007 336.038 256.572C336.992 257.613 337.734 258.699 337.359 260.24C337.304 260.466 337.656 260.913 337.927 261.077C341.384 263.179 344.709 265.456 347.617 268.287C349.757 270.371 351.588 272.691 352.494 275.595C353.332 278.283 353.062 280.925 351.957 283.494C350.933 285.869 351.923 287.344 354.674 287.451C354.674 280.949 354.674 274.449 354.674 267.849C354.134 267.812 353.603 267.777 353 267.736C353 267.259 353 266.822 353 266.285C353.531 266.257 354.066 266.232 354.744 266.197C354.701 265.611 354.763 265.046 354.607 264.55C353.922 262.359 354.453 260.437 355.828 258.7C357.386 256.734 359.396 255.292 361.508 253.988C361.914 253.738 362.181 253.546 362.152 252.958C362.131 252.53 362.394 251.986 362.709 251.667C363.461 250.903 363.728 250.009 363.732 248.989C363.736 247.593 363.734 246.198 363.734 244.802C363.877 244.8 364.017 244.8 364.16 244.798C364.16 245.985 364.18 247.175 364.154 248.362C364.125 249.689 364.344 250.9 365.392 251.847C365.594 252.029 365.808 252.38 365.767 252.611C365.598 253.579 366.277 253.876 366.904 254.284C368.844 255.548 370.734 256.884 372.15 258.759C373.477 260.515 374.041 262.425 373.291 264.611C373.131 265.076 373.193 265.615 373.143 266.24C373.85 266.24 374.426 266.24 375 266.24C375 266.761 375 267.281 375 267.802C372.777 267.779 373.186 267.591 373.18 269.558C373.162 276.482 373.172 283.408 373.172 290.334C373.172 307.99 373.172 325.645 373.176 343.301C373.176 343.721 373.219 344.141 373.242 344.561C249.412 344.561 125.582 344.561 1.75198 344.561C1.77542 344.108 1.81839 343.657 1.81839 343.204C1.82815 318.664 1.83206 294.115 1.82034 269.568C1.82034 267.601 2.22269 267.789 0 267.812C0 267.29 0 266.769 0 266.247ZM95.1148 223.411C95.1148 220.913 95.1226 218.485 95.1128 216.059C95.1031 213.971 93.5542 212.387 91.5229 212.36C89.5209 212.335 87.8979 213.913 87.8549 215.993C87.8158 217.876 87.8432 219.758 87.8432 221.641C87.8432 222.214 87.8432 222.788 87.8432 223.413C90.2983 223.411 92.6225 223.411 95.1148 223.411ZM287.153 223.409C287.153 220.835 287.2 218.313 287.137 215.792C287.088 213.848 285.403 212.331 283.477 212.358C281.485 212.387 279.909 213.958 279.895 215.963C279.879 218.204 279.889 220.444 279.895 222.682C279.895 222.926 279.95 223.173 279.979 223.405C282.387 223.409 284.711 223.409 287.153 223.409ZM13.9104 281.088C13.9104 278.839 14.0393 276.609 13.8635 274.402C13.7522 273.005 12.3889 272.121 10.9943 272.138C9.5646 272.158 8.22864 273.117 8.12708 274.552C7.97669 276.703 8.08802 278.873 8.08802 281.086C10.0392 281.088 11.9123 281.088 13.9104 281.088ZM360.984 281.14C362.744 281.14 364.39 281.14 366.037 281.14C366.199 281.14 366.439 281.203 366.508 281.121C366.699 280.892 366.945 280.607 366.951 280.338C366.99 278.619 366.988 276.898 366.965 275.177C366.941 273.46 365.703 272.189 364.055 272.14C362.457 272.091 361.08 273.261 361.006 274.925C360.916 276.929 360.984 278.941 360.984 281.14ZM147.2 230.679C147.2 228.684 147.268 226.768 147.176 224.858C147.114 223.546 145.909 222.569 144.584 222.532C143.211 222.495 141.934 223.44 141.856 224.802C141.744 226.737 141.828 228.684 141.828 230.677C143.625 230.679 145.338 230.679 147.2 230.679ZM233.197 230.686C233.197 228.718 233.244 226.864 233.181 225.016C233.135 223.632 232.009 222.602 230.634 222.534C229.308 222.467 227.978 223.344 227.886 224.653C227.746 226.647 227.849 228.659 227.849 230.688C229.65 230.686 231.365 230.686 233.197 230.686ZM102.205 223.415C102.205 219.702 102.205 216.059 102.205 212.409C100.25 212.588 98.7945 213.647 98.7047 215.301C98.5562 217.983 98.6656 220.678 98.6656 223.415C99.8629 223.415 100.99 223.415 102.205 223.415ZM276.356 223.407C276.356 220.704 276.452 218.042 276.323 215.389C276.237 213.647 274.549 212.385 272.766 212.471C272.766 216.096 272.766 219.723 272.766 223.407C273.973 223.407 275.123 223.407 276.356 223.407ZM84.3626 223.413C84.3626 220.721 84.4466 218.092 84.3334 215.471C84.2572 213.706 82.4954 212.342 80.7708 212.493C80.7708 216.114 80.7708 219.739 80.7708 223.413C81.9603 223.413 83.0872 223.413 84.3626 223.413ZM294.206 223.415C294.206 219.7 294.206 216.059 294.206 212.411C292.282 212.581 290.799 213.663 290.708 215.307C290.557 217.985 290.667 220.68 290.667 223.415C291.866 223.415 292.993 223.415 294.206 223.415ZM19.7718 272.234C18.2581 272.238 16.9807 273.144 16.8967 274.523C16.7678 276.683 16.8616 278.855 16.8616 281.082C17.8694 281.082 18.7952 281.082 19.7698 281.082C19.7718 278.095 19.7718 275.164 19.7718 272.234ZM355.23 272.253C355.23 275.183 355.23 278.115 355.23 281.136C356.082 281.136 356.861 281.177 357.631 281.109C357.832 281.091 358.158 280.74 358.162 280.535C358.199 278.617 358.236 276.697 358.158 274.783C358.095 273.271 356.783 272.185 355.23 272.253ZM67.9718 246.786C67.9698 246.786 67.9679 246.786 67.9659 246.786C67.9659 247.468 67.921 248.155 67.9913 248.829C68.0147 249.044 68.3351 249.386 68.5343 249.396C69.5695 249.452 70.6124 249.446 71.6496 249.402C71.8507 249.392 72.2082 249.114 72.2121 248.954C72.2433 247.526 72.2941 246.091 72.1671 244.673C72.0695 243.573 71.0285 242.894 69.9093 242.974C68.839 243.05 68.0421 243.837 67.9776 244.933C67.9425 245.552 67.9718 246.171 67.9718 246.786ZM302.77 246.907C302.768 246.907 302.764 246.907 302.763 246.907C302.763 247.525 302.784 248.142 302.757 248.759C302.733 249.275 302.958 249.444 303.45 249.433C304.425 249.411 305.399 249.409 306.372 249.433C306.882 249.444 307.058 249.234 307.05 248.739C307.03 247.538 307.059 246.337 307.038 245.136C307.017 243.87 306.19 243.009 305.005 242.974C303.765 242.937 302.858 243.769 302.778 245.058C302.739 245.671 302.77 246.29 302.77 246.907ZM2.32816 272.173C2.32816 275.173 2.32816 278.107 2.32816 281.072C3.32622 281.072 4.24811 281.072 5.26571 281.072C5.26571 279.064 5.28133 277.121 5.25985 275.179C5.24227 273.453 4.22272 272.39 2.32816 272.173ZM372.695 272.175C370.801 272.376 369.779 273.449 369.744 275.169C369.728 275.949 369.74 276.73 369.74 277.509C369.74 278.699 369.74 279.888 369.74 281.06C370.82 281.06 371.744 281.06 372.695 281.06C372.695 278.07 372.695 275.158 372.695 272.175ZM152.444 222.587C150.973 222.725 149.922 223.464 149.856 224.639C149.743 226.637 149.825 228.645 149.825 230.673C150.737 230.673 151.563 230.673 152.444 230.673C152.444 227.96 152.444 225.309 152.444 222.587ZM222.58 222.557C222.58 225.309 222.58 227.985 222.58 230.667C223.482 230.667 224.312 230.667 225.222 230.667C225.222 228.854 225.234 227.104 225.218 225.354C225.207 223.712 224.388 222.815 222.58 222.557ZM139.248 230.686C139.248 228.72 139.305 226.866 139.231 225.018C139.172 223.567 138.049 222.61 136.578 222.606C136.578 225.29 136.578 227.973 136.578 230.686C137.473 230.686 138.307 230.686 139.248 230.686ZM238.441 222.585C237.045 222.643 235.941 223.382 235.849 224.655C235.707 226.647 235.812 228.657 235.812 230.647C236.74 230.647 237.596 230.647 238.443 230.647C238.441 227.907 238.441 225.247 238.441 222.585ZM76.3703 243.007C75.2297 243.017 74.425 243.544 74.3312 244.458C74.1652 246.073 74.2844 247.718 74.2844 249.423C74.8234 249.423 75.2863 249.491 75.7141 249.396C75.9641 249.339 76.3371 249.027 76.343 248.819C76.3899 246.917 76.3703 245.011 76.3703 243.007ZM298.641 243.05C298.641 245.017 298.63 246.982 298.663 248.946C298.665 249.107 298.948 249.38 299.122 249.4C299.651 249.46 300.19 249.421 300.782 249.421C300.782 247.782 300.833 246.296 300.764 244.814C300.716 243.726 299.907 243.091 298.641 243.05ZM63.8584 249.425C64.4346 249.425 64.9014 249.495 65.3291 249.398C65.5772 249.341 65.9405 249.025 65.9502 248.812C66.0069 247.513 66.0225 246.206 65.962 244.907C65.9073 243.704 64.9209 242.931 63.8584 243.157C63.8584 245.198 63.8584 247.239 63.8584 249.425ZM311.196 243.03C309.874 243.13 309.097 243.778 309.046 244.866C308.983 246.198 309.018 247.534 309.032 248.868C309.04 249.71 309.708 249.398 310.12 249.405C310.536 249.413 311.192 249.689 311.194 248.851C311.202 246.937 311.196 245.023 311.196 243.03Z" fill="#19234F"/>
<g filter="url(#filter0_f_9_1312)">
<ellipse cx="287" cy="104" rx="35" ry="33" fill="url(#paint0_radial_9_1312)"/>
</g>
<path d="M294.56 93.0396C293.723 91.6109 292.028 91.3252 290.508 91.3252C289.755 91.3252 288.703 91.559 288.294 90.7732C287.982 90.1692 287.787 89.5588 287.281 89.0848C286.332 88.1951 284.891 87.9743 283.67 88.3574C283.014 88.5652 282.475 88.9484 281.962 89.39C281.605 89.6952 281.196 90.1757 280.722 90.403C280.527 90.3771 280.325 90.3381 280.118 90.2602C279.637 90.0913 279.157 90.4225 278.962 90.8446C278.702 90.955 278.468 91.1369 278.293 91.3966C277.955 91.8837 278.221 92.5266 277.663 92.7863C277.085 93.0526 276.526 93.2149 276.013 93.5981C275.39 94.0656 274.864 94.6501 274.312 95.1956C273.286 96.2216 272.124 97.1503 271.851 98.6504C271.598 100.027 271.656 101.449 271.994 102.813C272.344 104.209 273.007 105.502 273.903 106.625C274.344 107.183 274.734 107.638 274.935 108.339C275.143 109.047 275.371 109.71 275.812 110.307C276.526 111.268 277.78 112.177 279.04 112.171C280.371 112.164 281.131 110.853 280.741 109.638C280.527 108.963 280.007 108.547 279.598 108.002C279.364 107.69 279.319 107.671 279.488 107.404C279.637 107.17 279.949 107.021 280.105 106.768C280.462 106.183 280.338 105.54 280.189 104.911C280.007 104.151 279.799 103.397 279.507 102.67C279.371 102.339 279.228 102.008 279.053 101.696C278.929 101.469 278.605 101.151 278.572 100.904C278.488 100.202 279.644 99.8063 280.118 99.5336C281.423 98.7868 282.196 97.488 283.417 96.6567C283.956 96.2866 284.585 96.0398 285.222 96.3061C285.845 96.5658 286.371 97.0204 287.014 97.2542C288.482 97.7932 289.781 97.0659 290.989 96.2866C291.079 96.2281 291.196 96.1242 291.307 96.0723C291.333 96.0853 291.359 96.0983 291.404 96.1177C291.683 96.2476 291.878 96.4749 292.19 96.5658C292.755 96.7282 293.404 96.6113 293.898 96.2996C294.989 95.6047 295.21 94.1436 294.56 93.0396Z" fill="#D0CEE6"/>
<path d="M300.97 103.346C300.892 102.891 300.808 102.41 300.658 101.975C300.567 101.696 300.437 101.43 300.223 101.222C300.067 101.06 299.872 100.969 299.697 100.845C299.749 100.871 299.665 100.767 299.665 100.793C299.613 100.709 299.567 100.618 299.528 100.527C299.45 100.365 299.385 100.209 299.281 100.06C299.067 99.7479 298.801 99.5206 298.489 99.3778C298.366 99.2284 298.203 99.1115 298.002 99.0401C297.528 98.8647 296.983 98.9881 296.56 99.2414C296.418 99.3258 296.288 99.4427 296.145 99.5401C296.125 99.5531 296.086 99.5856 296.054 99.6115C295.95 99.605 295.937 99.605 296.021 99.618C295.554 99.5856 295.145 99.4622 294.677 99.6245C294.197 99.7869 293.833 100.112 293.541 100.514C293.021 101.235 292.774 102.222 292.943 103.092C293.125 104.008 293.924 104.768 294.866 104.826C295.015 104.833 295.177 104.82 295.327 104.787C295.476 105.002 295.638 105.209 295.827 105.378C296.431 105.924 297.171 106.248 297.976 106.346C298.684 106.43 299.463 106.287 300.067 105.898C300.483 105.631 300.814 105.248 300.963 104.768C301.106 104.294 301.048 103.82 300.97 103.346Z" fill="#D0CEE6"/>
<path d="M298.678 108.365C298.47 108.3 298.216 108.32 298.022 108.391C297.931 108.424 297.846 108.463 297.768 108.502C297.71 108.489 297.651 108.469 297.6 108.45C297.268 108.287 296.95 108.099 296.586 108.028C296.21 107.956 295.846 107.963 295.508 108.171C295.177 108.372 295.002 108.723 294.93 109.093C294.833 109.625 294.833 110.21 295.145 110.677C295.534 111.249 296.164 111.534 296.853 111.385C296.95 111.366 297.048 111.32 297.132 111.262C297.314 111.366 297.502 111.463 297.723 111.508C298.113 111.586 298.483 111.554 298.84 111.366C299.074 111.236 299.294 111.015 299.405 110.775C299.632 110.294 299.619 109.794 299.502 109.288C299.392 108.852 299.119 108.495 298.678 108.365Z" fill="#D0CEE6"/>
<path d="M283.17 114.703C282.566 114.197 281.832 113.996 281.046 113.996C280.378 114.002 279.709 114.093 279.046 114.151C278.546 114.197 278.04 114.56 278.072 115.125C278.137 116.197 278.579 117.255 279.39 117.983C280.209 118.717 281.313 119.126 282.417 119.041C282.91 119.002 283.384 118.639 283.384 118.113C283.586 117.976 283.774 117.827 283.904 117.613C284.092 117.294 284.118 116.872 284.079 116.509C284.008 115.833 283.709 115.158 283.17 114.703Z" fill="#D0CEE6"/>
<path d="M286.417 111.32C286.274 111.106 286.151 110.995 285.936 110.846C285.819 110.762 285.67 110.716 285.54 110.664C285.469 110.638 285.397 110.619 285.326 110.606C285.183 110.58 285.034 110.554 284.884 110.554C284.735 110.547 284.586 110.58 284.443 110.599C284.3 110.625 284.17 110.69 284.04 110.749C283.91 110.807 283.787 110.911 283.683 111.008C283.586 111.099 283.501 111.21 283.443 111.327C283.326 111.567 283.3 111.677 283.274 111.95C283.261 112.086 283.287 112.229 283.319 112.359C283.352 112.489 283.404 112.625 283.482 112.742C283.605 112.931 283.735 113.067 283.93 113.184C283.956 113.216 283.982 113.255 284.008 113.288C284.06 113.353 284.112 113.418 284.157 113.483C284.248 113.58 284.352 113.645 284.469 113.684C284.547 113.729 284.625 113.749 284.715 113.749C284.845 113.775 284.975 113.775 285.105 113.729C285.326 113.651 285.56 113.567 285.761 113.444C286.021 113.288 286.261 113.073 286.404 112.807C286.475 112.677 286.534 112.541 286.566 112.398C286.618 112.138 286.618 111.976 286.566 111.716C286.553 111.58 286.495 111.437 286.417 111.32Z" fill="#D0CEE6"/>
<path d="M279.066 94.2668C278.28 93.4226 279.936 92.942 281.098 92.7732C282.261 92.6044 282.676 90.286 284.086 90.2665C285.495 90.247 288.975 90.825 288.852 92.6109C288.729 94.3902 285.534 95.4163 284.956 95.2149C284.378 95.0136 283.462 94.059 282.715 94.1045C281.968 94.1434 279.605 94.8448 279.066 94.2668Z" fill="#D0CEE6"/>
<path d="M277.949 96.4228C277.377 95.5006 279.15 94.9746 279.527 95.4292C279.897 95.8838 278.481 97.2929 277.949 96.4228Z" fill="#D0CEE6"/>
<path d="M273.637 102.475C272.734 101.508 273.39 100.371 273.968 100.183C274.546 99.9881 274.793 103.716 273.637 102.475Z" fill="#D0CEE6"/>
<path d="M281.384 101.891C280.475 100.936 281.592 99.6503 282.293 99.9815C283.001 100.319 282.3 102.845 281.384 101.891Z" fill="#D0CEE6"/>
<path d="M283.585 100.566C282.494 100.053 284.293 98.8647 284.495 99.1569C284.702 99.4491 284.287 100.897 283.585 100.566Z" fill="#D0CEE6"/>
<path d="M294.482 103.092C293.619 101.956 295.768 101.917 296.391 101.449C297.015 100.982 299.041 100.982 299.58 101.728C300.119 102.475 300.703 105.255 298.918 105.255C297.138 105.248 295.852 104.897 294.482 103.092Z" fill="#D0CEE6"/>
<path d="M292.203 108.398C291.294 107.43 294.287 106.066 294.281 106.612C294.274 107.157 293.404 109.683 292.203 108.398Z" fill="#D0CEE6"/>
<path d="M281.813 117.476C280.007 117.502 280.306 114.82 281.631 114.905C282.956 114.989 283.111 116.197 283.3 116.522C283.501 116.859 282.118 117.476 281.813 117.476Z" fill="#D0CEE6"/>
<path d="M285.573 119.061C284.761 118.704 285.202 117.398 285.573 117.229C285.943 117.067 286.813 119.606 285.573 119.061Z" fill="#D0CEE6"/>
<path d="M289.677 90.2666C287.839 90.916 287.605 87.2209 288.599 87.8833C289.592 88.5457 291.755 89.5328 289.677 90.2666Z" fill="#D0CEE6"/>
<path d="M286.605 121.21C296.328 121.21 304.21 113.328 304.21 103.605C304.21 93.8821 296.328 86 286.605 86C276.882 86 269 93.8821 269 103.605C269 113.328 276.882 121.21 286.605 121.21Z" fill="#EDFFD3"/>
<path d="M277.949 96.4228C277.377 95.5006 279.15 94.9746 279.527 95.4292C279.897 95.8838 278.481 97.2929 277.949 96.4228Z" fill="#D0CEE6"/>
<path d="M273.637 102.475C272.734 101.508 273.39 100.371 273.968 100.183C274.546 99.9881 274.793 103.716 273.637 102.475Z" fill="#D0CEE6"/>
<path d="M281.384 101.891C280.475 100.936 281.592 99.6503 282.293 99.9815C283.001 100.319 282.3 102.845 281.384 101.891Z" fill="#D0CEE6"/>
<path d="M283.585 100.566C282.494 100.053 284.293 98.8647 284.495 99.1569C284.702 99.4491 284.287 100.897 283.585 100.566Z" fill="#D0CEE6"/>
<path d="M292.203 108.398C291.294 107.43 294.287 106.066 294.281 106.612C294.274 107.157 293.404 109.683 292.203 108.398Z" fill="#D0CEE6"/>
<path d="M281.813 117.476C280.007 117.502 280.306 114.82 281.631 114.905C282.956 114.989 283.111 116.197 283.3 116.522C283.501 116.859 282.118 117.476 281.813 117.476Z" fill="#D0CEE6"/>
<path d="M285.573 119.061C284.761 118.704 285.202 117.398 285.573 117.229C285.943 117.067 286.813 119.606 285.573 119.061Z" fill="#D0CEE6"/>
<path d="M289.677 90.2666C287.839 90.916 287.605 87.2209 288.599 87.8833C289.592 88.5457 291.755 89.5328 289.677 90.2666Z" fill="#D0CEE6"/>
<path d="M298.632 108.521C298.47 108.469 298.255 108.482 298.073 108.541C297.989 108.567 297.918 108.606 297.84 108.645L297.781 108.677L297.723 108.664C297.651 108.645 297.593 108.632 297.534 108.606L297.327 108.502C297.067 108.365 296.82 108.242 296.554 108.19C296.145 108.119 295.852 108.151 295.586 108.313C295.255 108.515 295.132 108.865 295.08 109.125C294.963 109.742 295.028 110.236 295.275 110.593C295.638 111.125 296.21 111.366 296.814 111.236C296.885 111.223 296.956 111.19 297.034 111.132L297.119 111.073L297.21 111.125C297.372 111.223 297.547 111.314 297.749 111.353C298.125 111.431 298.457 111.385 298.755 111.223C298.957 111.112 299.158 110.904 299.249 110.703C299.437 110.307 299.463 109.865 299.333 109.32C299.242 108.911 298.989 108.625 298.632 108.521Z" fill="#D0CEE6"/>
<path d="M283.066 114.827C282.54 114.385 281.871 114.158 281.079 114.158C280.579 114.158 280.092 114.21 279.618 114.262C279.429 114.281 279.247 114.301 279.059 114.32C278.637 114.359 278.202 114.652 278.234 115.126C278.299 116.21 278.76 117.21 279.501 117.873C280.319 118.6 281.371 118.977 282.41 118.892C282.813 118.86 283.228 118.567 283.228 118.126V118.041L283.3 117.996C283.462 117.886 283.65 117.749 283.767 117.548C283.962 117.217 283.949 116.782 283.923 116.548C283.839 115.833 283.54 115.223 283.066 114.827Z" fill="#D0CEE6"/>
<path d="M294.424 93.1239C293.781 92.0264 292.508 91.4939 290.534 91.4939C290.398 91.4939 290.242 91.5004 290.092 91.5069C289.398 91.5459 288.534 91.5913 288.151 90.851C288.073 90.7016 288.001 90.5523 287.936 90.4094C287.729 89.9678 287.534 89.5457 287.17 89.208C286.306 88.4028 284.956 88.13 283.722 88.5132C283.046 88.7275 282.507 89.1366 282.072 89.5133C281.975 89.5977 281.871 89.6951 281.761 89.799C281.475 90.0717 281.157 90.3769 280.8 90.5523L280.754 90.5718L280.709 90.5653C280.481 90.5328 280.267 90.4873 280.066 90.4159C279.994 90.3899 279.923 90.377 279.851 90.377C279.527 90.377 279.241 90.6302 279.111 90.9159L279.085 90.9744L279.027 91.0004C278.786 91.0978 278.585 91.2666 278.429 91.4939C278.312 91.6692 278.28 91.8641 278.247 92.0719C278.195 92.3901 278.137 92.7472 277.734 92.9356C277.566 93.0135 277.403 93.0849 277.234 93.1499C276.838 93.3122 276.462 93.4681 276.111 93.7343C275.624 94.098 275.189 94.5396 274.767 94.9747C274.656 95.0916 274.539 95.2085 274.429 95.3189C274.286 95.4617 274.137 95.6046 273.994 95.7475C273.091 96.6242 272.241 97.4489 272.013 98.6892C271.766 100.014 271.812 101.43 272.15 102.78C272.487 104.125 273.117 105.385 274.026 106.527L274.117 106.638C274.533 107.164 274.897 107.612 275.091 108.294C275.312 109.073 275.533 109.664 275.942 110.21C276.611 111.106 277.825 112.008 279.027 112.008C279.566 112.008 280.027 111.775 280.339 111.359C280.676 110.891 280.767 110.268 280.585 109.69C280.442 109.242 280.157 108.917 279.851 108.573C279.722 108.424 279.585 108.268 279.462 108.106L279.41 108.041C279.196 107.761 279.137 107.651 279.338 107.326C279.423 107.19 279.546 107.086 279.67 106.982C279.78 106.885 279.89 106.794 279.955 106.69C280.274 106.164 280.176 105.592 280.02 104.956C279.858 104.281 279.65 103.495 279.345 102.735C279.235 102.469 279.085 102.118 278.903 101.78C278.864 101.709 278.799 101.625 278.734 101.534C278.585 101.339 278.429 101.131 278.41 100.93C278.325 100.241 279.17 99.8322 279.728 99.5594C279.845 99.501 279.955 99.449 280.04 99.4036C280.728 99.0074 281.287 98.4425 281.819 97.8905C282.28 97.4164 282.754 96.9229 283.326 96.5397C284.047 96.0462 284.689 95.9228 285.28 96.1696C285.586 96.2995 285.865 96.4683 286.138 96.6306C286.449 96.819 286.735 96.9943 287.066 97.1177C288.456 97.6307 289.722 96.9294 290.898 96.1696C290.924 96.1501 290.956 96.1241 290.995 96.0981C291.073 96.0397 291.157 95.9813 291.235 95.9423L291.307 95.9098L291.469 95.9877C291.599 96.0462 291.709 96.1241 291.813 96.202C291.95 96.293 292.073 96.3839 292.229 96.4293C292.729 96.5787 293.333 96.4813 293.801 96.1826C294.781 95.5462 295.054 94.2084 294.424 93.1239Z" fill="#D0CEE6"/>
<path d="M277.507 94.4486C276.63 93.5005 278.481 92.9615 279.78 92.7797C281.079 92.5913 281.546 89.9937 283.124 89.9743C284.702 89.9483 288.599 90.5977 288.462 92.5978C288.326 94.5915 284.748 95.7344 284.098 95.5136C283.449 95.2928 282.429 94.2213 281.592 94.2668C280.754 94.3057 278.111 95.098 277.507 94.4486Z" fill="#D0CEE6"/>
<path d="M300.502 102.02C300.398 101.715 300.275 101.501 300.106 101.332C300.028 101.254 299.944 101.196 299.853 101.137L299.885 101.501L299.522 100.871C299.47 100.78 299.418 100.689 299.379 100.592L299.353 100.54C299.288 100.397 299.229 100.267 299.145 100.144C298.957 99.8645 298.71 99.6502 298.418 99.5138L298.359 99.4684C298.255 99.345 298.106 99.2411 297.937 99.1761C297.554 99.0333 297.067 99.1047 296.632 99.3645C296.554 99.4099 296.476 99.4684 296.405 99.5268C296.346 99.5723 296.288 99.6177 296.229 99.6567L296.093 99.7606L296.034 99.7541C296.021 99.7541 296.008 99.7541 296.002 99.7541C295.879 99.7541 295.762 99.7411 295.645 99.7281C295.32 99.6892 295.034 99.6502 294.723 99.7606C294.314 99.897 293.969 100.17 293.664 100.592C293.158 101.293 292.937 102.235 293.093 103.047C293.262 103.91 294.021 104.599 294.866 104.651C294.989 104.657 295.125 104.644 295.288 104.618L295.392 104.599L295.45 104.69C295.612 104.923 295.768 105.112 295.924 105.254C296.502 105.774 297.197 106.086 297.989 106.183C298.697 106.268 299.424 106.112 299.97 105.761C300.385 105.495 300.671 105.131 300.801 104.722C300.937 104.287 300.879 103.839 300.801 103.378C300.743 102.949 300.652 102.469 300.502 102.02Z" fill="#D0CEE6"/>
<path d="M294.482 103.092C293.619 101.956 295.768 101.917 296.391 101.449C297.015 100.982 299.041 100.982 299.58 101.728C300.119 102.475 300.703 105.255 298.918 105.255C297.138 105.248 295.852 104.897 294.482 103.092Z" fill="#D0CEE6"/>
<path d="M271.286 109.774C270.013 107.956 274.455 115.061 274.455 115.061C274.455 115.061 274.085 112.775 274.455 112.177C274.825 111.58 274.267 111.288 273.468 110.547C272.669 109.813 272.228 111.119 271.286 109.774Z" fill="#D0CEE6"/>
<path d="M271.059 108.476C270.318 108.417 270.623 105.384 270.955 105.443C271.286 105.501 271.156 106.891 271.688 107.138C272.227 107.378 271.656 108.528 271.059 108.476Z" fill="#D0CEE6"/>
<path d="M290.547 119.652C290.547 119.652 295.716 118.21 298.535 115.061C298.535 115.061 295.963 115.885 294.872 115.58C293.781 115.275 291.683 115.82 292.346 116.846C293.008 117.873 291.118 117.808 291.125 118.171C291.125 118.541 291.456 119.217 290.547 119.652Z" fill="#D0CEE6"/>
<path d="M300.119 98.9489C298.918 98.1242 299.496 97.6501 300.119 97.7086C300.743 97.767 300.483 99.1957 300.119 98.9489Z" fill="#D0CEE6"/>
<path d="M300.496 106.963C300.171 106.709 300.905 105.333 301.184 105.443C301.463 105.553 301.463 107.703 300.496 106.963Z" fill="#D0CEE6"/>
<path d="M275.007 92.7536C274.643 92.5458 275.871 91.299 276.481 91.4613C277.091 91.6302 275.806 93.2147 275.007 92.7536Z" fill="#D0CEE6"/>
</g>
<defs>
<filter id="filter0_f_9_1312" x="239.4" y="58.4" width="95.2" height="91.2" filterUnits="userSpaceOnUse" color-interpolation-filters="sRGB">
<feFlood flood-opacity="0" result="BackgroundImageFix"/>
<feBlend mode="normal" in="SourceGraphic" in2="BackgroundImageFix" result="shape"/>
<feGaussianBlur stdDeviation="6.3" result="effect1_foregroundBlur_9_1312"/>
</filter>
<radialGradient id="paint0_radial_9_1312" cx="0" cy="0" r="1" gradientUnits="userSpaceOnUse" gradientTransform="translate(287 104) rotate(90) scale(33 35)">
<stop stop-color="white"/>
<stop offset="1" stop-color="white" stop-opacity="0"/>
</radialGradient>
<clipPath id="clip0_9_1312">
<path d="M0 0H375V244C375 299.228 330.228 344 275 344H100C44.7715 344 0 299.228 0 244V0Z" fill="white"/>
</clipPath>
<clipPath id="clip1_9_1312">
<rect width="894.63" height="180.604" fill="white" transform="translate(-371 -5)"/>
</clipPath>
<clipPath id="clip2_9_1312">
<rect width="373" height="58" fill="white" transform="translate(2 -1)"/>
</clipPath>
<clipPath id="clip3_9_1312">
<rect width="373" height="58" fill="white" transform="translate(2 125)"/>
</clipPath>
<clipPath id="clip4_9_1312">
<rect width="894.63" height="180.604" fill="white" transform="translate(-371 -5)"/>
</clipPath>
<clipPath id="clip5_9_1312">
<rect width="373" height="58" fill="white" transform="translate(2 -1)"/>
</clipPath>
<clipPath id="clip6_9_1312">
<rect width="373" height="58" fill="white" transform="translate(2 125)"/>
</clipPath>
<clipPath id="clip7_9_1312">
<rect width="448" height="162" fill="white" transform="translate(-7 201)"/>
</clipPath>
</defs>
</svg>
