<svg width="375" height="344" viewBox="0 0 375 344" fill="none" xmlns="http://www.w3.org/2000/svg">
<g clip-path="url(#clip0_16_745)">
<path d="M0 0H375V244C375 299.228 330.228 344 275 344H100C44.7715 344 0 299.228 0 244V0Z" fill="url(#paint0_linear_16_745)"/>
<g clip-path="url(#clip1_16_745)">
<g opacity="0.53">
<g opacity="0.53">
<path opacity="0.21" d="M266.312 147.576C109.6 139.972 36.2893 85.3247 -29.1181 33.5742L-40.1578 39.7629C-40.1578 39.7629 86.0331 153.921 281.424 148.823C476.815 143.725 523.623 69.3755 523.623 69.3755L521.519 66.674C498.661 85.6104 405.589 154.33 266.312 147.576Z" fill="#C5B7FF"/>
<path opacity="0.21" d="M266.312 141.738C266.312 141.738 118.464 142.037 3.52707 15.2677L-6.76587 21.0409C10.7094 44.049 91.5465 136.705 266.319 146.349C380.606 152.661 461.833 99.2543 510.415 52.4133L508.973 50.5625C508.973 50.5625 414.336 151.265 266.319 138.212C118.302 125.159 39.6661 -5 39.6661 -5L25.8469 2.74732C45.634 38.094 110.762 128.107 266.312 141.738Z" fill="#C5B7FF"/>
</g>
<path opacity="0.21" d="M-123.105 153.706C-295.391 137.459 -326.302 127.575 -304.08 121.568C-309.197 120.769 -314.139 119.983 -318.847 119.23C-398.437 124.665 -418.757 135.471 -144.672 156.876C268.8 189.164 430.357 171.656 478.471 163.35C477.821 163.454 287.275 192.404 -123.105 153.706Z" fill="#C5B7FF"/>
<path opacity="0.21" d="M-115.417 133.348C356.683 185.404 470.814 162.558 495.459 153.739V144.985C460.495 151.187 338.013 168.656 145.602 150.843C145.602 150.843 347.695 167.175 495.459 140.316V132.854C350.371 171.961 120.036 150.44 -17.3055 131.763C42.9391 144.401 86.6306 148.823 96.7352 149.739C97.4821 149.804 98.2224 149.868 98.9757 149.933C98.9757 149.933 98.2029 149.875 96.7352 149.739C-24.4424 139.322 -111.819 119.392 -134.541 113.846C-148.899 113.95 -208.196 114.47 -263.823 116.502C-265.759 116.645 -267.661 116.788 -269.525 116.938C-231.587 120.749 -181.103 126.107 -115.417 133.348Z" fill="#C5B7FF"/>
</g>
<g clip-path="url(#clip2_16_745)">
<path d="M159.025 119.371C157.643 119.757 156.144 118.355 154.821 118.112C154.072 117.969 153.255 117.895 152.517 118.146C152.142 118.277 151.85 118.479 151.513 118.685C151.483 118.704 151.453 118.73 151.419 118.749C150.944 117.745 150.202 117.007 148.95 116.752C148.115 116.583 147.309 116.403 146.548 116.01C146.001 115.725 145.469 115.32 144.844 115.275C144.825 115.272 144.817 115.275 144.802 115.275C145.488 116.531 146.983 116.995 148.283 117.565C148.519 117.67 148.752 117.778 148.976 117.91C149.13 117.951 149.28 117.999 149.419 118.063C150.044 118.352 150.254 118.876 150.415 119.468C150.456 119.584 150.49 119.708 150.513 119.832C150.621 120.195 151.037 120.491 151.423 120.427C151.854 120.146 152.307 119.903 152.776 119.719C153.012 119.584 153.255 119.468 153.521 119.431C153.746 119.393 153.967 119.382 154.184 119.389C154.402 119.371 154.623 119.367 154.848 119.382C156.238 119.472 157.928 120.397 159.112 119.36C159.078 119.36 159.052 119.36 159.025 119.371Z" fill="#19234F"/>
<path d="M163.042 125.651C163.121 125.654 163.203 125.658 163.278 125.669C163.627 125.733 163.795 125.965 163.952 126.239C163.99 126.291 164.02 126.347 164.046 126.407C164.144 126.572 164.391 126.666 164.571 126.583C164.754 126.389 164.942 126.209 165.151 126.059C165.249 125.961 165.358 125.875 165.481 125.819C165.59 125.774 165.695 125.74 165.803 125.714C165.908 125.677 166.017 125.647 166.133 125.624C166.834 125.493 167.789 125.733 168.239 125.07C168.224 125.074 168.209 125.077 168.201 125.085C167.564 125.452 166.646 124.95 165.961 124.999C165.571 125.025 165.159 125.092 164.825 125.313C164.657 125.422 164.537 125.561 164.398 125.71C164.383 125.725 164.372 125.737 164.361 125.755C163.997 125.317 163.537 125.047 162.885 125.081C162.45 125.103 162.03 125.118 161.599 125.021C161.296 124.95 160.981 124.819 160.663 124.879C160.655 124.879 160.648 124.882 160.644 124.882C161.142 125.414 161.94 125.456 162.66 125.572C162.783 125.594 162.915 125.621 163.042 125.651Z" fill="#19234F"/>
<path d="M142.843 121.892C142.464 121.802 142.049 121.743 141.666 121.855C141.468 121.911 141.318 122.009 141.142 122.106C141.127 122.113 141.108 122.125 141.093 122.136C140.876 121.611 140.516 121.214 139.883 121.053C139.46 120.944 139.055 120.836 138.676 120.611C138.403 120.45 138.144 120.229 137.822 120.191C137.815 120.191 137.807 120.191 137.803 120.191C138.122 120.851 138.875 121.124 139.523 121.45C139.643 121.506 139.756 121.574 139.868 121.641C139.947 121.668 140.022 121.694 140.089 121.731C140.404 121.896 140.494 122.17 140.561 122.473C140.584 122.533 140.591 122.597 140.602 122.66C140.651 122.852 140.853 123.009 141.048 122.986C141.277 122.855 141.517 122.743 141.76 122.66C141.884 122.597 142.011 122.544 142.146 122.529C142.262 122.514 142.378 122.514 142.487 122.526C142.596 122.522 142.708 122.526 142.824 122.537C143.532 122.619 144.368 123.136 145.001 122.634C144.986 122.634 144.975 122.634 144.956 122.634C144.24 122.807 143.506 122.057 142.843 121.892Z" fill="#19234F"/>
<path d="M130.756 111.192C130.141 111.162 129.482 111.188 128.924 111.469C128.635 111.611 128.421 111.806 128.178 112.008C128.155 112.027 128.133 112.05 128.11 112.072C127.623 111.319 126.956 110.809 125.926 110.742C125.244 110.697 124.581 110.641 123.929 110.405C123.464 110.236 122.996 109.97 122.49 110C122.475 110 122.468 110.004 122.457 110.008C123.138 110.933 124.382 111.143 125.484 111.458C125.683 111.514 125.881 111.581 126.072 111.66C126.2 111.675 126.323 111.697 126.439 111.735C126.971 111.896 127.193 112.297 127.387 112.75C127.432 112.844 127.474 112.934 127.503 113.031C127.627 113.309 127.991 113.503 128.29 113.41C128.609 113.136 128.939 112.893 129.294 112.698C129.471 112.563 129.65 112.45 129.86 112.387C130.036 112.334 130.209 112.301 130.381 112.282C130.553 112.244 130.73 112.218 130.909 112.203C132.03 112.128 133.476 112.687 134.308 111.727C134.285 111.731 134.263 111.731 134.24 111.742C133.187 112.203 131.839 111.248 130.756 111.192Z" fill="#19234F"/>
<path d="M138.126 116.332C138.193 116.321 138.253 116.317 138.317 116.321C138.602 116.332 138.763 116.501 138.916 116.699C138.95 116.741 138.984 116.782 139.01 116.823C139.108 116.943 139.314 116.992 139.448 116.909C139.572 116.733 139.707 116.572 139.857 116.426C139.924 116.336 139.999 116.257 140.093 116.201C140.172 116.149 140.254 116.115 140.34 116.081C140.419 116.04 140.501 116.006 140.591 115.976C141.135 115.796 141.921 115.886 142.214 115.309C142.202 115.309 142.191 115.313 142.184 115.324C141.719 115.684 140.925 115.384 140.385 115.497C140.078 115.56 139.756 115.658 139.512 115.868C139.392 115.976 139.31 116.096 139.216 116.231C139.205 116.242 139.201 116.257 139.194 116.272C138.856 115.957 138.459 115.793 137.942 115.894C137.598 115.957 137.264 116.014 136.912 115.984C136.661 115.961 136.395 115.89 136.148 115.969C136.144 115.969 136.136 115.972 136.133 115.976C136.59 116.347 137.23 116.291 137.815 116.306C137.916 116.31 138.025 116.317 138.126 116.332Z" fill="#19234F"/>
<path d="M121.602 115.497C121.291 115.467 120.954 115.463 120.662 115.59C120.512 115.658 120.4 115.748 120.265 115.849C120.254 115.856 120.246 115.868 120.231 115.879C119.999 115.482 119.673 115.204 119.148 115.144C118.8 115.103 118.466 115.058 118.137 114.923C117.904 114.826 117.672 114.676 117.413 114.68C117.41 114.68 117.402 114.68 117.398 114.68C117.721 115.171 118.35 115.309 118.908 115.5C119.006 115.534 119.107 115.572 119.201 115.617C119.268 115.628 119.328 115.643 119.388 115.665C119.658 115.763 119.759 115.973 119.845 116.209C119.864 116.257 119.883 116.306 119.898 116.355C119.954 116.497 120.137 116.606 120.291 116.568C120.46 116.437 120.636 116.321 120.819 116.231C120.913 116.171 121.007 116.115 121.115 116.089C121.209 116.066 121.299 116.055 121.385 116.047C121.475 116.032 121.565 116.025 121.659 116.021C122.232 116.01 122.959 116.332 123.408 115.868C123.397 115.868 123.386 115.871 123.375 115.875C122.816 116.074 122.153 115.553 121.602 115.497Z" fill="#19234F"/>
<path d="M185.021 115.8C185.193 115.86 185.366 115.927 185.534 116.006C185.647 116.025 185.759 116.055 185.86 116.089C186.328 116.257 186.505 116.624 186.658 117.037C186.692 117.119 186.726 117.205 186.752 117.291C186.849 117.546 187.164 117.737 187.434 117.666C187.73 117.437 188.037 117.239 188.359 117.078C188.517 116.965 188.689 116.872 188.876 116.827C189.037 116.785 189.195 116.767 189.348 116.759C189.502 116.733 189.659 116.718 189.824 116.714C190.825 116.696 192.084 117.265 192.87 116.452C192.852 116.452 192.829 116.456 192.81 116.459C191.844 116.819 190.69 115.901 189.731 115.804C189.184 115.748 188.595 115.744 188.086 115.969C187.823 116.081 187.625 116.242 187.4 116.415C187.378 116.43 187.355 116.448 187.336 116.467C186.939 115.778 186.366 115.29 185.452 115.182C184.845 115.111 184.26 115.032 183.687 114.792C183.279 114.62 182.874 114.361 182.424 114.365C182.413 114.365 182.406 114.369 182.394 114.369C182.96 115.223 184.054 115.467 185.021 115.8Z" fill="#19234F"/>
<path d="M198.101 120.09C197.824 120.131 197.531 120.206 197.307 120.383C197.19 120.472 197.112 120.577 197.026 120.693C197.018 120.705 197.011 120.716 196.999 120.727C196.715 120.435 196.37 120.266 195.902 120.33C195.594 120.371 195.295 120.409 194.98 120.364C194.755 120.33 194.523 120.255 194.298 120.315C194.294 120.315 194.29 120.319 194.283 120.323C194.669 120.671 195.246 120.652 195.767 120.693C195.86 120.701 195.954 120.712 196.048 120.731C196.108 120.723 196.164 120.723 196.22 120.731C196.471 120.753 196.606 120.911 196.733 121.094C196.763 121.132 196.79 121.169 196.812 121.211C196.891 121.327 197.074 121.375 197.194 121.308C197.31 121.158 197.438 121.019 197.58 120.9C197.648 120.825 197.715 120.761 197.801 120.712C197.876 120.671 197.955 120.641 198.026 120.615C198.101 120.585 198.176 120.555 198.255 120.532C198.749 120.397 199.446 120.514 199.731 120.015C199.723 120.015 199.712 120.019 199.705 120.027C199.277 120.323 198.588 120.015 198.101 120.09Z" fill="#19234F"/>
<path d="M180.172 119.465C180.157 119.476 180.15 119.483 180.139 119.491C179.955 119.124 179.674 118.865 179.209 118.786C178.902 118.734 178.606 118.678 178.321 118.539C178.119 118.442 177.917 118.299 177.684 118.288C177.681 118.288 177.673 118.288 177.669 118.288C177.935 118.741 178.49 118.891 178.973 119.09C179.059 119.124 179.149 119.161 179.232 119.206C179.288 119.221 179.344 119.236 179.393 119.258C179.629 119.356 179.708 119.547 179.779 119.761C179.798 119.802 179.809 119.847 179.816 119.892C179.861 120.027 180.015 120.128 180.157 120.101C180.315 119.993 180.476 119.899 180.644 119.824C180.731 119.772 180.817 119.731 180.914 119.712C181 119.693 181.079 119.689 181.158 119.689C181.236 119.678 181.319 119.674 181.401 119.678C181.915 119.697 182.544 120.015 182.967 119.622C182.956 119.622 182.945 119.622 182.937 119.622C182.435 119.779 181.866 119.285 181.379 119.21C181.102 119.169 180.802 119.15 180.532 119.251C180.393 119.307 180.292 119.386 180.172 119.465Z" fill="#19234F"/>
<path d="M168.778 112.87C168.868 112.874 168.962 112.885 169.048 112.9C169.438 112.986 169.621 113.26 169.786 113.574C169.824 113.634 169.857 113.702 169.884 113.769C169.989 113.96 170.262 114.076 170.472 113.994C170.682 113.78 170.907 113.589 171.15 113.425C171.266 113.32 171.39 113.226 171.536 113.17C171.66 113.121 171.783 113.091 171.907 113.065C172.027 113.031 172.15 113.001 172.278 112.982C173.076 112.863 174.144 113.174 174.683 112.443C174.668 112.443 174.653 112.45 174.638 112.458C173.904 112.848 172.885 112.241 172.109 112.267C171.667 112.282 171.199 112.338 170.813 112.574C170.614 112.694 170.476 112.844 170.311 113.005C170.296 113.02 170.281 113.035 170.266 113.054C169.876 112.544 169.367 112.218 168.628 112.229C168.138 112.237 167.658 112.237 167.178 112.106C166.834 112.012 166.485 111.851 166.126 111.9C166.114 111.9 166.107 111.903 166.099 111.907C166.643 112.529 167.546 112.604 168.351 112.773C168.494 112.791 168.636 112.829 168.778 112.87Z" fill="#19234F"/>
<path d="M177.449 115.508C177.524 115.504 177.598 115.504 177.677 115.508C177.722 115.497 177.767 115.489 177.812 115.489C178.018 115.485 178.142 115.594 178.262 115.729C178.288 115.755 178.314 115.785 178.337 115.811C178.415 115.894 178.565 115.916 178.655 115.849C178.734 115.718 178.82 115.594 178.921 115.478C178.962 115.414 179.015 115.351 179.078 115.306C179.131 115.268 179.187 115.234 179.247 115.208C179.3 115.174 179.359 115.144 179.419 115.118C179.798 114.957 180.367 114.976 180.54 114.545C180.532 114.545 180.525 114.552 180.521 114.556C180.206 114.841 179.625 114.672 179.243 114.785C179.026 114.848 178.801 114.935 178.64 115.103C178.558 115.186 178.509 115.279 178.449 115.381C178.442 115.388 178.434 115.399 178.434 115.41C178.175 115.208 177.879 115.114 177.516 115.212C177.273 115.279 177.036 115.339 176.782 115.339C176.602 115.339 176.403 115.302 176.235 115.373C176.231 115.377 176.227 115.377 176.223 115.381C176.576 115.609 177.033 115.534 177.449 115.508Z" fill="#19234F"/>
<path d="M163.874 116.036C163.945 116.055 164.016 116.077 164.091 116.1C164.14 116.104 164.185 116.115 164.23 116.126C164.425 116.178 164.511 116.325 164.586 116.486C164.605 116.519 164.623 116.553 164.634 116.587C164.683 116.684 164.818 116.752 164.927 116.718C165.039 116.613 165.159 116.523 165.286 116.444C165.346 116.392 165.414 116.351 165.489 116.325C165.552 116.306 165.616 116.287 165.684 116.283C165.744 116.265 165.807 116.257 165.878 116.246C166.287 116.205 166.826 116.392 167.119 116.032C167.111 116.032 167.1 116.036 167.096 116.04C166.71 116.22 166.204 115.882 165.807 115.879C165.579 115.875 165.343 115.89 165.137 115.999C165.035 116.055 164.96 116.13 164.871 116.205C164.859 116.212 164.852 116.22 164.844 116.231C164.657 115.957 164.406 115.781 164.028 115.766C163.776 115.759 163.533 115.744 163.289 115.665C163.117 115.609 162.941 115.515 162.757 115.534C162.754 115.534 162.746 115.534 162.746 115.534C163.008 115.871 163.465 115.935 163.874 116.036Z" fill="#19234F"/>
<path d="M124.21 155.303C122.966 155.647 121.621 154.392 120.433 154.171C119.759 154.044 119.028 153.976 118.365 154.205C118.028 154.321 117.765 154.505 117.462 154.692C117.436 154.711 117.406 154.729 117.38 154.752C116.952 153.849 116.285 153.186 115.161 152.957C114.412 152.804 113.689 152.646 113.003 152.29C112.512 152.036 112.033 151.668 111.471 151.631C111.456 151.627 111.445 151.631 111.433 151.631C112.052 152.759 113.393 153.175 114.562 153.688C114.776 153.782 114.982 153.879 115.184 153.995C115.323 154.033 115.454 154.074 115.581 154.134C116.143 154.392 116.33 154.864 116.477 155.396C116.514 155.501 116.544 155.61 116.566 155.722C116.664 156.048 117.039 156.314 117.383 156.258C117.773 156.003 118.178 155.786 118.597 155.621C118.807 155.498 119.028 155.396 119.268 155.359C119.47 155.325 119.669 155.318 119.864 155.321C120.059 155.306 120.257 155.303 120.459 155.314C121.711 155.393 123.225 156.228 124.289 155.295C124.255 155.295 124.232 155.295 124.21 155.303Z" fill="#19234F"/>
<path d="M109.8 146.483C109.871 146.486 109.946 146.49 110.013 146.501C110.324 146.558 110.478 146.767 110.62 147.015C110.654 147.063 110.68 147.112 110.707 147.165C110.797 147.311 111.018 147.397 111.179 147.326C111.344 147.15 111.512 146.989 111.7 146.854C111.789 146.767 111.883 146.689 111.996 146.64C112.093 146.599 112.19 146.569 112.284 146.546C112.378 146.513 112.479 146.486 112.58 146.468C113.21 146.348 114.068 146.565 114.472 145.969C114.461 145.973 114.446 145.977 114.438 145.984C113.869 146.314 113.041 145.864 112.423 145.906C112.074 145.932 111.703 145.988 111.404 146.187C111.254 146.284 111.145 146.412 111.021 146.543C111.01 146.554 110.999 146.565 110.988 146.584C110.662 146.19 110.25 145.951 109.661 145.981C109.272 146.003 108.893 146.014 108.507 145.924C108.234 145.861 107.949 145.745 107.664 145.797C107.657 145.797 107.649 145.801 107.646 145.801C108.095 146.28 108.811 146.314 109.455 146.419C109.568 146.43 109.688 146.453 109.8 146.483Z" fill="#19234F"/>
<path d="M87.5249 166.588C87.184 166.506 86.813 166.453 86.4683 166.554C86.2922 166.603 86.1536 166.693 85.9962 166.783C85.9812 166.791 85.9663 166.798 85.955 166.809C85.7602 166.337 85.438 165.981 84.8684 165.835C84.49 165.738 84.1266 165.64 83.7856 165.438C83.5383 165.296 83.306 165.097 83.0175 165.059C83.01 165.059 83.0063 165.059 82.9988 165.059C83.2835 165.651 83.9617 165.899 84.5425 166.187C84.6474 166.24 84.7485 166.296 84.8497 166.36C84.9209 166.382 84.9846 166.408 85.0483 166.442C85.3293 166.588 85.4117 166.835 85.4717 167.109C85.4904 167.165 85.4979 167.221 85.5091 167.278C85.5504 167.446 85.7377 167.592 85.9101 167.57C86.1161 167.454 86.3297 167.349 86.547 167.278C86.6594 167.218 86.7718 167.173 86.8955 167.161C87.0004 167.15 87.1015 167.15 87.2027 167.158C87.3001 167.154 87.4013 167.158 87.5062 167.169C88.1431 167.244 88.8963 167.708 89.462 167.259C89.4508 167.259 89.4358 167.259 89.4246 167.259C88.7839 167.409 88.1244 166.734 87.5249 166.588Z" fill="#19234F"/>
<path d="M88.0047 151.597C87.454 151.571 86.862 151.593 86.3599 151.848C86.1014 151.976 85.9065 152.152 85.6892 152.331C85.6667 152.346 85.648 152.369 85.6293 152.391C85.1909 151.713 84.5914 151.256 83.6659 151.196C83.0515 151.155 82.4595 151.106 81.8712 150.893C81.4553 150.743 81.0319 150.503 80.5786 150.529C80.5673 150.529 80.5561 150.533 80.5486 150.537C81.1631 151.369 82.2796 151.556 83.2688 151.841C83.4486 151.893 83.6247 151.949 83.7971 152.02C83.9095 152.035 84.0219 152.054 84.1268 152.088C84.6064 152.234 84.8012 152.594 84.9773 153.002C85.0185 153.085 85.0522 153.167 85.0822 153.253C85.1946 153.5 85.5206 153.677 85.7904 153.594C86.0751 153.347 86.3711 153.13 86.6934 152.953C86.8507 152.834 87.0118 152.729 87.1992 152.672C87.3565 152.624 87.5139 152.597 87.6675 152.579C87.8211 152.545 87.9823 152.523 88.1434 152.511C89.1513 152.444 90.4514 152.946 91.197 152.084C91.1783 152.088 91.1558 152.088 91.1371 152.099C90.1854 152.504 88.9752 151.646 88.0047 151.597Z" fill="#19234F"/>
<path d="M94.6253 156.217C94.6852 156.21 94.7414 156.206 94.7976 156.21C95.0524 156.217 95.1985 156.371 95.3372 156.55C95.3671 156.588 95.3971 156.625 95.4233 156.663C95.5095 156.772 95.6931 156.816 95.8168 156.742C95.9292 156.584 96.0491 156.438 96.184 156.307C96.2439 156.228 96.3113 156.157 96.3975 156.105C96.4687 156.06 96.5436 156.026 96.6186 155.996C96.6898 155.958 96.7647 155.928 96.8434 155.902C97.3342 155.741 98.0386 155.82 98.3009 155.303C98.2934 155.303 98.2822 155.307 98.2747 155.314C97.855 155.636 97.1431 155.366 96.6598 155.468C96.3825 155.524 96.094 155.61 95.8767 155.801C95.7681 155.899 95.6931 156.007 95.6107 156.127C95.6032 156.138 95.5957 156.15 95.5882 156.165C95.2847 155.884 94.9288 155.734 94.4642 155.824C94.1569 155.884 93.8534 155.932 93.5387 155.902C93.3139 155.88 93.0741 155.816 92.853 155.887C92.8493 155.887 92.8455 155.891 92.8418 155.895C93.2502 156.228 93.8272 156.176 94.3555 156.191C94.4379 156.195 94.5316 156.202 94.6253 156.217Z" fill="#19234F"/>
<path d="M79.7766 155.468C79.4994 155.441 79.1959 155.438 78.9298 155.554C78.795 155.614 78.6938 155.696 78.5739 155.786C78.5664 155.794 78.5552 155.801 78.5439 155.812C78.3379 155.456 78.0419 155.209 77.5698 155.153C77.255 155.115 76.9553 155.074 76.663 154.954C76.4532 154.864 76.2471 154.733 76.0111 154.737C76.0073 154.737 75.9998 154.737 75.9961 154.737C76.2883 155.179 76.8541 155.303 77.3524 155.475C77.4424 155.505 77.5285 155.539 77.6147 155.58C77.6747 155.587 77.7309 155.602 77.7833 155.621C78.0231 155.707 78.1168 155.895 78.1955 156.108C78.2142 156.153 78.2292 156.194 78.2442 156.239C78.2966 156.367 78.4577 156.464 78.5964 156.43C78.7463 156.314 78.9074 156.209 79.0722 156.127C79.1547 156.071 79.2408 156.022 79.3382 156C79.4244 155.977 79.5031 155.97 79.5818 155.962C79.6605 155.951 79.7429 155.94 79.8253 155.94C80.3424 155.932 80.9943 156.221 81.3952 155.801C81.384 155.801 81.3728 155.805 81.3653 155.809C80.8707 155.985 80.275 155.516 79.7766 155.468Z" fill="#19234F"/>
<path d="M132.666 131.72C132.824 131.773 132.977 131.836 133.127 131.904C133.229 131.923 133.33 131.949 133.42 131.979C133.839 132.132 134 132.458 134.135 132.829C134.165 132.904 134.195 132.979 134.218 133.058C134.308 133.286 134.589 133.459 134.832 133.395C135.098 133.189 135.375 133.009 135.664 132.867C135.806 132.766 135.96 132.679 136.129 132.642C136.275 132.604 136.413 132.586 136.552 132.582C136.691 132.559 136.833 132.544 136.979 132.541C137.878 132.526 139.01 133.035 139.718 132.305C139.699 132.305 139.681 132.305 139.666 132.312C138.796 132.634 137.758 131.81 136.897 131.724C136.406 131.675 135.878 131.668 135.417 131.87C135.181 131.971 135.001 132.117 134.798 132.271C134.78 132.286 134.761 132.301 134.742 132.316C134.386 131.694 133.873 131.259 133.049 131.162C132.505 131.098 131.981 131.027 131.464 130.813C131.097 130.66 130.733 130.424 130.328 130.431C130.321 130.431 130.313 130.435 130.302 130.435C130.812 131.199 131.797 131.417 132.666 131.72Z" fill="#19234F"/>
<path d="M141.303 141.484C141.052 141.522 140.793 141.586 140.591 141.747C140.486 141.829 140.419 141.923 140.336 142.024C140.329 142.032 140.321 142.043 140.314 142.054C140.059 141.792 139.748 141.642 139.328 141.698C139.051 141.736 138.781 141.769 138.5 141.728C138.298 141.698 138.088 141.631 137.89 141.683C137.886 141.683 137.882 141.687 137.878 141.691C138.227 142.005 138.744 141.987 139.209 142.024C139.295 142.032 139.377 142.039 139.463 142.058C139.516 142.05 139.564 142.05 139.617 142.058C139.842 142.076 139.965 142.219 140.078 142.387C140.104 142.421 140.127 142.455 140.149 142.489C140.22 142.59 140.385 142.639 140.494 142.575C140.599 142.44 140.715 142.316 140.838 142.208C140.898 142.14 140.962 142.08 141.037 142.039C141.104 142.002 141.176 141.975 141.239 141.953C141.307 141.927 141.374 141.9 141.445 141.878C141.891 141.754 142.517 141.863 142.772 141.413C142.764 141.413 142.757 141.417 142.749 141.421C142.36 141.691 141.741 141.417 141.303 141.484Z" fill="#19234F"/>
<path d="M125.192 140.922C125.181 140.934 125.169 140.937 125.162 140.949C124.997 140.619 124.742 140.387 124.326 140.316C124.049 140.267 123.783 140.218 123.528 140.094C123.345 140.008 123.165 139.881 122.959 139.87C122.955 139.87 122.951 139.87 122.948 139.87C123.187 140.274 123.686 140.409 124.12 140.589C124.199 140.619 124.278 140.653 124.353 140.69C124.405 140.705 124.454 140.716 124.499 140.739C124.712 140.825 124.783 141.001 124.843 141.192C124.858 141.23 124.87 141.271 124.877 141.312C124.915 141.432 125.057 141.522 125.184 141.499C125.323 141.402 125.469 141.32 125.623 141.252C125.701 141.207 125.78 141.166 125.863 141.151C125.937 141.136 126.012 141.129 126.08 141.129C126.151 141.117 126.226 141.117 126.297 141.117C126.758 141.132 127.324 141.421 127.702 141.065C127.691 141.065 127.683 141.065 127.676 141.065C127.223 141.207 126.713 140.761 126.278 140.694C126.027 140.656 125.758 140.638 125.518 140.731C125.394 140.78 125.301 140.851 125.192 140.922Z" fill="#19234F"/>
<path d="M114.955 134.999C115.038 135.002 115.12 135.01 115.195 135.025C115.544 135.104 115.712 135.347 115.858 135.628C115.892 135.684 115.922 135.744 115.948 135.804C116.042 135.977 116.289 136.082 116.477 136.007C116.664 135.816 116.866 135.643 117.084 135.497C117.189 135.403 117.297 135.317 117.428 135.268C117.541 135.227 117.649 135.197 117.762 135.175C117.87 135.145 117.979 135.119 118.095 135.1C118.811 134.991 119.77 135.272 120.257 134.617C120.246 134.617 120.231 134.624 120.216 134.628C119.557 134.976 118.639 134.433 117.942 134.455C117.544 134.47 117.121 134.519 116.776 134.729C116.6 134.838 116.473 134.972 116.327 135.115C116.316 135.126 116.301 135.141 116.286 135.16C115.933 134.703 115.476 134.407 114.813 134.418C114.371 134.425 113.944 134.425 113.513 134.309C113.202 134.223 112.887 134.081 112.565 134.126C112.554 134.126 112.55 134.129 112.542 134.133C113.03 134.691 113.839 134.759 114.566 134.909C114.697 134.928 114.828 134.957 114.955 134.999Z" fill="#19234F"/>
<path d="M122.745 137.367C122.812 137.363 122.88 137.363 122.951 137.367C122.992 137.356 123.034 137.352 123.075 137.348C123.258 137.344 123.371 137.442 123.479 137.562C123.506 137.588 123.524 137.61 123.547 137.637C123.614 137.712 123.749 137.73 123.832 137.67C123.903 137.554 123.981 137.438 124.071 137.341C124.109 137.281 124.154 137.228 124.214 137.183C124.262 137.149 124.315 137.12 124.367 137.093C124.416 137.063 124.469 137.033 124.521 137.011C124.862 136.865 125.375 136.883 125.529 136.494C125.521 136.494 125.518 136.501 125.51 136.505C125.229 136.76 124.705 136.61 124.364 136.711C124.169 136.771 123.966 136.846 123.82 136.996C123.745 137.071 123.7 137.153 123.648 137.243C123.641 137.251 123.637 137.262 123.633 137.269C123.401 137.09 123.135 137.003 122.809 137.093C122.591 137.157 122.378 137.209 122.149 137.206C121.988 137.206 121.812 137.172 121.658 137.236C121.655 137.239 121.651 137.239 121.647 137.243C121.962 137.46 122.37 137.389 122.745 137.367Z" fill="#19234F"/>
<path d="M110.549 137.843C110.613 137.857 110.677 137.88 110.744 137.902C110.785 137.906 110.826 137.914 110.868 137.925C111.044 137.974 111.122 138.101 111.186 138.251C111.201 138.281 111.22 138.311 111.231 138.345C111.276 138.434 111.396 138.494 111.493 138.461C111.595 138.367 111.703 138.285 111.819 138.213C111.876 138.168 111.935 138.127 111.999 138.105C112.055 138.086 112.115 138.071 112.172 138.067C112.228 138.052 112.284 138.045 112.344 138.034C112.711 137.996 113.194 138.165 113.457 137.843C113.449 137.843 113.442 137.846 113.438 137.85C113.093 138.011 112.636 137.708 112.28 137.704C112.074 137.7 111.861 137.715 111.677 137.813C111.583 137.861 111.516 137.929 111.437 137.996C111.43 138.004 111.422 138.011 111.415 138.019C111.246 137.775 111.021 137.614 110.68 137.603C110.455 137.595 110.234 137.584 110.017 137.513C109.863 137.464 109.706 137.378 109.538 137.397C109.534 137.397 109.53 137.397 109.53 137.397C109.77 137.693 110.182 137.753 110.549 137.843Z" fill="#19234F"/>
</g>
</g>
<circle cx="331.5" cy="184.5" r="17.5" fill="url(#paint1_linear_16_745)"/>
<path d="M424 160C424 160 365.841 163.76 351.933 176.931C338.026 190.102 318.075 193.861 282.815 176.931C270.814 171.156 244.181 218.336 228.731 207.057C213.277 195.754 216.371 191.183 206.113 208.654C198.318 221.924 181.246 200.84 174.082 208.654C166.918 216.468 140.271 209.809 121.821 187.841C107.352 170.615 101.169 205.189 90.2105 195.778C79.2516 186.367 65.7645 170.615 52.2821 176.955C41.398 182.066 -21.9063 160 -21.9063 160L-24 288L424 265.393V160Z" fill="#A69DC4"/>
<g clip-path="url(#clip3_16_745)">
<path d="M-7 201C-7 201 51.1591 205.758 65.0668 222.428C78.9745 239.098 98.9247 243.856 134.185 222.428C146.186 215.119 172.819 274.831 188.269 260.557C203.723 246.251 200.629 240.466 210.887 262.578C218.682 279.372 235.754 252.688 242.918 262.578C250.082 272.468 276.729 264.04 295.179 236.236C309.648 214.435 315.831 258.193 326.79 246.282C337.748 234.37 351.235 214.435 364.718 222.459C375.602 228.928 438.906 201 438.906 201L441 363L-7 334.388V201Z" fill="#9387B8"/>
</g>
<path d="M0 266.247C0.578134 266.247 1.15431 266.247 1.86331 266.247C1.81058 265.615 1.86917 265.076 1.70901 264.609C0.962906 262.421 1.52932 260.513 2.86137 258.759C4.34382 256.808 6.32041 255.429 8.35755 254.134C8.86537 253.812 9.31069 253.56 9.23061 252.802C9.1935 252.452 9.46695 251.97 9.74625 251.702C10.6076 250.88 10.8439 249.868 10.8439 248.749C10.8459 247.419 10.8439 246.091 10.8439 244.761C10.9826 244.761 11.1213 244.761 11.2599 244.759C11.2599 246.105 11.2658 247.452 11.258 248.798C11.2521 249.919 11.4904 250.927 12.3576 251.741C12.6193 251.987 12.8928 252.458 12.8361 252.765C12.6818 253.589 13.219 253.816 13.7385 254.146C15.7776 255.445 17.7347 256.847 19.2288 258.783C20.5609 260.507 21.0667 262.404 20.389 264.554C20.2386 265.031 20.2835 265.57 20.2288 266.191C20.8577 266.222 21.3929 266.249 21.9984 266.279C21.9984 266.757 21.9984 267.195 21.9984 267.738C21.4691 267.769 20.9359 267.8 20.3382 267.835C20.3382 274.404 20.3382 280.925 20.3382 287.48C21.473 287.443 22.4535 287.176 23.1254 286.256C23.5336 285.695 23.8305 285.115 23.4535 284.369C20.7269 278.972 22.0863 274.23 25.8539 269.917C28.9731 266.347 32.8247 263.681 36.8482 261.253C37.4752 260.874 37.7779 260.579 37.5963 259.742C37.3443 258.577 38.0006 257.626 38.776 256.786C39.1959 256.331 39.5826 255.847 39.9362 255.433C40.0846 254.929 40.2331 254.419 40.3854 253.909C40.4948 253.55 40.6999 253.196 40.7116 252.837C40.8366 248.642 40.9323 244.446 41.0378 240.251C41.0417 240.06 41.0631 239.868 41.2116 239.677C41.2936 242.696 41.3717 245.714 41.4557 248.734C41.4948 250.163 41.5163 251.595 41.6061 253.023C41.6276 253.372 41.9186 253.698 42.0319 254.052C42.1706 254.482 42.2507 254.929 42.3542 255.355C42.8171 255.898 43.362 256.501 43.8698 257.136C44.5241 257.952 44.9792 258.888 44.6999 259.935C44.5144 260.628 44.8425 260.839 45.2976 261.154C47.9402 262.988 50.6434 264.745 53.1708 266.728C55.6376 268.664 57.749 270.98 59.1201 273.865C60.4599 276.687 60.6924 279.58 59.6064 282.543C59.5419 282.716 59.5224 282.906 59.3974 283.463C60.6396 282.908 61.71 282.556 62.626 281.966C63.0615 281.685 63.2608 280.97 63.4561 280.412C63.5791 280.062 63.501 279.638 63.501 279.248C63.5029 266.521 63.5029 253.792 63.5029 241.065C63.5029 240.712 63.5029 240.36 63.5029 239.956C63.0811 239.897 62.7393 239.851 62.2959 239.79C62.2783 239.497 62.2588 239.196 62.2393 238.862C62.6748 238.8 63.0205 238.749 63.4815 238.683C63.458 238.302 63.5029 237.911 63.4014 237.561C62.9053 235.87 63.2686 234.343 64.4834 233.145C65.6084 232.036 66.9327 231.128 68.1378 230.095C68.4171 229.854 68.5812 229.472 68.7765 229.141C69.0636 228.655 69.4679 228.184 69.5773 227.657C69.8331 226.405 69.9464 225.122 70.0656 224.221C70.171 225.038 70.1066 226.329 70.5402 227.423C71.0011 228.587 71.423 229.837 72.7101 230.616C73.9347 231.356 75.0012 232.431 75.968 233.509C76.9758 234.632 77.261 236.028 76.7805 237.53C76.6692 237.88 76.6907 238.272 76.6457 238.69C77.1008 238.741 77.4485 238.78 77.8997 238.829C77.9211 239.124 77.9426 239.425 77.9661 239.774C77.5129 239.831 77.136 239.878 76.6985 239.933C76.6985 253.353 76.6985 266.749 76.6985 280.14C78.4309 280.486 80.0442 279.213 80.218 277.382C80.2434 277.125 80.2259 276.863 80.2259 276.601C80.2259 253.847 80.2259 231.095 80.2259 208.34C80.2259 207.957 80.2259 207.575 80.2259 207.102C79.4602 207.067 78.7922 207.038 78.0325 207.002C78.0325 206.422 78.0325 205.862 78.0325 205.196C78.7219 205.164 79.4173 205.135 80.2513 205.098C80.2024 204.448 80.2766 203.84 80.0989 203.321C79.1477 200.53 79.8079 198.086 81.5657 195.84C83.3822 193.518 85.7631 191.873 88.2084 190.313C88.8588 189.899 89.4252 189.555 89.2924 188.613C89.2436 188.262 89.4858 187.738 89.767 187.49C91.146 186.274 91.2553 184.674 91.2553 183.02C91.2534 181.363 91.2553 179.707 91.2553 178.051C91.4155 178.051 91.5757 178.051 91.7378 178.049C91.7378 179.93 91.7475 181.811 91.7339 183.69C91.7241 185.078 92.0561 186.297 93.0718 187.34C93.4409 187.719 93.7104 188.383 93.689 188.903C93.6616 189.559 93.939 189.795 94.4058 190.088C96.7808 191.576 99.0992 193.143 100.947 195.297C102.976 197.662 103.992 200.248 102.838 203.377C102.662 203.854 102.812 204.452 102.812 205.092C103.547 205.129 104.242 205.163 104.99 205.2C104.99 205.811 104.99 206.348 104.99 206.995C104.281 207.028 103.586 207.059 102.83 207.094C102.83 230.61 102.83 254.062 102.83 277.505C104.199 277.685 105.416 277.181 105.927 276.119C106.111 275.736 106.191 275.136 106.021 274.773C104.023 270.499 105.064 266.798 108.078 263.46C110.412 260.874 113.213 258.867 116.189 257.099C116.791 256.741 116.961 256.363 117.047 255.669C117.142 254.894 117.48 254.009 118.012 253.456C119.037 252.388 119.363 251.124 119.428 249.775C119.547 247.306 119.555 244.831 119.613 242.358C119.617 242.212 119.652 242.063 119.672 241.917C119.762 241.919 119.853 241.919 119.943 241.921C119.943 243.126 119.932 244.329 119.947 245.534C119.965 246.933 119.945 248.337 120.057 249.728C120.168 251.132 120.439 252.493 121.598 253.523C122.297 254.146 122.633 254.97 122.525 255.976C122.494 256.273 122.797 256.706 123.072 256.915C125.521 258.788 128.1 260.505 130.438 262.505C132.68 264.423 134.272 266.867 134.461 269.941C134.527 271.019 134.297 272.117 134.205 273.191C135.119 273.025 135.949 271.966 136.112 270.679C136.139 270.455 136.129 270.224 136.129 269.996C136.135 253.169 136.135 236.341 136.135 219.512C136.135 219.255 136.135 218.997 136.135 218.645C135.59 218.61 135.088 218.577 134.502 218.54C134.502 218.143 134.502 217.743 134.502 217.229C134.979 217.194 135.481 217.159 136.151 217.11C136.098 216.59 136.125 216.077 135.986 215.612C135.43 213.751 135.801 212.081 136.938 210.553C138.342 208.665 140.197 207.297 142.186 206.096C142.635 205.825 142.938 205.582 142.893 204.967C142.869 204.629 143.092 204.194 143.34 203.932C144.106 203.123 144.334 202.164 144.332 201.104C144.328 199.653 144.332 198.203 144.487 196.752C144.563 198.44 144.604 200.129 144.733 201.813C144.776 202.362 144.922 202.989 145.241 203.413C145.733 204.065 146.338 204.588 146.192 205.536C146.168 205.682 146.586 205.907 146.811 206.081C148.223 207.17 149.733 208.159 151.032 209.37C152.907 211.118 153.832 213.249 152.928 215.876C152.811 216.215 152.913 216.631 152.913 217.098C153.416 217.137 153.891 217.174 154.444 217.217C154.444 217.628 154.444 218.032 154.444 218.54C153.973 218.565 153.471 218.592 152.934 218.622C152.934 235.948 152.934 253.208 152.934 270.47C156.051 270.476 157.893 267.519 156.536 264.824C155.045 261.867 154.022 258.792 153.909 255.435C153.766 251.185 155.077 247.374 157.252 243.814C160.022 239.278 163.717 235.548 167.919 232.388C171.993 229.323 176.298 226.565 180.503 223.676C180.823 223.456 181.163 223.264 181.579 223.007C180.112 218.549 183.118 216.186 186.009 213.778C185.231 213.004 185.212 212.184 186.067 211.293C186.556 210.786 186.737 210.282 186.753 209.583C186.929 202.004 187.144 194.428 187.349 186.852C187.353 186.697 187.382 186.545 187.597 186.381C187.628 187.022 187.671 187.662 187.688 188.303C187.884 195.522 188.069 202.741 188.288 209.959C188.3 210.327 188.571 210.696 188.753 211.049C189.003 211.532 189.397 211.971 189.513 212.479C189.597 212.844 189.325 213.292 189.159 213.897C191.763 216.133 194.884 218.446 193.417 222.975C195.39 224.216 197.366 225.405 199.286 226.678C204.857 230.376 210.185 234.374 214.578 239.479C217.457 242.825 219.718 246.513 220.685 250.874C221.769 255.763 220.8 260.367 218.499 264.716C217.726 266.179 217.978 267.492 218.695 268.781C219.39 270.029 220.599 270.47 222.066 270.517C222.066 253.218 222.066 235.956 222.066 218.635C221.566 218.604 221.091 218.573 220.548 218.538C220.548 218.108 220.548 217.708 220.548 217.231C221.031 217.192 221.505 217.155 222.138 217.102C222.105 216.618 222.168 216.124 222.025 215.696C221.316 213.557 221.822 211.622 223.318 210.11C224.791 208.622 226.543 207.409 228.187 206.094C228.535 205.815 228.925 205.694 228.822 205.055C228.763 204.696 229.103 204.202 229.384 203.872C229.992 203.157 230.267 202.364 230.297 201.436C230.343 199.942 230.441 198.451 230.672 196.959C230.672 198.393 230.658 199.825 230.675 201.258C230.687 202.243 230.92 203.155 231.642 203.893C231.84 204.094 232.086 204.405 232.06 204.637C231.949 205.666 232.724 205.942 233.349 206.45C234.957 207.752 236.603 209.045 238.008 210.551C239.322 211.96 239.596 213.768 238.996 215.663C238.863 216.081 238.887 216.547 238.826 217.106C239.418 217.145 239.92 217.178 240.502 217.215C240.502 217.639 240.502 218.04 240.502 218.538C240.017 218.563 239.512 218.589 238.867 218.622C238.867 218.944 238.867 219.257 238.867 219.569C238.867 236.366 238.867 253.163 238.869 269.958C238.869 271.689 239.59 272.884 240.736 273.216C240.736 271.679 240.533 270.082 240.783 268.558C241.187 266.093 242.666 264.099 244.525 262.535C246.855 260.572 249.369 258.827 251.834 257.029C252.32 256.673 252.623 256.419 252.496 255.722C252.318 254.743 252.863 253.939 253.572 253.341C254.524 252.542 254.772 251.403 254.856 250.351C255.068 247.696 255.053 245.023 255.129 242.356C255.135 242.171 255.15 241.987 255.16 241.804C255.266 241.802 255.369 241.802 255.475 241.8C255.475 243.038 255.465 244.278 255.477 245.517C255.49 246.915 255.49 248.316 255.563 249.712C255.635 251.111 255.912 252.446 257.041 253.454C257.727 254.066 258.135 254.845 257.994 255.794C257.902 256.411 258.166 256.71 258.672 257.015C262.197 259.142 265.561 261.484 268.035 264.859C270.139 267.728 270.612 270.839 269.211 274.166C268.541 275.755 269.065 276.914 270.735 277.416C271.159 277.543 271.614 277.57 272.153 277.66C272.153 254.097 272.153 230.653 272.153 207.104C271.459 207.069 270.764 207.032 270.012 206.995C270.012 206.393 270.012 205.856 270.012 205.204C270.711 205.168 271.407 205.135 272.172 205.096C272.172 204.473 272.328 203.848 272.147 203.346C271.026 200.252 272.018 197.686 274.01 195.342C275.848 193.182 278.161 191.608 280.54 190.121C281.03 189.815 281.397 189.57 281.297 188.863C281.241 188.467 281.42 187.883 281.709 187.621C283.368 186.121 283.286 184.139 283.329 182.19C283.36 180.793 283.335 179.397 283.335 178C283.487 178 283.637 178 283.79 178C283.79 180.107 283.747 182.217 283.807 184.322C283.836 185.365 284.116 186.352 284.92 187.156C285.305 187.543 285.708 188.156 285.686 188.651C285.649 189.541 286.09 189.881 286.731 190.285C289.157 191.815 291.507 193.444 293.329 195.717C295.161 198.002 295.889 200.494 294.866 203.348C294.811 203.498 294.753 203.659 294.753 203.815C294.755 204.202 294.788 204.586 294.815 205.08C295.534 205.123 296.227 205.164 296.985 205.209C296.985 205.795 296.985 206.334 296.985 206.987C296.303 207.022 295.606 207.059 294.819 207.1C294.801 207.454 294.774 207.768 294.774 208.083C294.772 230.999 294.772 253.915 294.774 276.832C294.774 279.007 296.196 280.381 298.3 280.189C298.3 266.798 298.3 253.404 298.3 239.944C297.934 239.897 297.591 239.854 297.134 239.796C297.108 239.52 297.081 239.222 297.05 238.87C297.499 238.804 297.872 238.749 298.343 238.681C298.311 238.306 298.35 237.938 298.245 237.62C297.61 235.712 298.249 234.126 299.585 232.827C300.604 231.839 301.815 231.048 302.907 230.132C303.192 229.891 303.372 229.516 303.571 229.186C303.895 228.645 304.347 228.122 304.475 227.534C304.741 226.321 304.829 225.069 304.934 224.268C305.05 225.12 304.997 226.479 305.456 227.636C305.929 228.823 306.409 230.098 307.8 230.806C308.864 231.347 309.745 232.317 310.583 233.212C311.726 234.434 312.093 235.913 311.589 237.558C311.532 237.741 311.505 237.938 311.495 238.13C311.487 238.288 311.524 238.448 311.548 238.663C311.931 238.728 312.3 238.79 312.714 238.86C312.714 239.169 312.714 239.45 312.714 239.776C312.337 239.827 311.991 239.874 311.493 239.94C311.493 240.341 311.493 240.751 311.493 241.161C311.493 253.79 311.493 266.421 311.495 279.05C311.495 281.636 312.12 282.431 314.638 283.043C314.888 283.103 315.144 283.142 315.548 283.218C315.358 282.533 315.181 281.937 315.032 281.332C314.147 277.726 315.149 274.529 317.216 271.597C319.56 268.277 322.696 265.794 326.001 263.513C327.259 262.646 328.581 261.872 329.851 261.023C330.081 260.868 330.392 260.511 330.347 260.326C329.882 258.441 330.898 257.222 332.15 256.089C332.39 255.872 332.64 255.667 332.642 255.378C332.747 254.935 332.837 254.488 332.96 254.05C333.095 253.573 333.38 253.109 333.398 252.632C333.556 248.441 333.669 244.245 333.798 240.052C333.8 239.962 333.843 239.874 333.923 239.581C334.011 242.903 334.095 246.021 334.177 249.138C334.21 250.405 334.22 251.675 334.288 252.943C334.306 253.273 334.492 253.597 334.626 253.913C334.726 254.15 335.025 254.423 334.968 254.585C334.576 255.677 335.523 256.007 336.038 256.572C336.992 257.613 337.734 258.699 337.359 260.24C337.304 260.466 337.656 260.913 337.927 261.077C341.384 263.179 344.709 265.456 347.617 268.287C349.757 270.371 351.588 272.691 352.494 275.595C353.332 278.283 353.062 280.925 351.957 283.494C350.933 285.869 351.923 287.344 354.674 287.451C354.674 280.949 354.674 274.449 354.674 267.849C354.134 267.812 353.603 267.777 353 267.736C353 267.259 353 266.822 353 266.285C353.531 266.257 354.066 266.232 354.744 266.197C354.701 265.611 354.763 265.046 354.607 264.55C353.922 262.359 354.453 260.437 355.828 258.7C357.386 256.734 359.396 255.292 361.508 253.988C361.914 253.738 362.181 253.546 362.152 252.958C362.131 252.53 362.394 251.986 362.709 251.667C363.461 250.903 363.728 250.009 363.732 248.989C363.736 247.593 363.734 246.198 363.734 244.802C363.877 244.8 364.017 244.8 364.16 244.798C364.16 245.985 364.18 247.175 364.154 248.362C364.125 249.689 364.344 250.9 365.392 251.847C365.594 252.029 365.808 252.38 365.767 252.611C365.598 253.579 366.277 253.876 366.904 254.284C368.844 255.548 370.734 256.884 372.15 258.759C373.477 260.515 374.041 262.425 373.291 264.611C373.131 265.076 373.193 265.615 373.143 266.24C373.85 266.24 374.426 266.24 375 266.24C375 266.761 375 267.281 375 267.802C372.777 267.779 373.186 267.591 373.18 269.558C373.162 276.482 373.172 283.408 373.172 290.334C373.172 307.99 373.172 325.645 373.176 343.301C373.176 343.721 373.219 344.141 373.242 344.561C249.412 344.561 125.582 344.561 1.75198 344.561C1.77542 344.108 1.81839 343.657 1.81839 343.204C1.82815 318.664 1.83206 294.115 1.82034 269.568C1.82034 267.601 2.22269 267.789 0 267.812C0 267.29 0 266.769 0 266.247ZM95.1148 223.411C95.1148 220.913 95.1226 218.485 95.1128 216.059C95.1031 213.971 93.5542 212.387 91.5229 212.36C89.5209 212.335 87.8979 213.913 87.8549 215.993C87.8158 217.876 87.8432 219.758 87.8432 221.641C87.8432 222.214 87.8432 222.788 87.8432 223.413C90.2983 223.411 92.6225 223.411 95.1148 223.411ZM287.153 223.409C287.153 220.835 287.2 218.313 287.137 215.792C287.088 213.848 285.403 212.331 283.477 212.358C281.485 212.387 279.909 213.958 279.895 215.963C279.879 218.204 279.889 220.444 279.895 222.682C279.895 222.926 279.95 223.173 279.979 223.405C282.387 223.409 284.711 223.409 287.153 223.409ZM13.9104 281.088C13.9104 278.839 14.0393 276.609 13.8635 274.402C13.7522 273.005 12.3889 272.121 10.9943 272.138C9.5646 272.158 8.22864 273.117 8.12708 274.552C7.97669 276.703 8.08802 278.873 8.08802 281.086C10.0392 281.088 11.9123 281.088 13.9104 281.088ZM360.984 281.14C362.744 281.14 364.39 281.14 366.037 281.14C366.199 281.14 366.439 281.203 366.508 281.121C366.699 280.892 366.945 280.607 366.951 280.338C366.99 278.619 366.988 276.898 366.965 275.177C366.941 273.46 365.703 272.189 364.055 272.14C362.457 272.091 361.08 273.261 361.006 274.925C360.916 276.929 360.984 278.941 360.984 281.14ZM147.2 230.679C147.2 228.684 147.268 226.768 147.176 224.858C147.114 223.546 145.909 222.569 144.584 222.532C143.211 222.495 141.934 223.44 141.856 224.802C141.744 226.737 141.828 228.684 141.828 230.677C143.625 230.679 145.338 230.679 147.2 230.679ZM233.197 230.686C233.197 228.718 233.244 226.864 233.181 225.016C233.135 223.632 232.009 222.602 230.634 222.534C229.308 222.467 227.978 223.344 227.886 224.653C227.746 226.647 227.849 228.659 227.849 230.688C229.65 230.686 231.365 230.686 233.197 230.686ZM102.205 223.415C102.205 219.702 102.205 216.059 102.205 212.409C100.25 212.588 98.7945 213.647 98.7047 215.301C98.5562 217.983 98.6656 220.678 98.6656 223.415C99.8629 223.415 100.99 223.415 102.205 223.415ZM276.356 223.407C276.356 220.704 276.452 218.042 276.323 215.389C276.237 213.647 274.549 212.385 272.766 212.471C272.766 216.096 272.766 219.723 272.766 223.407C273.973 223.407 275.123 223.407 276.356 223.407ZM84.3626 223.413C84.3626 220.721 84.4466 218.092 84.3334 215.471C84.2572 213.706 82.4954 212.342 80.7708 212.493C80.7708 216.114 80.7708 219.739 80.7708 223.413C81.9603 223.413 83.0872 223.413 84.3626 223.413ZM294.206 223.415C294.206 219.7 294.206 216.059 294.206 212.411C292.282 212.581 290.799 213.663 290.708 215.307C290.557 217.985 290.667 220.68 290.667 223.415C291.866 223.415 292.993 223.415 294.206 223.415ZM19.7718 272.234C18.2581 272.238 16.9807 273.144 16.8967 274.523C16.7678 276.683 16.8616 278.855 16.8616 281.082C17.8694 281.082 18.7952 281.082 19.7698 281.082C19.7718 278.095 19.7718 275.164 19.7718 272.234ZM355.23 272.253C355.23 275.183 355.23 278.115 355.23 281.136C356.082 281.136 356.861 281.177 357.631 281.109C357.832 281.091 358.158 280.74 358.162 280.535C358.199 278.617 358.236 276.697 358.158 274.783C358.095 273.271 356.783 272.185 355.23 272.253ZM67.9718 246.786C67.9698 246.786 67.9679 246.786 67.9659 246.786C67.9659 247.468 67.921 248.155 67.9913 248.829C68.0147 249.044 68.3351 249.386 68.5343 249.396C69.5695 249.452 70.6124 249.446 71.6496 249.402C71.8507 249.392 72.2082 249.114 72.2121 248.954C72.2433 247.526 72.2941 246.091 72.1671 244.673C72.0695 243.573 71.0285 242.894 69.9093 242.974C68.839 243.05 68.0421 243.837 67.9776 244.933C67.9425 245.552 67.9718 246.171 67.9718 246.786ZM302.77 246.907C302.768 246.907 302.764 246.907 302.763 246.907C302.763 247.525 302.784 248.142 302.757 248.759C302.733 249.275 302.958 249.444 303.45 249.433C304.425 249.411 305.399 249.409 306.372 249.433C306.882 249.444 307.058 249.234 307.05 248.739C307.03 247.538 307.059 246.337 307.038 245.136C307.017 243.87 306.19 243.009 305.005 242.974C303.765 242.937 302.858 243.769 302.778 245.058C302.739 245.671 302.77 246.29 302.77 246.907ZM2.32816 272.173C2.32816 275.173 2.32816 278.107 2.32816 281.072C3.32622 281.072 4.24811 281.072 5.26571 281.072C5.26571 279.064 5.28133 277.121 5.25985 275.179C5.24227 273.453 4.22272 272.39 2.32816 272.173ZM372.695 272.175C370.801 272.376 369.779 273.449 369.744 275.169C369.728 275.949 369.74 276.73 369.74 277.509C369.74 278.699 369.74 279.888 369.74 281.06C370.82 281.06 371.744 281.06 372.695 281.06C372.695 278.07 372.695 275.158 372.695 272.175ZM152.444 222.587C150.973 222.725 149.922 223.464 149.856 224.639C149.743 226.637 149.825 228.645 149.825 230.673C150.737 230.673 151.563 230.673 152.444 230.673C152.444 227.96 152.444 225.309 152.444 222.587ZM222.58 222.557C222.58 225.309 222.58 227.985 222.58 230.667C223.482 230.667 224.312 230.667 225.222 230.667C225.222 228.854 225.234 227.104 225.218 225.354C225.207 223.712 224.388 222.815 222.58 222.557ZM139.248 230.686C139.248 228.72 139.305 226.866 139.231 225.018C139.172 223.567 138.049 222.61 136.578 222.606C136.578 225.29 136.578 227.973 136.578 230.686C137.473 230.686 138.307 230.686 139.248 230.686ZM238.441 222.585C237.045 222.643 235.941 223.382 235.849 224.655C235.707 226.647 235.812 228.657 235.812 230.647C236.74 230.647 237.596 230.647 238.443 230.647C238.441 227.907 238.441 225.247 238.441 222.585ZM76.3703 243.007C75.2297 243.017 74.425 243.544 74.3312 244.458C74.1652 246.073 74.2844 247.718 74.2844 249.423C74.8234 249.423 75.2863 249.491 75.7141 249.396C75.9641 249.339 76.3371 249.027 76.343 248.819C76.3899 246.917 76.3703 245.011 76.3703 243.007ZM298.641 243.05C298.641 245.017 298.63 246.982 298.663 248.946C298.665 249.107 298.948 249.38 299.122 249.4C299.651 249.46 300.19 249.421 300.782 249.421C300.782 247.782 300.833 246.296 300.764 244.814C300.716 243.726 299.907 243.091 298.641 243.05ZM63.8584 249.425C64.4346 249.425 64.9014 249.495 65.3291 249.398C65.5772 249.341 65.9405 249.025 65.9502 248.812C66.0069 247.513 66.0225 246.206 65.962 244.907C65.9073 243.704 64.9209 242.931 63.8584 243.157C63.8584 245.198 63.8584 247.239 63.8584 249.425ZM311.196 243.03C309.874 243.13 309.097 243.778 309.046 244.866C308.983 246.198 309.018 247.534 309.032 248.868C309.04 249.71 309.708 249.398 310.12 249.405C310.536 249.413 311.192 249.689 311.194 248.851C311.202 246.937 311.196 245.023 311.196 243.03Z" fill="#524187"/>
</g>
<defs>
<linearGradient id="paint0_linear_16_745" x1="188" y1="58" x2="297" y2="246" gradientUnits="userSpaceOnUse">
<stop stop-color="#7C85D7"/>
<stop offset="0.405" stop-color="#A593D7" stop-opacity="0.85"/>
<stop offset="1" stop-color="#DDCCC8"/>
</linearGradient>
<linearGradient id="paint1_linear_16_745" x1="331.5" y1="167" x2="331.5" y2="202" gradientUnits="userSpaceOnUse">
<stop stop-color="#FFF7CC"/>
<stop offset="1" stop-color="#FFDFCD"/>
</linearGradient>
<clipPath id="clip0_16_745">
<path d="M0 0H375V244C375 299.228 330.228 344 275 344H100C44.7715 344 0 299.228 0 244V0Z" fill="white"/>
</clipPath>
<clipPath id="clip1_16_745">
<rect width="894.63" height="180.604" fill="white" transform="translate(-371 -5)"/>
</clipPath>
<clipPath id="clip2_16_745">
<rect width="123.738" height="57.5772" fill="white" transform="translate(76 110)"/>
</clipPath>
<clipPath id="clip3_16_745">
<rect width="448" height="162" fill="white" transform="translate(-7 201)"/>
</clipPath>
</defs>
</svg>
