<svg width="24" height="24" viewBox="0 0 24 24" fill="none" xmlns="http://www.w3.org/2000/svg">
<g id="Frame" clip-path="url(#clip0_18_1469)">
<g id="Group">
<path id="Vector" d="M16.0339 21.42C15.6763 22.1891 15.107 22.8404 14.3925 23.2973C13.678 23.7543 12.848 23.9981 11.9999 24C10.8987 23.9987 9.83711 23.5889 9.02062 22.85C8.20413 22.1111 7.69076 21.0956 7.57985 20H6.05085C5.29423 20.002 4.54696 19.8329 3.86487 19.5055C3.18278 19.178 2.58351 18.7007 2.11185 18.109C1.63751 17.5201 1.30208 16.8317 1.1305 16.0952C0.958926 15.3587 0.955627 14.593 1.12085 13.855L2.44385 8.74904C2.51042 8.49231 2.67625 8.27254 2.90485 8.13808C3.13346 8.00362 3.40612 7.96547 3.66285 8.03204C3.91958 8.09861 4.13935 8.26444 4.27381 8.49305C4.40828 8.72165 4.44642 8.99431 4.37985 9.25104L3.06585 14.322C2.97113 14.7632 2.97649 15.2201 3.08153 15.6589C3.18657 16.0978 3.38863 16.5075 3.67285 16.858C3.9578 17.2153 4.31975 17.5035 4.73169 17.7012C5.14363 17.899 5.59491 18.0011 6.05185 18H13.0009C13.2661 18 13.5204 18.1054 13.708 18.2929C13.8955 18.4805 14.0009 18.7348 14.0009 19C14.0009 19.2653 13.8955 19.5196 13.708 19.7072C13.5204 19.8947 13.2661 20 13.0009 20H9.59985C9.7039 20.5611 10.0009 21.0682 10.4393 21.4334C10.8778 21.7987 11.4302 21.9991 12.0009 22C12.9499 22 13.8209 21.443 14.2199 20.58C14.3323 20.3411 14.5348 20.1564 14.783 20.0662C15.0311 19.976 15.3049 19.9876 15.5446 20.0985C15.7842 20.2094 15.9703 20.4106 16.0621 20.6582C16.154 20.9058 16.1432 21.1797 16.0339 21.42ZM23.7069 23.707C23.6142 23.8002 23.504 23.8742 23.3827 23.9246C23.2614 23.9751 23.1313 24.0011 22.9999 24.0011C22.8684 24.0011 22.7383 23.9751 22.617 23.9246C22.4957 23.8742 22.3855 23.8002 22.2929 23.707L0.292849 1.70704C0.200004 1.6142 0.126356 1.50397 0.076109 1.38267C0.0258619 1.26136 1.38349e-09 1.13134 0 1.00004C-1.38349e-09 0.86874 0.0258619 0.738723 0.076109 0.617416C0.126356 0.496109 0.200004 0.385886 0.292849 0.293041C0.385694 0.200197 0.495916 0.126549 0.617223 0.0763014C0.738531 0.0260543 0.868547 0.000192442 0.999849 0.000192444C1.13115 0.000192445 1.26117 0.0260543 1.38247 0.0763014C1.50378 0.126549 1.614 0.200197 1.70685 0.293041L4.77185 3.35804C5.65699 2.30289 6.76322 1.45518 8.01226 0.874895C9.2613 0.294615 10.6226 -0.0040486 11.9999 4.14473e-05C14.0587 0.00462587 16.0598 0.681208 17.6991 1.92697C19.3383 3.17274 20.5261 4.91958 21.0819 6.90204L22.8189 13.616C23.0267 14.3633 23.0582 15.1485 22.9109 15.91C22.7636 16.6714 22.4414 17.3883 21.9699 18.004C21.6036 18.4876 21.1534 18.9015 20.6409 19.226L23.7069 22.292C23.7998 22.3848 23.8735 22.495 23.9238 22.6164C23.9742 22.7377 24.0001 22.8677 24.0001 22.999C24.0001 23.1304 23.9742 23.2604 23.9238 23.3817C23.8735 23.5031 23.7998 23.6133 23.7069 23.706V23.707ZM6.19385 4.78004L19.1649 17.751C19.6441 17.543 20.0613 17.2143 20.3759 16.797C20.6618 16.4235 20.8569 15.9884 20.9456 15.5264C21.0343 15.0643 21.0142 14.588 20.8869 14.135L19.1509 7.42104C18.2659 4.23704 15.3239 2.00104 12.0009 2.00104C10.8862 1.99708 9.78501 2.24506 8.77963 2.72645C7.77425 3.20784 6.89065 3.91019 6.19485 4.78104L6.19385 4.78004Z" fill="#6849FF"/>
</g>
</g>
<defs>
<clipPath id="clip0_18_1469">
<rect width="24" height="24" fill="white"/>
</clipPath>
</defs>
</svg>
